<svg viewBox="0 0 917.5833129882812 400" xmlns="http://www.w3.org/2000/svg"><g><g><g><g><g><line x1="49.98400115966797" y1="378.57999897003174" x2="44.98400115966797" y2="378.57999897003174" style="visibility: inherit;" fill="rgb(0, 0, 0)" stroke="rgb(204, 204, 204)" stroke-width="1px"></line><line x1="49.98400115966797" y1="349.4584605877216" x2="44.98400115966797" y2="349.4584605877216" style="visibility: inherit;" fill="rgb(0, 0, 0)" stroke="rgb(204, 204, 204)" stroke-width="1px"></line><line x1="49.98400115966797" y1="320.3369222054115" x2="44.98400115966797" y2="320.3369222054115" style="visibility: inherit;" fill="rgb(0, 0, 0)" stroke="rgb(204, 204, 204)" stroke-width="1px"></line><line x1="49.98400115966797" y1="291.2153838231013" x2="44.98400115966797" y2="291.2153838231013" style="visibility: inherit;" fill="rgb(0, 0, 0)" stroke="rgb(204, 204, 204)" stroke-width="1px"></line><line x1="49.98400115966797" y1="262.0938454407912" x2="44.98400115966797" y2="262.0938454407912" style="visibility: inherit;" fill="rgb(0, 0, 0)" stroke="rgb(204, 204, 204)" stroke-width="1px"></line><line x1="49.98400115966797" y1="232.97230705848108" x2="44.98400115966797" y2="232.97230705848108" style="visibility: inherit;" fill="rgb(0, 0, 0)" stroke="rgb(204, 204, 204)" stroke-width="1px"></line><line x1="49.98400115966797" y1="203.85076867617096" x2="44.98400115966797" y2="203.85076867617096" style="visibility: inherit;" fill="rgb(0, 0, 0)" stroke="rgb(204, 204, 204)" stroke-width="1px"></line><line x1="49.98400115966797" y1="174.7292302938608" x2="44.98400115966797" y2="174.7292302938608" style="visibility: inherit;" fill="rgb(0, 0, 0)" stroke="rgb(204, 204, 204)" stroke-width="1px"></line><line x1="49.98400115966797" y1="145.6076919115507" x2="44.98400115966797" y2="145.6076919115507" style="visibility: inherit;" fill="rgb(0, 0, 0)" stroke="rgb(204, 204, 204)" stroke-width="1px"></line><line x1="49.98400115966797" y1="116.48615352924054" x2="44.98400115966797" y2="116.48615352924054" style="visibility: inherit;" fill="rgb(0, 0, 0)" stroke="rgb(204, 204, 204)" stroke-width="1px"></line><line x1="49.98400115966797" y1="87.36461514693042" x2="44.98400115966797" y2="87.36461514693042" style="visibility: inherit;" fill="rgb(0, 0, 0)" stroke="rgb(204, 204, 204)" stroke-width="1px"></line><line x1="49.98400115966797" y1="58.2430767646203" x2="44.98400115966797" y2="58.2430767646203" style="visibility: inherit;" fill="rgb(0, 0, 0)" stroke="rgb(204, 204, 204)" stroke-width="1px"></line><line x1="49.98400115966797" y1="29.12153838231012" x2="44.98400115966797" y2="29.12153838231012" style="visibility: inherit;" fill="rgb(0, 0, 0)" stroke="rgb(204, 204, 204)" stroke-width="1px"></line><line x1="49.98400115966797" y1="0" x2="44.98400115966797" y2="0" style="visibility: inherit;" fill="rgb(0, 0, 0)" stroke="rgb(204, 204, 204)" stroke-width="1px"></line></g><g transform="translate(39.98400115966797, 0)"><text style="text-anchor: end; visibility: hidden; font-family: &quot;Helvetica Neue&quot;, sans-serif; font-size: 12px; font-weight: 200;" x="0" y="378.57999897003174" dx="0em" dy="0.3em" fill="rgb(50, 49, 63)" stroke="none" stroke-width="1px">-0.1</text><text style="text-anchor: end; visibility: inherit; font-family: &quot;Helvetica Neue&quot;, sans-serif; font-size: 12px; font-weight: 200;" x="0" y="349.4584605877216" dx="0em" dy="0.3em" fill="rgb(50, 49, 63)" stroke="none" stroke-width="1px">0</text><text style="text-anchor: end; visibility: inherit; font-family: &quot;Helvetica Neue&quot;, sans-serif; font-size: 12px; font-weight: 200;" x="0" y="320.3369222054115" dx="0em" dy="0.3em" fill="rgb(50, 49, 63)" stroke="none" stroke-width="1px">0.1</text><text style="text-anchor: end; visibility: inherit; font-family: &quot;Helvetica Neue&quot;, sans-serif; font-size: 12px; font-weight: 200;" x="0" y="291.2153838231013" dx="0em" dy="0.3em" fill="rgb(50, 49, 63)" stroke="none" stroke-width="1px">0.2</text><text style="text-anchor: end; visibility: inherit; font-family: &quot;Helvetica Neue&quot;, sans-serif; font-size: 12px; font-weight: 200;" x="0" y="262.0938454407912" dx="0em" dy="0.3em" fill="rgb(50, 49, 63)" stroke="none" stroke-width="1px">0.3</text><text style="text-anchor: end; visibility: inherit; font-family: &quot;Helvetica Neue&quot;, sans-serif; font-size: 12px; font-weight: 200;" x="0" y="232.97230705848108" dx="0em" dy="0.3em" fill="rgb(50, 49, 63)" stroke="none" stroke-width="1px">0.4</text><text style="text-anchor: end; visibility: inherit; font-family: &quot;Helvetica Neue&quot;, sans-serif; font-size: 12px; font-weight: 200;" x="0" y="203.85076867617096" dx="0em" dy="0.3em" fill="rgb(50, 49, 63)" stroke="none" stroke-width="1px">0.5</text><text style="text-anchor: end; visibility: inherit; font-family: &quot;Helvetica Neue&quot;, sans-serif; font-size: 12px; font-weight: 200;" x="0" y="174.7292302938608" dx="0em" dy="0.3em" fill="rgb(50, 49, 63)" stroke="none" stroke-width="1px">0.6</text><text style="text-anchor: end; visibility: inherit; font-family: &quot;Helvetica Neue&quot;, sans-serif; font-size: 12px; font-weight: 200;" x="0" y="145.6076919115507" dx="0em" dy="0.3em" fill="rgb(50, 49, 63)" stroke="none" stroke-width="1px">0.7</text><text style="text-anchor: end; visibility: inherit; font-family: &quot;Helvetica Neue&quot;, sans-serif; font-size: 12px; font-weight: 200;" x="0" y="116.48615352924054" dx="0em" dy="0.3em" fill="rgb(50, 49, 63)" stroke="none" stroke-width="1px">0.8</text><text style="text-anchor: end; visibility: inherit; font-family: &quot;Helvetica Neue&quot;, sans-serif; font-size: 12px; font-weight: 200;" x="0" y="87.36461514693042" dx="0em" dy="0.3em" fill="rgb(50, 49, 63)" stroke="none" stroke-width="1px">0.9</text><text style="text-anchor: end; visibility: inherit; font-family: &quot;Helvetica Neue&quot;, sans-serif; font-size: 12px; font-weight: 200;" x="0" y="58.2430767646203" dx="0em" dy="0.3em" fill="rgb(50, 49, 63)" stroke="none" stroke-width="1px">1</text><text style="text-anchor: end; visibility: inherit; font-family: &quot;Helvetica Neue&quot;, sans-serif; font-size: 12px; font-weight: 200;" x="0" y="29.12153838231012" dx="0em" dy="0.3em" fill="rgb(50, 49, 63)" stroke="none" stroke-width="1px">1.1</text><text style="text-anchor: end; visibility: hidden; font-family: &quot;Helvetica Neue&quot;, sans-serif; font-size: 12px; font-weight: 200;" x="0" y="0" dx="0em" dy="0.3em" fill="rgb(50, 49, 63)" stroke="none" stroke-width="1px">1.2</text></g><line x1="49.98400115966797" y1="0" x2="49.98400115966797" y2="378.57999897003174" fill="rgb(0, 0, 0)" stroke="rgb(204, 204, 204)" stroke-width="1px"></line></g></g><g transform="translate(49, 0)" clip-path="url(#clip_0)"><clipPath id="clip_0"><rect width="867" height="378"></rect></clipPath><g><g><g><line x1="0" y1="0" x2="0" y2="378.57999897003174" fill="rgb(0, 0, 0)" stroke="rgb(60, 60, 60)" stroke-width="1px" opacity="0.25"></line><line x1="78.872636258212" y1="0" x2="78.872636258212" y2="378.57999897003174" fill="rgb(0, 0, 0)" stroke="rgb(60, 60, 60)" stroke-width="1px" opacity="0.25"></line><line x1="157.745272516424" y1="0" x2="157.745272516424" y2="378.57999897003174" fill="rgb(0, 0, 0)" stroke="rgb(60, 60, 60)" stroke-width="1px" opacity="0.25"></line><line x1="236.617908774636" y1="0" x2="236.617908774636" y2="378.57999897003174" fill="rgb(0, 0, 0)" stroke="rgb(60, 60, 60)" stroke-width="1px" opacity="0.25"></line><line x1="315.490545032848" y1="0" x2="315.490545032848" y2="378.57999897003174" fill="rgb(0, 0, 0)" stroke="rgb(60, 60, 60)" stroke-width="1px" opacity="0.25"></line><line x1="394.36318129105996" y1="0" x2="394.36318129105996" y2="378.57999897003174" fill="rgb(0, 0, 0)" stroke="rgb(60, 60, 60)" stroke-width="1px" opacity="0.25"></line><line x1="473.235817549272" y1="0" x2="473.235817549272" y2="378.57999897003174" fill="rgb(0, 0, 0)" stroke="rgb(60, 60, 60)" stroke-width="1px" opacity="0.25"></line><line x1="552.108453807484" y1="0" x2="552.108453807484" y2="378.57999897003174" fill="rgb(0, 0, 0)" stroke="rgb(60, 60, 60)" stroke-width="1px" opacity="0.25"></line><line x1="630.981090065696" y1="0" x2="630.981090065696" y2="378.57999897003174" fill="rgb(0, 0, 0)" stroke="rgb(60, 60, 60)" stroke-width="1px" opacity="0.25"></line><line x1="709.8537263239081" y1="0" x2="709.8537263239081" y2="378.57999897003174" fill="rgb(0, 0, 0)" stroke="rgb(60, 60, 60)" stroke-width="1px" opacity="0.25"></line><line x1="788.7263625821199" y1="0" x2="788.7263625821199" y2="378.57999897003174" fill="rgb(0, 0, 0)" stroke="rgb(60, 60, 60)" stroke-width="1px" opacity="0.25"></line><line x1="867.598998840332" y1="0" x2="867.598998840332" y2="378.57999897003174" fill="rgb(0, 0, 0)" stroke="rgb(60, 60, 60)" stroke-width="1px" opacity="0.25"></line></g><g><line x1="0" y1="378.57999897003174" x2="867.598998840332" y2="378.57999897003174" fill="rgb(0, 0, 0)" stroke="rgb(60, 60, 60)" stroke-width="1px" opacity="0.25"></line><line x1="0" y1="349.4584605877216" x2="867.598998840332" y2="349.4584605877216" fill="rgb(0, 0, 0)" stroke="rgb(60, 60, 60)" stroke-width="1px" opacity="0.25"></line><line x1="0" y1="320.3369222054115" x2="867.598998840332" y2="320.3369222054115" fill="rgb(0, 0, 0)" stroke="rgb(60, 60, 60)" stroke-width="1px" opacity="0.25"></line><line x1="0" y1="291.2153838231013" x2="867.598998840332" y2="291.2153838231013" fill="rgb(0, 0, 0)" stroke="rgb(60, 60, 60)" stroke-width="1px" opacity="0.25"></line><line x1="0" y1="262.0938454407912" x2="867.598998840332" y2="262.0938454407912" fill="rgb(0, 0, 0)" stroke="rgb(60, 60, 60)" stroke-width="1px" opacity="0.25"></line><line x1="0" y1="232.97230705848108" x2="867.598998840332" y2="232.97230705848108" fill="rgb(0, 0, 0)" stroke="rgb(60, 60, 60)" stroke-width="1px" opacity="0.25"></line><line x1="0" y1="203.85076867617096" x2="867.598998840332" y2="203.85076867617096" fill="rgb(0, 0, 0)" stroke="rgb(60, 60, 60)" stroke-width="1px" opacity="0.25"></line><line x1="0" y1="174.7292302938608" x2="867.598998840332" y2="174.7292302938608" fill="rgb(0, 0, 0)" stroke="rgb(60, 60, 60)" stroke-width="1px" opacity="0.25"></line><line x1="0" y1="145.6076919115507" x2="867.598998840332" y2="145.6076919115507" fill="rgb(0, 0, 0)" stroke="rgb(60, 60, 60)" stroke-width="1px" opacity="0.25"></line><line x1="0" y1="116.48615352924054" x2="867.598998840332" y2="116.48615352924054" fill="rgb(0, 0, 0)" stroke="rgb(60, 60, 60)" stroke-width="1px" opacity="0.25"></line><line x1="0" y1="87.36461514693042" x2="867.598998840332" y2="87.36461514693042" fill="rgb(0, 0, 0)" stroke="rgb(60, 60, 60)" stroke-width="1px" opacity="0.25"></line><line x1="0" y1="58.2430767646203" x2="867.598998840332" y2="58.2430767646203" fill="rgb(0, 0, 0)" stroke="rgb(60, 60, 60)" stroke-width="1px" opacity="0.25"></line><line x1="0" y1="29.12153838231012" x2="867.598998840332" y2="29.12153838231012" fill="rgb(0, 0, 0)" stroke="rgb(60, 60, 60)" stroke-width="1px" opacity="0.25"></line><line x1="0" y1="0" x2="867.598998840332" y2="0" fill="rgb(0, 0, 0)" stroke="rgb(60, 60, 60)" stroke-width="1px" opacity="0.25"></line></g></g></g><g><g><line x1="0" y1="349.4584605877216" x2="867.598998840332" y2="349.4584605877216" fill="rgb(0, 0, 0)" stroke="rgb(153, 153, 153)" stroke-width="1.5px"></line></g></g><g><g><line x1="78.872636258212" y1="0" x2="78.872636258212" y2="378.57999897003174" fill="rgb(0, 0, 0)" stroke="rgb(153, 153, 153)" stroke-width="1.5px"></line></g></g><g><g><g><g><g><path style="fill: none;" stroke="rgb(0, 119, 187)" stroke-width="2px" d="M79.55094093003262,349.4584605877216L79.59826451178755,349.4584605877216L80.00840222033025,349.4584605877216L80.37121634711804,349.4584605877216L81.52275683648791,349.4584605877216L82.50077752608975,349.4584605877216L82.57965016234797,349.4584605877216L82.91091523463245,349.10764544804084L83.19485672516203,349.1571282351891L83.7469651789695,349.196481192081L83.77851423347279,349.2284685788781L83.90471045148593,349.25493337317334L86.36553670274215,349.27715160550673L87.34355739234397,348.8221297980973L88.0218620641646,348.8856619243432L88.13228375492608,348.72205457296343L88.88946106300492,348.79042884719235L89.09452991727628,348.4410969116405L89.4731185713157,348.3311082581953L90.15142324313632,348.0394952245385L90.27761946114946,348.1575282037353L91.05057129647993,347.33767908904576L91.27141467800293,346.4181416453159L91.53958164128085,346.2999387274449L91.63422880479071,346.19284032962344L92.07591556783669,345.40621447628234L94.20547674680842,344.5199107969948L94.88378141862903,344.21342572055306L95.70405683571444,343.9330541693724L96.30348887127685,343.6760834260688L97.50235294240167,342.79306093623416L98.78008964978471,340.53964605512516L99.64768864862505,339.574996029907L99.69501223037996,339.15726009162995L99.91585561190296,338.6155217573341L99.97895372090953,338.57926830555954L100.73613102898837,337.7769142020587L100.84655271974987,336.88092405895316L101.54063191882213,336.3538399342503L102.0138677363714,336.1666477536939L102.91301578971502,336.4432685313525L103.37047708001265,334.30983145672735L103.62286951603892,332.028337478577L103.8752619520652,330.0533062939689L105.56313636799095,328.5092454906893L105.98904860378529,327.8052750785182L106.24144103981156,327.0027207792844L106.2887646215665,326.69198550002994L106.98284382063876,326.40208263857716L107.97663903749223,326.8565802763061L108.32367863702837,327.2809458142111L108.49719843679642,326.81182540752167L109.12817952686213,325.6539855646641L109.39634649014005,323.27959524765834L109.6014153444114,321.20300894641866L111.00534826980758,321.11997477453986L111.95181990490612,317.61675784865315L113.38730188480557,316.61874649974743L113.57659621182529,317.2495326803943L114.08138108387784,317.1297997976758L114.17602824738769,317.8686994169699L114.49151879242054,318.5606076893868L114.57039142867875,319.35008988733057L115.28024515500266,316.1332534218093L116.57375638963732,314.5309583914039L117.31515917046453,312.3246422419072L117.58332613374245,310.6796472293114L117.61487518824573,308.71571396249965L117.69374782450394,307.2966693920707L118.088111005795,305.8258980630021L118.10388553304665,304.30660038083715L118.29317986006636,304.4252768410262L118.37205249632457,305.23755748785857L118.8295137866222,304.7383011482736L119.06613169539683,303.14982391038524L119.1607788589067,302.77955901143133L121.24301645612347,299.7745037054854L122.1106154549638,296.81575631750474L125.69143314108663,296.1363493513949L126.81142457595325,296.4767837042691L126.85874815770819,297.07545852165197L127.77367073830344,295.26426946998527L128.75169142790529,293.4252644933881L129.8401338082686,293.0944937361923L130.0609771897916,290.9713201313769L130.09252624429487,290.37289737025174L130.1083007715465,290.090027060917L131.0232233521418,289.8245524815941L133.78376562117919,287.2073538011815L135.96065038190585,286.83992765634827L135.99219943640912,286.0773589670966L136.78092579899126,285.2223936377132L137.90091723385788,285.25498197622187L138.72119265094327,284.7289418675929L139.05245772322775,285.0699649026534L139.16287941398923,285.1118574097066L140.850753829915,282.7866069076532L141.29244059296096,280.74288537202733L141.73412735600695,278.96339423333336L142.55440277309236,277.8490236781313L143.5324234626942,275.9687326746111L145.07832713335515,277.5397361027369L145.56733747815605,274.7057624381393L145.6462101144143,271.7672107193631L146.9870449308039,269.4253197588446L147.01859398530715,268.0604079863675L148.29633069269022,266.50106540721737L149.74758719984132,263.6476876446885L150.01575416311923,264.30301494036104L150.3470192354037,264.5015286326079L152.4608058871238,261.35405193383446L152.52390399613037,259.09343029748925L152.6501002141435,257.52652105541944L154.41684726632747,256.61089899381653L154.63769064785046,254.36239137836108L155.23712268341288,253.22336635887027L155.42641701043257,252.57052383588885L156.08894715500153,252.51301350911268L157.30358575337803,253.01445503080538L158.54977340625777,249.0419096410682L158.58132246076104,246.42274204606304L159.43314693234973,246.18504134401297L159.87483369539572,245.82301075479256L161.53115905681815,245.76076056168515L162.950866509466,247.92367872082707L163.20325894549228,248.14974146709656L163.42410232701528,249.3338092636585L164.38634848936545,246.2808110203353L166.4212625048273,245.08004421462718L168.47195104754084,245.20195678844928L169.16603024661308,245.5940662157405L170.5068650630027,242.63064751966357L170.82235560803554,241.65267183656348L171.39023858909468,241.70606698301313L171.5006602798562,241.20096099891896L172.0685432609153,240.7266786761618L172.3998083331998,238.47684327631558L173.37782902280162,236.91951888448986L173.69331956783446,235.1796136994279L175.44429209276677,236.32193564743645L175.6020373652832,236.14534006230656L176.6904797456465,233.20350840392413L176.89554859991787,231.82916873396707L176.99019576342772,230.6774822485659L177.19526461769908,228.76327984930944L178.0944126710427,228.07624048479832L178.45722679783046,227.84750574980498L178.53609943408867,226.79995744544837L179.4667965419356,226.9266732907036L181.7383284661721,225.1025512737538L182.59015293776076,221.16903495760474L183.04761422805842,220.945299038446L183.89943869964708,220.8740043188409L184.51464526246116,219.9743137374609L184.5619688442161,220.1010434854539L184.7512631712358,218.41577333732226L185.2402735160367,217.6660520667877L186.88082435020752,217.93359127037127L187.00702056822064,218.18480906381444L187.2436384769953,219.25343045787068L188.7737676204046,216.37080091234955L189.1839053289473,216.02341297893764L189.53094492848345,215.00328127431908L190.98220143563455,214.87810321325424L191.10839765364767,214.34420164544304L191.755153270965,213.9816563810244L193.2064097781161,215.7230192929487L194.21597952222123,215.97029464892108L194.97315683030007,215.09220014566912L195.33597095708782,213.85131551840192L195.63568697486906,212.6861281631765L196.40863881019953,213.53501142634542L196.56638408271593,213.4994012791513L196.6137076644709,211.9393310209046L196.8503255732455,211.72348982743682L197.37088497254973,212.35352222687277L200.14720176883876,211.8348467318301L200.24184893234863,211.20902710956156L201.29874225820868,208.95597420303443L201.74042902125464,208.36698492513332L201.8981742937711,208.507844317497L202.45028274757857,207.94619208945966L204.01196094549115,207.69636877561982L204.94265805333808,208.84962125749237L205.49476650714556,210.76522535675295L206.12574759721124,207.84533748204137L207.92404370389846,206.90774987578635L208.47615215770594,205.4722226138292L208.57079932121582,204.95696341540304L209.65924170157913,205.16705154445538L210.3533209006514,206.19702313406125L210.81078219094903,206.609033264035L210.88965482720724,207.27347663533203L211.03162557247202,208.31373761125596L212.45133302511985,207.90271225327976L212.49865660687476,206.26771320403773L212.94034336992075,204.17731833201384L213.09808864243718,202.35322143492047L214.01301122303244,200.08526394058552L214.56511967683994,199.48226368338166L215.10145360339575,199.3323950136018L216.0479252384943,199.19166838948573L218.00396661769796,195.45117532848292L218.93466372554485,192.6327670922279L219.34480143408757,192.34558815389357L219.39212501584248,191.10444862323564L219.723390088127,191.46562794582022L219.8338117788885,191.1108621477586L220.74873435948373,192.02678055139384L220.84338152299358,191.9153496362204L221.7267550490856,194.30880226146203L224.42419920911644,194.47451548444323L224.96053313567225,192.8259471450512L225.84390666176427,192.66576704384227L226.34869153381683,193.6256180805219L227.35826127792188,194.66570055760477L227.72107540470967,194.39329540582224L228.2416348040139,195.10898439339266L229.48782245689364,195.5034513104585L229.59824414765512,196.98411542435483L229.80331300192648,198.65202377288148L230.74978463702502,197.16497563356333L231.2230204545743,195.35229025289138L231.5858345813621,196.2870451351241L231.86977607189164,196.33208530893663L234.15708252337976,194.98655379278708L235.1666522674849,195.24970640213834L237.5486058824829,193.55385290575924L237.9587435910256,193.07170585171252L239.28380388016356,194.70070584488613L240.98745282334096,195.67520714429816L241.09787451410244,195.89635183575098L242.88039609353805,193.32835887505794L242.927719675293,190.50066645361258L243.25898474757744,188.95572247364274L244.18968185542437,186.39476110142698L244.34742712794076,185.51662463259234L244.86798652724497,184.41448977353036L246.20882134363458,184.7674089019273L246.6978316884355,185.09879995125547L246.95022412446176,185.40997613578534L247.2183910877397,187.0899942139054L247.8493721778054,187.97361932612608L248.57500043138097,186.86039022795495L248.5907749586326,186.09263285143007L248.93781455816872,183.70632040264977L249.4899230119762,182.5758319140364L249.90006072051892,181.51430324691904L250.04203146578368,180.65631020241784L250.8623068828691,181.37726061830642L250.90963046462403,180.52762719115555L251.44596439117984,179.59103906759984L251.50906250018642,180.93210040524033L251.8718766269742,180.52596881585993L251.96652379048405,180.6997406437684L251.99807284498735,181.41804176920573L252.62905393505307,181.95374417299163L252.7237010985629,181.62407466221907L253.00764258909246,182.84112076703695L254.0172123331976,184.26149173188128L254.31692835097877,182.81957322392964L254.45889909624356,180.63291771196833L255.53156694935527,179.4123422460761L255.5631160038585,177.84987487358444L256.50958763895704,177.4929767362305L259.01773747196825,178.68445511435328L259.85378741630524,180.08081798053152L260.16927796133814,180.5593086761006L260.658288306139,180.8698290990557L260.80025905140377,179.21845505469463L261.06842601468173,176.55755614092L261.33659297795964,174.1977544096481L262.63010421259435,174.89632965317497L262.99291833938213,174.58081545306118L263.2137617209051,172.06403025118254L264.38107673752666,171.36615697946735L266.17937284421384,172.79258900580245L267.6937274603715,173.99322633915955L267.77260009662973,173.45523677599328L268.3404830776889,173.22762924655314L268.82949342248975,173.43025277974542L270.3596225658991,173.898080945053L270.7697602744418,174.8925009268102L270.83285838344835,175.96504362126672L271.0852508194746,176.972161209172L271.74778096404367,177.2239329549584L272.75735070814875,176.62765262378048L272.80467428990363,175.3738337277353L273.05706672593,173.91893312013525L274.57142134208766,173.52425778273286L275.40747128642465,173.9863516388341L276.9060513753307,174.28147543630513L278.7674455910245,173.4483380200654L279.2091323540705,171.69454565877365L280.13982946191743,171.29677562639512L280.8812322427446,172.17231055870636L282.01699820486283,171.60661453520623L282.31671422264407,171.35299063434033L282.99501889446464,171.53118478849694L284.22543202009274,173.3638970858469L284.4935989833707,170.7825616342721L284.91951121916503,169.33016397192392L285.25077629144954,167.82758023585626L285.44007061846924,166.27787177658308L285.67668852724387,166.07173652215167L285.7397866362504,164.6291345307758L286.0079535995284,164.3847899169425L286.57583658058746,164.71047965219864L287.20681767065315,165.01630231345726L287.72737706995736,165.58103445588873L289.462575067638,167.63792358710907L290.2986250119751,169.2917778170287L290.36172312098165,169.31814128921178L290.6772136660145,167.26116161384726L291.9076267916426,168.10530433318755L292.57015693621156,166.95500170298342L293.37465782604534,165.59730287022845L293.7374719528331,164.877552993159L294.66816906068004,163.9241431955279L294.715492642435,163.44523839057248L295.7408369137917,165.21606408420539L296.1982982040893,166.8788694101745L296.7346321306452,163.99920900106295L297.2867405844527,161.71155487205135L297.90194714726675,161.64518261830514L299.3532036544178,161.86042373509483L299.700243253954,162.8952291328079L300.99375448858865,164.00569373262286L303.2179628310702,161.99520869883395L304.25908162967863,161.35640423571843L304.3695033204401,160.61778451344748L304.5114740657049,159.36909126843352L304.77964102898284,158.75169763734098L304.9689353560025,158.17196501780282L305.0635825195124,157.48881375665746L305.9942796273593,157.8188110426061L306.78300598994144,157.01841984257882L307.5244087707686,157.37711115727723L308.09229175182776,160.07322193603665L308.47088040586715,160.9394819800338L308.5182039876221,162.30802948697288L309.70129353149525,160.26231964194122L309.7959406950051,159.31287441744644L310.2691765125544,158.28256302028498L310.41114725781915,159.39683558946928L310.5688925303356,158.77774955506558L312.0201490374867,158.05764543738738L312.0359235647383,158.90807331626982L312.16211978275146,158.18001944918373L312.22521789175806,158.1902885249688L312.4933848550359,158.89384284407322L313.50295459914105,159.5544803496911L313.8026706169223,160.72994829298497L314.3390045434781,161.83371269170664L315.932231795894,159.67815384032386L316.92602701274745,159.45825438685256L317.651655266323,157.586380823519L318.34573446539525,156.9389501985948L318.6454504831765,156.33101284180353L319.7023438090365,157.98067696575944L320.6172663896318,158.4194529271497L320.98008051641955,156.1945992588416L322.9676709501265,154.52180865844323L322.9992200046298,153.50618761016787L323.50400487668236,153.3852134340578L323.99301522148323,153.68796567679274L324.92371232933016,154.2498146954495L327.179469726315,152.00174429665577L327.55805838035445,151.69497649995114L327.7000291256192,150.5742275506652L328.52030454270465,151.32601459501782L328.56762812445953,151.61559563557068L330.9495817394575,152.72020622081973L331.17042512098055,152.9247415721913L332.7794269006481,153.81071192393262L333.11069197293256,150.47916814339632L335.208704097401,149.15501884117452L336.34447005951927,147.77286031503627L336.6915096590554,145.6423194708446L336.9596766223333,144.05808861223625L337.68530487590886,144.51344847503026L338.2216388024647,142.5817317531021L339.24698307382147,140.62906741986197L340.50894525395285,139.21186260503012L340.58781789021106,137.325977958479L341.7078093250777,136.66539092623094L342.2756923061368,136.18388203430908L343.04864414146726,134.62148653394283L344.0266648310691,134.54222047266785L344.04243935832073,134.19022497841834L344.5787732848766,134.41483053474317L344.7996166663996,133.65425883264052L345.4621468109686,132.38495267894507L348.09649286199283,130.6379448752055L348.58550320679376,129.13628687885293L349.1218371333496,127.72623002028078L350.2418285682162,127.65122761228031L350.825486076527,127.0256710257479L351.34604547583115,125.6055794028654L351.6299869663607,124.54967803169052L351.661536020864,122.8642749873851L352.0243501476518,121.4204638601392L352.04012467490344,120.20350754301154L352.0558992021551,118.5056562358123L352.10322278391004,117.74406784648022L352.4029388016912,116.61258935483528L352.9550472554987,116.66038970201566L353.44405760029963,116.56649189666376L354.0592641631137,116.89466885150085L354.21700943563013,115.81500369855195L355.62094236102627,114.52363345722574L355.84178574254923,115.25398943957674L356.2992470328469,115.24588205023429L356.42544325086004,115.51583387434943L356.8829045411577,115.49175397448573L358.44458273907026,114.9140136230987L362.08849853419963,114.51029776450014L362.48286171549074,114.96390256139875L362.5301852972457,114.55714347756413L362.67215604251044,115.00789068596549L363.11384280555643,112.79427801893542L363.66595125936385,111.54838971271647L363.8552455863836,109.54580660505593L364.86481533048874,108.91442204914529L366.99437650946044,108.32155195114535L367.84620098104915,108.73632324859813L369.9442131055176,107.87675251472484L369.9599876327692,106.79205093291102L372.16842144799915,106.4674278043554L374.0771392454479,106.4401713493487L374.18756093620937,106.96970686351108L376.1593768426647,105.24642340965482L376.9165541507435,105.15486589137151L377.9418984221002,104.93011105035015L378.24161443988146,104.85784858598441L378.68330120292745,104.09608247517826L379.03034080246357,104.07469575389808L379.3616058747481,103.36070196584939L380.43427372785976,102.96782646157834L381.2703236721968,101.48865771224132L382.18524625279207,100.23850058796728L382.87932545186436,99.89729703639398L383.33678674216196,99.57690690146666L386.25507428371577,99.96997222153652L386.49169219249046,100.61662521978855L386.53901577424534,100.11357373432094L386.8860553737815,100.47390237758657L386.98070253729134,100.67346864225965L387.73787984537023,100.02816737666808L388.70012600772037,99.56101181963089L388.9209693892434,98.7060057575132L389.0944891890114,97.62559040247822L389.96208818785175,97.3049920408667L390.13560798761984,96.58760318525373L390.2302551511297,96.33032204389303L391.1609522589766,96.08873505215524L391.58686449477096,96.69457885503294L391.9496786215587,97.1246838545818L393.05389552917364,98.08368177457112L393.4009351287098,97.59635750790875L393.921494528014,96.44484836474663L394.18966149129193,96.19627526743687L394.3000831820534,94.71382414688384L394.9310642721191,94.8484081895702L395.2150057626487,95.52991193106556L395.30965292615855,94.92080296215067L395.3569765079135,94.07128497763313L396.5558405790383,93.55115225287761L396.5716151062899,93.4790946183918L397.31301788711716,93.82777949366937L397.80202823191803,93.87762992884853L398.2279404677124,93.50809249342211L398.2752640494673,94.13257316102926L398.3541366857255,95.13530750197191L399.2375102118175,96.3544397108235L399.4741281205921,94.86234055922415L399.6476479203602,94.15517111263847L400.42059975569066,93.76870366500083L401.31974780903425,93.26702840031595L402.0296015353582,93.2123023208365L402.67635715267556,93.29969686355838L402.8814260069469,92.27150168834868L402.89720053419853,91.99993807559275L403.24424013373465,91.88372217456816L403.32311276999286,92.32972476891894L403.49663256976095,91.77704488554184L405.24760509469326,92.22955479452321L405.57887016697777,90.98907362281824L406.66731254734106,90.37939112800012L406.714636129096,90.63959325348503L406.73041065634766,91.0227053806687L407.4875879644265,90.27218901726849L407.8661766184659,89.84501881474216L409.9484142156827,90.69294697674871L410.5793953057484,91.35036918951965L411.2103763958141,91.8289063159583L411.41544525008544,91.58434102091826L412.4250149941906,91.35469420887563L413.4503592655473,91.27783818372075L413.8131733923351,90.78932338204083L415.138233681473,90.60817264596972L415.18555726322796,89.88294277938616L415.2644298994862,90.450992916843L416.32132322534625,90.42926267050223L416.60526471587576,90.27007563783502L417.788354259749,89.56546968874761L418.403560822563,88.90384470255464L420.89593612832255,89.392837491345L421.5584662728915,89.43565472595952L421.5742408001431,90.16977176602859L422.59958507149986,89.61006668447465L422.6942322350098,90.0559799323679L423.10436994355246,90.19712780943325L423.43563501583697,90.05210100329128L423.5302821793468,90.05470316367712L425.40745092229224,90.19592892363261L426.0226574851063,90.46732224358396L429.3984063169578,90.99972523372475L429.79276949824884,89.97304599658167L429.99783835252015,89.28655885561085L430.42375058831453,88.7807297615924L430.534172279076,88.30575624230903L430.9127609331154,88.69245009582119L431.13360431463843,87.80651464209035L431.5752910776844,87.2521859137434L432.71105703980265,87.00923590053208L433.3735871843717,87.19745283218623L433.92569563817915,87.09662386830308L434.5093531464899,86.86316313986362L435.94483512638936,86.64394351585895L437.88510197834137,86.85444328297814L437.9955236691029,86.63575557024348L438.9893188859564,86.43040780798566L439.178613212976,86.65393325328506L440.5983206656239,87.00260597777452L440.64564424737875,86.49731567795084L442.9644997533702,86.16163041776963L443.0275978623768,85.98520428981266L443.7059025341974,85.26441083024832L443.8794223339655,84.86515043442375L443.9582949702237,85.46172124221698L444.03716760648194,85.3279895739687L444.5735015330377,84.92485087477718L444.7312468055541,85.51777995570876L445.14138451409684,85.93575803135036L445.8512382404208,85.63432778761182L446.2140523672086,85.6288494514477L447.0185532570423,86.04005228784916L447.39714191108175,86.7037364139365L447.696857928863,86.63302415156664L447.917701310386,86.01149601178844L448.43826070969016,85.70544575124313L450.2207822891257,85.55684688794435L450.99373412445624,85.41731255530675L452.2714708318393,85.7026368110196L452.4449906316073,86.38690328119361L452.76048117664016,87.16821182804011L453.91202166601005,86.09769024593749L454.81116971935364,86.06394679981548L456.49904413527946,86.30982636661338L458.723252477761,86.40192494848333L459.338459040575,87.04353484227204L459.7959203308727,86.95209487577364L460.41112689368674,86.17232109046569L461.1683042017656,85.16254884335513L461.92548150984436,84.63071969737786L461.95703056434763,84.4088967920116L462.0832267823608,83.78425808981314L462.5564625999101,83.75285167386153L462.9192767266979,83.58457871792979L464.0392681615645,83.98169973772269L466.263476504046,83.24433772448259L467.27304624815116,82.69073712540336L467.9986745017267,81.75455916880838L468.47191031927593,81.56939972433173L468.81894991881217,81.25675267461492L468.9451461368253,80.96317709493081L470.86963846152565,80.40994496290108L471.34287427907486,80.58437164769111L471.6899138786111,80.60937597335572L472.21047327791524,80.49407270380169L473.37778829453674,79.55310894557118L473.9929948573509,79.08589097065237L475.3496042009921,78.50839096085042L476.50114469036197,78.24368311435279L476.8955078716531,78.41146944055106L477.1005767259244,77.73632681273205L477.24254747118914,78.2126265360356L478.48873512406897,77.41083099403886L479.41943223191583,76.9355096428103L481.217728338603,76.21161823130035L481.45434624737766,75.80944885859878L482.7005339002575,75.43181181763214L484.0729177711503,74.52208131075156L485.47685069654653,73.94540902749713L486.0605082048573,73.12634909081481L486.61261665866476,73.05116346703613L487.7799316752863,73.25812882901437L489.4835806184637,73.03612230985232L489.73597305448993,72.5500935256527L490.0672381267745,71.95493016593616L490.20920887203926,71.95120109657506L490.4616013080655,71.39257017503223L491.45539652491897,71.28436273376315L491.4711710521706,71.59910294047097L491.6920144336936,71.33951466915687L493.6322812856456,70.6794142883333L493.80580108541363,70.19836236209323L495.3832538105779,70.30178392876661L496.440147136438,70.39889677987281L499.5950525867664,70.07373875300192L500.92011287590446,69.90719769712342L500.95166193040774,69.61203331430033L501.59841754772503,69.89000328424231L501.61419207497664,69.45710542925173L502.07165336527436,69.32817900612201L502.10320241977763,69.20711709480315L503.66488061769024,68.8158752973684L506.0310597054366,68.17093458687077L507.04062944954165,68.5368115791859L507.1352766130515,68.46402308091018L507.22992377656135,68.11811001832285L507.293021885568,67.65451532120017L507.3087964128196,67.35798223195519L508.4918859566928,67.21831999250736L509.1228670467584,67.36474181237224L509.9904660455988,66.9471025758125L511.88340931579586,66.55493933268298L512.009605533809,66.32548037873755L512.7667828418878,66.11001842098284L513.776352585993,65.90769964265104L513.823676167748,66.13406930385719L514.3126865125488,66.20784808437651L514.4704317850652,66.13834402793094L514.5808534758268,65.79551505622209L514.8647949663563,65.33481632043441L515.7639430196999,65.59613186429573L516.4580222187722,65.28637783456867L517.8146315624134,65.41186579471463L519.2501135423129,65.52969898929172L519.2816625968161,65.9179090217059L519.7864474688687,66.28243824214286L520.0703889593983,66.48594884877997L524.5345801716131,66.9546099711186L524.9447178801557,66.83955343958183L525.638797079228,67.28664468188151L526.5063960780684,67.15133403298819L527.4844167676703,66.74671267097091L527.6894856219416,66.5055555433899L529.1407421290926,66.41789133194453L529.5982034193903,66.61313930010374L530.2134099822043,66.38013014814567L531.2387542535611,66.30011688581021L534.6302776126641,66.36376676383043L535.876465265544,65.86840467387856L536.2866029740867,65.81960666547343L536.6336425736228,65.77378533558095L536.9333585914039,66.00832376951831L537.2488491364368,65.6734260335727L537.3277217726951,65.35895705951981L537.5801142087214,65.20245302423734L537.769408535741,65.33306039781348L538.0218009717673,65.17813605889518L538.4477132075617,65.03266210465074L539.5203810606733,64.89606206161528L540.4984017502752,65.04535928391135L540.6245979682883,65.18554937564738L543.7795034186169,65.17840554043431L543.8899251093783,65.72682680458206L544.031895854643,65.68666504620398L544.8206222172253,65.37138849238056L544.8679457989801,65.21412613969358L545.1992108712645,64.92767445916724L545.3885051982844,64.79747866250631L545.6882212160656,64.53644247808836L545.9879372338468,64.70767649497964L548.1332729400701,64.4521182427809L549.411009647453,64.35093137531948L549.4267841747048,64.11713457542004L549.9631181012606,64.1751640430208L550.2628341190418,63.952089050391635L550.9884623726174,63.74262163231276L552.1242283347357,63.68471405808998L552.2031009709939,63.90790350860112L552.6132386795366,63.70113140857143L553.3388669331122,63.784537069349994L553.5754848418867,63.724072653467886L554.8689960765214,64.36120822372055L555.5473007483421,64.26556686742185L555.9574384568848,64.45332429656378L556.1625073111561,64.62962852252798L556.604194074202,64.51761352800202L557.2824987460227,64.27364911678887L559.3647363432394,64.18334886601303L559.475158034001,64.51490392459402L559.5382561430075,64.82623412460168L561.1472579226752,65.53492017646835L561.7782390127408,65.64524705375845L563.2610445743952,65.74884399153376L563.4818879559182,65.42977452204525L563.7658294464478,65.2689506215487L564.4283595910167,64.84037231627605L565.9900377889293,64.57671961897819L568.7190310034634,64.46793206756877L569.5550809478005,64.50456288814854L571.432249690746,64.81652389137929L574.3032136505449,64.69310827935345L574.8868711588556,64.71600335101425L575.2181362311402,64.73750182330383L575.8017937394509,64.75768888878366L576.36967672051,64.63786221191612L578.8778265535211,64.38656263098426L579.2879642620638,64.42815698719556L579.9189453521295,64.3284317563249L580.6445736057051,64.23478976453731L581.6699178770618,64.14685993424877L581.7803395678234,64.20307615496097L581.9065357858365,63.8395161921502L582.6637130939154,63.498133387070936L582.8056838391801,63.8714865898674L583.7363809470271,63.80571825323369L583.9414498012984,64.02152644784104L586.2287562527865,64.08538801122415L586.4180505798062,64.00657168788774L586.9386099791104,64.07134549162794L587.6011401236793,63.854603430633745L588.6264843950361,64.20621196077292L589.7937994116577,64.25880770786716L590.5352021924848,64.3081951143887L591.103085173544,64.63213455181881L591.5605464638417,64.7975313522125L592.0180077541393,64.8140566164289L592.2230766084106,64.82957383952817L592.2704001901656,64.84414451201837L593.311518988774,65.13539103619308L593.3588425705289,65.13130685968673L594.0371472423495,64.98868948659413L594.81009907768,64.57720711055373L595.693472603772,64.60717215351133L597.7757102009887,64.21896233478896L597.8861318917502,64.2707803090683L597.9019064190019,64.31943738691655L598.0123281097634,64.50390871436929L599.4793591441661,64.12199796543462L599.6686534711858,63.90216610353809L599.8737223254572,63.834526316570475L599.9841440162187,63.49344789390159L601.7824401229059,63.45073991772176L601.8455382319125,63.68820179079535L602.2714504677069,63.494831495551864L602.3029995222101,63.174474456965015L603.3598928480701,62.873659197732024L603.7227069748579,62.86875833201856L604.8269238824729,63.28050341317328L604.9846691549893,63.25078505031797L605.2528361182673,63.222879507596815L605.3632578090287,63.05789387162844L605.4105813907837,62.90297235945411L605.8049445720748,62.7575010595225L607.9502802782981,62.759685840239854L609.4015367854493,63.039302012039855L609.5119584762108,62.885514603300464L610.9316659288585,62.87989055784732L611.0736366741232,62.597044916460504L611.262931001143,62.60901752190466L611.5626470189243,62.34269513571036L611.8308139822021,62.092618415073844L612.0674318909768,62.27414336845578L612.6826384537908,62.30581296832821L612.8719327808105,62.196768391255205L613.2662959621016,61.955593202030514L613.7395317796509,62.00669436205487L613.8499534704124,61.91589601996458L614.7648760510076,61.69185404538854L615.4905043045832,61.75904329396815L615.7902203223643,61.82213399838429L615.9006420131259,62.29772316389068L616.6262702667015,62.32795439624158L617.4465456837868,62.217559192065835L617.4938692655418,61.97511576399171L618.0459777193491,61.88624371638315L620.0493426803077,61.941575195032044L620.0966662620627,61.99353145348334L620.9169416791481,61.76475371746267L620.9327162063997,61.54993142333933L621.2639812786844,61.625777951863824L622.1315802775247,61.41943317944197L623.5039641484175,61.36445776949097L623.5197386756691,61.72918285360669L624.1191707112315,61.794095044884955L624.3557886200061,61.85504759249517L624.671279165039,61.773499703347966L624.8132499103039,61.69692623543875L624.9552206555686,61.48624141771887L625.4284564731179,61.42719070523299L626.2014083084483,61.649306748915194L627.0690073072888,61.71909138257962L627.5737921793412,61.507054490884116L627.9208317788774,61.44673418093515L629.0723722682472,61.3900934098931L631.4701004104969,61.19812539453147L632.2430522458275,61.156649759460095L632.8109352268865,61.11770413812809L633.7889559164884,61.08113419969732L635.0035945148649,61.32435969021719L635.0509180966197,61.69153075716861L636.2497821677446,61.758739726329566L636.581047240029,61.82184894837167L636.7072434580422,61.60354384516279L636.9123123123136,61.398555353249776L636.9438613668168,61.20607115934337L637.0385085303267,61.164110832618405L638.0480782744319,61.12471008582372L638.5844122009876,61.087712784583516L638.615961255491,61.05297231871896L638.6317357827426,61.15913335262536L639.9883451263838,60.98125390075705L640.0356687081387,60.95300742680587L640.4615809439331,61.06526631911896L643.1590251039639,61.17067741900098L643.2694467947255,61.269658441790114L644.3105655933339,61.08503695948275L644.389438229592,61.0504597189493L646.0299890637629,61.01799169008842L646.2981560270408,60.98750421098805L647.3550493529008,61.23644113081917L647.6705398979336,61.19262823583426L648.2541974062444,61.01270559609026L648.3172955152511,60.982540568723664L649.3584143138594,61.231780270733L650.1786897309447,61.188251688213256L650.4153076397195,61.00859601787408L650.6519255484941,60.8398993434256L650.9043179845203,60.8202754974717L651.1093868387917,60.80184870612089L651.6614952925992,60.923328280395765L651.9612113103805,60.89861526928661L652.0716330011419,61.0141920832084L655.7470978507746,60.84515404877453L656.6935694858731,60.68642733444108L657.1668053034224,60.53738294968201L657.4665213212036,60.53621260374638L658.8704542465997,60.81267831161932L659.4856608094138,60.79471494860553L659.5487589184204,60.639065019382485L659.6907296636851,60.49290973584198L659.785376827195,60.355669924597464L660.1797400084861,60.36558407319205L661.0788880618297,60.37489345872234L661.7571927336503,60.244852640382135L663.3819690405695,60.2615266433138L664.3442152029196,60.277183532066715L665.21181420176,60.15310301925251L665.7323736010642,60.17537374907312L667.4517970714933,60.47385062708105L667.546444235003,60.47655575282414L667.6884149802678,60.47909586589691L668.5402394518566,60.481481032072224L669.7233289957297,60.34493837175762L670.2596629222855,60.49428947642866L671.3954288844038,60.773312495067955L672.7835872825484,60.618968115510654L674.2979418987061,60.612821074459475L674.5976579164873,60.60704900291256L675.2759625883078,60.462846696376744L676.3644049686711,60.60500539324596L679.7559283277743,60.59971007825294L681.3491555801902,60.59473777747456L682.2167545790305,60.59006878704366L682.4533724878052,60.446902273675846L683.5418148681684,60.45125124897663L684.0781487947244,60.3165526054309L685.2454638113459,60.32885291049456L685.497856247372,60.340402896949456L685.6713760471403,60.21246600287736L686.2077099736961,60.2311155906969L687.4696721538274,60.24862755365939L688.4319183161776,60.40385361823439L688.4476928434293,60.27204623016394L688.6843107522038,60.287061424118974L689.3626154240245,60.43994302259597L689.6781059690574,60.30593418085948L690.356410640878,60.180099878468866L690.4352832771361,60.06194146852408L691.5710492392544,60.089773052939165L693.7952575817361,60.5322539047645L694.1580717085238,60.392614099215734L694.1738462357754,60.261492321805406L694.2211698175304,60.41593363552346L696.3191819419989,60.28338936639841L697.8335365581565,60.43649496039632L698.1490271031894,60.44147878180718L698.7642336660034,60.44615859011196L698.9377534657715,60.45055293011018L702.7394145334173,60.454679215368515L703.4177192052379,60.458553797226045L704.0644748225553,60.32340969823713L705.1686917301702,60.19650938928646L705.6103784932162,60.07734999918182L706.41487938305,60.24302399458003L707.9450085264592,60.12102721355245L708.0712047444724,60.00647223616761L708.4340188712603,60.0376874437564L708.5128915075184,60.06699852368229L708.7810584707963,59.95573929637948L709.5855593606301,59.851266881942195L710.1849913961925,59.89194961613879L713.1979261012563,59.79136837219613L713.4029949555276,59.69692258413403L714.5387609176458,59.608237989143674L716.1950862790682,59.663745485800916L717.5674701499612,59.71586702516208L717.7567644769808,59.62602681926904L718.2615493490334,59.5416668659355L718.7032361120794,59.878799863814834L720.0756199829723,60.05658541747033L720.2333652554887,60.22352605235284L720.3280124189986,60.241500977154374L720.3911105280051,60.11959710018982L720.8801208728061,60.005129359720115L720.9116699273093,60.17520881412537L721.1325133088322,60.47369575316509L721.2271604723421,60.61519265757033L722.3787009617121,60.470493588100396L725.3758611395241,60.75096815592764L726.2750091928677,60.5979867810579L726.3854308836293,60.45433727005519L727.6631675910123,60.45823271057685L727.9155600270385,60.32310819787352L728.0733052995549,60.33500861179823L728.3414722628329,60.2074007691204L729.4930127522027,60.22635933619904L729.9031504607455,60.105379099332765L729.9189249879971,59.99177865691536L731.0231418956121,60.02389017283849L732.0958097487238,59.91526055493722L732.3482021847501,59.95203967508104L733.3893209833584,59.84779293754298L734.1464982914373,59.749905250994686L734.3988907274636,59.65798871332589L734.8563520177612,59.71046141580803L735.2507151990523,60.037297946145145L735.5504312168334,60.06663278542533L735.6450783803433,59.955395868156245L737.82196314107,59.85094440284058L737.9481593590832,59.891646808262294L738.9577291031883,59.791084035600136L739.3836413389826,59.83543792342357L741.5132025179543,59.87708622408974L741.6236242087158,59.91619397841532L741.9075656992453,59.814133828373826L743.5323420061645,59.99586401019127L743.9109306602039,60.16650865091782L744.0055778237138,60.04917930585367L744.0686759327203,60.07778938219161L744.2895193142433,59.96587191251973L745.2675400038452,59.86078140849793L746.3402078569569,59.762101425221374L746.7661200927512,59.66944092092467L747.8072388913597,59.582432707390126L748.012307745631,59.639514326234405L748.5170926176836,59.97067862903549L748.8010341082131,59.86529491530621L748.9587793807295,59.905121939467506L749.290044453014,59.80373718380184L749.6844076343051,59.708536898231785L751.009467923443,59.75792616143468L752.113684831058,59.94308501093542L753.0286074116533,60.25573150196976L753.659588501719,60.13295956299146L754.0855007375133,60.017676712290836L754.5271875005593,59.90942611548297L755.5052081901612,59.9465611364335L756.1046402257235,59.981430921106096L756.6251996250278,59.87539131756051L756.8933665883056,59.77582012983112L757.5085731511198,59.82110511590645L761.3260087460171,59.72484538647802L761.5784011820434,59.91202216325104L763.8499331062799,60.08778115664103L764.6702085233653,60.1140365200809L765.3642877224377,59.99990797499788L765.9163961762451,59.89274127116488L766.3896319937944,60.069676398972035L766.7682206478338,59.95825382127657L767.1468093018732,59.853628020820565L767.2730055198863,60.0329490568987L767.4465253196544,60.20133150977608L767.462299846906,60.35944263302798L767.8408885009454,60.36912664640835L768.4087714820046,60.378219934972435L768.834683717799,60.38675853293415L768.8977818268055,60.53355860777339L769.1343997355801,60.53262154669426L769.5445374441229,60.39295931498776L769.7180572438909,60.53938114212173L769.8915770436589,60.676871237800526L770.4121364429632,60.66719210628969L771.7529712593528,60.519321070447916L772.3208542404119,60.38047016779234" fill="none"></path></g></g></g></g><g opacity="0.2"><g><g><g><path style="fill: none;" stroke="rgb(0, 119, 187)" stroke-width="2px" d="M79.55094093003262,349.4584605877216L79.59826451178755,349.4584605877216L80.00840222033025,349.4584605877216L80.37121634711804,349.4584605877216L81.52275683648791,349.4584605877216L82.50077752608975,349.4584605877216L82.57965016234797,349.4584605877216L82.91091523463245,347.18334040160363L83.19485672516203,349.4584605877216L83.7469651789695,349.4584605877216L83.77851423347279,349.4584605877216L83.90471045148593,349.4584605877216L86.36553670274215,349.4584605877216L87.34355739234397,344.90822021548564L88.0218620641646,349.4584605877216L88.13228375492608,347.18334040160363L88.88946106300492,349.4584605877216L89.09452991727628,344.90822021548564L89.4731185713157,347.18334040160363L90.15142324313632,344.90822021548564L90.27761946114946,349.4584605877216L91.05057129647993,338.08285965713173L91.27141467800293,335.80773947101375L91.53958164128085,344.90822021548564L91.63422880479071,344.90822021548564L92.07591556783669,335.80773947101375L94.20547674680842,333.53261928489576L94.88378141862903,340.35797984324967L95.70405683571444,340.35797984324967L96.30348887127685,340.35797984324967L97.50235294240167,331.25749909877777L98.78008964978471,310.78141742371594L99.64768864862505,326.7072587265418L99.69501223037996,333.53261928489576L99.91585561190296,331.25749909877777L99.97895372090953,338.08285965713173L100.73613102898837,326.7072587265418L100.84655271974987,324.4321385404238L101.54063191882213,328.9823789126598L102.0138677363714,333.53261928489576L102.91301578971502,340.35797984324967L103.37047708001265,303.95605686536203L103.62286951603892,299.40581649312605L103.8752619520652,301.68093667924404L105.56313636799095,306.23117705148L105.98904860378529,317.6067779820699L106.24144103981156,315.3316577959519L106.2887646215665,322.1570183543059L106.98284382063876,322.1570183543059L107.97663903749223,333.53261928489576L108.32367863702837,333.53261928489576L108.49719843679642,319.8818981681879L109.12817952686213,308.506297237598L109.39634649014005,288.03021556253617L109.6014153444114,290.30533574865416L111.00534826980758,319.8818981681879L111.95181990490612,265.27901370135635L113.38730188480557,301.68093667924404L113.57659621182529,326.7072587265418L114.08138108387784,315.3316577959519L114.17602824738769,328.9823789126598L114.49151879242054,328.9823789126598L114.57039142867875,331.25749909877777L115.28024515500266,267.55413388747434L116.57375638963732,290.30533574865416L117.31515917046453,278.9297348180643L117.58332613374245,285.7550953764182L117.61487518824573,278.9297348180643L117.69374782450394,285.7550953764182L118.088111005795,283.4799751903002L118.10388553304665,281.20485500418226L118.29317986006636,306.23117705148L118.37205249632457,317.6067779820699L118.8295137866222,297.13069630700807L119.06613169539683,278.9297348180643L119.1607788589067,297.13069630700807L121.24301645612347,253.90341277076647L122.1106154549638,251.6282925846485L125.69143314108663,285.7550953764182L126.81142457595325,301.68093667924404L126.85874815770819,306.23117705148L127.77367073830344,267.55413388747434L128.75169142790529,265.27901370135635L129.8401338082686,288.03021556253617L130.0609771897916,258.45365314300244L130.09252624429487,281.20485500418226L130.1083007715465,285.7550953764182L131.0232233521418,285.7550953764182L133.78376562117919,247.07805221241256L135.96065038190585,281.20485500418226L135.99219943640912,274.3794944458283L136.78092579899126,272.1043742597103L137.90091723385788,285.7550953764182L138.72119265094327,276.6546146319463L139.05245772322775,290.30533574865416L139.16287941398923,285.7550953764182L140.850753829915,247.07805221241256L141.29244059296096,249.35317239853055L141.73412735600695,251.6282925846485L142.55440277309236,260.72877332912043L143.5324234626942,247.07805221241256L145.07832713335515,301.68093667924404L145.56733747815605,231.1522109095867L145.6462101144143,226.60197053735075L146.9870449308039,233.4273310957047L147.01859398530715,247.07805221241256L148.29633069269022,242.5278118401766L149.74758719984132,219.77660997899682L150.01575416311923,274.3794944458283L150.3470192354037,267.55413388747434L152.4608058871238,212.95124942064288L152.52390399613037,224.32685035123276L152.6501002141435,233.4273310957047L154.41684726632747,242.5278118401766L154.63769064785046,219.77660997899682L155.23712268341288,235.70245128182265L155.42641701043257,242.5278118401766L156.08894715500153,251.6282925846485L157.30358575337803,260.72877332912043L158.54977340625777,187.9249273733451L158.58132246076104,206.12588886228892L159.43314693234973,242.5278118401766L159.87483369539572,240.25269165405862L161.53115905681815,244.80293202629457L162.950866509466,281.20485500418226L163.20325894549228,251.6282925846485L163.42410232701528,267.55413388747434L164.38634848936545,199.30052830393498L166.4212625048273,226.60197053735075L168.47195104754084,247.07805221241256L169.16603024661308,251.6282925846485L170.5068650630027,197.02540811781702L170.82235560803554,226.60197053735075L171.39023858909468,242.5278118401766L171.5006602798562,233.4273310957047L172.0685432609153,233.4273310957047L172.3998083331998,203.85076867617096L173.37782902280162,212.95124942064288L173.69331956783446,208.4010090484069L175.44429209276677,253.90341277076647L175.6020373652832,233.4273310957047L176.6904797456465,187.9249273733451L176.89554859991787,210.6761292345249L176.99019576342772,212.95124942064288L177.19526461769908,199.30052830393498L178.0944126710427,217.50148979287883L178.45722679783046,224.32685035123276L178.53609943408867,210.6761292345249L179.4667965419356,228.8770907234687L181.7383284661721,197.02540811781702L182.59015293776076,160.62348513992933L183.04761422805842,217.50148979287883L183.89943869964708,219.77660997899682L184.51464526246116,206.12588886228892L184.5619688442161,222.05173016511478L184.7512631712358,192.47516774558105L185.2402735160367,206.12588886228892L186.88082435020752,222.05173016511478L187.00702056822064,222.05173016511478L187.2436384769953,235.70245128182265L188.7737676204046,171.99908607051924L189.1839053289473,210.6761292345249L189.53094492848345,199.30052830393498L190.98220143563455,212.95124942064288L191.10839765364767,206.12588886228892L191.755153270965,208.4010090484069L193.2064097781161,242.5278118401766L194.21597952222123,219.77660997899682L194.97315683030007,201.57564849005297L195.33597095708782,194.75028793169903L195.63568697486906,194.75028793169903L196.40863881019953,226.60197053735075L196.56638408271593,212.95124942064288L196.6137076644709,187.9249273733451L196.8503255732455,208.4010090484069L197.37088497254973,222.05173016511478L200.14720176883876,203.85076867617096L200.24184893234863,201.57564849005297L201.29874225820868,174.27420625663723L201.74042902125464,199.30052830393498L201.8981742937711,210.6761292345249L202.45028274757857,199.30052830393498L204.01196094549115,203.85076867617096L204.94265805333808,226.60197053735075L205.49476650714556,240.25269165405862L206.12574759721124,162.89860532604732L207.92404370389846,192.47516774558105L208.47615215770594,183.37468700110912L208.57079932121582,197.02540811781702L209.65924170157913,208.4010090484069L210.3533209006514,222.05173016511478L210.81078219094903,212.95124942064288L210.88965482720724,217.50148979287883L211.03162557247202,224.32685035123276L212.45133302511985,201.57564849005297L212.49865660687476,181.09956681499116L212.94034336992075,171.99908607051924L213.09808864243718,174.27420625663723L214.01301122303244,165.1737255121653L214.56511967683994,190.2000475594631L215.10145360339575,197.02540811781702L216.0479252384943,197.02540811781702L218.00396661769796,137.87228327874956L218.93466372554485,149.24788420933945L219.34480143408757,187.9249273733451L219.39212501584248,171.99908607051924L219.723390088127,197.02540811781702L219.8338117788885,185.6498071872271L220.74873435948373,206.12588886228892L220.84338152299358,190.2000475594631L221.7267550490856,231.1522109095867L224.42419920911644,197.02540811781702L224.96053313567225,167.44884569828326L225.84390666176427,190.2000475594631L226.34869153381683,208.4010090484069L227.35826127792188,210.6761292345249L227.72107540470967,190.2000475594631L228.2416348040139,206.12588886228892L229.48782245689364,201.57564849005297L229.59824414765512,219.77660997899682L229.80331300192648,224.32685035123276L230.74978463702502,174.27420625663723L231.2230204545743,167.44884569828326L231.5858345813621,210.6761292345249L231.86977607189164,197.02540811781702L234.15708252337976,174.27420625663723L235.1666522674849,199.30052830393498L237.5486058824829,167.44884569828326L237.9587435910256,185.6498071872271L239.28380388016356,219.77660997899682L240.98745282334096,210.6761292345249L241.09787451410244,199.30052830393498L242.88039609353805,153.7981245815754L242.927719675293,146.97276402322146L243.25898474757744,165.1737255121653L244.18968185542437,146.97276402322146L244.34742712794076,171.99908607051924L244.86798652724497,167.44884569828326L246.20882134363458,190.2000475594631L246.6978316884355,190.2000475594631L246.95022412446176,190.2000475594631L247.2183910877397,212.95124942064288L247.8493721778054,201.57564849005297L248.57500043138097,169.72396588440125L248.5907749586326,174.27420625663723L248.93781455816872,146.97276402322146L249.4899230119762,165.1737255121653L249.90006072051892,165.1737255121653L250.04203146578368,167.44884569828326L250.8623068828691,192.47516774558105L250.90963046462403,167.44884569828326L251.44596439117984,165.1737255121653L251.50906250018642,201.57564849005297L251.8718766269742,174.27420625663723L251.96652379048405,183.37468700110912L251.99807284498735,192.47516774558105L252.62905393505307,190.2000475594631L252.7237010985629,176.5493264427552L253.00764258909246,201.57564849005297L254.0172123331976,206.12588886228892L254.31692835097877,160.62348513992933L254.45889909624356,146.97276402322146L255.53156694935527,160.62348513992933L255.5631160038585,153.7981245815754L256.50958763895704,171.99908607051924L259.01773747196825,197.02540811781702L259.85378741630524,201.57564849005297L260.16927796133814,187.9249273733451L260.658288306139,185.6498071872271L260.80025905140377,153.7981245815754L261.06842601468173,135.59716309263158L261.33659297795964,137.87228327874956L262.63010421259435,185.6498071872271L262.99291833938213,169.72396588440125L263.2137617209051,133.3220429065136L264.38107673752666,160.62348513992933L266.17937284421384,194.75028793169903L267.6937274603715,192.47516774558105L267.77260009662973,165.1737255121653L268.3404830776889,169.72396588440125L268.82949342248975,176.5493264427552L270.3596225658991,181.09956681499116L270.7697602744418,190.2000475594631L270.83285838344835,192.47516774558105L271.0852508194746,192.47516774558105L271.74778096404367,181.09956681499116L272.75735070814875,167.44884569828326L272.80467428990363,156.07324476769338L273.05706672593,151.52300439545743L274.57142134208766,167.44884569828326L275.40747128642465,181.09956681499116L276.9060513753307,178.82444662887318L278.7674455910245,160.62348513992933L279.2091323540705,144.6976438371035L280.13982946191743,165.1737255121653L280.8812322427446,185.6498071872271L282.01699820486283,162.89860532604732L282.31671422264407,167.44884569828326L282.99501889446464,174.27420625663723L284.22543202009274,201.57564849005297L284.4935989833707,131.0469227203956L284.91951121916503,146.97276402322146L285.25077629144954,144.6976438371035L285.44007061846924,142.4225236509855L285.67668852724387,162.89860532604732L285.7397866362504,142.4225236509855L286.0079535995284,160.62348513992933L286.57583658058746,169.72396588440125L287.20681767065315,169.72396588440125L287.72737706995736,174.27420625663723L289.462575067638,199.30052830393498L290.2986250119751,194.75028793169903L290.36172312098165,169.72396588440125L290.6772136660145,135.59716309263158L291.9076267916426,181.09956681499116L292.57015693621156,149.24788420933945L293.37465782604534,144.6976438371035L293.7374719528331,153.7981245815754L294.66816906068004,149.24788420933945L294.715492642435,156.07324476769338L295.7408369137917,192.47516774558105L296.1982982040893,192.47516774558105L296.7346321306452,119.67132178980575L297.2867405844527,126.49668234815965L297.90194714726675,160.62348513992933L299.3532036544178,165.1737255121653L299.700243253954,178.82444662887318L300.99375448858865,181.09956681499116L303.2179628310702,131.0469227203956L304.25908162967863,151.52300439545743L304.3695033204401,149.24788420933945L304.5114740657049,140.14740346486752L304.77964102898284,149.24788420933945L304.9689353560025,149.24788420933945L305.0635825195124,146.97276402322146L305.9942796273593,162.89860532604732L306.78300598994144,144.6976438371035L307.5244087707686,162.89860532604732L308.09229175182776,201.57564849005297L308.47088040586715,174.27420625663723L308.5182039876221,183.37468700110912L309.70129353149525,128.77180253427764L309.7959406950051,144.6976438371035L310.2691765125544,142.4225236509855L310.41114725781915,176.5493264427552L310.5688925303356,149.24788420933945L312.0201490374867,146.97276402322146L312.0359235647383,171.99908607051924L312.16211978275146,146.97276402322146L312.22521789175806,158.34836495381137L312.4933848550359,169.72396588440125L313.50295459914105,169.72396588440125L313.8026706169223,178.82444662887318L314.3390045434781,178.82444662887318L315.932231795894,126.49668234815965L316.92602701274745,156.07324476769338L317.651655266323,128.77180253427764L318.34573446539525,146.97276402322146L318.6454504831765,146.97276402322146L319.7023438090365,183.37468700110912L320.6172663896318,165.1737255121653L320.98008051641955,121.94644197592373L322.9676709501265,128.77180253427764L322.9992200046298,137.87228327874956L323.50400487668236,151.52300439545743L323.99301522148323,158.34836495381137L324.92371232933016,162.89860532604732L327.179469726315,117.39620160368776L327.55805838035445,146.97276402322146L327.7000291256192,133.3220429065136L328.52030454270465,162.89860532604732L328.56762812445953,156.07324476769338L330.9495817394575,169.72396588440125L331.17042512098055,156.07324476769338L332.7794269006481,167.44884569828326L333.11069197293256,99.19524011474391L335.208704097401,128.77180253427764L336.34447005951927,126.49668234815965L336.6915096590554,112.84596123145178L336.9596766223333,119.67132178980575L337.68530487590886,151.52300439545743L338.2216388024647,112.84596123145178L339.24698307382147,110.5708410453338L340.50894525395285,117.39620160368776L340.58781789021106,108.29572085921586L341.7078093250777,126.49668234815965L342.2756923061368,128.77180253427764L343.04864414146726,110.5708410453338L344.0266648310691,133.3220429065136L344.04243935832073,128.77180253427764L344.5787732848766,137.87228327874956L344.7996166663996,121.94644197592373L345.4621468109686,112.84596123145178L348.09649286199283,103.74548048697989L348.58550320679376,106.02060067309787L349.1218371333496,106.02060067309787L350.2418285682162,126.49668234815965L350.825486076527,117.39620160368776L351.34604547583115,103.74548048697989L351.6299869663607,108.29572085921586L351.661536020864,96.92011992862592L352.0243501476518,99.19524011474391L352.04012467490344,101.47036030086184L352.0558992021551,92.36987955639L352.10322278391004,106.02060067309787L352.4029388016912,99.19524011474391L352.9550472554987,117.39620160368776L353.44405760029963,115.12108141756977L354.0592641631137,121.94644197592373L354.21700943563013,99.19524011474391L355.62094236102627,94.64499974250793L355.84178574254923,126.49668234815965L356.2992470328469,115.12108141756977L356.42544325086004,119.67132178980575L356.8829045411577,115.12108141756977L358.44458273907026,106.02060067309787L362.08849853419963,108.29572085921586L362.48286171549074,121.94644197592373L362.5301852972457,108.29572085921586L362.67215604251044,121.94644197592373L363.11384280555643,78.71915843968208L363.66595125936385,92.36987955639L363.8552455863836,78.71915843968208L364.86481533048874,99.19524011474391L366.99437650946044,99.19524011474391L367.84620098104915,115.12108141756977L369.9442131055176,94.64499974250793L369.9599876327692,90.09475937027202L372.16842144799915,101.47036030086184L374.0771392454479,106.02060067309787L374.18756093620937,115.12108141756977L376.1593768426647,78.71915843968208L376.9165541507435,103.74548048697989L377.9418984221002,101.47036030086184L378.24161443988146,103.74548048697989L378.68330120292745,92.36987955639L379.03034080246357,103.74548048697989L379.3616058747481,92.36987955639L380.43427372785976,96.92011992862592L381.2703236721968,78.71915843968208L382.18524625279207,80.9942786258L382.87932545186436,94.64499974250793L383.33678674216196,94.64499974250793L386.25507428371577,106.02060067309787L386.49169219249046,110.5708410453338L386.53901577424534,92.36987955639L386.8860553737815,106.02060067309787L386.98070253729134,103.74548048697989L387.73787984537023,90.09475937027202L388.70012600772037,92.36987955639L388.9209693892434,85.54451899803598L389.0944891890114,80.9942786258L389.96208818785175,92.36987955639L390.13560798761984,85.54451899803598L390.2302551511297,92.36987955639L391.1609522589766,92.36987955639L391.58686449477096,106.02060067309787L391.9496786215587,103.74548048697989L393.05389552917364,112.84596123145178L393.4009351287098,90.09475937027202L393.921494528014,78.71915843968208L394.18966149129193,92.36987955639L394.3000831820534,71.89379788132811L394.9310642721191,96.92011992862592L395.2150057626487,106.02060067309787L395.30965292615855,85.54451899803598L395.3569765079135,80.9942786258L396.5558405790383,85.54451899803598L396.5716151062899,92.36987955639L397.31301788711716,99.19524011474391L397.80202823191803,94.64499974250793L398.2279404677124,87.81963918415403L398.2752640494673,103.74548048697989L398.3541366857255,110.5708410453338L399.2375102118175,115.12108141756977L399.4741281205921,71.89379788132811L399.6476479203602,83.269398811918L400.42059975569066,87.81963918415403L401.31974780903425,85.54451899803598L402.0296015353582,92.36987955639L402.67635715267556,94.64499974250793L402.8814260069469,76.44403825356409L402.89720053419853,87.81963918415403L403.24424013373465,90.09475937027202L403.32311276999286,99.19524011474391L403.49663256976095,83.269398811918L405.24760509469326,99.19524011474391L405.57887016697777,71.89379788132811L406.66731254734106,80.9942786258L406.714636129096,94.64499974250793L406.73041065634766,96.92011992862592L407.4875879644265,78.71915843968208L407.8661766184659,83.269398811918L409.9484142156827,103.74548048697989L410.5793953057484,101.47036030086184L411.2103763958141,99.19524011474391L411.41544525008544,87.81963918415403L412.4250149941906,87.81963918415403L413.4503592655473,90.09475937027202L413.8131733923351,83.269398811918L415.138233681473,87.81963918415403L415.18555726322796,78.71915843968208L415.2644298994862,99.19524011474391L416.32132322534625,90.09475937027202L416.60526471587576,87.81963918415403L417.788354259749,78.71915843968208L418.403560822563,78.71915843968208L420.89593612832255,96.92011992862592L421.5584662728915,90.09475937027202L421.5742408001431,101.47036030086184L422.59958507149986,80.9942786258L422.6942322350098,96.92011992862592L423.10436994355246,92.36987955639L423.43563501583697,87.81963918415403L423.5302821793468,90.09475937027202L425.40745092229224,92.36987955639L426.0226574851063,94.64499974250793L429.3984063169578,99.19524011474391L429.79276949824884,74.1689180674461L429.99783835252015,78.71915843968208L430.42375058831453,80.9942786258L430.534172279076,80.9942786258L430.9127609331154,94.64499974250793L431.13360431463843,74.1689180674461L431.5752910776844,78.71915843968208L432.71105703980265,83.269398811918L433.3735871843717,90.09475937027202L433.92569563817915,85.54451899803598L434.5093531464899,83.269398811918L435.94483512638936,83.269398811918L437.88510197834137,90.09475937027202L437.9955236691029,83.269398811918L438.9893188859564,83.269398811918L439.178613212976,90.09475937027202L440.5983206656239,92.36987955639L440.64564424737875,78.71915843968208L442.9644997533702,80.9942786258L443.0275978623768,83.269398811918L443.7059025341974,74.1689180674461L443.8794223339655,78.71915843968208L443.9582949702237,94.64499974250793L444.03716760648194,83.269398811918L444.5735015330377,78.71915843968208L444.7312468055541,94.64499974250793L445.14138451409684,92.36987955639L445.8512382404208,80.9942786258L446.2140523672086,85.54451899803598L447.0185532570423,92.36987955639L447.39714191108175,96.92011992862592L447.696857928863,85.54451899803598L447.917701310386,76.44403825356409L448.43826070969016,80.9942786258L450.2207822891257,83.269398811918L450.99373412445624,83.269398811918L452.2714708318393,90.09475937027202L452.4449906316073,96.92011992862592L452.76048117664016,99.19524011474391L453.91202166601005,69.61867769521012L454.81116971935364,85.54451899803598L456.49904413527946,90.09475937027202L458.723252477761,87.81963918415403L459.338459040575,96.92011992862592L459.7959203308727,85.54451899803598L460.41112689368674,74.1689180674461L461.1683042017656,69.61867769521012L461.92548150984436,76.44403825356409L461.95703056434763,80.9942786258L462.0832267823608,74.1689180674461L462.5564625999101,83.269398811918L462.9192767266979,80.9942786258L464.0392681615645,90.09475937027202L466.263476504046,71.89379788132811L467.27304624815116,74.1689180674461L467.9986745017267,67.34355750909214L468.47191031927593,78.71915843968208L468.81894991881217,76.44403825356409L468.9451461368253,76.44403825356409L470.86963846152565,71.89379788132811L471.34287427907486,83.269398811918L471.6899138786111,80.9942786258L472.21047327791524,78.71915843968208L473.37778829453674,65.0684373229742L473.9929948573509,71.89379788132811L475.3496042009921,69.61867769521012L476.50114469036197,74.1689180674461L476.8955078716531,80.9942786258L477.1005767259244,67.34355750909214L477.24254747118914,85.54451899803598L478.48873512406897,65.0684373229742L479.41943223191583,69.61867769521012L481.217728338603,65.0684373229742L481.45434624737766,69.61867769521012L482.7005339002575,69.61867769521012L484.0729177711503,60.51819695073823L485.47685069654653,65.0684373229742L486.0605082048573,60.51819695073823L486.61261665866476,71.89379788132811L487.7799316752863,76.44403825356409L489.4835806184637,69.61867769521012L489.73597305448993,65.0684373229742L490.0672381267745,62.79331713685622L490.20920887203926,71.89379788132811L490.4616013080655,62.79331713685622L491.45539652491897,69.61867769521012L491.4711710521706,76.44403825356409L491.6920144336936,67.34355750909214L493.6322812856456,60.51819695073823L493.80580108541363,62.79331713685622L495.3832538105779,71.89379788132811L496.440147136438,71.89379788132811L499.5950525867664,65.0684373229742L500.92011287590446,67.34355750909214L500.95166193040774,65.0684373229742L501.59841754772503,74.1689180674461L501.61419207497664,62.79331713685622L502.07165336527436,67.34355750909214L502.10320241977763,67.34355750909214L503.66488061769024,62.79331713685622L506.0310597054366,58.2430767646203L507.04062944954165,74.1689180674461L507.1352766130515,67.34355750909214L507.22992377656135,62.79331713685622L507.293021885568,60.51819695073823L507.3087964128196,62.79331713685622L508.4918859566928,65.0684373229742L509.1228670467584,69.61867769521012L509.9904660455988,60.51819695073823L511.88340931579586,60.51819695073823L512.009605533809,62.79331713685622L512.7667828418878,62.79331713685622L513.776352585993,62.79331713685622L513.823676167748,69.61867769521012L514.3126865125488,67.34355750909214L514.4704317850652,65.0684373229742L514.5808534758268,60.51819695073823L514.8647949663563,58.2430767646203L515.7639430196999,69.61867769521012L516.4580222187722,60.51819695073823L517.8146315624134,67.34355750909214L519.2501135423129,67.34355750909214L519.2816625968161,71.89379788132811L519.7864474688687,71.89379788132811L520.0703889593983,69.61867769521012L524.5345801716131,74.1689180674461L524.9447178801557,65.0684373229742L525.638797079228,74.1689180674461L526.5063960780684,65.0684373229742L527.4844167676703,60.51819695073823L527.6894856219416,62.79331713685622L529.1407421290926,65.0684373229742L529.5982034193903,69.61867769521012L530.2134099822043,62.79331713685622L531.2387542535611,65.0684373229742L534.6302776126641,67.34355750909214L535.876465265544,58.2430767646203L536.2866029740867,65.0684373229742L536.6336425736228,65.0684373229742L536.9333585914039,69.61867769521012L537.2488491364368,60.51819695073823L537.3277217726951,60.51819695073823L537.5801142087214,62.79331713685622L537.769408535741,67.34355750909214L538.0218009717673,62.79331713685622L538.4477132075617,62.79331713685622L539.5203810606733,62.79331713685622L540.4984017502752,67.34355750909214L540.6245979682883,67.34355750909214L543.7795034186169,65.0684373229742L543.8899251093783,74.1689180674461L544.031895854643,65.0684373229742L544.8206222172253,60.51819695073823L544.8679457989801,62.79331713685622L545.1992108712645,60.51819695073823L545.3885051982844,62.79331713685622L545.6882212160656,60.51819695073823L545.9879372338468,67.34355750909214L548.1332729400701,60.51819695073823L549.411009647453,62.79331713685622L549.4267841747048,60.51819695073823L549.9631181012606,65.0684373229742L550.2628341190418,60.51819695073823L550.9884623726174,60.51819695073823L552.1242283347357,62.79331713685622L552.2031009709939,67.34355750909214L552.6132386795366,60.51819695073823L553.3388669331122,65.0684373229742L553.5754848418867,62.79331713685622L554.8689960765214,74.1689180674461L555.5473007483421,62.79331713685622L555.9574384568848,67.34355750909214L556.1625073111561,67.34355750909214L556.604194074202,62.79331713685622L557.2824987460227,60.51819695073823L559.3647363432394,62.79331713685622L559.475158034001,69.61867769521012L559.5382561430075,69.61867769521012L561.1472579226752,76.44403825356409L561.7782390127408,67.34355750909214L563.2610445743952,67.34355750909214L563.4818879559182,60.51819695073823L563.7658294464478,62.79331713685622L564.4283595910167,58.2430767646203L565.9900377889293,60.51819695073823L568.7190310034634,62.79331713685622L569.5550809478005,65.0684373229742L571.432249690746,69.61867769521012L574.3032136505449,62.79331713685622L574.8868711588556,65.0684373229742L575.2181362311402,65.0684373229742L575.8017937394509,65.0684373229742L576.36967672051,62.79331713685622L578.8778265535211,60.51819695073823L579.2879642620638,65.0684373229742L579.9189453521295,62.79331713685622L580.6445736057051,62.79331713685622L581.6699178770618,62.79331713685622L581.7803395678234,65.0684373229742L581.9065357858365,58.2430767646203L582.6637130939154,58.2430767646203L582.8056838391801,69.61867769521012L583.7363809470271,62.79331713685622L583.9414498012984,67.34355750909214L586.2287562527865,65.0684373229742L586.4180505798062,62.79331713685622L586.9386099791104,65.0684373229742L587.6011401236793,60.51819695073823L588.6264843950361,69.61867769521012L589.7937994116577,65.0684373229742L590.5352021924848,65.0684373229742L591.103085173544,69.61867769521012L591.5605464638417,67.34355750909214L592.0180077541393,65.0684373229742L592.2230766084106,65.0684373229742L592.2704001901656,65.0684373229742L593.311518988774,69.61867769521012L593.3588425705289,65.0684373229742L594.0371472423495,62.79331713685622L594.81009907768,58.2430767646203L595.693472603772,65.0684373229742L597.7757102009887,58.2430767646203L597.8861318917502,65.0684373229742L597.9019064190019,65.0684373229742L598.0123281097634,67.34355750909214L599.4793591441661,58.2430767646203L599.6686534711858,60.51819695073823L599.8737223254572,62.79331713685622L599.9841440162187,58.2430767646203L601.7824401229059,62.79331713685622L601.8455382319125,67.34355750909214L602.2714504677069,60.51819695073823L602.3029995222101,58.2430767646203L603.3598928480701,58.2430767646203L603.7227069748579,62.79331713685622L604.8269238824729,69.61867769521012L604.9846691549893,62.79331713685622L605.2528361182673,62.79331713685622L605.3632578090287,60.51819695073823L605.4105813907837,60.51819695073823L605.8049445720748,60.51819695073823L607.9502802782981,62.79331713685622L609.4015367854493,67.34355750909214L609.5119584762108,60.51819695073823L610.9316659288585,62.79331713685622L611.0736366741232,58.2430767646203L611.262931001143,62.79331713685622L611.5626470189243,58.2430767646203L611.8308139822021,58.2430767646203L612.0674318909768,65.0684373229742L612.6826384537908,62.79331713685622L612.8719327808105,60.51819695073823L613.2662959621016,58.2430767646203L613.7395317796509,62.79331713685622L613.8499534704124,60.51819695073823L614.7648760510076,58.2430767646203L615.4905043045832,62.79331713685622L615.7902203223643,62.79331713685622L615.9006420131259,69.61867769521012L616.6262702667015,62.79331713685622L617.4465456837868,60.51819695073823L617.4938692655418,58.2430767646203L618.0459777193491,60.51819695073823L620.0493426803077,62.79331713685622L620.0966662620627,62.79331713685622L620.9169416791481,58.2430767646203L620.9327162063997,58.2430767646203L621.2639812786844,62.79331713685622L622.1315802775247,58.2430767646203L623.5039641484175,60.51819695073823L623.5197386756691,67.34355750909214L624.1191707112315,62.79331713685622L624.3557886200061,62.79331713685622L624.671279165039,60.51819695073823L624.8132499103039,60.51819695073823L624.9552206555686,58.2430767646203L625.4284564731179,60.51819695073823L626.2014083084483,65.0684373229742L627.0690073072888,62.79331713685622L627.5737921793412,58.2430767646203L627.9208317788774,60.51819695073823L629.0723722682472,60.51819695073823L631.4701004104969,58.2430767646203L632.2430522458275,60.51819695073823L632.8109352268865,60.51819695073823L633.7889559164884,60.51819695073823L635.0035945148649,65.0684373229742L635.0509180966197,67.34355750909214L636.2497821677446,62.79331713685622L636.581047240029,62.79331713685622L636.7072434580422,58.2430767646203L636.9123123123136,58.2430767646203L636.9438613668168,58.2430767646203L637.0385085303267,60.51819695073823L638.0480782744319,60.51819695073823L638.5844122009876,60.51819695073823L638.615961255491,60.51819695073823L638.6317357827426,62.79331713685622L639.9883451263838,58.2430767646203L640.0356687081387,60.51819695073823L640.4615809439331,62.79331713685622L643.1590251039639,62.79331713685622L643.2694467947255,62.79331713685622L644.3105655933339,58.2430767646203L644.389438229592,60.51819695073823L646.0299890637629,60.51819695073823L646.2981560270408,60.51819695073823L647.3550493529008,65.0684373229742L647.6705398979336,60.51819695073823L648.2541974062444,58.2430767646203L648.3172955152511,60.51819695073823L649.3584143138594,65.0684373229742L650.1786897309447,60.51819695073823L650.4153076397195,58.2430767646203L650.6519255484941,58.2430767646203L650.9043179845203,60.51819695073823L651.1093868387917,60.51819695073823L651.6614952925992,62.79331713685622L651.9612113103805,60.51819695073823L652.0716330011419,62.79331713685622L655.7470978507746,58.2430767646203L656.6935694858731,58.2430767646203L657.1668053034224,58.2430767646203L657.4665213212036,60.51819695073823L658.8704542465997,65.0684373229742L659.4856608094138,60.51819695073823L659.5487589184204,58.2430767646203L659.6907296636851,58.2430767646203L659.785376827195,58.2430767646203L660.1797400084861,60.51819695073823L661.0788880618297,60.51819695073823L661.7571927336503,58.2430767646203L663.3819690405695,60.51819695073823L664.3442152029196,60.51819695073823L665.21181420176,58.2430767646203L665.7323736010642,60.51819695073823L667.4517970714933,65.0684373229742L667.546444235003,60.51819695073823L667.6884149802678,60.51819695073823L668.5402394518566,60.51819695073823L669.7233289957297,58.2430767646203L670.2596629222855,62.79331713685622L671.3954288844038,65.0684373229742L672.7835872825484,58.2430767646203L674.2979418987061,60.51819695073823L674.5976579164873,60.51819695073823L675.2759625883078,58.2430767646203L676.3644049686711,62.79331713685622L679.7559283277743,60.51819695073823L681.3491555801902,60.51819695073823L682.2167545790305,60.51819695073823L682.4533724878052,58.2430767646203L683.5418148681684,60.51819695073823L684.0781487947244,58.2430767646203L685.2454638113459,60.51819695073823L685.497856247372,60.51819695073823L685.6713760471403,58.2430767646203L686.2077099736961,60.51819695073823L687.4696721538274,60.51819695073823L688.4319183161776,62.79331713685622L688.4476928434293,58.2430767646203L688.6843107522038,60.51819695073823L689.3626154240245,62.79331713685622L689.6781059690574,58.2430767646203L690.356410640878,58.2430767646203L690.4352832771361,58.2430767646203L691.5710492392544,60.51819695073823L693.7952575817361,67.34355750909214L694.1580717085238,58.2430767646203L694.1738462357754,58.2430767646203L694.2211698175304,62.79331713685622L696.3191819419989,58.2430767646203L697.8335365581565,62.79331713685622L698.1490271031894,60.51819695073823L698.7642336660034,60.51819695073823L698.9377534657715,60.51819695073823L702.7394145334173,60.51819695073823L703.4177192052379,60.51819695073823L704.0644748225553,58.2430767646203L705.1686917301702,58.2430767646203L705.6103784932162,58.2430767646203L706.41487938305,62.79331713685622L707.9450085264592,58.2430767646203L708.0712047444724,58.2430767646203L708.4340188712603,60.51819695073823L708.5128915075184,60.51819695073823L708.7810584707963,58.2430767646203L709.5855593606301,58.2430767646203L710.1849913961925,60.51819695073823L713.1979261012563,58.2430767646203L713.4029949555276,58.2430767646203L714.5387609176458,58.2430767646203L716.1950862790682,60.51819695073823L717.5674701499612,60.51819695073823L717.7567644769808,58.2430767646203L718.2615493490334,58.2430767646203L718.7032361120794,65.0684373229742L720.0756199829723,62.79331713685622L720.2333652554887,62.79331713685622L720.3280124189986,60.51819695073823L720.3911105280051,58.2430767646203L720.8801208728061,58.2430767646203L720.9116699273093,62.79331713685622L721.1325133088322,65.0684373229742L721.2271604723421,62.79331713685622L722.3787009617121,58.2430767646203L725.3758611395241,65.0684373229742L726.2750091928677,58.2430767646203L726.3854308836293,58.2430767646203L727.6631675910123,60.51819695073823L727.9155600270385,58.2430767646203L728.0733052995549,60.51819695073823L728.3414722628329,58.2430767646203L729.4930127522027,60.51819695073823L729.9031504607455,58.2430767646203L729.9189249879971,58.2430767646203L731.0231418956121,60.51819695073823L732.0958097487238,58.2430767646203L732.3482021847501,60.51819695073823L733.3893209833584,58.2430767646203L734.1464982914373,58.2430767646203L734.3988907274636,58.2430767646203L734.8563520177612,60.51819695073823L735.2507151990523,65.0684373229742L735.5504312168334,60.51819695073823L735.6450783803433,58.2430767646203L737.82196314107,58.2430767646203L737.9481593590832,60.51819695073823L738.9577291031883,58.2430767646203L739.3836413389826,60.51819695073823L741.5132025179543,60.51819695073823L741.6236242087158,60.51819695073823L741.9075656992453,58.2430767646203L743.5323420061645,62.79331713685622L743.9109306602039,62.79331713685622L744.0055778237138,58.2430767646203L744.0686759327203,60.51819695073823L744.2895193142433,58.2430767646203L745.2675400038452,58.2430767646203L746.3402078569569,58.2430767646203L746.7661200927512,58.2430767646203L747.8072388913597,58.2430767646203L748.012307745631,60.51819695073823L748.5170926176836,65.0684373229742L748.8010341082131,58.2430767646203L748.9587793807295,60.51819695073823L749.290044453014,58.2430767646203L749.6844076343051,58.2430767646203L751.009467923443,60.51819695073823L752.113684831058,62.79331713685622L753.0286074116533,65.0684373229742L753.659588501719,58.2430767646203L754.0855007375133,58.2430767646203L754.5271875005593,58.2430767646203L755.5052081901612,60.51819695073823L756.1046402257235,60.51819695073823L756.6251996250278,58.2430767646203L756.8933665883056,58.2430767646203L757.5085731511198,60.51819695073823L761.3260087460171,58.2430767646203L761.5784011820434,62.79331713685622L763.8499331062799,62.79331713685622L764.6702085233653,60.51819695073823L765.3642877224377,58.2430767646203L765.9163961762451,58.2430767646203L766.3896319937944,62.79331713685622L766.7682206478338,58.2430767646203L767.1468093018732,58.2430767646203L767.2730055198863,62.79331713685622L767.4465253196544,62.79331713685622L767.462299846906,62.79331713685622L767.8408885009454,60.51819695073823L768.4087714820046,60.51819695073823L768.834683717799,60.51819695073823L768.8977818268055,62.79331713685622L769.1343997355801,60.51819695073823L769.5445374441229,58.2430767646203L769.7180572438909,62.79331713685622L769.8915770436589,62.79331713685622L770.4121364429632,60.51819695073823L771.7529712593528,58.2430767646203L772.3208542404119,58.2430767646203" fill="none"></path></g></g></g></g></g></g><g transform="translate(49, 378)" clip-path="url(#clip_1)"><clipPath id="clip_1"><rect width="867" height="21"></rect></clipPath><g><g><line x1="0" y1="0" x2="0" y2="5" style="visibility: inherit;" fill="rgb(0, 0, 0)" stroke="rgb(204, 204, 204)" stroke-width="1px"></line><line x1="78.872636258212" y1="0" x2="78.872636258212" y2="5" style="visibility: inherit;" fill="rgb(0, 0, 0)" stroke="rgb(204, 204, 204)" stroke-width="1px"></line><line x1="157.745272516424" y1="0" x2="157.745272516424" y2="5" style="visibility: inherit;" fill="rgb(0, 0, 0)" stroke="rgb(204, 204, 204)" stroke-width="1px"></line><line x1="236.617908774636" y1="0" x2="236.617908774636" y2="5" style="visibility: inherit;" fill="rgb(0, 0, 0)" stroke="rgb(204, 204, 204)" stroke-width="1px"></line><line x1="315.490545032848" y1="0" x2="315.490545032848" y2="5" style="visibility: inherit;" fill="rgb(0, 0, 0)" stroke="rgb(204, 204, 204)" stroke-width="1px"></line><line x1="394.36318129105996" y1="0" x2="394.36318129105996" y2="5" style="visibility: inherit;" fill="rgb(0, 0, 0)" stroke="rgb(204, 204, 204)" stroke-width="1px"></line><line x1="473.235817549272" y1="0" x2="473.235817549272" y2="5" style="visibility: inherit;" fill="rgb(0, 0, 0)" stroke="rgb(204, 204, 204)" stroke-width="1px"></line><line x1="552.108453807484" y1="0" x2="552.108453807484" y2="5" style="visibility: inherit;" fill="rgb(0, 0, 0)" stroke="rgb(204, 204, 204)" stroke-width="1px"></line><line x1="630.981090065696" y1="0" x2="630.981090065696" y2="5" style="visibility: inherit;" fill="rgb(0, 0, 0)" stroke="rgb(204, 204, 204)" stroke-width="1px"></line><line x1="709.8537263239081" y1="0" x2="709.8537263239081" y2="5" style="visibility: inherit;" fill="rgb(0, 0, 0)" stroke="rgb(204, 204, 204)" stroke-width="1px"></line><line x1="788.7263625821199" y1="0" x2="788.7263625821199" y2="5" style="visibility: inherit;" fill="rgb(0, 0, 0)" stroke="rgb(204, 204, 204)" stroke-width="1px"></line><line x1="867.598998840332" y1="0" x2="867.598998840332" y2="5" style="visibility: inherit;" fill="rgb(0, 0, 0)" stroke="rgb(204, 204, 204)" stroke-width="1px"></line></g><g transform="translate(0, 8)"><text style="text-anchor: middle; visibility: hidden; font-family: &quot;Helvetica Neue&quot;, sans-serif; font-size: 12px; font-weight: 200;" x="0" y="0" dx="0em" dy="0.95em" fill="rgb(50, 49, 63)" stroke="none" stroke-width="1px">-50k</text><text style="text-anchor: middle; visibility: hidden; font-family: &quot;Helvetica Neue&quot;, sans-serif; font-size: 12px; font-weight: 200;" x="78.872636258212" y="0" dx="0em" dy="0.95em" fill="rgb(50, 49, 63)" stroke="none" stroke-width="1px">0</text><text style="text-anchor: middle; visibility: hidden; font-family: &quot;Helvetica Neue&quot;, sans-serif; font-size: 12px; font-weight: 200;" x="157.745272516424" y="0" dx="0em" dy="0.95em" fill="rgb(50, 49, 63)" stroke="none" stroke-width="1px">50k</text><text style="text-anchor: middle; visibility: hidden; font-family: &quot;Helvetica Neue&quot;, sans-serif; font-size: 12px; font-weight: 200;" x="236.617908774636" y="0" dx="0em" dy="0.95em" fill="rgb(50, 49, 63)" stroke="none" stroke-width="1px">100k</text><text style="text-anchor: middle; visibility: hidden; font-family: &quot;Helvetica Neue&quot;, sans-serif; font-size: 12px; font-weight: 200;" x="315.490545032848" y="0" dx="0em" dy="0.95em" fill="rgb(50, 49, 63)" stroke="none" stroke-width="1px">150k</text><text style="text-anchor: middle; visibility: hidden; font-family: &quot;Helvetica Neue&quot;, sans-serif; font-size: 12px; font-weight: 200;" x="394.36318129105996" y="0" dx="0em" dy="0.95em" fill="rgb(50, 49, 63)" stroke="none" stroke-width="1px">200k</text><text style="text-anchor: middle; visibility: hidden; font-family: &quot;Helvetica Neue&quot;, sans-serif; font-size: 12px; font-weight: 200;" x="473.235817549272" y="0" dx="0em" dy="0.95em" fill="rgb(50, 49, 63)" stroke="none" stroke-width="1px">250k</text><text style="text-anchor: middle; visibility: hidden; font-family: &quot;Helvetica Neue&quot;, sans-serif; font-size: 12px; font-weight: 200;" x="552.108453807484" y="0" dx="0em" dy="0.95em" fill="rgb(50, 49, 63)" stroke="none" stroke-width="1px">300k</text><text style="text-anchor: middle; visibility: hidden; font-family: &quot;Helvetica Neue&quot;, sans-serif; font-size: 12px; font-weight: 200;" x="630.981090065696" y="0" dx="0em" dy="0.95em" fill="rgb(50, 49, 63)" stroke="none" stroke-width="1px">350k</text><text style="text-anchor: middle; visibility: hidden; font-family: &quot;Helvetica Neue&quot;, sans-serif; font-size: 12px; font-weight: 200;" x="709.8537263239081" y="0" dx="0em" dy="0.95em" fill="rgb(50, 49, 63)" stroke="none" stroke-width="1px">400k</text><text style="text-anchor: middle; visibility: hidden; font-family: &quot;Helvetica Neue&quot;, sans-serif; font-size: 12px; font-weight: 200;" x="788.7263625821199" y="0" dx="0em" dy="0.95em" fill="rgb(50, 49, 63)" stroke="none" stroke-width="1px">450k</text><text style="text-anchor: middle; visibility: hidden; font-family: &quot;Helvetica Neue&quot;, sans-serif; font-size: 12px; font-weight: 200;" x="867.598998840332" y="0" dx="0em" dy="0.95em" fill="rgb(50, 49, 63)" stroke="none" stroke-width="1px">500k</text></g><line x1="0" y1="0" x2="867.598998840332" y2="0" fill="rgb(0, 0, 0)" stroke="rgb(204, 204, 204)" stroke-width="1px"></line></g></g></g></g></svg>