<svg viewBox="0 0 917.5833129882812 400" xmlns="http://www.w3.org/2000/svg"><g><g><g><g><g><line x1="29.992000579833984" y1="378.57999897003174" x2="24.992000579833984" y2="378.57999897003174" style="visibility: inherit;" fill="rgb(0, 0, 0)" stroke="rgb(204, 204, 204)" stroke-width="1px"></line><line x1="29.992000579833984" y1="344.1636354273016" x2="24.992000579833984" y2="344.1636354273016" style="visibility: inherit;" fill="rgb(0, 0, 0)" stroke="rgb(204, 204, 204)" stroke-width="1px"></line><line x1="29.992000579833984" y1="309.74727188457143" x2="24.992000579833984" y2="309.74727188457143" style="visibility: inherit;" fill="rgb(0, 0, 0)" stroke="rgb(204, 204, 204)" stroke-width="1px"></line><line x1="29.992000579833984" y1="275.3309083418413" x2="24.992000579833984" y2="275.3309083418413" style="visibility: inherit;" fill="rgb(0, 0, 0)" stroke="rgb(204, 204, 204)" stroke-width="1px"></line><line x1="29.992000579833984" y1="240.9145447991111" x2="24.992000579833984" y2="240.9145447991111" style="visibility: inherit;" fill="rgb(0, 0, 0)" stroke="rgb(204, 204, 204)" stroke-width="1px"></line><line x1="29.992000579833984" y1="206.49818125638095" x2="24.992000579833984" y2="206.49818125638095" style="visibility: inherit;" fill="rgb(0, 0, 0)" stroke="rgb(204, 204, 204)" stroke-width="1px"></line><line x1="29.992000579833984" y1="172.0818177136508" x2="24.992000579833984" y2="172.0818177136508" style="visibility: inherit;" fill="rgb(0, 0, 0)" stroke="rgb(204, 204, 204)" stroke-width="1px"></line><line x1="29.992000579833984" y1="137.66545417092064" x2="24.992000579833984" y2="137.66545417092064" style="visibility: inherit;" fill="rgb(0, 0, 0)" stroke="rgb(204, 204, 204)" stroke-width="1px"></line><line x1="29.992000579833984" y1="103.24909062819046" x2="24.992000579833984" y2="103.24909062819046" style="visibility: inherit;" fill="rgb(0, 0, 0)" stroke="rgb(204, 204, 204)" stroke-width="1px"></line><line x1="29.992000579833984" y1="68.8327270854603" x2="24.992000579833984" y2="68.8327270854603" style="visibility: inherit;" fill="rgb(0, 0, 0)" stroke="rgb(204, 204, 204)" stroke-width="1px"></line><line x1="29.992000579833984" y1="34.41636354273015" x2="24.992000579833984" y2="34.41636354273015" style="visibility: inherit;" fill="rgb(0, 0, 0)" stroke="rgb(204, 204, 204)" stroke-width="1px"></line><line x1="29.992000579833984" y1="0" x2="24.992000579833984" y2="0" style="visibility: inherit;" fill="rgb(0, 0, 0)" stroke="rgb(204, 204, 204)" stroke-width="1px"></line></g><g transform="translate(19.992000579833984, 0)"><text style="text-anchor: end; visibility: hidden; font-family: &quot;Helvetica Neue&quot;, sans-serif; font-size: 12px; font-weight: 200;" x="0" y="378.57999897003174" dx="0em" dy="0.3em" fill="rgb(50, 49, 63)" stroke="none" stroke-width="1px">7</text><text style="text-anchor: end; visibility: inherit; font-family: &quot;Helvetica Neue&quot;, sans-serif; font-size: 12px; font-weight: 200;" x="0" y="344.1636354273016" dx="0em" dy="0.3em" fill="rgb(50, 49, 63)" stroke="none" stroke-width="1px">8</text><text style="text-anchor: end; visibility: inherit; font-family: &quot;Helvetica Neue&quot;, sans-serif; font-size: 12px; font-weight: 200;" x="0" y="309.74727188457143" dx="0em" dy="0.3em" fill="rgb(50, 49, 63)" stroke="none" stroke-width="1px">9</text><text style="text-anchor: end; visibility: inherit; font-family: &quot;Helvetica Neue&quot;, sans-serif; font-size: 12px; font-weight: 200;" x="0" y="275.3309083418413" dx="0em" dy="0.3em" fill="rgb(50, 49, 63)" stroke="none" stroke-width="1px">10</text><text style="text-anchor: end; visibility: inherit; font-family: &quot;Helvetica Neue&quot;, sans-serif; font-size: 12px; font-weight: 200;" x="0" y="240.9145447991111" dx="0em" dy="0.3em" fill="rgb(50, 49, 63)" stroke="none" stroke-width="1px">11</text><text style="text-anchor: end; visibility: inherit; font-family: &quot;Helvetica Neue&quot;, sans-serif; font-size: 12px; font-weight: 200;" x="0" y="206.49818125638095" dx="0em" dy="0.3em" fill="rgb(50, 49, 63)" stroke="none" stroke-width="1px">12</text><text style="text-anchor: end; visibility: inherit; font-family: &quot;Helvetica Neue&quot;, sans-serif; font-size: 12px; font-weight: 200;" x="0" y="172.0818177136508" dx="0em" dy="0.3em" fill="rgb(50, 49, 63)" stroke="none" stroke-width="1px">13</text><text style="text-anchor: end; visibility: inherit; font-family: &quot;Helvetica Neue&quot;, sans-serif; font-size: 12px; font-weight: 200;" x="0" y="137.66545417092064" dx="0em" dy="0.3em" fill="rgb(50, 49, 63)" stroke="none" stroke-width="1px">14</text><text style="text-anchor: end; visibility: inherit; font-family: &quot;Helvetica Neue&quot;, sans-serif; font-size: 12px; font-weight: 200;" x="0" y="103.24909062819046" dx="0em" dy="0.3em" fill="rgb(50, 49, 63)" stroke="none" stroke-width="1px">15</text><text style="text-anchor: end; visibility: inherit; font-family: &quot;Helvetica Neue&quot;, sans-serif; font-size: 12px; font-weight: 200;" x="0" y="68.8327270854603" dx="0em" dy="0.3em" fill="rgb(50, 49, 63)" stroke="none" stroke-width="1px">16</text><text style="text-anchor: end; visibility: inherit; font-family: &quot;Helvetica Neue&quot;, sans-serif; font-size: 12px; font-weight: 200;" x="0" y="34.41636354273015" dx="0em" dy="0.3em" fill="rgb(50, 49, 63)" stroke="none" stroke-width="1px">17</text><text style="text-anchor: end; visibility: hidden; font-family: &quot;Helvetica Neue&quot;, sans-serif; font-size: 12px; font-weight: 200;" x="0" y="0" dx="0em" dy="0.3em" fill="rgb(50, 49, 63)" stroke="none" stroke-width="1px">18</text></g><line x1="29.992000579833984" y1="0" x2="29.992000579833984" y2="378.57999897003174" fill="rgb(0, 0, 0)" stroke="rgb(204, 204, 204)" stroke-width="1px"></line></g></g><g transform="translate(30, 0)" clip-path="url(#clip_0)"><clipPath id="clip_0"><rect width="887" height="378"></rect></clipPath><g><g><g><line x1="0" y1="0" x2="0" y2="378.57999897003174" fill="rgb(0, 0, 0)" stroke="rgb(60, 60, 60)" stroke-width="1px" opacity="0.25"></line><line x1="88.7590999420166" y1="0" x2="88.7590999420166" y2="378.57999897003174" fill="rgb(0, 0, 0)" stroke="rgb(60, 60, 60)" stroke-width="1px" opacity="0.25"></line><line x1="177.5181998840332" y1="0" x2="177.5181998840332" y2="378.57999897003174" fill="rgb(0, 0, 0)" stroke="rgb(60, 60, 60)" stroke-width="1px" opacity="0.25"></line><line x1="266.2772998260498" y1="0" x2="266.2772998260498" y2="378.57999897003174" fill="rgb(0, 0, 0)" stroke="rgb(60, 60, 60)" stroke-width="1px" opacity="0.25"></line><line x1="355.0363997680664" y1="0" x2="355.0363997680664" y2="378.57999897003174" fill="rgb(0, 0, 0)" stroke="rgb(60, 60, 60)" stroke-width="1px" opacity="0.25"></line><line x1="443.795499710083" y1="0" x2="443.795499710083" y2="378.57999897003174" fill="rgb(0, 0, 0)" stroke="rgb(60, 60, 60)" stroke-width="1px" opacity="0.25"></line><line x1="532.5545996520996" y1="0" x2="532.5545996520996" y2="378.57999897003174" fill="rgb(0, 0, 0)" stroke="rgb(60, 60, 60)" stroke-width="1px" opacity="0.25"></line><line x1="621.3136995941162" y1="0" x2="621.3136995941162" y2="378.57999897003174" fill="rgb(0, 0, 0)" stroke="rgb(60, 60, 60)" stroke-width="1px" opacity="0.25"></line><line x1="710.0727995361328" y1="0" x2="710.0727995361328" y2="378.57999897003174" fill="rgb(0, 0, 0)" stroke="rgb(60, 60, 60)" stroke-width="1px" opacity="0.25"></line><line x1="798.8318994781494" y1="0" x2="798.8318994781494" y2="378.57999897003174" fill="rgb(0, 0, 0)" stroke="rgb(60, 60, 60)" stroke-width="1px" opacity="0.25"></line><line x1="887.590999420166" y1="0" x2="887.590999420166" y2="378.57999897003174" fill="rgb(0, 0, 0)" stroke="rgb(60, 60, 60)" stroke-width="1px" opacity="0.25"></line></g><g><line x1="0" y1="378.57999897003174" x2="887.590999420166" y2="378.57999897003174" fill="rgb(0, 0, 0)" stroke="rgb(60, 60, 60)" stroke-width="1px" opacity="0.25"></line><line x1="0" y1="344.1636354273016" x2="887.590999420166" y2="344.1636354273016" fill="rgb(0, 0, 0)" stroke="rgb(60, 60, 60)" stroke-width="1px" opacity="0.25"></line><line x1="0" y1="309.74727188457143" x2="887.590999420166" y2="309.74727188457143" fill="rgb(0, 0, 0)" stroke="rgb(60, 60, 60)" stroke-width="1px" opacity="0.25"></line><line x1="0" y1="275.3309083418413" x2="887.590999420166" y2="275.3309083418413" fill="rgb(0, 0, 0)" stroke="rgb(60, 60, 60)" stroke-width="1px" opacity="0.25"></line><line x1="0" y1="240.9145447991111" x2="887.590999420166" y2="240.9145447991111" fill="rgb(0, 0, 0)" stroke="rgb(60, 60, 60)" stroke-width="1px" opacity="0.25"></line><line x1="0" y1="206.49818125638095" x2="887.590999420166" y2="206.49818125638095" fill="rgb(0, 0, 0)" stroke="rgb(60, 60, 60)" stroke-width="1px" opacity="0.25"></line><line x1="0" y1="172.0818177136508" x2="887.590999420166" y2="172.0818177136508" fill="rgb(0, 0, 0)" stroke="rgb(60, 60, 60)" stroke-width="1px" opacity="0.25"></line><line x1="0" y1="137.66545417092064" x2="887.590999420166" y2="137.66545417092064" fill="rgb(0, 0, 0)" stroke="rgb(60, 60, 60)" stroke-width="1px" opacity="0.25"></line><line x1="0" y1="103.24909062819046" x2="887.590999420166" y2="103.24909062819046" fill="rgb(0, 0, 0)" stroke="rgb(60, 60, 60)" stroke-width="1px" opacity="0.25"></line><line x1="0" y1="68.8327270854603" x2="887.590999420166" y2="68.8327270854603" fill="rgb(0, 0, 0)" stroke="rgb(60, 60, 60)" stroke-width="1px" opacity="0.25"></line><line x1="0" y1="34.41636354273015" x2="887.590999420166" y2="34.41636354273015" fill="rgb(0, 0, 0)" stroke="rgb(60, 60, 60)" stroke-width="1px" opacity="0.25"></line><line x1="0" y1="0" x2="887.590999420166" y2="0" fill="rgb(0, 0, 0)" stroke="rgb(60, 60, 60)" stroke-width="1px" opacity="0.25"></line></g></g></g><g><g><line x1="0" y1="619.4945437691429" x2="887.590999420166" y2="619.4945437691429" fill="rgb(0, 0, 0)" stroke="rgb(153, 153, 153)" stroke-width="1.5px"></line></g></g><g><g><line x1="88.7590999420166" y1="0" x2="88.7590999420166" y2="378.57999897003174" fill="rgb(0, 0, 0)" stroke="rgb(153, 153, 153)" stroke-width="1.5px"></line></g></g><g><g><g><g><g><path style="fill: none;" stroke="rgb(0, 119, 187)" stroke-width="2px" d="M89.52242820151794,69.10134234962209L89.57568366148315,69.14230637477903L90.03723098118164,69.39979937568495L90.44552284091492,69.69462965077429L91.74140570006836,70.30290788433814L92.84201853934935,71.0169095404454L92.93077763929138,71.54675037519115L93.30356585904785,72.02459706263664L93.62309861883911,72.45851358235058L94.24441231843322,72.91845207323428L94.27991595841003,73.29841679455063L94.42193051831725,73.63585326522332L97.19121443650818,74.34284288946378L98.29182727578919,75.10001457527562L99.05515553529052,75.85336659684822L99.17941827520936,76.52223265965921L100.0315056346527,77.21241313436656L100.26227929450195,77.84687764622805L100.68832297422362,78.45752884883717L101.45165123372497,79.0865797902448L101.5936657936322,79.6640775960829L102.46350497306396,80.27560646680928L102.71203045290162,80.85224726367272L103.01381139270445,81.40407837751371L103.12032231263488,81.91476214514893L103.61737327231018,82.42756928281L106.01386897074462,83.12186127404988L106.77719723024597,83.82594213906378L107.70029186964294,84.55325995807289L108.37486102920226,85.27968824953382L109.72399934832092,86.06442673591266L111.16189676738158,86.90795096773792L112.13824686674377,87.76552832680454L112.19150232670899,88.56074077376087L112.44002780654661,89.31508799675868L112.51103508650026,90.01809540441332L113.3631224459436,90.73610283411631L113.48738518586242,91.41097495762921L114.26846526535216,92.09723998629312L114.80101986500428,92.77489708720242L115.81287360434327,93.48111194023096L116.32767638400696,94.17619180878444L116.6117055038214,94.8437498984814L116.89573462363587,95.4859380271227L118.795179362395,96.22178358865915L119.2744785020819,96.9415959800059L119.55850762189634,97.63270883720617L119.61176308186155,98.28096597378175L120.39284316135132,98.94069287865244L121.51120782062071,99.63415177621488L121.90174786036559,100.30857491547175L122.09701788023803,100.95189074497762L122.80709067977418,101.60145967494401L123.10887161957702,102.22920081261162L123.33964527942626,102.83158463522466L124.91955725839416,103.5003328306583L125.98466645769837,104.19585499425773L127.60008207664306,104.95151615203815L127.81310391650389,105.67238407945712L128.3811621561328,106.38352976007059L128.48767307606323,107.05618525730375L128.8427094758313,107.70863176879686L128.93146857577332,108.32528024480439L129.73030047525148,108.95359075148826L131.18594971430053,109.63317280791722L132.0202852537555,110.32142759500312L132.32206619355833,110.98489164772582L132.35756983353517,111.60890385645507L132.44632893347716,112.19927479932119L132.89012443318725,112.77969603407479L132.90787625317566,113.32495755277796L133.1208980930365,113.84924291706932L133.2096571929785,114.34626282510817L133.7244599726422,114.84349108024429L133.99073727246827,115.32587128559163L134.09724819239867,115.78467557799712L136.4404884308679,116.35483796256472L137.4168385302301,116.9470770027225L141.44650166759766,117.73472319075393L142.7068808867743,118.5448359030566L142.7601363467395,119.30791620234129L143.7897419060669,120.08153806215222L144.89035474534788,120.86829985114798L146.11523032454772,121.67386543231555L146.36375580438536,122.44328772544361L146.39925944436217,123.1672577474321L146.41701126435058,123.8476492429586L147.44661682367797,124.54216425049734L150.55318532164856,125.36011606598336L153.00293648004822,126.255997438094L153.038440120025,127.09870949879624L153.92603111944518,127.9355718510393L155.1864103386218,128.7856463664942L156.1095049780188,129.63051556409337L156.48229319777528,130.44223687376694L156.6065559376941,131.21059767119337L158.50600067645323,132.02721453950096L159.00305163612853,132.8187286466335L159.50010259580384,133.5863364368745L160.4231972352008,134.35232751307407L161.52381007448182,135.12524230345676L163.26348843334532,135.9351718667964L163.81379485298584,136.72199216326416L163.90255395292783,137.46499268981165L165.41145865194213,138.23440348754698L165.44696229191894,138.9584152113065L166.8848597109796,139.70613914039566L168.5180271499127,140.4843471480265L168.81980808971556,141.2289070680548L169.19259630947204,141.94501343319496L171.57134018791808,142.72606655011276L171.6423474678717,143.46266028528592L171.7843620277789,144.16076840195862L173.7725658664801,144.90560052580787L174.02109134631775,145.61614846916254L174.69566050587707,146.313411074235L174.90868234573793,146.97749699696837L175.65425878525085,147.63366820461397L177.0211489243579,148.31009898556658L178.42354270344177,149.00609178794332L178.45904634341855,149.66113223361654L179.41764462279235,150.31745426267256L179.91469558246763,150.95476639452613L181.77863668125,151.63265115186493L183.3763004802063,152.33648001671077L183.66032960002073,153.00918635077554L183.9088550798584,153.65113147174426L184.99171609915098,154.2986884087962L187.28170087765503,155.000624478432L189.58943747614745,155.7529034468578L190.3705175556372,156.49075445846836L191.8794222546515,157.24304791890503L192.23445865441954,157.96356192578162L192.87352417400206,158.66540540937203L192.9977869139209,159.3293026141231L193.6368524335034,159.97761950906528L194.00964065325988,160.6007783746931L195.11025349254086,161.2286882714307L195.46528989230896,161.83206003598713L197.43574191102172,162.47392257859423L197.61326011090577,163.08344044297954L198.8381356901056,163.70223544453913L199.06890934995482,164.2919126411333L199.17542026988525,164.84958763861323L199.40619392973448,165.38182293902727L200.41804766907347,165.9194614269442L200.82633952880676,166.439605316158L200.91509862874878,166.93132837094765L201.96245600806455,167.43174975449392L204.51871808639467,167.99528805100965L205.47731636576844,168.5587905230025L205.99211914543213,169.10650957016293L206.9507174248059,169.65536245312657L207.64303840435363,170.1953388879336L207.69629386431885,170.70425293781292L207.90931570417968,171.18962618069514L208.4596221238202,171.66465813146644L210.30581140261413,172.1759672092366L210.44782596252136,172.66102904465072L210.7141032623474,173.1257438039009L212.43602980122253,173.62155259620602L212.897577120921,174.10308640555203L213.2881171606659,174.56866535626713L214.92128459959898,175.06107897560892L215.06329915950622,175.52833482139152L215.79112377903076,175.991935659966L217.42429121796388,176.48199331113355L218.56040769722165,176.97961690395485L219.41249505666502,177.47526299620245L219.8207869163983,177.95413998049463L220.15807149617797,178.41486626090017L221.02791067560972,178.87575589094894L221.20542887549377,179.31425239866638L221.25868433545898,179.72771351477218L221.52496163528502,180.12450193302837L222.11077169490235,180.5161802097387L225.23509201286132,180.98392178951158L225.34160293279174,181.42645793545006L226.53097487201475,181.8797955857532L227.02802583169006,182.32113989701682L227.20554403157408,182.74112759586555L227.82685773116822,183.15486241046722L229.58428791002012,183.59772158658978L230.63164528933595,184.04599483069447L231.25295898893003,184.48593341775396L231.9630317884662,184.9205625039173L233.98673926714417,185.3897566123173L234.60805296673828,185.84902959406546L234.7145638866687,186.2834759635175L235.93943946586853,186.72777187910668L236.72051954535826,187.16783200996466L237.23532232502197,187.5961784332765L237.324081424964,188.00104028244343L237.48384780485964,188.38595440965815L239.0815116038159,188.794339000663L239.1347670637811,189.17935956844627L239.63181802345642,189.55528714071363L239.80933622334044,189.91340044285224L240.83894178266786,190.27911428079605L241.46025548226197,190.6400962830698L242.06381736186768,190.99599641410742L243.12892656117185,191.35975422605875L245.33015223973385,191.76425218881425L246.37750961904968,192.17368139474036L246.83905693874817,192.57105714805436L246.8923123987134,192.94567845624516L247.26510061846983,193.3078228842356L247.3893633583887,193.6513241038664L248.4189689177161,194.00223006121456L248.5254798376465,194.3346437968569L249.51958175699704,194.67377915571953L252.55514297501404,195.0726453585585L253.1587048546197,195.46291750813228L254.15280677397033,195.85646199753998L254.72086501359925,196.2413306298474L255.85698149285707,196.6330667189531L256.2652733525903,197.01171042038698L256.85108341220763,197.38266931059L258.2534771912915,197.7674587059056L258.37773993121033,198.13197732948234L258.6085135910596,198.48019262773443L259.67362279036377,198.83434385567716L260.20617739001585,199.18035423733863L260.6144692497491,199.51552094111992L260.9340020095404,199.83824100952947L263.50801590785886,200.2048011363043L264.64413238711666,200.57807419040918L267.3246572053656,200.99570542100878L267.7862045250641,201.39921727395858L269.27735740408997,201.81440572444552L271.1945539628375,202.2500566665907L271.31881670275635,202.66206601581547L273.3247723614459,203.09576889248197L273.37802782141114,203.50424518749017L273.75081604116764,203.8963895977516L274.79817342048335,204.28854879902272L274.97569162036746,204.66081658602192L275.56150167998476,205.02423285331685L277.070406378999,205.40131706720703L277.62071279863954,205.76832496406308L277.90474191845396,206.1195884765348L278.20652285825685,206.45646043312598L278.916595657793,206.7892508133884L279.7331793772595,207.12052707502073L279.75093119724795,207.43200191124063L280.1414712369928,207.73340232630537L280.7627849365869,208.0305444266296L281.2243322562854,208.31999401693264L281.384098636181,208.59538702862645L282.307193275578,208.8746671969414L282.36044873554323,209.13809854058468L282.9640106151489,209.39887091763111L283.0350178951025,209.6453098595862L283.4433097548358,209.88573367168095L283.54982067476624,210.1138381388114L283.58532431474305,210.3288110682056L284.2953971142791,210.54624130709095L284.40190803420955,210.7527347883264L284.72144079400084,210.95359561591573L285.8575572732587,211.16677822535198L286.1948418530383,211.37419644008042L286.35460823293397,211.5723838030293L287.5617319921454,211.7841552052949L287.59723563212214,211.9837573515997L288.66234483142637,212.19384200921547L291.48488420958256,212.45294766400264L292.42573066896784,212.71647951935086L292.78076706873594,212.97152204680728L293.33107348837643,213.2227135041613L293.4908398682721,213.46196790376533L293.79262080807496,213.69301261528656L294.09440174787784,213.91632640622856L295.55005098692686,214.1564546205179L295.9583428466602,214.3903960656311L296.2068683264978,214.61520057424923L297.5205030056396,214.8532228214644L299.5442104843176,215.11755739829508L301.2483852032043,215.39954770780776L301.3371443031464,215.66608247557065L301.9762098227289,215.92887601456974L302.5265162423693,216.18635861613618L304.2484427812445,216.46217319722854L304.709990100943,216.73052710710513L304.7809973808966,216.9839489659632L305.06502650071104,217.22765223246603L305.810602940224,217.47148364181322L306.94671941948184,217.72309357102608L306.99997487944705,217.9604104230432L307.2840039992615,218.18887496399793L308.98817871814816,218.43683894142129L309.92902517753356,218.68791462865275L311.6154480764319,218.95598126422595L313.71016283506344,219.24714804556862L314.2072137947387,219.52980755387787L315.25457117405455,219.81459155277133L316.0889067135095,220.09730409764998L317.36703775267455,220.38599402365193L317.7043223324542,220.66315837385534L318.4676505919556,220.93712036136859L319.85229255105105,221.21899901780503L320.1540734908539,221.4890107762027L320.63337263054075,221.75098684194938L321.0061608502972,222.00351936157077L321.21918269015805,222.24437338384377L321.4854599899841,222.475422539557L321.55646726993774,222.69369510616696L321.85824820974057,222.90424302692503L322.4973137293231,223.1137381394082L323.2073865288593,223.32347998661783L323.7931965884766,223.5311130135918L325.74589678720093,223.76132213155324L326.6867432465863,223.99426243996817L326.75775052653995,224.2142527368854L327.11278692630793,224.42711435617716L328.4974288854034,224.65134947772367L329.24300532491634,224.87490616560896L330.1483481443249,225.10050467045167L330.5566400040582,225.31937318958248L331.603997383374,225.54281991171666L331.6572528433392,225.75354335413252L332.8111211425855,225.9709796014926L333.3259239222491,226.1838235152578L333.92948580185487,226.39380277653544L334.5507995014489,226.6013363904682L335.24312048099665,226.8076987454192L336.8762879199298,227.02831571612825L337.2668279596747,227.24184186354245L338.72247719872377,227.46590012015017L341.2254838170886,227.71616148130352L342.3971039363232,227.9703594444921L342.52136667624205,228.21112154685198L342.68113305613764,228.43985400353844L342.9829139959405,228.65964313993368L343.1959358358014,228.86955291340703L343.3024467557318,229.06842207788947L344.34980413504763,229.27241067984332L345.23739513446776,229.47846550101806L346.07173067392273,229.68549747168103L346.71079619350525,229.8902175304718L347.1368398732269,230.08930099600292L347.1900953331921,230.27709328266843L348.52148183232237,230.4746829784549L348.6279927522528,230.6619115128805L349.1605473519049,230.8461521293115L349.3203137318005,231.02167676720435L349.4978319316846,231.18929539900552L351.13099937061764,231.3722706641414L351.1487511906061,231.54436073370968L351.2907657505133,231.70816167178754L351.3617730304669,231.86307593508775L351.6635539702698,232.0132234387427L352.7996704495276,232.17175070964973L353.1369550293072,232.32578535655145L353.740516908913,232.4796557673076L355.5334507277417,232.65131916229444L356.6518153870111,232.82927903044504L357.46839910647765,233.00854035359208L358.2494791859674,233.1884251024868L358.5867637657471,233.36230619843928L359.77613570497005,233.54300919469654L360.80574126429747,233.72765331838943L361.2140331240307,233.9069364655059L363.45076244256956,234.10730960600844L363.48626608254636,234.29596452475184L364.0543243221753,234.48118413047996L364.60463074181575,234.66339220649382L365.6519881211316,234.85017037124183L368.1904983794733,235.06308321984739L368.61654205919496,235.26923905096524L368.7763084390906,235.46515187195328L369.69940307848753,235.66253436949387L369.75265853845275,235.84864936154125L372.43318335670165,236.06187649349297L372.68170883653926,236.26562454481058L374.49239447535643,236.4824732791758L374.8651826951129,236.69131182310957L377.22617475357055,236.92013222453835L378.5043057927356,237.15248529504382L378.8948458324804,237.37597851343514L379.1966267722833,237.58993502828213L380.0132104917499,237.8018820095171L380.6167723713556,238.00902091333674L381.7706406706018,238.21895885762967L383.19078626967405,238.43512495245966L383.2795453696161,238.63935425218753L384.5399245887927,238.84879246670258L385.1789901083752,239.05435447185738L386.048829287807,239.25943009026238L387.14944212708804,239.467144303228L387.1671939470764,239.6624322105408L387.7707558266821,239.85406639175412L388.01928130651976,240.03740251666505L388.7648577460327,240.21969598779634L391.7294116840961,240.43069416610703L392.27971810373657,240.63612727213803L392.8832799833423,240.83701350147726L394.1436592025189,241.0422153990156L394.8004765420898,241.24348116193224L395.3862866017072,241.44009186836334L395.7058193614984,241.62885575803335L395.74132300147517,241.80656554312097L396.1496148612085,241.97871668223183L396.1673666811969,242.14059684820054L396.1851185011853,242.29283056824684L396.2383739611505,242.43646676825946L396.57565854093014,242.57569181489905L397.1969722405243,242.71441468289632L397.7472786601648,242.85180708617872L398.4395996397125,242.9902386315377L398.6171178395965,243.12263442960054L400.19702981856443,243.26827289328017L400.4455552984021,243.408360977306L400.9603580780658,243.54679105710056L401.102372637973,243.67867293061556L401.6171754176367,243.809371350893L403.3746055964886,243.95534403969424L407.4752760138098,244.14566136631453L407.9190715135199,244.33005141534886L407.9723269734851,244.50387439971286L408.13209335338075,244.66913436485143L408.62914431305603,244.83064824978567L409.25045801265014,244.9902022319777L409.463479852511,245.14272030669227L410.5995963317688,245.30026811428957L412.9960920302032,245.4781074981926L413.954690309577,245.65716759237964L416.3156823680347,245.85605592164953L416.33343418802303,246.04304030703565L418.81868898639954,246.250508764608L420.9666592049963,246.47250072555366L421.0909219449152,246.68251284773558L423.30989944346555,246.90740185384828L424.1619868029089,247.12910790242594L425.3158551021551,247.35147105467962L425.65313968193476,247.56439847169818L426.1501906416101,247.77040380690357L426.54073068135494,247.9685959020554L426.91351890111144,248.1592271248794L428.12064266032286,248.3528234570272L429.06148911970826,248.54591250518396L430.0910946790356,248.73952027830708L430.8721747585254,248.93059790599793L431.38697753818906,249.11646068960124L434.67106423604366,249.33191563477337L434.93734153586973,249.5375133435096L434.99059699583495,249.73122629462847L435.38113703557985,249.91792789681818L435.4876479555103,250.0945501022211L436.3397353149536,250.27084352853691L437.4225963342462,250.4495811767055L437.67112181408385,250.62043305651133L437.86639183395624,250.7832315057775L438.8427419333185,250.94787785173312L439.0380119531909,251.1046851290601L439.1445228731213,251.2531304498845L440.1918802524371,251.40452545029297L440.671179392124,251.55276786343842L441.0794712518573,251.69713702033704L442.3220986510455,251.84835841218893L442.7126386907904,251.9952525387646L443.2984487504077,252.14051396378005L443.60022969021054,252.28068047119808L443.7244924301294,252.41384447752262L444.43456522966557,252.54771492621273L444.75409798945674,252.67737951464707L444.86060890938717,252.8004539748442L444.91386436935244,252.91667959772695L446.26300268847103,253.0424472522086L446.2807545084595,253.16076131325798L447.1150900479144,253.28207915210817L447.66539646755496,253.4027137896029L448.14469560724183,253.52182195420727L448.197951067207,253.63431121267564L448.286710167149,253.7410177809803L449.28081208649957,253.85325412918883L449.5470893863257,253.9618554961178L449.74235940619815,254.06618669879788L450.61219858562987,254.17460688212532L451.6240523249689,254.28850837481946L452.422884224447,254.40496404296306L453.15070884397153,254.5229371393205L453.3814825038208,254.6364407943683L453.39923432380925,254.74322894923878L453.7897743635541,254.84810995568117L453.8785334634961,254.94763833891756L454.0738034833685,255.04339394993076L456.04425550208134,255.15635913090514L456.4170437218378,255.26676607138864L457.64191930103755,255.38461535685775L457.6951747610028,255.4958904935441L457.7129265809912,255.600582065389L458.56501394043454,255.70868993917315L458.99105762015625,255.8150884594303L461.33429785862546,255.94166119871213L462.04437065816165,256.06852557366386L462.7544434576978,256.19563576452L462.98521711754694,256.31758100349566L464.12133359680485,256.4447811639375L465.275201896051,256.57703782630546L465.6834937557843,256.7057436648927L467.1746466348102,256.8430080041455L467.22790209477535,256.97248184206086L467.31666119471737,257.09503081693407L468.5060331339404,257.2230901981332L468.82556589373166,257.3468136758004L470.15695239286185,257.47740744673933L470.8492733724096,257.60749097490753L473.6540609305774,257.7595754368427L474.39963737009026,257.91026718227016L474.4173891900787,258.05195493258583L475.571257489325,258.1971407199508L475.6777684092553,258.3345873695897L476.1393157289539,258.4684829446795L476.5121039487103,258.5981070582552L476.61861486864075,258.7209352897796L478.7310814472607,258.8581944554001L479.4234024268084,258.9942124421509L483.22229190432677,259.1650074172894L483.66608740403683,259.3304413099408L483.8968610638861,259.48840854346054L484.37616020357297,259.6421815980188L484.5004229434918,259.7879840043019L484.9264666232135,259.92971562416994L485.1749921030511,260.065610620621L485.6720430627264,260.19882202022586L486.95017410189143,260.3382628834585L487.6957505414044,260.4775287673973L488.3170642409985,260.61521683344193L488.9738815805694,260.7517977290606L490.58929719951414,260.8978762656293L492.77277105808776,261.0589155519695L492.8970337980066,261.2114828877743L494.015398457276,261.3668645844923L494.22842029713684,261.5150684590069L495.82608409609315,261.6714122787118L495.8793395560583,261.81878973591904L498.48885709435365,261.9849448773053L498.5598643743072,262.14171535836215L499.32319263380856,262.2969754556831L499.51846265368096,262.44481888488303L499.6072217536231,262.5845788652721L499.69598085356506,262.71674648508554L500.2995427331708,262.8471866577595L500.4770609330548,262.971527967788L500.9386082527533,263.09311162255733L501.73744015223144,263.21560958774893L502.1457320119647,263.33487971835933L503.0510748313733,263.45625841112104L503.47711851109494,263.574633712005L503.81440309087463,263.6892658403984L504.06292857071224,263.7994641465897L504.64873863032955,263.90896079745954L506.6546942890191,264.0322640708029L507.5245334684509,264.15686928479727L508.96243088751163,264.2883770982585L509.157700907384,264.4138250343767L509.51273730715207,264.53518245722404L510.80862016630556,264.6620909367971L511.8204739056446,264.79131676112934L513.7199186444036,264.93141187327757L516.2229252627685,265.0874173495862L516.9152462423162,265.24062167651203L517.43004902198,265.3894598669491L518.1223700015278,265.53589406959907L518.9744573609711,265.68158454716007L519.8265447204144,265.82654263044645L519.8620483603912,265.9629966326708L520.0040629202985,266.09248439311716L520.5366175199505,266.2191488304515L520.9449093796838,266.3419708928223L522.2052885988604,266.46924358713693L524.7082952172253,266.612263802019L525.8444116964831,266.75714310704205L526.6609954159497,266.9007568759583L527.1935500156018,267.0405334724449L527.5840900553467,267.17565183512255L527.7261046152539,267.3040055585617L529.8918266538391,267.4469556987624L530.4243812534912,267.58666774553666L530.8149212932361,267.721867648125L531.4007313528534,267.8548247808747L532.7143660319953,267.9930738678811L533.406687011543,268.1299232858492L534.9333435305456,268.2738553986437L536.2292263896991,268.4220215763408L536.6730218894091,268.56559036842145L536.9037955492583,268.7027059297659L537.063561929154,268.83305314913844L538.4659557082379,268.9693961101403L539.5133130875537,269.1077832359945L541.5370205662317,269.25761202056987L541.8032978660577,269.40090403404275L543.2056916451415,269.54911184609745L544.7500999841326,269.703224972546L546.3300119631006,269.8631194419808L546.9868293026715,270.0195410686119L547.6081430022656,270.1723473166951L548.9217776814074,270.3283077311978L550.838974240155,270.4928339037636L551.1230033599695,270.6499888309652L551.495791579726,270.8010510456078L551.6555579596215,270.94439406532103L551.939587079436,271.08165000342575L553.0579517387055,271.2209604854694L553.0757035586938,271.35193920590444L553.3242290385315,271.4772386963999L555.5077028971051,271.61508652126L555.7029729169775,271.74632155028576L557.4781549158179,271.8858146429854L558.6675268550408,272.0276262416178L562.2178908527216,272.19278556810286L563.7090437317474,272.3611664014944L563.7445473717243,272.5195923425041L564.4723719912487,272.67481321159283L564.4901238112371,272.8207217747525L565.0049265909008,272.9622867910256L565.0404302308777,273.09553067761897L566.7978604097297,273.2361232457213L569.4606334079901,273.3913745264773L570.5967498872479,273.54699200334505L570.7032608071784,273.69403579735723L570.8097717271088,273.83302890316793L570.8807790070623,273.96415608501303L570.8985308270508,274.0874386737089L572.2299173261811,274.21465327742334L572.9399901257171,274.34019029807314L573.9163402250792,274.46640447811086L576.0465586236877,274.60298692366126L576.1885731835949,274.73243712316327L577.0406605430384,274.8611685399975L578.176777022296,274.99158154118254L578.2300324822613,275.114483824846L578.7803389019018,275.2344899917988L578.9578571017859,275.34865736773656L579.0821198417046,275.45689764336066L579.4016526014959,275.5611981111918L580.4135063408349,275.6684181813558L581.1945864203248,275.77639763741087L582.7212429393273,275.8919915407071L584.3366585582721,276.0154661918367L584.3721621982488,276.13173724055514L584.9402204378779,276.2461413462362L585.259753197669,276.35650194181926L590.2835182543871,276.5057833857025L590.7450655740857,276.65010709998256L591.5261456535754,276.7926285586868L592.5024957529376,276.9351795416289L593.6031085922186,277.07882939386474L593.8338822520678,277.2157627943614L595.467049691001,277.35878470854266L595.9818524706646,277.4976131335775L596.6741734502124,277.634053530305L597.8280417494586,277.77226986768767L601.6446830469653,277.93513239846226L603.0470768260492,278.10009118686145L603.5086241457476,278.2589317091456L603.8991641854925,278.411416526201L604.2364487652723,278.5574728433589L604.5914851650402,278.6976409576299L604.6802442649822,278.8300136245099L604.9642733847967,278.9567241399653L605.1772952246575,279.0775152504548L605.461324344472,279.1933466801753L605.9406234841589,279.30617073476105L607.1477472433703,279.422299421126L608.2483600826514,279.5405921520772L608.3903746425586,279.6528603010019L611.9407386402393,279.78782970839825L612.065001380158,279.9155930808511L612.2247677600537,280.0368843013839L613.1123587594739,280.15809258477236L613.165614219439,280.2723456319985L613.5384024391955,280.3826945229303L613.7514242790563,280.48806200372854L614.0887088588361,280.5897690286085L614.4259934386157,280.688034881097L616.8402409570385,280.79998757362796L618.2781383760992,280.9167455997765L618.2958901960876,281.02652554056266L618.8994520756934,281.1344741103136L619.236736655473,281.23855071988294L620.0533203749395,281.34283567171303L621.3314514141045,281.4509801770065L621.4202105140466,281.5532346236456L621.8817578337452,281.65292948411496L622.6983415532117,281.75303390285023L622.9646188530377,281.84914421197976L624.4202680920868,281.9509041094451L625.1835963515881,282.0524670838106L625.6451436712865,282.15146059612L625.8759173311358,282.2462274427976L626.3729682908112,282.33910767825205L627.1362965503124,282.43229060500494L629.4795367887817,282.5380028600958L629.6037995287005,282.6382276958439L629.6748068086542,282.7328874035524L631.4854924474713,282.8357298018124L632.1955652470074,282.9377466424883L633.8642363259173,283.0462860926219L634.112761805755,283.1500966606011L634.4322945655463,283.2500053844679L635.1778710050592,283.34947772981116L636.9353011839112,283.45615846648934L640.0063660419049,283.5797847710292L640.9472125012902,283.7037563088047L643.0596790799103,283.8377784270096L646.2905103177997,283.99030373975916L646.9473276573706,284.13891077073504L647.320115877127,284.28150403741296L647.976933216698,284.42076485570635L648.6159987362805,284.5567383357392L651.4385381144367,284.7072818965057L651.9000854341351,284.8523602779832L652.6101582336713,284.9942949832339L653.4267419531377,285.13411667405603L654.5806102523841,285.2746251019185L654.7048729923029,285.4075535760311L654.8468875522101,285.5335046235208L655.6989749116534,285.6585479060493L655.8587412915491,285.77723090430584L656.9060986708648,285.8969691144738L657.1368723307141,286.0112272452932L659.7108862290326,286.1387572869705L659.9239080688934,286.2601737783497L660.5097181285107,286.3787627627843L661.2552945680236,286.4959300377441L662.4091628672699,286.6149157013467L663.7227975464117,286.73680611287307L664.5571330858667,286.85769208978724L665.1961986054492,286.9761172788733L665.7110013851129,287.0912687578287L666.2258041647766,287.2033402165452L666.4565778246258,287.3103392034881L666.5098332845911,287.4112196892201L667.6814534038257,287.5148840277482L667.7347088637908,287.6126312764765L668.4980371232923,287.71021815089756L669.367876302724,287.80844728212367L670.3619782220746,287.90819647358103L672.7052184605438,288.0194678021668L672.8294812004626,288.12488057365266L672.847233020451,288.2239973096L672.9714957603699,288.31799691859845L674.6224150192913,288.4185717212046L674.8354368591522,288.514593153127L675.0662105190014,288.6064711113572L675.1904732589203,288.69366750165295L677.2141807375982,288.7905089223489L677.2851880175518,288.881967577618L677.7644871572387,288.97137502933197L677.7999907972155,289.0555909071091L678.9893627364386,289.1433989559871L679.3976545961718,289.22883991206936L680.64028199536,289.3181386736363L680.8178001952442,289.40328359455754L681.1195811350469,289.48542902306656L681.2438438749658,289.56346854867496L681.2970993349311,289.63713407665057L681.740894834641,289.70952945623355L684.155142353064,289.7949573862419L685.788309791997,289.88689875677704L685.9125725319159,289.9741206548111L687.5102363308722,290.0674262185832L687.6700027107678,290.1561773596896L687.8830245506286,290.2410283006316L688.2203091304083,290.32309989829434L688.5220900702111,290.4023074205685L688.7883673700372,290.47857130400354L689.480688349585,290.55508433446005L689.6937101894457,290.6284356809332L690.1375056891559,290.70044594769L690.670060288808,290.77181960679275L690.7943230287268,290.8397144087968L691.8239285880542,290.91070336950196L692.6405123075208,290.9830841257844L692.9777968873004,291.0534081793515L693.1020596272192,291.12031139533127L693.9186433466858,291.18883161161114L694.8417379860828,291.2595949666204L694.894993446048,291.32641015112415L695.516307145642,291.39346222350076L697.7707882841693,291.4719927765911L697.8240437441345,291.54609935795094L698.7471383835315,291.6220262219433L698.7648902035198,291.6934416757594L699.1376784232764,291.7630555202384L700.1140285226386,291.835100064176L701.6584368616296,291.91326914563433L701.676188681618,291.98679004165086L702.3507578411774,292.06040305989785L702.6170351410034,292.13132961408223L702.9720715407715,292.2003322190059L703.1318379206671,292.2662068217743L703.2916043005627,292.3291422283767L703.8241589002148,292.3918344224248L704.6939980796466,292.4565626626225L705.6703481790088,292.5238994956127L706.2384064186377,292.59093285181933L706.6289464583826,292.6564899687646L707.9248293175359,292.7266913491103L710.6231059557733,292.81049357867477L711.492945135205,292.89491600512673L712.1320106547876,292.9783891577339L713.2326234940687,293.0639861682341L714.5995136331757,293.1532873106669L714.6527690931408,293.2374874539981L716.0019074122595,293.32532077107373L716.374695632016,293.4102128413471L716.5167101919232,293.49084547856717L716.7474838517725,293.56805312293864L716.7829874917492,293.6407813473473L716.8894984116796,293.7097618869564L718.0256148909375,293.78187046237883L718.6291767705433,293.8534665725563L718.66468041052,293.9209235642146L718.6824322305084,293.98437980148265L720.2090887495111,294.0537596875307L720.2623442094763,294.1192477646903L720.7416433491632,294.18380634872955L723.7772045671802,294.26372750918364L723.901467307099,294.3395603207034L725.0730874263336,294.4181652458556L725.1618465262756,294.4925338682251L727.0080358050695,294.57396441393394L727.3098167448725,294.6523177185162L728.4991886840954,294.73332142092795L728.8542250838635,294.8115962645358L729.5110424234344,294.8891827147513L729.5820497033881,294.9624788649124L730.7536698226227,295.0385697236688L731.6767644620196,295.1157271472265L731.9430417618457,295.189821726628L732.2093190616717,295.2610382932249L732.4933481814862,295.3296605214726L732.7241218413354,295.39551631256063L733.3454355409295,295.46117498755814L733.6827201207092,295.52489869833335L733.8069828606281,295.58549807889915L737.943156917926,295.66760586440495L739.0082661172302,295.75143827894607L739.5408207168823,295.83379681057517L739.8781052966619,295.9134339352134L741.4580172756298,295.9989687027199L742.1503382551775,296.08398287482294L742.2213455351311,296.16429169653674L742.3811119150268,296.24078283687095L742.4876228349573,296.31332878880824L742.9314183346673,296.384452650858L743.9432720740064,296.4580672640957L744.7066003335077,296.532330884749L746.5350377923132,296.6143235407461L747.6178988116059,296.69854237778225L748.5942489109681,296.7841208169401L749.1800589705854,296.8683691334494L751.1150073493212,296.9602739929435L751.2215182692516,297.0472754078927L751.3812846491472,297.1300228632853L752.3398829285211,297.21402947157844L753.6712694276513,297.301641016411L754.274831307257,297.3878544791281L755.5529623464221,297.47713983398285L757.1151225054016,297.5711196320315L758.8192972242883,297.6703764419197L759.156581804068,297.76575091060533L759.9199100635693,297.86021478703844L761.1447856427691,297.9567687684056L764.9614269402759,298.07171693868844L766.7543607591045,298.1909673757068L767.7307108584668,298.309078099524L767.9969881582929,298.42165385571695L769.2218637374926,298.53503069510344L769.8254256170983,298.64525757661596L771.1390602962402,298.7569393689183L771.4230894160546,298.86357245909835L771.6183594359271,298.9649122267603L772.2219213155328,299.063812272218L773.642066914605,299.1654548038168L774.7249279338977,299.2675662763913L774.742679753886,299.3635570648133L775.0089570537122,299.455330167396L775.7722853132135,299.5461881211411L776.1273217129815,299.63367806605044L776.8906499724828,299.7205001197452L776.9794090724249,299.80256860867934L778.25754011159,299.8874232569213L780.7605467299547,299.98227800889356L781.1688385896881,300.0738112579458L781.1865904096765,300.1598670923383L781.2398458696416,300.24099586571424L783.6008379280993,300.33137097154827L785.305012646986,300.4264200950354L785.6600490467541,300.5177854840689L786.3523700263019,300.6076979928554L786.5476400461743,300.69328708103575L790.8258286633795,300.79891826411307L791.5891569228808,300.902580732662L792.3169815424054,301.0041783469196L793.5596089415935,301.1068282633257L794.0566599012689,301.2061096301951L794.9620027206774,301.30459245889375L796.6839292595527,301.40703249637545L796.8259438194598,301.5040425676979L797.234235679193,301.5974895438035L797.3229947791351,301.68574880274934L797.6247757189379,301.77036210626017L798.5301185383465,301.85501956777L799.2046876979059,301.93838306484656L802.595285315691,302.0360020814851L802.8260589755401,302.12897573905553L804.1041900147052,302.2235177494217L805.9681311134875,302.32280194114594L807.5125394524787,302.4246970704144L807.7255612923395,302.52156987350133L808.2936195319684,302.61571083514514L808.7906704916437,302.7068841671076L810.3350788306348,302.8010951262277L810.5125970305187,302.89054627290693L810.6191079504491,302.9751315315642L810.6901152304027,303.0549515114411L811.2404216500433,303.1329537371372L811.2759252900202,303.20639603913565L811.5244507698577,303.27673383234895L811.6309616897881,303.34337165210184L812.9268445489416,303.4131062272147L816.2996903467383,303.4971068078599L817.3115440860772,303.58150526105396L817.4358068259961,303.66143213263996L818.8737042450567,303.7443038321818L819.1577333648712,303.82366000534216L819.3352515647553,303.89913848229975L819.6370325045581,303.97164652013316L820.9329153637116,304.0467390650803L821.39446268341,304.1197396274415L821.4122145033984,304.1883832583204L822.6548419025867,304.2595247802559L823.8619656617981,304.3327995948288L824.1459947816126,304.40312427158227L825.3176149008472,304.4754158371802L826.1697022602905,304.5478364734637L826.453731380105,304.61735106823477L826.9685341597686,304.6853601988615L827.4123296594787,304.7515752916536L827.7496142392583,304.8155371745568L827.8561251591888,304.8761619866809L830.3058763175884,304.9460205212215L830.4478908774958,305.0123644841661L831.5840073567534,305.08062584674786L832.0633064964404,305.1472359545734L834.4598021948748,305.22229022764805L834.5840649347937,305.29341288197L834.903597694585,305.3618568301963L836.7320351533905,305.43560383837905L837.1580788331122,305.50705463539515L837.2645897530426,305.57469752287636L837.3355970329961,305.63858058622924L837.5841225128339,305.69984815367474L838.6847353521148,305.76304846599123L839.8918591113263,305.82859419340343L840.3711582510132,305.8925982598253L841.5427783702478,305.95868848741986L841.773552030097,306.02192447069797L842.341610269726,306.08419815650234L842.6611430295172,306.1443008890166L842.8386612294012,306.20164032094385L843.2114494491576,306.25737807611154L843.6552449488678,306.31197024024164L845.1463978278937,306.37078636458034L846.3890252270819,306.4322874165978L847.4186307864093,306.495220450392L848.1287035859453,306.5578803842414L848.6080027256323,306.6191206326705L849.1050536853077,306.67911388860114L850.2056665245885,306.74094744032493L850.8802356841479,306.80237074201386L851.4660457437652,306.8629643433693L851.7678266835682,306.92136133949026L852.4601476631159,306.97963379686865L856.7560881003094,307.0555403044078L857.0401172201239,307.12820800376085L859.5963792984539,307.2093728072673L860.519473937851,307.29070203087764L861.3005540173407,307.3713887924016L861.9218677169348,307.450585333067L862.4544223165868,307.5278860251005L862.8804659963085,307.602815883343L863.3065096760301,307.67551752651354L863.4485242359375,307.74456520487774L863.6437942558099,307.8104741230383L863.6615460757984,307.8724587000128L864.0875897555201,307.93300071978865L864.7266552751025,307.99335142292676L865.2059544147894,308.0526455414934L865.276961694743,308.10871113439885L865.543238994569,308.1628102813165L866.0047863142676,308.21613007720185L866.20005633414,308.2672645072884L866.3953263540124,308.3163448767478L866.9811364136298,308.3656227582102L868.490041112644,308.4200934608867L869.1291066322265,308.47470315442615" fill="none"></path></g></g></g></g><g opacity="0.2"><g><g><g><path style="fill: none;" stroke="rgb(0, 119, 187)" stroke-width="2px" d="M89.52242820151794,69.10134234962209L89.57568366148315,69.18077159440111L90.03723098118164,69.86862228978703L90.44552284091492,70.4755339283031L91.74140570006836,72.38692321330575L92.84201853934935,73.98437004941934L92.93077763929138,74.11201481509931L93.30356585904785,74.64570056720964L93.62309861883911,75.10090891259813L94.24441231843322,75.98034163351099L94.27991595841003,76.03039518652258L94.42193051831725,76.23090479658663L97.19121443650818,80.11213935210901L98.29182727578919,81.61289257040482L99.05515553529052,82.64550557453407L99.17941827520936,82.81286496260361L100.0315056346527,83.95562860536029L100.26227929450195,84.26336769587601L100.68832297422362,84.82987544996115L101.45165123372497,85.84118697480869L101.5936657936322,86.02912575811644L102.46350497306396,87.17881484328984L102.71203045290162,87.50601738097663L103.01381139270445,87.90132557276115L103.12032231263488,88.04029392912241L103.61737327231018,88.68488522590559L106.01386897074462,91.72883051105072L106.77719723024597,92.68296610845823L107.70029186964294,93.82743649531756L108.37486102920226,94.65960553338675L109.72399934832092,96.31603350704904L111.16189676738158,98.04739411121989L112.13824686674377,99.20499329886917L112.19150232670899,99.26794589865688L112.44002780654661,99.56081662227803L112.51103508650026,99.64418450729397L113.3631224459436,100.64207183333394L113.48738518586242,100.78757176808824L114.26846526535216,101.69490319067961L114.80101986500428,102.31038137171112L115.81287360434327,103.47539833180673L116.32767638400696,104.0655379273137L116.6117055038214,104.38899875677532L116.89573462363587,104.7113108161679L118.795179362395,106.83873451816868L119.2744785020819,107.36959757810911L119.55850762189634,107.68314616297437L119.61176308186155,107.74183190250534L120.39284316135132,108.60111191420566L121.51120782062071,109.82025235555773L121.90174786036559,110.24405004505638L122.09701788023803,110.45506269575236L122.80709067977418,111.22162055187385L123.10887161957702,111.548429225537L123.33964527942626,111.79449577434207L124.91955725839416,113.47166725325246L125.98466645769837,114.5868932363523L127.60008207664306,116.26193128513438L127.81310391650389,116.48075557230038L128.3811621561328,117.06347739536102L128.48767307606323,117.17349674598051L128.8427094758313,117.53601575779226L128.93146857577332,117.62591522120124L129.73030047525148,118.44203430030467L131.18594971430053,119.90799619650727L132.0202852537555,120.73888517649937L132.32206619355833,121.03753257246808L132.35756983353517,121.07298033460086L132.44632893347716,121.16130434191507L132.89012443318725,121.59823083220363L132.90787625317566,121.61595471327001L133.1208980930365,121.8272955839858L133.2096571929785,121.91476621924863L133.7244599726422,122.42019222765862L133.99073727246827,122.68089738934447L134.09724819239867,122.78431951756704L136.4404884308679,125.05816217037739L137.4168385302301,125.99204659256645L141.44650166759766,129.76985901986617L142.7068808867743,130.92886955360038L142.7601363467395,130.9779384465527L143.7897419060669,131.91750107508338L144.89035474534788,132.9098086607876L146.11523032454772,134.0075076948329L146.36375580438536,134.227447930066L146.39925944436217,134.258727297948L146.41701126435058,134.27451468089788L147.44661682367797,135.18837768188232L150.55318532164856,137.90170694113527L153.00293648004822,139.99578348912962L153.038440120025,140.02597973094643L153.92603111944518,140.77583118806277L155.1864103386218,141.83122266156252L156.1095049780188,142.5986338897354L156.48229319777528,142.90374722009312L156.6065559376941,143.0083837623888L158.50600067645323,144.56788836421956L159.00305163612853,144.97566891675447L159.50010259580384,145.37770561894385L160.4231972352008,146.1203690576277L161.52381007448182,147.00108183661757L163.26348843334532,148.38114855365205L163.81379485298584,148.81413640370366L163.90255395292783,148.8848349959574L165.41145865194213,150.06127401274023L165.44696229191894,150.08841780837338L166.8848597109796,151.20160882735075L168.5180271499127,152.44940287642683L168.81980808971556,152.67745014614775L169.19259630947204,152.9567982049553L171.57134018791808,154.73732616808437L171.6423474678717,154.79089167530725L171.7843620277789,154.8977272917352L173.7725658664801,156.36178551182326L174.02109134631775,156.54555590088017L174.69566050587707,157.03896905656737L174.90868234573793,157.19316682184498L175.65425878525085,157.7280013440244L177.0211489243579,158.7165015774995L178.42354270344177,159.71383092950586L178.45904634341855,159.73916951503037L179.41764462279235,160.41553250972513L179.91469558246763,160.76065586049017L181.77863668125,162.06309854285428L183.3763004802063,163.16641013923723L183.66032960002073,163.36048663691426L183.9088550798584,163.52932301507266L184.99171609915098,164.26345273324304L187.28170087765503,165.80241076183756L189.58943747614745,167.3296185137251L190.3705175556372,167.84564602877293L191.8794222546515,168.82039384342065L192.23445865441954,169.0520187113568L192.87352417400206,169.46669188430644L192.9977869139209,169.54674474712297L193.6368524335034,169.95541149371127L194.00964065325988,170.19150015391602L195.11025349254086,170.89264376010175L195.46528989230896,171.11845913368836L197.43574191102172,172.35282898395675L197.61326011090577,172.46462072268292L198.8381356901056,173.22628810051017L199.06890934995482,173.36788221702946L199.17542026988525,173.43306671295144L199.40619392973448,173.57380745741935L200.41804766907347,174.19466844677473L200.82633952880676,174.4455926518721L200.91509862874878,174.4999130651404L201.96245600806455,175.1342638973074L204.51871808639467,176.6693489296689L205.47731636576844,177.23234472954266L205.99211914543213,177.53716266188266L206.9507174248059,178.1035063059579L207.64303840435363,178.5068887102282L207.69629386431885,178.53770857008254L207.90931570417968,178.66075825548606L208.4596221238202,178.97663720249156L210.30581140261413,180.04637189085432L210.44782596252136,180.12744223573205L210.7141032623474,180.27898141884972L212.43602980122253,181.25343383547963L212.897577120921,181.51525494523264L213.2881171606659,181.73526082446972L214.92128459959898,182.64075421495056L215.06329915950622,182.72077425576515L215.79112377903076,183.12812812227443L217.42429121796388,184.02544883426353L218.56040769722165,184.63954849121208L219.41249505666502,185.1047675472029L219.8207869163983,185.32552833248545L220.15807149617797,185.5068698933962L221.02791067560972,185.97028373927844L221.20542887549377,186.06408902092244L221.25868433545898,186.09218465461288L221.52496163528502,186.23233460304527L222.11077169490235,186.54535803587896L225.23509201286132,188.18396366246898L225.34160293279174,188.2385138297511L226.53097487201475,188.85812758303143L227.02802583169006,189.1148612824783L227.20554403157408,189.20610644796827L227.82685773116822,189.52359367307054L229.58428791002012,190.41477667069037L230.63164528933595,190.94639463667625L231.25295898893003,191.25803954542698L231.9630317884662,191.61094171066006L233.98673926714417,192.61220970290339L234.60805296673828,192.91876720134803L234.7145638866687,192.97105265049387L235.93943946586853,193.56696891834838L236.72051954535826,193.9418290029026L237.23532232502197,194.1898648718262L237.324081424964,194.2332227364349L237.48384780485964,194.31107652511912L239.0815116038159,195.08075247142824L239.1347670637811,195.10612387895475L239.63181802345642,195.34208125115163L239.80933622334044,195.4259742881992L240.83894178266786,195.90868747124262L241.46025548226197,196.1968318265794L242.06381736186768,196.47450596328625L243.12892656117185,196.95922128845012L245.33015223973385,197.9908496325201L246.37750961904968,198.47618857572152L246.83905693874817,198.68802177646688L246.8923123987134,198.71237570193222L247.26510061846983,198.88245931616564L247.3893633583887,198.93897880356624L248.4189689177161,199.40386963953733L248.5254798376465,199.45162565241066L249.51958175699704,199.89423034904087L252.55514297501404,201.21255888036077L253.1587048546197,201.47053981588272L254.15280677397033,201.91445739259194L254.72086501359925,202.165775461713L255.85698149285707,202.66322572364308L256.2652733525903,202.8403332462991L256.85108341220763,203.09299701750115L258.2534771912915,203.6906856734623L258.37773993121033,203.74316805462L258.6085135910596,203.84041964647133L259.67362279036377,204.2859455012773L260.20617739001585,204.50664064255588L260.6144692497491,204.67488622467872L260.9340020095404,204.80601012256804L263.50801590785886,205.84741942322654L264.64413238711666,206.32402771390264L267.3246572053656,207.4244837961138L267.7862045250641,207.6106501913149L269.27735740408997,208.20558179911015L271.1945539628375,208.9562209842739L271.31881670275635,209.00430521716697L273.3247723614459,209.77194619935364L273.37802782141114,209.79209890856617L273.75081604116764,209.93283965303414L274.79817342048335,210.32522668664288L274.97569162036746,210.39129737661816L275.56150167998476,210.61845845228578L277.070406378999,211.20593946563275L277.62071279863954,211.41783831038208L277.90474191845396,211.52674171293447L278.20652285825685,211.64207822787392L278.916595657793,211.91203919411666L279.7331793772595,212.22000803864623L279.75093119724795,212.22667090504711L280.1414712369928,212.3729913898508L280.7627849365869,212.604583435785L281.2243322562854,212.77561888807568L281.384098636181,212.83463284762638L282.307193275578,213.17374977203002L282.36044873554323,213.19321321920108L282.9640106151489,213.4130549884283L283.0350178951025,213.4388530819805L283.4433097548358,213.58668337887502L283.54982067476624,213.6251507651895L283.58532431474305,213.63798416796163L284.2953971142791,213.89324087731967L284.40190803420955,213.9313800436144L284.72144079400084,214.04553496648276L285.8575572732587,214.4483922187215L286.1948418530383,214.56707657786237L286.35460823293397,214.6231693792373L287.5617319921454,215.0440459105602L287.59723563212214,215.05632133929876L288.66234483142637,215.4277679356476L291.48488420958256,216.44147546663936L292.42573066896784,216.77314179659476L292.78076706873594,216.89750436207726L293.33107348837643,217.08941460762395L293.4908398682721,217.14491661296333L293.79262080807496,217.24958597726098L294.09440174787784,217.35389429953688L295.55005098692686,217.85285437355782L295.9583428466602,217.99156015390335L296.2068683264978,218.07571576696674L297.5205030056396,218.5172045155298L299.5442104843176,219.18657642380393L301.2483852032043,219.74034924112277L301.3371443031464,219.7689700268448L301.9762098227289,219.97417318319128L302.5265162423693,220.14990218176436L304.2484427812445,220.70790903733797L304.709990100943,220.8614175405741L304.7809973808966,220.88498373799203L305.06502650071104,220.97908441765378L305.810602940224,221.22488839044308L306.94671941948184,221.596236520786L306.99997487944705,221.61353371582672L307.2840039992615,221.70573071937395L308.98817871814816,222.25385815235313L309.92902517753356,222.5528337683416L311.6154480764319,223.082449592207L313.71016283506344,223.7292071411205L314.2072137947387,223.88091043424802L315.25457117405455,224.1983976593503L316.0889067135095,224.44922339844172L317.36703775267455,224.82992579934745L317.7043223324542,224.9296718633489L318.4676505919556,225.1543384668664L319.85229255105105,225.55808191315845L320.1540734908539,225.6454212604134L320.63337263054075,225.78370035473324L321.0061608502972,225.89086419118095L321.21918269015805,225.95194593685608L321.4854599899841,226.03206444367657L321.55646726993774,226.05366132097598L321.85824820974057,226.14530035048963L322.4973137293231,226.33858912011925L323.2073865288593,226.5521290649673L323.7931965884766,226.72730008950683L325.74589678720093,227.30503296826728L326.6867432465863,227.58001570081217L326.75775052653995,227.60066074005434L327.11278692630793,227.70378747025916L328.4974288854034,228.1030999462846L329.24300532491634,228.31621320510698L330.1483481443249,228.57324230257166L330.5566400040582,228.68851317350718L331.603997383374,228.98243420119152L331.6572528433392,228.99730256808613L332.8111211425855,229.31807199338584L333.3259239222491,229.46022408393873L333.92948580185487,229.62610648191938L334.5507995014489,229.79599316414095L335.24312048099665,229.98432581147236L336.8762879199298,230.42437039194854L337.2668279596747,230.5287443582284L338.72247719872377,230.91492803346392L341.2254838170886,231.56854538079014L342.3971039363232,231.88334120173047L342.52136667624205,231.91727915177242L342.68113305613764,231.96083394839297L342.9829139959405,232.04295459733393L343.1959358358014,232.10078696481352L343.3024467557318,232.12970314855335L344.34980413504763,232.41249751756823L345.23739513446776,232.65035856587963L346.07173067392273,232.87243223124113L346.71079619350525,233.0415640074173L347.1368398732269,233.15388089817506L347.1900953331921,233.1678630710163L348.52148183232237,233.51626862197884L348.6279927522528,233.54400321364756L349.1605473519049,233.68224948596543L349.3203137318005,233.72360520845368L349.4978319316846,233.76952318921641L351.13099937061764,234.18888990844846L351.1487511906061,234.193419344721L351.2907657505133,234.2296220128992L351.3617730304669,234.24773975798928L351.6635539702698,234.32451042060836L352.7996704495276,234.6120311579076L353.1369550293072,234.69690885501444L353.740516908913,234.84825110612027L355.5334507277417,235.2938097829282L356.6518153870111,235.56869404946718L357.46839910647765,235.76798924545818L358.2494791859674,235.95747066285873L358.5867637657471,236.03893487176018L359.77613570497005,236.32465039895084L360.80574126429747,236.56996204171048L361.2140331240307,236.6667213035322L363.45076244256956,237.19174204712115L363.48626608254636,237.20001319161878L364.0543243221753,237.3323515035812L364.60463074181575,237.4682017697549L365.6519881211316,237.7253293332255L368.1904983794733,238.34054493824118L368.61654205919496,238.44268700838677L368.7763084390906,238.48092464068742L369.69940307848753,238.70093051992453L369.75265853845275,238.7135998126868L372.43318335670165,239.3441761146267L372.68170883653926,239.40200848210628L374.49239447535643,239.820521829287L374.8651826951129,239.90605596643334L377.22617475357055,240.44246594470752L378.5043057927356,240.72919895395938L378.8948458324804,240.81630854720052L379.1966267722833,240.88346236324097L380.0132104917499,241.064475704132L380.6167723713556,241.1976017441418L381.7706406706018,241.45062655736555L383.19078626967405,241.76266533014L383.2795453696161,241.78314625937227L384.5399245887927,242.07276760479792L385.1789901083752,242.21866140357594L386.048829287807,242.41624985546423L387.14944212708804,242.6645811224056L387.1671939470764,242.6685854066465L387.7707558266821,242.80397616479257L388.01928130651976,242.8595766361379L388.7648577460327,243.02582007614026L391.7294116840961,243.67868251742104L392.27971810373657,243.7984500026271L392.8832799833423,243.92934414650261L394.1436592025189,244.20097903484606L394.8004765420898,244.34165413531008L395.3862866017072,244.46660749682815L395.7058193614984,244.53458186291795L395.74132300147517,244.54213092337216L396.1496148612085,244.6287153645817L396.1673666811969,244.6324898948088L396.1851185011853,244.63623160303393L396.2383739611505,244.64752237171325L396.57565854093014,244.7188445820045L397.1969722405243,244.84983719188594L397.7472786601648,244.96674916292017L398.4395996397125,245.12117668221163L398.6171178395965,245.16066155058732L400.19702981856443,245.51015022761501L400.4455552984021,245.56479886090307L400.9603580780658,245.67770654769637L401.102372637973,245.7087889835665L401.6171754176367,245.82126998433415L403.3746055964886,246.20236624926358L407.4752760138098,247.07530021378543L407.9190715135199,247.1684490553899L407.9723269734851,247.17960853606135L408.13209335338075,247.21305415607367L408.62914431305603,247.31690297032193L409.25045801265014,247.4462873021066L409.463479852511,247.49049853876667L410.5995963317688,247.72547125090426L412.9960920302032,248.21566785039795L413.954690309577,248.41351887830206L416.3156823680347,248.91763200663303L416.33343418802303,248.92137371485816L418.81868898639954,249.4441625623128L420.9666592049963,249.88972123912077L421.0909219449152,249.9153224006611L423.30989944346555,250.36921786597065L424.1619868029089,250.54192724036204L425.3158551021551,250.77440548034957L425.65313968193476,250.84208444842164L426.1501906416101,250.94153511440527L426.54073068135494,251.01945454709346L426.91351890111144,251.09369791556043L428.12064266032286,251.33293748795478L429.06148911970826,251.51821768910253L430.0910946790356,251.71981042523177L430.8721747585254,251.871940404385L431.38697753818906,251.9775287847379L434.67106423604366,252.6485089711088L434.93734153586973,252.70236987634945L434.99059699583495,252.7131354929972L435.38113703557985,252.7919082977367L435.4876479555103,252.81337388702826L436.3397353149536,252.9846062713308L437.4225963342462,253.20096890834867L437.67112181408385,253.2504316653247L437.86639183395624,253.28926009366089L438.8427419333185,253.48235193127863L439.0380119531909,253.51848895545294L439.1445228731213,253.53821497863976L440.1918802524371,253.73501570248067L440.671179392124,253.8347289444801L441.0794712518573,253.91947535357906L442.3220986510455,254.176176231024L442.7126386907904,254.2564588478544L443.2984487504077,254.37658737508212L443.60022969021054,254.43832556079673L443.7244924301294,254.4636969683233L444.43456522966557,254.60844199703212L444.75409798945674,254.67336391693829L444.86060890938717,254.69499361623969L444.91386436935244,254.7057920548894L446.26300268847103,254.97844442529407L446.2807545084595,254.98202202350933L447.1150900479144,255.1495783435907L447.66539646755496,255.25969616021615L448.14469560724183,255.35530665196876L448.197951067207,255.3659081586066L448.286710167149,255.38359921767102L449.28081208649957,255.58095791554553L449.5470893863257,255.63360440671312L449.74235940619815,255.6722030810355L450.61219858562987,255.8435667533459L451.6240523249689,256.0418444672757L452.422884224447,256.1976176886481L453.15070884397153,256.33894922915164L453.3814825038208,256.3836527958413L453.39923432380925,256.3870662840467L453.7897743635541,256.4625897105907L453.8785334634961,256.4797227956215L454.0738034833685,256.5174024538886L456.04425550208134,256.8952821626245L456.4170437218378,256.96630897489797L457.64191930103755,257.19872157088156L457.6951747610028,257.20879792548783L457.7129265809912,257.21214576968924L458.56501394043454,257.37284229135787L458.99105762015625,257.4529279761764L461.33429785862546,257.8900513984768L462.04437065816165,258.02140505038L462.7544434576978,258.1522991942555L462.98521711754694,258.1947380428089L464.12133359680485,258.40282953532915L465.275201896051,258.61292316996986L465.6834937557843,258.686969606425L467.1746466348102,258.9559787346105L467.22790209477535,258.9655299371852L467.31666119471737,258.9814814301449L468.5060331339404,259.19436493495346L468.82556589373166,259.2513439303817L470.15695239286185,259.4876951666023L470.8492733724096,259.6099243019564L473.6540609305774,260.1006788754837L474.39963737009026,260.2299319192605L474.4173891900787,260.2330171874461L475.571257489325,260.43204980742127L475.6777684092553,260.4503644845232L476.1393157289539,260.5295967972904L476.5121039487103,260.5934684131334L476.61861486864075,260.6116846242294L478.7310814472607,260.97108554585344L479.4234024268084,261.0879975168877L483.22229190432677,261.7941300673736L483.66608740403683,261.877038444362L483.8968610638861,261.9200680889509L484.37616020357297,262.00927829031843L484.5004229434918,262.0323849797087L484.9264666232135,262.111453182466L485.1749921030511,262.15750245123667L485.6720430627264,262.2494040567661L486.95017410189143,262.4847378109254L487.6957505414044,262.62131016114256L488.3170642409985,262.7347101779655L488.9738815805694,262.8542479091577L490.58929719951414,263.14652783674336L492.77277105808776,263.53786456628893L492.8970337980066,263.5600194176219L494.015398457276,263.7587238175774L494.22842029713684,263.7964362978464L495.82608409609315,264.0780818967922L495.8793395560583,264.087436167355L498.48885709435365,264.54264451274355L498.5598643743072,264.5549527634841L499.32319263380856,264.68696285542677L499.51846265368096,264.7206382294529L499.6072217536231,264.7359661043751L499.69598085356506,264.7512611572954L500.2995427331708,264.85510997154364L500.4770609330548,264.8855687893763L500.9386082527533,264.96470263613753L501.73744015223144,265.10127498635467L502.1457320119647,265.17085763054126L503.0510748313733,265.32469435379716L503.47711851109494,265.3968371141378L503.81440309087463,265.453848931568L504.06292857071224,265.4957954500918L504.64873863032955,265.59449121003L506.6546942890191,265.9303259342362L507.5245334684509,266.07497249693915L508.96243088751163,266.31273507924465L509.157700907384,266.34490064117995L509.51273730715207,266.4032909826931L510.80862016630556,266.6156493354701L511.8204739056446,266.78054707339146L513.7199186444036,267.0879579438875L516.2229252627685,267.48887869800967L516.9152462423162,267.59896369263316L517.43004902198,267.6805920115445L518.1223700015278,267.7900205661285L518.9744573609711,267.9242625542054L519.8265447204144,268.0579465682488L519.8620483603912,268.06349348658256L520.0040629202985,268.08574680392144L520.5366175199505,268.1689505789276L520.9449093796838,268.2326252627587L522.2052885988604,268.42840850453837L524.7082952172253,268.8138372737285L525.8444116964831,268.9873343761673L526.6609954159497,269.111467187636L527.1935500156018,269.19217649049205L527.5840900553467,269.2555885983074L527.7261046152539,269.2798112357648L529.8918266538391,269.6474504798845L530.4243812534912,269.73731712129154L530.8149212932361,269.80305959124706L531.4007313528534,269.9014927751695L532.7143660319953,270.1212032563888L533.406687011543,270.23650694932627L534.9333435305456,270.4894661185461L536.2292263896991,270.7028091313823L536.6730218894091,270.77560833176244L536.9037955492583,270.8133864560354L537.063561929154,270.83954559160935L538.4659557082379,271.0681836573658L539.5133130875537,271.2380375175854L541.5370205662317,271.56399281919715L541.8032978660577,271.6066614217644L543.2056916451415,271.83054029723456L544.7500999841326,272.0755565419764L546.3300119631006,272.3244457829514L546.9868293026715,272.42740840314633L547.6081430022656,272.52456152899174L548.9217776814074,272.7290754232967L550.838974240155,273.0254581011292L551.1230033599695,273.06914418575764L551.495791579726,273.1264185792037L551.6555579596215,273.15093661467887L551.939587079436,273.1944914112994L553.0579517387055,273.3654283975842L553.0757035586938,273.3681526237481L553.3242290385315,273.406029214027L555.5077028971051,273.7370391039429L555.7029729169775,273.7664804397143L557.4781549158179,274.0330935617556L558.6675268550408,274.21059494843536L562.2178908527216,274.73515618399665L563.7090437317474,274.95312709911127L563.7445473717243,274.9583129754233L564.4723719912487,275.064196753794L564.4901238112371,275.06675686994805L565.0049265909008,275.1414597464427L565.0404302308777,275.14661280075273L566.7978604097297,275.40032687601797L569.4606334079901,275.78122620893555L570.5967498872479,275.9424807046378L570.7032608071784,275.95754600354417L570.8097717271088,275.9726113024506L570.8807790070623,275.9826548350549L570.8985308270508,275.985182129207L572.2299173261811,276.17292398050284L572.9399901257171,276.2726372225023L573.9163402250792,276.4092752167234L576.0465586236877,276.705460962544L576.1885731835949,276.7251213417269L577.0406605430384,276.84278821880656L578.176777022296,276.9990865922106L578.2300324822613,277.00637307664897L578.7803389019018,277.08179803718707L578.9578571017859,277.10608631864847L579.0821198417046,277.1230881156714L579.4016526014959,277.1667413782979L580.4135063408349,277.31890417945306L581.1945864203248,277.43857319865316L582.7212429393273,277.67137965866044L584.3366585582721,277.9161661493885L584.3721621982488,277.9215489577124L584.9402204378779,278.0072143828666L585.259753197669,278.0553314377617L590.2835182543871,278.80373872679115L590.7450655740857,278.8717459148829L591.5261456535754,278.9865244557888L592.5024957529376,279.129529918393L593.6031085922186,279.29009515205377L593.8338822520678,279.323639238072L595.467049691001,279.5603843383162L595.9818524706646,279.6346605287852L596.6741734502124,279.7343409487827L597.8280417494586,279.8998951267436L601.6446830469653,280.4421474213693L603.0470768260492,280.6393748312359L603.5086241457476,280.70403417512625L603.8991641854925,280.7586828084143L604.2364487652723,280.80578238124815L604.5914851650402,280.8553107822281L604.6802442649822,280.8676846769726L604.9642733847967,280.90723518935226L605.1772952246575,280.9369062791375L605.461324344472,280.97639114751314L605.9406234841589,281.0429213455161L607.1477472433703,281.20991969156387L608.2483600826514,281.3615245186855L608.3903746425586,281.3810536098605L611.9407386402393,281.8654735370066L612.065001380158,281.8823112240197L612.2247677600537,281.90397374532307L613.1123587594739,282.023905340539L613.165614219439,282.0310933589715L613.5384024391955,282.0813438439949L613.7514242790563,282.11003027372084L614.0887088588361,282.15539028045004L614.4259934386157,282.20068464317524L616.8402409570385,282.52332492258756L618.2781383760992,282.7140535760631L618.2958901960876,282.71641676020533L618.8994520756934,282.7961742250041L619.236736655473,282.84064803767995L620.0533203749395,282.94814009414745L621.3314514141045,283.1156964142288L621.4202105140466,283.1272825809259L621.8817578337452,283.1875765985536L622.6983415532117,283.29398552895594L622.9646188530377,283.3286127410393L624.4202680920868,283.51733925239444L625.1835963515881,283.6158709023228L625.6451436712865,283.6753115478992L625.8759173311358,283.70501545968636L626.3729682908112,283.76885425352737L627.1362965503124,283.86669664141425L629.4795367887817,284.165278393379L629.6037995287005,284.18103295432695L629.6748068086542,284.190026182868L631.4854924474713,284.41882835863436L632.1955652470074,284.50813702600783L633.8642363259173,284.7170818905794L634.112761805755,284.7480986824456L634.4322945655463,284.787944592843L635.1778710050592,284.88069957042376L636.9353011839112,285.0983422655187L640.0063660419049,285.4828191966515L640.9472125012902,285.61210506243026L643.0596790799103,285.9008402138026L646.2905103177997,286.3381933901168L646.9473276573706,286.4264845754291L647.320115877127,286.47650530643864L647.976933216698,286.56446827173113L648.6159987362805,286.6498382988676L651.4385381144367,287.02466556141985L651.9000854341351,287.08561601908707L652.6101582336713,287.1791587247152L653.4267419531377,287.28645384917087L654.5806102523841,287.43753352426086L654.7048729923029,287.4537804152384L654.8468875522101,287.4723248463541L655.6989749116534,287.5833945010369L655.8587412915491,287.60417082828695L656.9060986708648,287.7401523824685L657.1368723307141,287.7700532262676L659.7108862290326,288.1018836662328L659.9239080688934,288.1291915718759L660.5097181285107,288.20425549039226L661.2552945680236,288.2995377621251L662.4091628672699,288.44651468696827L663.7227975464117,288.61311916899234L664.5571330858667,288.7185434393354L665.1961986054492,288.79908863218157L665.7110013851129,288.8638464420779L666.2258041647766,288.92850578596824L666.4565778246258,288.95742196970804L666.5098332845911,288.9641176581109L667.6814534038257,289.1106350749264L667.7347088637908,289.1172979413273L668.4980371232923,289.21241610305026L669.367876302724,289.3205317775553L670.3619782220746,289.44367992896474L672.7052184605438,289.7323166143311L672.8294812004626,289.7475460232474L672.847233020451,289.7497450973798L672.9714957603699,289.7649745062961L674.6224150192913,289.9667641744371L674.8354368591522,289.9926935559972L675.0662105190014,290.02078918968766L675.1904732589203,290.03592013259805L677.2141807375982,290.2812317753577L677.2851880175518,290.2898311398751L677.7644871572387,290.3476635073547L677.7999907972155,290.35196318961346L678.9893627364386,290.4950671182236L679.3976545961718,290.5440703671719L680.64028199536,290.6927540361178L680.8178001952442,290.7139570493935L681.1195811350469,290.7499299635579L681.2438438749658,290.7647655084505L681.2970993349311,290.77110015483163L681.740894834641,290.8239435780111L684.155142353064,291.1099873252215L685.788309791997,291.3021929687859L685.9125725319159,291.31676593766275L687.5102363308722,291.5037200609112L687.6700027107678,291.5223629580329L687.8830245506286,291.54717639152585L688.2203091304083,291.5864643278897L688.5220900702111,291.6215838700027L688.7883673700372,291.652535017865L689.480688349585,291.73288327869926L689.6937101894457,291.75756542418435L690.1375056891559,291.8089318572749L690.670060288808,291.87050593297965L690.7943230287268,291.8848491478426L691.8239285880542,292.00346786297956L692.6405123075208,292.0972731446235L692.9777968873004,292.13593746294987L693.1020596272192,292.1501822118069L693.9186433466858,292.2435936294272L694.8417379860828,292.3488866117624L694.894993446048,292.3549258601257L695.516307145642,292.42562445237945L697.7707882841693,292.6808483397355L697.8240437441345,292.68685476609687L698.7471383835315,292.79080204635113L698.7648902035198,292.7927713664696L699.1376784232764,292.83465224098944L700.1140285226386,292.9441136175754L701.6584368616296,293.116560415951L701.676188681618,293.1185297360695L702.3507578411774,293.1935608325839L702.6170351410034,293.2231334563632L702.9720715407715,293.26251985873296L703.1318379206671,293.28024373979935L703.2916043005627,293.29793479886376L703.8241589002148,293.3568831144105L704.6939980796466,293.4529531141908L705.6703481790088,293.5604451706582L706.2384064186377,293.62280697441037L706.6289464583826,293.66563968698745L707.9248293175359,293.8073322695127L710.6231059557733,294.10049839115163L711.492945135205,294.1944677828055L712.1320106547876,294.2633283429486L713.2326234940687,294.38161883806583L714.5995136331757,294.5279393228695L714.6527690931408,294.53361752921114L716.0019074122595,294.67737789786077L716.374695632016,294.7169940542443L716.5167101919232,294.73205935315076L716.7474838517725,294.756544566624L716.7829874917492,294.76031909685105L716.8894984116796,294.7716098655304L718.0256148909375,294.8918696807661L718.6291767705433,294.95557718659916L718.66468041052,294.9593188948243L718.6824322305084,294.9611897489369L720.2090887495111,295.1217549825976L720.2623442094763,295.1273347229333L720.7416433491632,295.1775852079567L723.7772045671802,295.49398930699385L723.901467307099,295.5068883537699L725.0730874263336,295.6281656510668L725.1618465262756,295.6373229896178L727.0080358050695,295.8274608470578L727.3098167448725,295.85844481692203L728.4991886840954,295.98024726625056L728.8542250838635,296.0165155784327L729.5110424234344,296.0835052844633L729.5820497033881,296.09075894689965L730.7536698226227,296.2098699920663L731.6767644620196,296.3034455196964L731.9430417618457,296.3303923833177L732.2093190616717,296.35730642493706L732.4933481814862,296.385992854663L732.7241218413354,296.4092636540632L733.3454355409295,296.4718880338311L733.6827201207092,296.505825983873L733.8069828606281,296.51833116662544L737.943156917926,296.9315273494862L739.0082661172302,297.0419077421275L739.5408207168823,297.10157814171765L739.8781052966619,297.1393234439887L741.4580172756298,297.3156432385973L742.1503382551775,297.39264365523024L742.2213455351311,297.40052093570415L742.3811119150268,297.41824481677054L742.4876228349573,297.4300607374815L742.9314183346673,297.4792937404437L743.9432720740064,297.5912495891797L744.7066003335077,297.67550366824906L746.5350377923132,297.87647278634074L747.6178988116059,297.9949602134698L748.5942489109681,298.10146760987806L749.1800589705854,298.16524075971506L751.1150073493212,298.375006174336L751.2215182692516,298.3865266970292L751.3812846491472,298.40379107006794L752.3398829285211,298.5071803762886L753.6712694276513,298.6502843048987L754.274831307257,298.71497647079104L755.5529623464221,298.8515488210082L757.1151225054016,299.0177922610106L758.8192972242883,299.19828044987L759.156581804068,299.23389232201265L759.9199100635693,299.3143390488529L761.1447856427691,299.4430669405981L764.9614269402759,299.84116500255044L766.7543607591045,300.02664213571006L767.7307108584668,300.1272087497608L767.9969881582929,300.1545822994078L769.2218637374926,300.2802905669713L769.8254256170983,300.3420287526859L771.1390602962402,300.476106630753L771.4230894160546,300.5050228144928L771.6183594359271,300.52488012568756L772.2219213155328,300.58622444737847L773.642066914605,300.730083282034L774.7249279338977,300.8394133706121L774.742679753886,300.8411857587187L775.0089570537122,300.86803415633415L775.7722853132135,300.9448048189532L776.1273217129815,300.9804495130978L776.8906499724828,301.05699042170306L776.9794090724249,301.06588518423825L778.25754011159,301.19362841592414L780.7605467299547,301.44241919089313L781.1688385896881,301.4828230753241L781.1865904096765,301.4845626414288L781.2398458696416,301.48984698374676L783.6008379280993,301.7225549777481L785.305012646986,301.8895533237959L785.6600490467541,301.9242133578813L786.3523700263019,301.9917610379454L786.5476400461743,302.0107977990908L790.8258286633795,302.4249458200089L791.5891569228808,302.49830299442254L792.3169815424054,302.56811539262293L793.5596089415935,302.68696386177373L794.0566599012689,302.7343916546273L794.9620027206774,302.8205822318131L796.6839292595527,302.9839373356417L796.8259438194598,302.9973615344494L797.234235679193,303.03596020877177L797.3229947791351,303.0443626412773L797.6247757189379,303.07285213899144L798.5301185383465,303.15818934412596L799.2046876979059,303.2216342739432L802.595285315691,303.5386948130198L802.8260589755401,303.56016040231134L804.1041900147052,303.67884476145224L805.9681311134875,303.85112744981797L807.5125394524787,303.9932138963669L807.7255612923395,304.0127758095439L808.2936195319684,304.0648643266779L808.7906704916437,304.11035562141495L810.3350788306348,304.2513261198967L810.5125970305187,304.2675073668703L810.6191079504491,304.27718985745287L810.6901152304027,304.2836557918419L811.2404216500433,304.33367652285153L811.2759252900202,304.33692590104704L811.5244507698577,304.3594746164037L811.6309616897881,304.3691571069863L812.9268445489416,304.48656140805014L816.2996903467383,304.79016492631706L817.3115440860772,304.8806880077635L817.4358068259961,304.891781844431L818.8737042450567,305.0199845841446L819.1577333648712,305.0452247036632L819.3352515647553,305.0610120866131L819.6370325045581,305.08779484022455L820.9329153637116,305.20267184713634L821.39446268341,305.243469595591L821.4122145033984,305.24504505168585L822.6548419025867,305.3546377162797L823.8619656617981,305.4607512486642L824.1459947816126,305.4856631481631L825.3176149008472,305.58823190433435L826.1697022602905,305.6626393828112L826.453731380105,305.6874199943022L826.9685341597686,305.7322548489998L827.4123296594787,305.77085352332216L827.7496142392583,305.8001307490837L827.8561251591888,305.8093865536406L830.3058763175884,306.02138386439583L830.4478908774958,306.03362647113244L831.5840073567534,306.1314032150154L832.0633064964404,306.17259482749375L834.4598021948748,306.37763387383035L834.5840649347937,306.3882353804682L834.903597694585,306.41544482010534L836.7320351533905,306.570824177454L837.1580788331122,306.6069283796263L837.2645897530426,306.6159544301694L837.3355970329961,306.6219608565308L837.5841225128339,306.64296693779465L838.6847353521148,306.73591884738727L839.8918591113263,306.83756858750326L840.3711582510132,306.8778411839263L841.5427783702478,306.9760446138349L841.773552030097,306.99534395099613L842.341610269726,307.04280456585167L842.6611430295172,307.0694888534572L842.8386612294012,307.0842915763478L843.2114494491576,307.11537401221796L843.6552449488678,307.1523315864416L845.1463978278937,307.27616899989255L846.3890252270819,307.37900033207956L847.4186307864093,307.46397649519236L848.1287035859453,307.5224324807094L848.6080027256323,307.56181888307924L849.1050536853077,307.6026166315339L850.2056665245885,307.69277867095866L850.8802356841479,307.7478868122744L851.4660457437652,307.7957084691517L851.7678266835682,307.82029214863076L852.4601476631159,307.87664752602154L856.7560881003094,308.22400277292087L857.0401172201239,308.24681406429335L859.5963792984539,308.4587785530466L860.519473937851,308.5426387680922L861.3005540173407,308.61343582635186L861.9218677169348,308.6696927377367L862.4544223165868,308.7178097926318L862.8804659963085,308.75624435694425L863.3065096760301,308.79464609925475L863.4485242359375,308.80744668002495L863.6437942558099,308.82503927308346L863.6615460757984,308.82661472917823L864.0875897555201,308.8649508274848L864.7266552751025,308.9223565089387L865.2059544147894,308.9653861535277L865.276961694743,308.9717536219108L865.543238994569,308.9955823953445L866.0047863142676,309.03690529583076L866.20005633414,309.05439942288336L866.3953263540124,309.07186072793394L866.9811364136298,309.1241789990818L868.490041112644,309.2585850971686L869.1291066322265,309.31533433858306" fill="none"></path></g></g></g></g></g><g><g opacity="0.00953848"><span style="white-space: normal;" fill="rgb(0, 0, 0)" stroke="none" stroke-width="1px">Alt + Scroll to Zoom</span></g></g></g><g transform="translate(30, 378)" clip-path="url(#clip_1)"><clipPath id="clip_1"><rect width="887" height="21"></rect></clipPath><g><g><line x1="0" y1="0" x2="0" y2="5" style="visibility: inherit;" fill="rgb(0, 0, 0)" stroke="rgb(204, 204, 204)" stroke-width="1px"></line><line x1="88.7590999420166" y1="0" x2="88.7590999420166" y2="5" style="visibility: inherit;" fill="rgb(0, 0, 0)" stroke="rgb(204, 204, 204)" stroke-width="1px"></line><line x1="177.5181998840332" y1="0" x2="177.5181998840332" y2="5" style="visibility: inherit;" fill="rgb(0, 0, 0)" stroke="rgb(204, 204, 204)" stroke-width="1px"></line><line x1="266.2772998260498" y1="0" x2="266.2772998260498" y2="5" style="visibility: inherit;" fill="rgb(0, 0, 0)" stroke="rgb(204, 204, 204)" stroke-width="1px"></line><line x1="355.0363997680664" y1="0" x2="355.0363997680664" y2="5" style="visibility: inherit;" fill="rgb(0, 0, 0)" stroke="rgb(204, 204, 204)" stroke-width="1px"></line><line x1="443.795499710083" y1="0" x2="443.795499710083" y2="5" style="visibility: inherit;" fill="rgb(0, 0, 0)" stroke="rgb(204, 204, 204)" stroke-width="1px"></line><line x1="532.5545996520996" y1="0" x2="532.5545996520996" y2="5" style="visibility: inherit;" fill="rgb(0, 0, 0)" stroke="rgb(204, 204, 204)" stroke-width="1px"></line><line x1="621.3136995941162" y1="0" x2="621.3136995941162" y2="5" style="visibility: inherit;" fill="rgb(0, 0, 0)" stroke="rgb(204, 204, 204)" stroke-width="1px"></line><line x1="710.0727995361328" y1="0" x2="710.0727995361328" y2="5" style="visibility: inherit;" fill="rgb(0, 0, 0)" stroke="rgb(204, 204, 204)" stroke-width="1px"></line><line x1="798.8318994781494" y1="0" x2="798.8318994781494" y2="5" style="visibility: inherit;" fill="rgb(0, 0, 0)" stroke="rgb(204, 204, 204)" stroke-width="1px"></line><line x1="887.590999420166" y1="0" x2="887.590999420166" y2="5" style="visibility: inherit;" fill="rgb(0, 0, 0)" stroke="rgb(204, 204, 204)" stroke-width="1px"></line></g><g transform="translate(0, 8)"><text style="text-anchor: middle; visibility: hidden; font-family: &quot;Helvetica Neue&quot;, sans-serif; font-size: 12px; font-weight: 200;" x="0" y="0" dx="0em" dy="0.95em" fill="rgb(50, 49, 63)" stroke="none" stroke-width="1px">-50k</text><text style="text-anchor: middle; visibility: inherit; font-family: &quot;Helvetica Neue&quot;, sans-serif; font-size: 12px; font-weight: 200;" x="88.7590999420166" y="0" dx="0em" dy="0.95em" fill="rgb(50, 49, 63)" stroke="none" stroke-width="1px">0</text><text style="text-anchor: middle; visibility: inherit; font-family: &quot;Helvetica Neue&quot;, sans-serif; font-size: 12px; font-weight: 200;" x="177.5181998840332" y="0" dx="0em" dy="0.95em" fill="rgb(50, 49, 63)" stroke="none" stroke-width="1px">50k</text><text style="text-anchor: middle; visibility: inherit; font-family: &quot;Helvetica Neue&quot;, sans-serif; font-size: 12px; font-weight: 200;" x="266.2772998260498" y="0" dx="0em" dy="0.95em" fill="rgb(50, 49, 63)" stroke="none" stroke-width="1px">100k</text><text style="text-anchor: middle; visibility: inherit; font-family: &quot;Helvetica Neue&quot;, sans-serif; font-size: 12px; font-weight: 200;" x="355.0363997680664" y="0" dx="0em" dy="0.95em" fill="rgb(50, 49, 63)" stroke="none" stroke-width="1px">150k</text><text style="text-anchor: middle; visibility: inherit; font-family: &quot;Helvetica Neue&quot;, sans-serif; font-size: 12px; font-weight: 200;" x="443.795499710083" y="0" dx="0em" dy="0.95em" fill="rgb(50, 49, 63)" stroke="none" stroke-width="1px">200k</text><text style="text-anchor: middle; visibility: inherit; font-family: &quot;Helvetica Neue&quot;, sans-serif; font-size: 12px; font-weight: 200;" x="532.5545996520996" y="0" dx="0em" dy="0.95em" fill="rgb(50, 49, 63)" stroke="none" stroke-width="1px">250k</text><text style="text-anchor: middle; visibility: inherit; font-family: &quot;Helvetica Neue&quot;, sans-serif; font-size: 12px; font-weight: 200;" x="621.3136995941162" y="0" dx="0em" dy="0.95em" fill="rgb(50, 49, 63)" stroke="none" stroke-width="1px">300k</text><text style="text-anchor: middle; visibility: inherit; font-family: &quot;Helvetica Neue&quot;, sans-serif; font-size: 12px; font-weight: 200;" x="710.0727995361328" y="0" dx="0em" dy="0.95em" fill="rgb(50, 49, 63)" stroke="none" stroke-width="1px">350k</text><text style="text-anchor: middle; visibility: inherit; font-family: &quot;Helvetica Neue&quot;, sans-serif; font-size: 12px; font-weight: 200;" x="798.8318994781494" y="0" dx="0em" dy="0.95em" fill="rgb(50, 49, 63)" stroke="none" stroke-width="1px">400k</text><text style="text-anchor: middle; visibility: hidden; font-family: &quot;Helvetica Neue&quot;, sans-serif; font-size: 12px; font-weight: 200;" x="887.590999420166" y="0" dx="0em" dy="0.95em" fill="rgb(50, 49, 63)" stroke="none" stroke-width="1px">450k</text></g><line x1="0" y1="0" x2="887.590999420166" y2="0" fill="rgb(0, 0, 0)" stroke="rgb(204, 204, 204)" stroke-width="1px"></line></g></g></g></g></svg>