<svg viewBox="0 0 330 200" xmlns="http://www.w3.org/2000/svg"><g><g><g><g><g><line x1="49.98400115966797" y1="178.61999988555908" x2="44.98400115966797" y2="178.61999988555908" style="visibility: inherit;" fill="rgb(0, 0, 0)" stroke="rgb(204, 204, 204)" stroke-width="1px"></line><line x1="49.98400115966797" y1="162.38181807778096" x2="44.98400115966797" y2="162.38181807778096" style="visibility: inherit;" fill="rgb(0, 0, 0)" stroke="rgb(204, 204, 204)" stroke-width="1px"></line><line x1="49.98400115966797" y1="146.1436362700029" x2="44.98400115966797" y2="146.1436362700029" style="visibility: inherit;" fill="rgb(0, 0, 0)" stroke="rgb(204, 204, 204)" stroke-width="1px"></line><line x1="49.98400115966797" y1="129.90545446222478" x2="44.98400115966797" y2="129.90545446222478" style="visibility: inherit;" fill="rgb(0, 0, 0)" stroke="rgb(204, 204, 204)" stroke-width="1px"></line><line x1="49.98400115966797" y1="113.66727265444669" x2="44.98400115966797" y2="113.66727265444669" style="visibility: inherit;" fill="rgb(0, 0, 0)" stroke="rgb(204, 204, 204)" stroke-width="1px"></line><line x1="49.98400115966797" y1="97.42909084666863" x2="44.98400115966797" y2="97.42909084666863" style="visibility: inherit;" fill="rgb(0, 0, 0)" stroke="rgb(204, 204, 204)" stroke-width="1px"></line><line x1="49.98400115966797" y1="81.1909090388905" x2="44.98400115966797" y2="81.1909090388905" style="visibility: inherit;" fill="rgb(0, 0, 0)" stroke="rgb(204, 204, 204)" stroke-width="1px"></line><line x1="49.98400115966797" y1="64.95272723111239" x2="44.98400115966797" y2="64.95272723111239" style="visibility: inherit;" fill="rgb(0, 0, 0)" stroke="rgb(204, 204, 204)" stroke-width="1px"></line><line x1="49.98400115966797" y1="48.71454542333433" x2="44.98400115966797" y2="48.71454542333433" style="visibility: inherit;" fill="rgb(0, 0, 0)" stroke="rgb(204, 204, 204)" stroke-width="1px"></line><line x1="49.98400115966797" y1="32.47636361555624" x2="44.98400115966797" y2="32.47636361555624" style="visibility: inherit;" fill="rgb(0, 0, 0)" stroke="rgb(204, 204, 204)" stroke-width="1px"></line><line x1="49.98400115966797" y1="16.23818180777809" x2="44.98400115966797" y2="16.23818180777809" style="visibility: inherit;" fill="rgb(0, 0, 0)" stroke="rgb(204, 204, 204)" stroke-width="1px"></line><line x1="49.98400115966797" y1="0" x2="44.98400115966797" y2="0" style="visibility: inherit;" fill="rgb(0, 0, 0)" stroke="rgb(204, 204, 204)" stroke-width="1px"></line></g><g transform="translate(39.98400115966797, 0)"><text style="text-anchor: end; visibility: hidden; font-family: &quot;Helvetica Neue&quot;, sans-serif; font-size: 12px; font-weight: 200;" x="0" y="178.61999988555908" dx="0em" dy="0.3em" fill="rgb(50, 49, 63)" stroke="none" stroke-width="1px">0.32</text><text style="text-anchor: end; visibility: inherit; font-family: &quot;Helvetica Neue&quot;, sans-serif; font-size: 12px; font-weight: 200;" x="0" y="162.38181807778096" dx="0em" dy="0.3em" fill="rgb(50, 49, 63)" stroke="none" stroke-width="1px">0.34</text><text style="text-anchor: end; visibility: hidden; font-family: &quot;Helvetica Neue&quot;, sans-serif; font-size: 12px; font-weight: 200;" x="0" y="146.1436362700029" dx="0em" dy="0.3em" fill="rgb(50, 49, 63)" stroke="none" stroke-width="1px">0.36</text><text style="text-anchor: end; visibility: inherit; font-family: &quot;Helvetica Neue&quot;, sans-serif; font-size: 12px; font-weight: 200;" x="0" y="129.90545446222478" dx="0em" dy="0.3em" fill="rgb(50, 49, 63)" stroke="none" stroke-width="1px">0.38</text><text style="text-anchor: end; visibility: hidden; font-family: &quot;Helvetica Neue&quot;, sans-serif; font-size: 12px; font-weight: 200;" x="0" y="113.66727265444669" dx="0em" dy="0.3em" fill="rgb(50, 49, 63)" stroke="none" stroke-width="1px">0.4</text><text style="text-anchor: end; visibility: inherit; font-family: &quot;Helvetica Neue&quot;, sans-serif; font-size: 12px; font-weight: 200;" x="0" y="97.42909084666863" dx="0em" dy="0.3em" fill="rgb(50, 49, 63)" stroke="none" stroke-width="1px">0.42</text><text style="text-anchor: end; visibility: hidden; font-family: &quot;Helvetica Neue&quot;, sans-serif; font-size: 12px; font-weight: 200;" x="0" y="81.1909090388905" dx="0em" dy="0.3em" fill="rgb(50, 49, 63)" stroke="none" stroke-width="1px">0.44</text><text style="text-anchor: end; visibility: inherit; font-family: &quot;Helvetica Neue&quot;, sans-serif; font-size: 12px; font-weight: 200;" x="0" y="64.95272723111239" dx="0em" dy="0.3em" fill="rgb(50, 49, 63)" stroke="none" stroke-width="1px">0.46</text><text style="text-anchor: end; visibility: hidden; font-family: &quot;Helvetica Neue&quot;, sans-serif; font-size: 12px; font-weight: 200;" x="0" y="48.71454542333433" dx="0em" dy="0.3em" fill="rgb(50, 49, 63)" stroke="none" stroke-width="1px">0.48</text><text style="text-anchor: end; visibility: inherit; font-family: &quot;Helvetica Neue&quot;, sans-serif; font-size: 12px; font-weight: 200;" x="0" y="32.47636361555624" dx="0em" dy="0.3em" fill="rgb(50, 49, 63)" stroke="none" stroke-width="1px">0.5</text><text style="text-anchor: end; visibility: hidden; font-family: &quot;Helvetica Neue&quot;, sans-serif; font-size: 12px; font-weight: 200;" x="0" y="16.23818180777809" dx="0em" dy="0.3em" fill="rgb(50, 49, 63)" stroke="none" stroke-width="1px">0.52</text><text style="text-anchor: end; visibility: hidden; font-family: &quot;Helvetica Neue&quot;, sans-serif; font-size: 12px; font-weight: 200;" x="0" y="0" dx="0em" dy="0.3em" fill="rgb(50, 49, 63)" stroke="none" stroke-width="1px">0.54</text></g><line x1="49.98400115966797" y1="0" x2="49.98400115966797" y2="178.61999988555908" fill="rgb(0, 0, 0)" stroke="rgb(204, 204, 204)" stroke-width="1px"></line></g></g><g transform="translate(49, 0)" clip-path="url(#clip_0)"><clipPath id="clip_0"><rect width="280" height="178"></rect></clipPath><g><g><g><line x1="0" y1="0" x2="0" y2="178.61999988555908" fill="rgb(0, 0, 0)" stroke="rgb(60, 60, 60)" stroke-width="1px" opacity="0.25"></line><line x1="23.334666570027668" y1="0" x2="23.334666570027668" y2="178.61999988555908" fill="rgb(0, 0, 0)" stroke="rgb(60, 60, 60)" stroke-width="1px" opacity="0.25"></line><line x1="46.669333140055336" y1="0" x2="46.669333140055336" y2="178.61999988555908" fill="rgb(0, 0, 0)" stroke="rgb(60, 60, 60)" stroke-width="1px" opacity="0.25"></line><line x1="70.00399971008301" y1="0" x2="70.00399971008301" y2="178.61999988555908" fill="rgb(0, 0, 0)" stroke="rgb(60, 60, 60)" stroke-width="1px" opacity="0.25"></line><line x1="93.33866628011067" y1="0" x2="93.33866628011067" y2="178.61999988555908" fill="rgb(0, 0, 0)" stroke="rgb(60, 60, 60)" stroke-width="1px" opacity="0.25"></line><line x1="116.67333285013835" y1="0" x2="116.67333285013835" y2="178.61999988555908" fill="rgb(0, 0, 0)" stroke="rgb(60, 60, 60)" stroke-width="1px" opacity="0.25"></line><line x1="140.00799942016602" y1="0" x2="140.00799942016602" y2="178.61999988555908" fill="rgb(0, 0, 0)" stroke="rgb(60, 60, 60)" stroke-width="1px" opacity="0.25"></line><line x1="163.3426659901937" y1="0" x2="163.3426659901937" y2="178.61999988555908" fill="rgb(0, 0, 0)" stroke="rgb(60, 60, 60)" stroke-width="1px" opacity="0.25"></line><line x1="186.67733256022134" y1="0" x2="186.67733256022134" y2="178.61999988555908" fill="rgb(0, 0, 0)" stroke="rgb(60, 60, 60)" stroke-width="1px" opacity="0.25"></line><line x1="210.01199913024902" y1="0" x2="210.01199913024902" y2="178.61999988555908" fill="rgb(0, 0, 0)" stroke="rgb(60, 60, 60)" stroke-width="1px" opacity="0.25"></line><line x1="233.3466657002767" y1="0" x2="233.3466657002767" y2="178.61999988555908" fill="rgb(0, 0, 0)" stroke="rgb(60, 60, 60)" stroke-width="1px" opacity="0.25"></line><line x1="256.6813322703043" y1="0" x2="256.6813322703043" y2="178.61999988555908" fill="rgb(0, 0, 0)" stroke="rgb(60, 60, 60)" stroke-width="1px" opacity="0.25"></line><line x1="280.01599884033203" y1="0" x2="280.01599884033203" y2="178.61999988555908" fill="rgb(0, 0, 0)" stroke="rgb(60, 60, 60)" stroke-width="1px" opacity="0.25"></line></g><g><line x1="0" y1="178.61999988555908" x2="280.01599884033203" y2="178.61999988555908" fill="rgb(0, 0, 0)" stroke="rgb(60, 60, 60)" stroke-width="1px" opacity="0.25"></line><line x1="0" y1="162.38181807778096" x2="280.01599884033203" y2="162.38181807778096" fill="rgb(0, 0, 0)" stroke="rgb(60, 60, 60)" stroke-width="1px" opacity="0.25"></line><line x1="0" y1="146.1436362700029" x2="280.01599884033203" y2="146.1436362700029" fill="rgb(0, 0, 0)" stroke="rgb(60, 60, 60)" stroke-width="1px" opacity="0.25"></line><line x1="0" y1="129.90545446222478" x2="280.01599884033203" y2="129.90545446222478" fill="rgb(0, 0, 0)" stroke="rgb(60, 60, 60)" stroke-width="1px" opacity="0.25"></line><line x1="0" y1="113.66727265444669" x2="280.01599884033203" y2="113.66727265444669" fill="rgb(0, 0, 0)" stroke="rgb(60, 60, 60)" stroke-width="1px" opacity="0.25"></line><line x1="0" y1="97.42909084666863" x2="280.01599884033203" y2="97.42909084666863" fill="rgb(0, 0, 0)" stroke="rgb(60, 60, 60)" stroke-width="1px" opacity="0.25"></line><line x1="0" y1="81.1909090388905" x2="280.01599884033203" y2="81.1909090388905" fill="rgb(0, 0, 0)" stroke="rgb(60, 60, 60)" stroke-width="1px" opacity="0.25"></line><line x1="0" y1="64.95272723111239" x2="280.01599884033203" y2="64.95272723111239" fill="rgb(0, 0, 0)" stroke="rgb(60, 60, 60)" stroke-width="1px" opacity="0.25"></line><line x1="0" y1="48.71454542333433" x2="280.01599884033203" y2="48.71454542333433" fill="rgb(0, 0, 0)" stroke="rgb(60, 60, 60)" stroke-width="1px" opacity="0.25"></line><line x1="0" y1="32.47636361555624" x2="280.01599884033203" y2="32.47636361555624" fill="rgb(0, 0, 0)" stroke="rgb(60, 60, 60)" stroke-width="1px" opacity="0.25"></line><line x1="0" y1="16.23818180777809" x2="280.01599884033203" y2="16.23818180777809" fill="rgb(0, 0, 0)" stroke="rgb(60, 60, 60)" stroke-width="1px" opacity="0.25"></line><line x1="0" y1="0" x2="280.01599884033203" y2="0" fill="rgb(0, 0, 0)" stroke="rgb(60, 60, 60)" stroke-width="1px" opacity="0.25"></line></g></g></g><g><g><line x1="0" y1="438.43090881000865" x2="280.01599884033203" y2="438.43090881000865" fill="rgb(0, 0, 0)" stroke="rgb(153, 153, 153)" stroke-width="1.5px"></line></g></g><g><g><line x1="23.334666570027668" y1="0" x2="23.334666570027668" y2="178.61999988555908" fill="rgb(0, 0, 0)" stroke="rgb(153, 153, 153)" stroke-width="1.5px"></line></g></g><g><g><g><g><g><path style="fill: none;" stroke="rgb(255, 112, 67)" stroke-width="2px" d="M23.53534470252991,41.797832992390255L23.549345502471922,41.790074900937356L23.67068576863607,41.733862147356064L23.778025234858195,41.666984920532826L24.1187113667806,41.510441195280634L24.408061232248944,41.32702094938969L24.43139589881897,41.21502581098622L24.529401498413087,41.1185752551342L24.613406298065186,41.035099512378906L24.77674896405538,40.93493974445073L24.786082830683387,40.87245470640386L24.823418297195435,40.823566292422555L25.551459894180297,40.58130455159656L25.84080975964864,40.3560347717235L26.04148789215088,40.16629486434283L26.074156425348917,40.04364951298345L26.298169224421184,39.91108272162748L26.358839357503253,39.8160888588566L26.47084575703939,39.72989626670369L26.671523889541625,39.62740770077073L26.70885935605367,39.556886524360465L27.002876154836017,39.442148064022774L27.082214021174114,39.35438392573474L27.110215621058146,39.29523144077257L27.2408897538503,39.228574592492805L27.87092575124105,39.047184080684275L28.071603883743286,38.89532805904679L28.314284416071573,38.75308188611697L28.491627882003783,38.63340383917233L28.846314813868208,38.491300548711024L29.22433641230265,38.338510221834696L29.48101774457296,38.20120091464179L29.495018544514974,38.11632790858084L29.560355610911053,38.05390579903431L29.579023344167073,38.013219845060235L29.80303614323934,37.95139037761777L29.83570467643738,37.90905651510178L30.04104974225362,37.85188099079292L30.181057741673786,37.79700841630563L30.447072940572102,37.72722834173641L30.582414006678263,37.66764825667073L30.65708493970235,37.62241506928447L30.731755872726442,37.58597391599224L31.231117737325032,37.503317242831855L31.431795869827273,37.428694093370694L31.445796669769287,37.38222642934653L31.945158534367877,37.29733822558899L32.047831067276,37.2354877177969L32.099167333730065,37.19302508616923L32.28584466629028,37.15031940235238L32.42585266571045,37.115839971877676L32.84120973065694,37.07040385062837L33.121225729497276,37.02763688352232L33.54591666107178,36.98009313862724L33.60191986083984,36.94881813788419L33.751261726888025,36.92378133297956L33.895936659622194,36.90632021496961L34.105948658752446,36.8924172806166L34.488637190500896,36.87816182783777L34.70798305625916,36.8691342993518L34.78732092259725,36.86476308300334L34.79665478922526,36.86226617643189L34.81998945579529,36.8610680725171L34.93666278864543,36.86185908901945L34.941329721959434,36.86239177118429L34.9973329217275,36.86341792635588L35.02066758829752,36.864333659487045L35.156008654403685,36.86656719500738L35.22601265411377,36.86875904285105L35.87004945144653,36.891735105845356L36.12673078371684,36.9199323437023L37.186124645996095,37.01754209655951L37.51747691129049,37.110215724373546L37.531477711232505,37.167378173466204L38.09150970891317,37.26865232016655L38.413528107579545,37.37390984074372L38.47886517397563,37.44613330490773L38.48819904060363,37.490754651913875L38.49286597391764,37.518166255016126L38.76354810612996,37.57609617044267L39.58026143608093,37.749830724981564L40.2242982334137,37.98107549799482L40.2336321000417,38.121680674234966L40.46697876574198,38.25430183095344L40.798331031036376,38.408865174593274L41.04101156336467,38.554739301886116L41.13901716295878,38.66672187990892L41.171685696156814,38.74203186490297L41.67104756075542,38.90775651751886L41.80172169354756,39.03765021129789L41.93239582633972,39.14891990681832L42.175076358668015,39.278486877113465L42.46442622413635,39.42903032030722L42.92178568890889,39.63511376481418L43.06646062164307,39.797323814487044L43.0897952882131,39.900815182933115L43.486484619903564,40.06555272974941L43.495818486531576,40.16675686322185L43.87384008496603,40.3262602635308L44.303197949854535,40.53753578680576L44.38253581619263,40.68514904336976L44.48054141578674,40.79923975711952L45.10591047986348,41.037487805153376L45.124578213119506,41.18552763574121L45.16191367963155,41.28452385891816L45.684610210800166,41.483643458822314L45.74994727719625,41.62184352374584L45.92729074312846,41.75506382160768L45.98329394289653,41.85071422631401L46.17930514208476,41.96251818004393L46.53865900726318,42.12696838076201L46.907346739069624,42.33012986066319L46.916680605697636,42.45468839401468L47.16869500465393,42.600445892294715L47.299369137446085,42.724137483691095L47.789397135416664,42.93574173527605L48.28409206670125,43.20361663362684L48.34942913309733,43.38253754853619L48.634112065251664,43.56931359653831L49.236146462758384,43.855770232651196L49.8428477935791,44.201793253866015L50.04819285939534,44.46927957027063L50.44488219108582,44.7428574145828L50.53822085736593,44.93312696103774L50.70623045667013,45.09699854647275L50.73889898986816,45.20506795929231L50.90690858917236,45.319658179388426L51.004914188766485,45.417148403171495L51.29426405423482,45.55932466915502L51.387602720514934,45.67124688285247L51.90563231836955,45.890317252405424L51.9523016515096,46.035561315430726L52.27432005017599,46.21665899688975L52.33499018325806,46.342787678370144L52.36299178314209,46.4264982170435L52.68967711512248,46.571604940107505L52.7970165813446,46.690966831166435L53.09570031344096,46.851211918624074L53.76773871065775,47.14385615338537L54.01975310961405,47.394839849695444L54.15509417572021,47.58541282090607L54.40710857467651,47.77328576794298L54.58911897392273,47.93837136042731L54.60311977386475,48.04142002338932L54.65912297363282,48.11990628208247L54.80379790636699,48.210920025930875L55.3264944375356,48.4236396883484L55.84919096870422,48.711792900842994L55.97053123486837,48.92121228208566L56.502561632665,49.203871953933174L56.53989709917704,49.38429823418579L56.73124136505127,49.54767425911609L57.16059922993978,49.76711929835699L57.459282962036134,49.990395317583875L57.6832957611084,50.19363146077333L57.790635227330526,50.34844204783198L58.1079866926829,50.53733153035489L58.15465602582296,50.664631599242114L58.16865682576497,50.74519284354692L58.23866082547505,50.814396890150036L58.39266962483724,50.90153508109668L59.242051487986245,51.198369976003434L59.55473602002462,51.47149649346619L59.68541015281677,51.675877807739994L59.732079485956824,51.81289883894344L59.895422151947024,51.945208463650914L60.632797615559895,52.24526883980225L60.98281761411031,52.52702831373624L61.51484801190694,52.84856240464492L61.70619227778116,53.101103716390725L62.36889680836995,53.45459415720509L62.39223147493998,53.67367645073574L62.434233874766036,53.817679114482274L62.868258672968544,54.032255877000836L62.9989328057607,54.1990392671091L63.045602138900755,54.31264013857121L63.479626937103276,54.505075305353515L63.63830266977946,54.66530044187624L63.9183186686198,54.84785673059895L64.77236746508281,55.215192638961554L64.89370773124695,55.47135701958885L64.90770853118897,55.62916909996366L65.00571413078308,55.752573082492816L65.03838266398112,55.836158680646605L65.30906479619344,55.964814061089825L65.33706639607747,56.050069655272665L65.59841466166179,56.175952336205356L66.55513599103291,56.53737169801016L66.81648425661723,56.83232083079942L66.9658261226654,57.05349298171244L67.37184932098388,57.304876621447534L67.52585812034607,57.50015144429264L67.8945458521525,57.7224658497898L67.92721438535055,57.86508798298567L67.98788451843261,57.96776354450604L68.26790051727295,58.111705672360685L68.40790851669311,58.24082181372525L68.51524798291524,58.35088939579262L68.59925278256735,58.44232688160676L69.27595811309814,58.698429123568346L69.5746418451945,58.93904400463653L70.27934877560934,59.2841784269319L70.40068904177348,59.52522167575016L71.29674023806254,59.938431843761165L71.32940877126057,60.195978582888785L71.85677223574321,60.50407872720977L71.87077303568522,60.69297483611612L71.96877863527934,60.83446787055027L72.24412770080566,60.99786771276172L72.4448058333079,61.1525571111397L72.84149516499838,61.358166443318325L72.98617009773254,61.52513463380875L73.06084103075663,61.64772176310616L73.14017889709473,61.74500623903778L73.32685622965495,61.858923044641216L73.54153516209921,61.99063964620008L73.54620209541321,62.0710439840384L73.64887462832134,62.149387376659234L73.81221729431152,62.24404170443924L73.93355756047566,62.33603577150312L73.97555996030171,62.40336931481444L74.21824049263,62.51354326540495L74.23224129257203,62.58365462194121L74.39091702524821,62.67095972913495L74.40958475850422,62.728646726851494L74.51692422472635,62.793679112848565L74.54492582461039,62.84061572970492L74.5542596912384,62.87141030909771L74.76893862368266,62.95026285335959L75.1516271554311,63.10433055766384L75.24029888839722,63.22335859822199L75.28230128822327,63.307338388895616L75.59965275357565,63.452006583103454L75.60898662020365,63.54156593214476L75.88900261904399,63.677512509274294L76.63104501597087,63.97275734912627L76.87839248161316,64.21981357958937L76.97173114789327,64.39426694484068L77.11640608062744,64.53938629552405L77.1584084804535,64.63815946703079L77.23774634679158,64.71948115135687L77.31708421312968,64.79026419240057L77.69977274487815,64.9410581458886L77.80711221110026,65.06326133127746L77.87244927749634,65.15583419786331L78.21780234273274,65.31237526276418L78.74983274052938,65.55943646057275L79.19785833867391,65.83435782209858L79.22119300524393,66.00585344736918L79.38920260454813,66.15570224757704L79.53387753728232,66.28580721275918L79.98657006874085,66.48833840998523L80.107910334905,66.6443810889758L80.12657806816101,66.74349452527159L80.20124900118509,66.82486550910181L80.39726020037334,66.9309086363755L80.69594393246969,67.08097507696999L80.7099447324117,67.17505096364042L81.23264126358033,67.3805486386441L81.47998872922261,67.5734468514595L82.4740455251058,67.96303521642686L82.60471965789795,68.23294789815098L83.09941458918254,68.53768552443869L83.43543378779093,68.81617311820742L83.72478365325928,69.0647797750114L84.08880445175171,69.31538633473004L84.16814231808979,69.48770158616686L84.29414951756794,69.62582762931675L84.39215511716208,69.73562942805277L84.44815831693013,69.81685126357088L84.51816231664021,69.88472885441786L84.78417751553854,69.99779409183466L85.12486364746094,70.15737773191533L85.63822631200155,70.39958616452847L85.88557377764384,70.61478183580597L85.90424151089987,70.74915477841985L86.3616009756724,70.95745041530836L86.55761217486064,71.13658018316185L86.79562577387492,71.30936030418758L86.90296524009705,71.44231615503176L87.17831430562337,71.59678027511892L87.1923151055654,71.69324312300971L87.63100683708191,71.86873652276718L87.7896825697581,72.01645435111354L87.95302523574829,72.15146542924232L88.1350356349945,72.28387570803393L88.56439349988302,72.48344435237317L88.66706603279114,72.63167966293756L89.0497545645396,72.82603168625211L89.70779216181438,73.12106025115563L90.01580976053874,73.38038514490839L90.04847829373678,73.54466188455434L90.16981855990092,73.67540964103539L90.25382335955301,73.77607093571552L90.52917242507934,73.91010334265053L90.76251909077962,74.05581536841463L90.98186495653789,74.2042087818449L91.27588175532024,74.37434274589064L91.62590175387065,74.5720584636036L91.65390335375467,74.69828568204022L91.79391135317483,74.81197223730408L91.8359137530009,74.89154697668856L91.88258308614095,74.95189350150031L92.31194095102946,75.10322000007952L92.3539433508555,75.20519480995213L92.45194895044962,75.29243478476921L92.75063268254598,75.42369897576552L92.83930441551209,75.52575414674021L93.46934041290282,75.75084781952077L93.76335721168518,75.96135925090593L93.97803614412943,76.14237018196063L94.18338120994568,76.30299013127463L94.58473747495015,76.50016587160066L94.85541960716247,76.6942362622518L95.5507926709493,77.00571419363092L95.5601265375773,77.19518516818447L95.7094684036255,77.35026359808653L95.85414333635966,77.48323533718886L96.12949240188598,77.63858007418352L96.79686386578878,77.91256587267777L96.90887026532492,78.10698071200748L96.95087266515097,78.23486659859391L97.20755399742127,78.37996854211474L97.9122609278361,78.65232862236766L97.97759799423217,78.83275016501634L98.45362519226074,79.06398078729234L98.55163079185485,79.22785477204593L99.1723329226176,79.48380664347737L99.508352121226,79.72164062068491L99.61102465413411,79.88994119650549L99.6903625204722,80.01064675416907L99.90504145291646,80.13626428213968L100.06371718559265,80.25076582581521L100.36706785100301,80.39380892802016L100.74042251612346,80.58197747506371L101.09510944798787,80.79176249624075L101.26311904729207,80.96322023580002L101.78114864514669,81.20541991839957L101.78581557846069,81.35198828162468L101.94449131113687,81.48222526481408L102.00982837753297,81.57774074022687L102.20583957672119,81.68698598647104L102.98521744016013,81.9565022810755L103.12989237289429,82.15563963166848L103.28856810557048,82.31601459424381L103.79259690348307,82.54105353095818L103.94660570284525,82.71512081148472L104.03061050249735,82.8407962708231L104.03994436912537,82.91855347309811L104.1519507686615,82.99344059323815L104.1566177019755,83.0395536680135L104.17061850191752,83.07074456353145L104.25929023488364,83.11173949260778L104.42263290087382,83.17726771711546L104.567307833608,83.25269592101084L104.74931823285421,83.34320081533066L104.79598756599427,83.40906981107105L105.21134463094074,83.55097260907816L105.27668169733684,83.65213255389983L105.41202276344299,83.74591035357064L105.44935822995504,83.8112847000332L105.5846992960612,83.88345563874043L106.04672569414774,84.0384214859782L107.12478728968303,84.40758300084977L107.25546142247518,84.66355547687478L107.29746382230122,84.82819204997725L107.42813795509338,84.961304380282L107.59148062108358,85.08394200053776L107.64748382085165,85.17213942567388L107.946167552948,85.30272953319619L108.57620355033875,85.54312457031547L108.82821794929504,85.75151208634112L109.44892008005777,86.03293320158097L109.45358701337179,86.20295699470567L110.10695767733256,86.46715742384507L110.67165660832723,86.76390902589667L110.70432514152526,86.94989652980686L111.28769180577596,87.2023142711576L111.81505527025858,87.47947200903964L112.03440113601685,87.6976058256595L112.13707366892497,87.85267321338209L112.23507926851909,87.96873929849619L112.55243073387145,88.11260498103725L112.79977819951375,88.25640625272331L113.07046033172607,88.4118026880189L113.27580539754233,88.55801213222527L114.27452912673951,88.89996848967242L114.3585339263916,89.12627092934663L114.46120645929972,89.2878267994377L114.48920805918375,89.3917773866661L114.99790379041036,89.58090981152846L115.06324085680643,89.7105720705432L115.1145771232605,89.8010678942389L115.42259472198486,89.93123680072826L115.4505963218689,90.01621970784748L115.72594538739523,90.13456359907659L115.85195258687338,90.23627080378812L115.95929205309551,90.3233695729297L116.28597738507588,90.45463614891597L116.38864991798401,90.55810584263L116.5426587173462,90.65716033329123L116.65466511688233,90.7434030560071L116.84134244944255,90.83969011574646L116.92534724909464,90.91744888894713L116.95334884897868,90.97076310574965L116.9673496489207,91.00607143356166L117.32203658078511,91.11118052972714L117.32670351409912,91.1753396817225L117.54604937985738,91.26541302162458L117.69072431259156,91.3533421913222L117.81673151206971,91.43553265202819L117.83073231201172,91.48810865391879L117.85406697858174,91.52509369040169L118.18541924387614,91.62424014014877L118.2367555103302,91.69560378788427L118.46543524271647,91.79116127050054L118.73145044161478,91.90952003030563L118.94146244074504,92.02848361842433L119.13280670661926,92.14335789666232L119.19347683970135,92.22603591134568L119.19814377301535,92.27669769960943L119.30081630592346,92.33033335668107L119.37548723894756,92.37938474347287L119.89351683680216,92.53292568137309L119.99152243639628,92.64947930962852L120.31354083506265,92.79932859987807L120.32754163500469,92.89270315241707L120.33220856831869,92.94987965050005L120.55622136739095,93.03944130807675L120.66822776692709,93.12071423423566L121.28426296437581,93.31979804401905L121.65761762949626,93.52943455511553L121.71828776257833,93.66980227862432L122.01697149467469,93.82559697750197L122.32032216008504,93.9913156926313L122.42766162630716,94.11620193054618L122.81968402468362,94.28364278906186L122.83368482462565,94.38739806576997L122.85701949119567,94.45513906069628L123.16970402323406,94.5689934245133L123.25370882288614,94.65689575302652L123.60372882143656,94.79090928291262L123.78573922068279,94.91335204091278L124.52311468429565,95.15558537217495L124.7237928167979,95.34642498938999L125.02714348220826,95.52937660097268L125.05514508209228,95.64543872980221L125.17648534825643,95.7423312561059L125.27449094785055,95.82242776620437L125.30249254773459,95.87674779801159L126.03986801134745,96.0731423150282L127.15526507339477,96.44340947599268L127.21593520647684,96.68013623200105L127.37461093915303,96.86018058207144L127.48661733868916,96.99496882687987L127.55195440508525,97.09142449780596L127.6826285378774,97.18040527618028L128.21465893567404,97.3596460169352L128.37800160166424,97.50556654885574L128.55067813428244,97.6335661995407L128.97536906585694,97.80928241212536L129.58207039667766,98.05464693730696L129.93209039522807,98.28186987410747L130.35211439348856,98.51351957802403L130.36611519343057,98.65567433873507L131.0521543905894,98.89501355282475L131.07082212384543,99.0427789268299L131.27150025634765,99.17611507929108L131.3228365228017,99.26751829183631L131.36950585594178,99.33271643968888L131.52818158861797,99.40697872653281L131.574850921758,99.46185360412224L131.69619118792215,99.52155952286327L131.90620318705243,99.60359891714883L132.01354265327453,99.67637085657233L132.25155625228882,99.77208612574991L132.36356265182496,99.85393467406121L132.45223438479104,99.92234315195347L132.6715802505493,100.01097845863283L133.19894371503196,100.17781674103433L133.4276234474182,100.32686494990111L133.80564504585266,100.49676267502075L133.85698131230671,100.60958018078952L133.95031997858683,100.69703461126437L134.29100611050922,100.82137169563927L134.55702130940756,100.95421074785115L135.05638317400616,101.14928440934564L135.71442077128094,101.41678416227852L135.89643117052714,101.61859275081295L136.03177223663332,101.77030134422294L136.4377954349518,101.9527709578714L136.66180823402405,102.11242716173057L136.67114210065205,102.21030180682172L136.8484855665843,102.30860284145648L136.9558250328064,102.39147051995988L137.2871772981008,102.51466221910891L137.94521489537556,102.73321588957324L138.24389862747194,102.92945677795383L138.70125809224447,103.14624355639347L138.73859355875652,103.28436831066352L139.44796742248536,103.51921827682354L139.55063995539348,103.68196342759819L139.70464875475565,103.81230520241743L140.05000181999205,103.96350710253733L140.2320122192383,104.0925172216816L140.63336848424274,104.25395385846286L140.97405461616515,104.42169303814201L141.0907279490153,104.5465139649896L141.15139808209736,104.63395980872623L141.19340048192342,104.69510911836251L141.56208821372988,104.8077572248115L141.83743727925616,104.93176329267804L142.3694676770528,105.11444266870684L142.4394716767629,105.2382296053304L142.80815940856934,105.3893894441879L143.21418260688782,105.57004896238537L143.62953967183432,105.76985041606397L143.8022162044525,105.92754601052481L143.96555887044272,106.05783909441578L144.31091193567912,106.21111206017555L144.8896116666158,106.4279699210139L144.98761726620992,106.57911647561707L145.02961966603598,106.67880560922256L145.10429059906005,106.75460831927147L145.39830739784242,106.86286606215194L145.4029743311564,106.92881761507041L145.46831139755247,106.98229685393147L146.04234419517516,107.1359393234789L146.09368046162925,107.23893592493027L146.56037379302978,107.39864372207398L146.87305832506814,107.55965451614686L147.80644498786927,107.84889636935408L148.39914551874799,108.14327050421541L148.40381245206197,108.32084349876949L148.53915351816812,108.4548167612984L148.54848738479615,108.53708806737971L149.0105137828827,108.6796277978256L149.7105537799835,108.90503804017101L150.00923751207986,109.09948885822372L150.0372391119639,109.22169557150966L150.06524071184796,109.30055582193556L150.083908445104,109.35155956092383L150.08857537841797,109.38308128182231L150.62527270952862,109.50756001070663L150.88195404179893,109.6324216837073L151.4419860394796,109.81610803705642L151.70333430506386,109.97884621140798L152.16069376983643,110.17325686444288L152.20736310297647,110.29973682621767L152.2400316361745,110.38250636650814L152.32403643582663,110.44984141620972L152.59005163472494,110.54606924868212L152.79539670054118,110.64675038702899L153.19675296554567,110.79068634238143L153.62144389712014,110.9648822141473L153.63077776374817,111.07131612190257L153.78011962979636,111.16592573008269L153.86412442944845,111.23994863596297L155.184866557312,111.55287884723714L155.30620682347615,111.76503700338516L155.5115518892924,111.93352448932166L155.7682332215627,112.08592382569206L156.05758308703105,112.23496143420272L156.1182532201131,112.3364339939868L156.54761108500165,112.48224821523634L156.6829521511078,112.59639191693579L156.86496255035402,112.70065065227581L158.17170387827554,113.01714622308553L158.540391610082,113.27781429736528L158.66173187624614,113.4574150112042L158.76440440915425,113.58477482844121L158.85307614212036,113.67809942617457L158.96974947497048,113.75630682560599L159.04442040799458,113.81742025498176L159.10042360776268,113.86472521553961L159.30110174026487,113.93114552447143L159.61845320561724,114.03091860705919L159.9078030710856,114.14517681009676L160.87852520039877,114.3945494030591L160.9111937335968,114.55021247424123L160.95319613342284,114.65137264283928L161.18654279912312,114.75510996996744L161.20054359906516,114.81992690325984L161.29854919865926,114.87684850105418L161.44322413139344,114.94002791277373L161.53189586435954,114.99582181696562L162.16659879506432,115.15663127593051L162.54462039349875,115.32839796223578L162.54928732681276,115.43238713023509L162.70796305948892,115.52625579785546L163.3473329235077,115.70869059734383L163.37066759007772,115.82272950714335L163.49200785624186,115.91495280235036L163.7066867886861,116.01228270470075L163.7766907883962,116.08434698545634L164.15937932014467,116.20206323185744L164.36005745264688,116.31159171753723L164.48139771881105,116.40077000340196L164.67274198468525,116.49119157709012L164.8734201171875,116.58406257653519L165.48945531463622,116.75763315627923L165.52212384783425,116.86799891503149L165.54079158109028,116.93777045706739L166.01681877911886,117.06993575204235L166.20349611167907,117.18448479297612L166.6421878431956,117.33568651042697L166.70752490959168,117.43864143107629L166.79152970924378,117.51613260945513L168.2569467698415,117.83394093158732L168.5042942354838,118.06987389684926L169.05965929985047,118.31247941450869L169.90904116299947,118.61111153299835L170.0817176956177,118.82118524827789L170.52040942713418,119.02540442283666L171.2624518240611,119.27912117083434L171.38379209022523,119.45267341905065L171.57046942278544,119.58954784588782L171.78514835522972,119.70922589905803L172.08849902064006,119.83532061862864L172.1211675538381,119.91721053998745L172.15850302035014,119.97347770250354L172.38251581942242,120.04991143498025L172.42451821924845,120.1037662894091L172.6998672847748,120.18833456051216L172.76053741785685,120.25056415263782L173.43724274838763,120.41540924115353L173.49324594815573,120.52481769524712L173.6472547475179,120.61930532524511L173.84326594670614,120.71261246538515L174.1466166121165,120.82507202572975L174.4919696773529,120.95658211116361L174.71131554311117,121.07599356622009L175.01466620852153,121.20347692061603L175.15000727462768,121.30481218332399L175.21067740770977,121.37673417941036L175.53269580637615,121.47876297354773L175.54669660631816,121.54253542962451L175.7473747388204,121.61735539314824L175.97605447120665,121.7037883970912L176.23740273679095,121.80297709421518L176.8534379342397,121.97339865707747L176.89077340075175,122.08234926251934L176.9234419339498,122.15357524568807L177.3574667321523,122.27384698608185L177.4134699319204,122.35597910222012L177.50680859820048,122.42186703926613L178.0388389959971,122.55567044258684L178.05750672925313,122.63925292488852L178.1835139287313,122.71163441248223L178.19284779535928,122.75669900712722L178.6128717936198,122.85756696825281L178.93955712560017,122.97523085221911L179.06556432507833,123.06779985562574L179.09823285827636,123.1290323394934L179.22890699106853,123.18851679968758L179.86360992177327,123.33413827062297L180.2929677866618,123.49536939365453L180.32563631985983,123.59771204090197L180.74566031812031,123.730943340498L180.78766271794635,123.81804436608817L180.84366591771445,123.8798481900786L180.93233765068055,123.93202927298472L181.01167551701863,123.97683004528315L181.26368991597494,124.04648073073517L181.31969311574298,124.0977562783792L181.43636644859313,124.14904047340477L181.60904298121133,124.2117410566384L181.87972511342366,124.29927451706286L182.09440404586792,124.39126437508122L182.18307577883402,124.4627282023848L182.2157443120321,124.51158794190815L182.43042324447632,124.5802090293058L182.6731037768046,124.66568114008973L182.6871045767466,124.71950990744381L182.85044724273683,124.78154016677188L183.45714857355753,124.92867943847696L183.69982910588584,125.0606914159208L183.70449603919982,125.140740650208L183.80250163879393,125.20638544404407L184.05918297106425,125.29182362530685L184.46520616938272,125.41563814860598L184.46987310269674,125.49075923169573L184.64721656862895,125.56740383547623L184.81055923461915,125.64240737207689L184.85256163444518,125.69486210118737L185.51993309834796,125.84422163357293L185.66927496439618,125.9600763373989L186.11263362922668,126.10723177600337L186.82200749295552,126.31887052685511L187.05068722534182,126.48539131010381L187.21869682464597,126.61427216083246L187.50804669011433,126.7413686010952L187.8674005552928,126.87918306457036L187.8814013552348,126.96426238416979L188.2360882870992,127.07580191708263L188.33409388669332,127.15939237645684L188.37142935320534,127.21588620751425L188.43209948628746,127.26009033292118L188.44143335291545,127.2882001167012L188.4694349527995,127.30981823386622L188.926794417572,127.40018007399898L188.9361282842,127.45597480790384L189.34215148251852,127.55779302368401L189.35615228246053,127.62123587982416L189.48215948193868,127.6804398974248L190.28020507863363,127.84909297207507L190.31287361183166,127.9557048947926L190.620891210556,128.0706982106246L190.64422587712605,128.1435560056471L191.12958694178263,128.26726522564155L191.2089248081207,128.3545279807955L191.52160934015907,128.45812472772224L191.61494800643922,128.5355461024701L192.11430987103782,128.6633581684922L192.35699040336607,128.7794087240526L192.42699440307618,128.8603728274833L192.49699840278626,128.9202753809256L192.57166933581033,128.9682862650899L192.6323394688924,129.00688765069995L192.7956821348826,129.05639393227705L192.88435386784872,129.100383478046L192.91702240104675,129.13203274535482L194.00441786321002,129.32487130525902L194.28443386205038,129.4849803653633L194.42444186147054,129.60320036995375L194.51311359443665,129.68814714563442L194.92847065938315,129.80454329459405L195.11048105862935,129.90295253761533L195.12914879188537,129.9649307327352L195.1711511917114,130.00869917300463L195.19915279159548,130.03934469306105L195.3158261244456,130.07599573196785L195.58184132334392,130.13954673856182L196.26321358718872,130.28352372147043L196.80457785161335,130.45341782613866L196.95858665097555,130.57901873631874L197.46728238220217,130.7322348303686L197.4952839820862,130.82843279816626L197.53728638191222,130.8925588852518L198.13932077941894,131.02251770994786L198.29799651209515,131.1244962070151L199.49273144048055,131.36505884851817L199.58140317344666,131.5226078733678L199.7820813059489,131.64699611043085L200.10409970461527,131.7694031681138L201.10749036712645,131.99060259850665L201.57885063184102,132.19214756770884L201.83553196411134,132.3504053359546L201.9055359638214,132.45552264301574L202.22755436248778,132.56524441226975L202.386230095164,132.65399666048629L202.7315831604004,132.75699658182057L202.80625409342446,132.82953022465938L202.85759035987854,132.88042558782809L203.01626609255473,132.9337271330241L203.38962075767517,133.01910550643638L203.67430368982951,133.11089600654344L203.67897062314353,133.166638137638L203.94965275535586,133.238536933447L204.04299142163595,133.2949070083014L204.2436695541382,133.3571360687796L204.26700422070823,133.39777394537583L204.60302341931663,133.46956299577647L205.26106101659138,133.61595666150652L205.36840048281354,133.7217759052105L205.37306741612753,133.7860514269903L206.00777034683227,133.9305115125632L206.45579594497678,134.09150070377487L206.73114501050313,134.23358415824907L206.7824812769572,134.32730310269503L208.10789033813475,134.6004924458249L208.299234604009,134.79546503396853L208.62591993598937,134.96534274019902L208.75659406878154,135.08836895301155L208.9946076677958,135.20055108945607L209.44730019925436,135.34054748781242L209.59197513198853,135.447706481255L209.61530979855857,135.51572818089556L209.69464766489665,135.56922031154565L209.93266126391094,135.6392948502693L210.11000472984313,135.70957237227844L211.06205912590028,135.9023976944424L211.39807832450867,136.07089993268988L211.88810632247925,136.24867602088884L212.29412952079772,136.41857269005678L212.3501327205658,136.52921185237307L212.49947458661399,136.6187661829021L212.63014871940612,136.69274664376232L213.03617191772463,136.79987232228726L213.08284125086467,136.8713390113665L213.1108428507487,136.91853572973474L213.12951058400472,136.94972833779929L213.2741855167389,136.990714615693L213.28351938336692,137.01673883159566L213.348856449763,137.042399862724L213.376858049647,137.06209382890057L213.71754418156942,137.12615588834166L214.8702767101288,137.33999071721877L215.28096684176128,137.53027407712818L215.40230710792542,137.66270781994683L215.8223311061859,137.8052055076749L215.94833830566407,137.9095582485304L216.27502363764444,138.02094091567898L216.5923751029968,138.13500262362055L216.66704603602093,138.2145217720048L216.97506363474528,138.30788773886246L217.19907643381754,138.39701818788663L217.27374736684163,138.46151082994632L217.40908843294778,138.5201639164074L217.52576176579794,138.57252580086097L217.61443349876404,138.61698983340102L218.28647189598084,138.74211041828005L218.32380736249286,138.8226318832666L218.62249109458924,138.91446992375703L218.7484982940674,138.98789454718778L219.37853429145812,139.123200204637L219.41120282465616,139.20909713116112L219.49520762430828,139.27275303272745L219.97590175565082,139.38009128208293L220.087908155187,139.46055121255597L220.13457748832704,139.51551515985366L220.1999145547231,139.55785284136755L220.48926442019143,139.62462225931404L220.932623085022,139.7278278179352L221.24064068374634,139.83345053139698L221.4506526828766,139.9265474796791L221.5346574825287,139.99427174782497L221.58132681566875,140.04149751062053L221.67933241526285,140.08366384572315L222.18802814648944,140.18052803284655L222.51471347846984,140.2844074887642L222.97207294324238,140.41055657990896L223.51810414098105,140.56204969589368L223.69544760691323,140.67748109681625L223.84945640627544,140.768004064524L223.92879427261352,140.83326446681974L224.11080467185974,140.8974982473216L225.24020253384907,141.09061720236792L225.31487346687317,141.21665122150944L225.98691186409,141.38336765701575L226.22959239641824,141.51614059622688L226.4349374622345,141.6234564358936L226.5982801282247,141.70979725529918L226.73828812764484,141.7803978028977L226.850294527181,141.8377698115734L226.96230092671712,141.8871853394742L226.99963639322917,141.92182887087628L227.05097265968323,141.94948687423252L227.0556395929972,141.9667011137237L227.33565559183756,142.01441851640635L227.46166279131572,142.0598318421695L227.48033052457174,142.0895672662476L227.55033452428182,142.11672911898734L227.671674790446,142.14916064117554L227.72301105690002,142.17543336673998L227.77434732335408,142.1980204930407L227.92835612271625,142.23199484815444L228.32504545440673,142.30486710872248L228.57239292004903,142.3812077197331L228.59106065330505,142.42947047882794L228.65173078638713,142.4664130705171L229.02508545150755,142.53763033077286L229.04375318476357,142.58280940070418L229.16976038424175,142.62642872292014L229.2117627840678,142.65809782386174L229.61778598238627,142.73014829714037L229.65045451558433,142.77763721376473L229.85579958140053,142.83287284108437L230.10314704704285,142.89814753661668L230.26648971303305,142.95849905140557L230.28515744628908,142.997129637925L230.56984037844342,143.05713548361075L231.0225329099019,143.15150161584677L231.19987637583415,143.2309049799043L231.4145553082784,143.30609260866237L231.41922224159242,143.35180526597344L231.43322304153443,143.38102342181827L231.69457130711874,143.4319942603946L232.0865937054952,143.51258666113057L232.19860010503135,143.5751988422631L232.4272798374176,143.6418216401173L232.49261690381368,143.69008029509016L233.1833230342865,143.80634713625673L233.32333103370667,143.89374185164166L233.598680099233,143.9807800712122L233.83669369824727,144.06283278897598L234.79808196093242,144.23190621409162L234.84008436075845,144.33855741545554L235.07809795977275,144.43203916742488L235.08743182640077,144.48927998516598L235.7174678237915,144.60135420051486L235.88547742309572,144.68925309811152L236.09082248891193,144.767186120321L236.36617155443827,144.84764720390194L236.42217475420637,144.90277638114438L236.94953821868896,145.00013020448154L237.26688968404136,145.09707344532075L237.43023235003153,145.1750323529696L238.13027234713238,145.30626412611932L238.17227474695844,145.39005547693426L238.29828194643656,145.45546779077736L238.43828994585675,145.51151742065798L238.5969656785329,145.56415618617433L238.80697767766316,145.6208653781615L238.8443131441752,145.65935277893328L238.97498727696737,145.69804730085855L239.50235074145,145.7840304521543L239.57702167447408,145.84448604182708L239.86637153994243,145.9150510672317L239.9457094062805,145.96676875303086L240.34706567128498,146.0451766528215L240.38906807111107,146.0971672138046L241.08444113489787,146.20999179546416L241.2664515341441,146.29897002903527L241.50913206647238,146.38067687634822L242.85320886090597,146.5993494238612L242.9512144605001,146.74409346847676L243.60925205777485,146.92152294760646L243.8099301902771,147.05549720927607L244.0572776559194,147.16972821719187L244.08994618911743,147.24273838623137L244.18328485539755,147.29929134949487L244.30462512156168,147.34978340126307L244.72464911982217,147.4372507757467L244.96732965215048,147.5226678525559L245.2473456509908,147.611829608001L245.28001418418884,147.66974983200518L245.415355250295,147.7227850507018L245.6627027159373,147.78796869730456L245.6813704491933,147.8295856713076L245.7420405822754,147.86273436615332L245.80737764867146,147.89141185227152L245.9193840482076,147.92367841761197L245.97538724797565,147.95056839365094L246.12472911402384,147.98674698889488L246.15739764722187,148.01283860193598L246.22273471361794,148.03725280283965L246.7500981781006,148.12243008741117L246.80143444455464,148.1803793065373L246.82943604443867,148.2188848202986L247.02078031031292,148.267481852235L247.0394480435689,148.29911782130648L247.104785109965,148.32679088485426L247.21212457618714,148.35767082109504L247.70681950747172,148.44178172576017L247.90749763997394,148.51876793556076L248.1128427057902,148.59205037236723L248.1968475054423,148.64708260064918L248.27151843846642,148.68993550757216L248.41152643788655,148.73406583796833L248.73354483655294,148.80281096532852L249.31691150080363,148.92032628115055L249.52692349993387,149.0181971854662L249.6996000325521,149.09937433661165L249.7042669658661,149.1486903860657L249.75093629900616,149.18433888856407L249.7882717655182,149.21057702406594L249.90494509836833,149.2414670874318L250.29230056343079,149.31016588241084L250.31563523000082,149.35440491710062L250.3856392297109,149.38998825360042L251.29102429262795,149.52783121609545L251.93506108996075,149.6928350696925L252.9244509525299,149.91737993684242L253.28847175102234,150.0980226601453L253.54048614997862,150.23810607129124L253.65715948282877,150.33680968580376L254.24519308039348,150.46966748463825L254.6232146788279,150.59651748448547L254.8518944112142,150.70106353609108L254.90789761098225,150.7707501599647L254.99656934394835,150.82356682822353L255.2719184094747,150.88938396269978L255.81328267389932,150.9957347761033L256.1819704057058,151.1048997019444L256.377981604894,151.19445025325155L256.71400080350236,151.28932478273063L256.94734746920267,151.3747533030894L257.12002400182087,151.44706161082598L257.3813722674052,151.52226051715925L257.4560432004293,151.57644881277685L257.59605119984946,151.62596728464442L257.8107301322937,151.68170442052667L257.93673733177184,151.73040034993724L258.46876772956847,151.82384583102234L258.879457861201,151.92929390107562L259.19680932655336,152.03060007570468L259.3368173259735,152.10813762850387L259.53282852516173,152.17807296108737L259.62150025812787,152.23061299130632L259.6308341247559,152.26325006115488L259.6588357246399,152.2861714582157L260.5082175877889,152.40084421171687L261.2549269180298,152.5577628449789L261.422936517334,152.67166827323908L261.95963384844464,152.80292314899452L261.97830158170063,152.8838537843293L262.41232637990316,152.98307053672943L262.6690077121735,153.07247876774392L262.9396898443858,153.15756015833114" fill="none"></path></g></g></g></g><g opacity="0.2"><g><g><g><path style="fill: none;" stroke="rgb(255, 112, 67)" stroke-width="2px" d="M23.53534470252991,41.797832992390255L23.549345502471922,41.78542004606561L23.67068576863607,41.67989790391803L23.778025234858195,41.588337301788584L24.1187113667806,41.30605770759138L24.408061232248944,41.07328471803399L24.43139589881897,41.054870971146954L24.529401498413087,40.977949418776575L24.613406298065186,40.91198900614316L24.77674896405538,40.78621416209745L24.786082830683387,40.77929388402953L24.823418297195435,40.75049972004061L25.551459894180297,40.2187029669748L25.84080975964864,40.01857142886365L26.04148789215088,39.88190803541039L26.074156425348917,39.85976798494835L26.298169224421184,39.712288632416886L26.358839357503253,39.67362218363178L26.47084575703939,39.60062050904813L26.671523889541625,39.47368421973229L26.70885935605367,39.451108627293934L27.002876154836017,39.27004414903425L27.082214021174114,39.22273945105246L27.110215621058146,39.20650341404695L27.2408897538503,39.128589793841655L27.87092575124105,38.775099086518935L28.071603883743286,38.6675444151486L28.314284416071573,38.53971284510371L28.491627882003783,38.453886878995604L28.846314813868208,38.27814569155737L29.22433641230265,38.10932478218709L29.48101774457296,37.995236981172184L29.495018544514974,37.98901840962165L29.560355610911053,37.96027263918566L29.579023344167073,37.95219091584761L29.80303614323934,37.85864617804833L29.83570467643738,37.84555572198278L30.04104974225362,37.76611770486045L30.181057741673786,37.71469955488021L30.447072940572102,37.622558230115715L30.582414006678263,37.5782781291916L30.65708493970235,37.55456528825954L30.731755872726442,37.53131218608024L31.231117737325032,37.379332233127L31.431795869827273,37.31675936919817L31.445796669769287,37.312524933317434L31.945158534367877,37.17000591996057L32.047831067276,37.14271195611224L32.099167333730065,37.12933113872916L32.28584466629028,37.0862608766281L32.42585266571045,37.06412082616603L32.84120973065694,37.00224966875459L33.121225729497276,36.96348643286362L33.54591666107178,36.90877752128469L33.60191986083984,36.9019056367697L33.751261726888025,36.886226125622784L33.895936659622194,36.88012853795456L34.105948658752446,36.871562879087264L34.488637190500896,36.856778648669405L34.70798305625916,36.855593006622826L34.78732092259725,36.858206258480635L34.79665478922526,36.85852081657464L34.81998945579529,36.85927091664493L34.93666278864543,36.8630456137729L34.941329721959434,36.86319079443166L34.9973329217275,36.864957159113345L35.02066758829752,36.86570725918364L35.156008654403685,36.86991749828789L35.22601265411377,36.87204681461648L35.87004945144653,36.92619920033681L36.12673078371684,36.96222820048763L37.186124645996095,37.16395672584525L37.51747691129049,37.249226166094786L37.531477711232505,37.253121847105035L38.09150970891317,37.42056354021702L38.413528107579545,37.53179612160949L38.47886517397563,37.55446850115368L38.48819904060363,37.557686672423046L38.49286597391764,37.55928365966949L38.76354810612996,37.66299104358248L39.58026143608093,38.01043255678988L40.2242982334137,38.327942657514654L40.2336321000417,38.33258843859525L40.46697876574198,38.453233566031116L40.798331031036376,38.640710190053056L41.04101156336467,38.77355049282545L41.13901716295878,38.834695746943055L41.171685696156814,38.85499684239409L41.67104756075542,39.15634349644273L41.80172169354756,39.23249075196637L41.93239582633972,39.31582445009897L42.175076358668015,39.47283733255617L42.46442622413635,39.65484548509784L42.92178568890889,39.94423893157463L43.06646062164307,40.04063888899631L43.0897952882131,40.05605223560215L43.486484619903564,40.31265904997392L43.495818486531576,40.318563063430474L43.87384008496603,40.565515363994194L44.303197949854535,40.85444907171825L44.38253581619263,40.90656892821582L44.48054141578674,40.97037582774419L45.10591047986348,41.394859877204254L45.124578213119506,41.4075873816229L45.16191367963155,41.433018193683665L45.684610210800166,41.78232285867858L45.74994727719625,41.82914362113115L45.92729074312846,41.95489426840035L45.98329394289653,41.99418983337347L46.17930514208476,42.13022411063875L46.53865900726318,42.3736436818391L46.907346739069624,42.63487208051501L46.916680605697636,42.64152619404186L47.16869500465393,42.81908213971465L47.299369137446085,42.909674870785636L47.789397135416664,43.25314811265338L48.28409206670125,43.60542898115301L48.34942913309733,43.65091892090021L48.634112065251664,43.8494776685414L49.236146462758384,44.28545518682057L49.8428477935791,44.720827785688215L50.04819285939534,44.87050904487762L50.44488219108582,45.153224181051115L50.53822085736593,45.2185312807201L50.70623045667013,45.34280592462517L50.73889898986816,45.36717207852166L50.90690858917236,45.49154350953262L51.004914188766485,45.56338373884611L51.29426405423482,45.77258906813026L51.387602720514934,45.83913020339875L51.90563231836955,46.21892280673484L51.9523016515096,46.25342740996862L52.27432005017599,46.48830551907818L52.33499018325806,46.53198070059079L52.36299178314209,46.552064025053625L52.68967711512248,46.78926502470347L52.7970165813446,46.87000966775474L53.09570031344096,47.091579549810575L53.76773871065775,47.582822505527304L54.01975310961405,47.77131539416061L54.15509417572021,47.871272277722085L54.40710857467651,48.05509518849837L54.58911897392273,48.18599974915384L54.60311977386475,48.195993017832336L54.65912297363282,48.23763567012219L54.80379790636699,48.34744064170343L55.3264944375356,48.74271918197476L55.84919096870422,49.14402271958494L55.97053123486837,49.235341353949764L56.502561632665,49.6278614617045L56.53989709917704,49.65493765456466L56.73124136505127,49.7927382965116L57.16059922993978,50.096286857218246L57.459282962036134,50.32530934642415L57.6832957611084,50.498485675557475L57.790635227330526,50.58065792841995L58.1079866926829,50.8206657541393L58.15465602582296,50.855581702572906L58.16865682576497,50.86603471000417L58.23866082547505,50.91820296005467L58.39266962483724,51.032242367516645L59.242051487986245,51.64362231836357L59.55473602002462,51.88118626966032L59.68541015281677,51.98244977915074L59.732079485956824,52.01843038574866L59.895422151947024,52.143672900712176L60.632797615559895,52.69535940402915L60.98281761411031,52.94966752463712L61.51484801190694,53.33086354100797L61.70619227778116,53.4799156840094L62.36889680836995,53.98482981842673L62.39223147493998,54.002299891031754L62.434233874766036,54.03368311010205L62.868258672968544,54.354121020778635L62.9989328057607,54.44921435227144L63.045602138900755,54.4830414457643L63.479626937103276,54.79372805552701L63.63830266977946,54.905638146660394L63.9183186686198,55.12169116368307L64.77236746508281,55.766196501505476L64.89370773124695,55.85560359052985L64.90770853118897,55.865887220525906L65.00571413078308,55.9376790562865L65.03838266398112,55.961537077877296L65.30906479619344,56.15779713175468L65.33706639607747,56.17795304654692L65.59841466166179,56.36477635760437L66.55513599103291,57.07950074071739L66.81648425661723,57.27474452998338L66.9658261226654,57.385251208081996L67.37184932098388,57.6819520810501L67.52585812034607,57.79306367856027L67.8945458521525,58.0559374580355L67.92721438535055,58.079021182779556L67.98788451843261,58.121776886786634L68.26790051727295,58.32761886414265L68.40790851669311,58.43449602577209L68.51524798291524,58.515990768893644L68.59925278256735,58.57948311032801L69.27595811309814,59.082582486510745L69.5746418451945,59.2999663262388L70.27934877560934,59.801880060374955L70.40068904177348,59.886786548977554L71.29674023806254,60.558247095777816L71.32940877126057,60.582298691580306L71.85677223574321,60.96622894369128L71.87077303568522,60.97631899947565L71.96877863527934,61.04670742220148L72.24412770080566,61.24296747607883L72.4448058333079,61.38459120870665L72.84149516499838,61.666580441586305L72.98617009773254,61.775586919544324L73.06084103075663,61.83160245705217L73.14017889709473,61.890932952935216L73.32685622965495,62.02979825304645L73.54153516209921,62.18821454853838L73.54620209541321,62.191650490795865L73.64887462832134,62.26690246559042L73.81221729431152,62.386023196109264L73.93355756047566,62.47402687209892L73.97555996030171,62.50436962978135L74.21824049263,62.67880419129064L74.23224129257203,62.68882165674562L74.39091702524821,62.80191738992558L74.40958475850422,62.81517722342636L74.51692422472635,62.891227691844136L74.54492582461039,62.91102065498944L74.5542596912384,62.91760217818691L74.76893862368266,63.06854166975232L75.1516271554311,63.33543211412014L75.24029888839722,63.40190065905924L75.28230128822327,63.433308074905966L75.59965275357565,63.66900887441521L75.60898662020365,63.67590495570667L75.88900261904399,63.88143237496871L76.63104501597087,64.41562460890418L76.87839248161316,64.59039792528394L76.97173114789327,64.65594699271752L77.11640608062744,64.75706532154916L77.1584084804535,64.78631922429085L77.23774634679158,64.84146367784608L77.31708421312968,64.8964387539661L77.69977274487815,65.16724907612063L77.80711221110026,65.24656610936067L77.87244927749634,65.29469349774214L78.21780234273274,65.54718686011549L78.74983274052938,65.93002825728573L79.19785833867391,66.2467398643873L79.22119300524393,66.2630968852751L79.38920260454813,66.38047544788873L79.53387753728232,66.4809646605324L79.98657006874085,66.79213520582434L80.107910334905,66.87844510746169L80.12657806816101,66.89216467971524L80.20124900118509,66.9469219848471L80.39726020037334,67.08997332728612L80.69594393246969,67.30607473786172L80.7099447324117,67.31616479364608L81.23264126358033,67.68879515114965L81.47998872922261,67.86279417068265L82.4740455251058,68.54741776387783L82.60471965789795,68.63781692073712L83.09941458918254,68.99479196387027L83.43543378779093,69.23390450886053L83.72478365325928,69.43768976021737L84.08880445175171,69.69129617430792L84.16814231808979,69.7461744633221L84.29414951756794,69.8330166940416L84.39215511716208,69.90033212615685L84.44815831693013,69.93868401684797L84.51816231664021,69.98654524068834L84.78417751553854,70.16739194795989L85.12486364746094,70.39675319203629L85.63822631200155,70.76289881344822L85.88557377764384,70.93757534272214L85.90424151089987,70.9507141923406L86.3616009756724,71.26989387064123L86.55761217486064,71.40527483494203L86.79562577387492,71.56853048572623L86.90296524009705,71.64174993129802L87.17831430562337,71.82847645524966L87.1923151055654,71.83793739484601L87.63100683708191,72.13197662240337L87.7896825697581,72.23803109363311L87.95302523574829,72.35398204643553L88.1350356349945,72.48249112622133L88.56439349988302,72.78279731888216L88.66706603279114,72.85403262878415L89.0497545645396,73.11755972122384L89.70779216181438,73.56360309851091L90.01580976053874,73.76937248553756L90.04847829373678,73.79107699402333L90.16981855990092,73.87153127575705L90.25382335955301,73.92706287773565L90.52917242507934,74.111151953053L90.76251909077962,74.27438340706072L90.98186495653789,74.42679890199028L91.27588175532024,74.62954369195927L91.62590175387065,74.86863204017308L91.65390335375467,74.88762650969517L91.79391135317483,74.98250207019983L91.8359137530009,75.01090908576536L91.88258308614095,75.04241328871792L92.31194095102946,75.33020974794827L92.3539433508555,75.35815702476104L92.45194895044962,75.42329474699478L92.75063268254598,75.62059526225998L92.83930441551209,75.67883690320227L93.46934041290282,76.08848832869157L93.76335721168518,76.27712639798364L93.97803614412943,76.41388657854273L94.18338120994568,76.54392005524561L94.58473747495015,76.79592948208975L94.85541960716247,76.98534184822856L95.5507926709493,77.47293109069965L95.5601265375773,77.47939163001479L95.7094684036255,77.58288124293964L95.85414333635966,77.68269294584238L96.12949240188598,77.87159717967552L96.79686386578878,78.32354457041913L96.90887026532492,78.39860297100199L96.95087266515097,78.42669542847354L97.20755399742127,78.59762145739595L97.9122609278361,79.06086874274699L97.97759799423217,79.10338247898943L98.45362519226074,79.41082672070632L98.55163079185485,79.47366574917625L99.1723329226176,79.86773445062451L99.508352121226,80.07839158649632L99.61102465413411,80.14239206023639L99.6903625204722,80.19170509066446L99.90504145291646,80.3246905740956L100.06371718559265,80.42251814132851L100.36706785100301,80.60837358132753L100.74042251612346,80.86423029562901L101.09510944798787,81.10644002800633L101.26311904729207,81.22040684513891L101.78114864514669,81.56871944229891L101.78581557846069,81.5718408264624L101.94449131113687,81.67758073959817L102.00982837753297,81.72101395334614L102.20583957672119,81.85085385583733L102.98521744016013,82.36077672298215L103.12989237289429,82.45434565755787L103.28856810557048,82.55657703810674L103.79259690348307,82.87861193602978L103.94660570284525,82.97622173227455L104.03061050249735,83.02930945983059L104.03994436912537,83.03518927651066L104.1519507686615,83.10577127344821L104.1566177019755,83.10872328017646L104.17061850191752,83.11753090680838L104.25929023488364,83.17323188622223L104.42263290087382,83.27556005387693L104.567307833608,83.36583822685392L104.74931823285421,83.47895815681036L104.79598756599427,83.5078733046816L105.21134463094074,83.76382680608891L105.27668169733684,83.80387247113231L105.41202276344299,83.88657705307693L105.44935822995504,83.90934621972698L105.5846992960612,83.99171204680115L106.04672569414774,84.27087025683484L107.12478728968303,84.9613252731572L107.25546142247518,85.04751419091224L107.29746382230122,85.075146909631L107.42813795509338,85.16097287573913L107.59148062108358,85.26789843092149L107.64748382085165,85.30443556337801L107.946167552948,85.4986146944797L108.57620355033875,85.90371712599429L108.82821794929504,86.0640933603796L109.44892008005777,86.45506487444081L109.45358701337179,86.45799268439262L110.10695767733256,86.86345806755413L110.67165660832723,87.209036428974L110.70432514152526,87.22887778567224L111.28769180577596,87.58094088318373L111.81505527025858,87.89520861586271L112.03440113601685,88.02480655058929L112.13707366892497,88.085274294966L112.23507926851909,88.14283842616736L112.55243073387145,88.32840350484884L112.79977819951375,88.47210816025233L113.07046033172607,88.64489734096226L113.27580539754233,88.7773262985348L114.27452912673951,89.412903025843L114.3585339263916,89.46572458885794L114.46120645929972,89.5301606045743L114.48920805918375,89.54770326750872L114.99790379041036,89.86460844882198L115.06324085680643,89.90506545906523L115.1145771232605,89.93681162978243L115.42259472198486,90.12649016046232L115.4505963218689,90.14369406852629L115.72594538739523,90.31207943592027L115.85195258687338,90.38883161085542L115.95929205309551,90.45401772664208L116.28597738507588,90.65153601289543L116.38864991798401,90.71331038320105L116.5426587173462,90.80574206928311L116.65466511688233,90.87276714008084L116.84134244944255,90.98412070535561L116.92534724909464,91.03408704874812L116.95334884897868,91.05073443095347L116.9673496489207,91.05903392527969L117.32203658078511,91.26884417397537L117.32670351409912,91.2715784097155L117.54604937985738,91.4005230314776L117.69072431259156,91.48523594586851L117.81673151206971,91.55881834308724L117.83073231201172,91.56697265675469L117.85406697858174,91.58057124512591L118.18541924387614,91.77295981476948L118.2367555103302,91.80264925948745L118.46543524271647,91.93449749442493L118.73145044161478,92.08705817001324L118.94146244074504,92.20692900060237L119.13280670661926,92.31566931401932L119.19347683970135,92.35005293337078L119.19814377301535,92.35269038200506L119.30081630592346,92.41078684228857L119.37548723894756,92.45296182366056L119.89351683680216,92.76323708822343L119.99152243639628,92.82430975201169L120.31354083506265,93.0241025352524L120.32754163500469,93.03276498122553L120.33220856831869,93.03564439762442L120.55622136739095,93.17378379444182L120.66822776692709,93.24262362347413L121.28426296437581,93.61842375869412L121.65761762949626,93.84388932176024L121.71828776257833,93.88035386388738L122.01697149467469,94.05928902581847L122.32032216008504,94.2398937653254L122.42766162630716,94.30353128741854L122.81968402468362,94.53480407683537L122.83368482462565,94.5430309808322L122.85701949119567,94.55675055308573L123.16970402323406,94.73977497023878L123.25370882288614,94.7887492457964L123.60372882143656,94.99192957774169L123.78573922068279,95.09701617791299L124.52311468429565,95.51893536906816L124.7237928167979,95.63268441521261L125.02714348220826,95.8038040183467L125.05514508209228,95.81953192304654L125.17648534825643,95.88767004556148L125.27449094785055,95.94257253135208L125.30249254773459,95.95822784572253L126.03986801134745,96.36773409055307L127.15526507339477,96.99881021743947L127.21593520647684,97.03522636601369L127.37461093915303,97.1302471071771L127.48661733868916,97.19715119409251L127.55195440508525,97.23610800419516L127.6826285378774,97.31387644374168L128.21465893567404,97.62850712806758L128.37800160166424,97.72444734673651L128.55067813428244,97.82556567556817L128.97536906585694,98.07285673100235L129.58207039667766,98.4226937250794L129.93209039522807,98.62270427930827L130.35211439348856,98.86099413389887L130.36611519343057,98.8689064798017L131.0521543905894,99.25402237395927L131.07082212384543,99.26442698783762L131.27150025634765,99.37611930798285L131.3228365228017,99.40462311065423L131.36950585594178,99.43051366146778L131.52818158861797,99.51837215679866L131.574850921758,99.54416592050637L131.69619118792215,99.6111184009747L131.90620318705243,99.72665800857727L132.01354265327453,99.78552876570754L132.25155625228882,99.91565902951626L132.36356265182496,99.97670749652805L132.45223438479104,100.02495586879182L132.6715802505493,100.14393141865189L133.19894371503196,100.42807416463658L133.4276234474182,100.55043726320123L133.80564504585266,100.75160926270024L133.85698131230671,100.7788064394427L133.95031997858683,100.82821625697662L134.29100611050922,101.00787732220155L134.55702130940756,101.15346932616902L135.05638317400616,101.44189490158736L135.71442077128094,101.81803379167782L135.89643117052714,101.92130563361452L136.03177223663332,101.99786423433798L136.4377954349518,102.22647537834406L136.66180823402405,102.35191146751929L136.67114210065205,102.35711377445847L136.8484855665843,102.45605439340859L136.9558250328064,102.51577203771501L137.2871772981008,102.69944976783252L137.94521489537556,103.06104639526974L138.24389862747194,103.22381811052472L138.70125809224447,103.4714237240529L138.73859355875652,103.49155544206867L139.44796742248536,103.87149322606355L139.55063995539348,103.92608115376017L139.70464875475565,104.00781786464634L140.05000181999205,104.19030995271724L140.2320122192383,104.28603240039803L140.63336848424274,104.49610881363478L140.97405461616515,104.67330180766066L141.0907279490153,104.73374535526092L141.15139808209736,104.76512857433119L141.19340048192342,104.78683308281695L141.56208821372988,104.976729384485L141.83743727925616,105.11777239447775L142.3694676770528,105.38846173274999L142.4394716767629,105.42391001026574L142.80815940856934,105.61612920247407L143.21418260688782,105.84103823968158L143.62953967183432,106.06955259658183L143.8022162044525,106.164089402216L143.96555887044272,106.25327872025225L144.31091193567912,106.44102150881525L144.8896116666158,106.7532567122715L144.98761726620992,106.80583630752183L145.02961966603598,106.8283393096308L145.10429059906005,106.86831238434483L145.39830739784242,107.02525267647263L145.4029743311564,107.02774494444814L145.46831139755247,107.06251571222299L146.04234419517516,107.36640302780009L146.09368046162925,107.39343082710732L146.56037379302978,107.63820541778954L146.87305832506814,107.80117070725619L147.80644498786927,108.28275914916486L148.39914551874799,108.58483170650737L148.40381245206197,108.58720299060057L148.53915351816812,108.65577665509181L148.54848738479615,108.66049502650176L149.0105137828827,108.89343739349441L149.7105537799835,109.24315340368915L150.00923751207986,109.39116508530275L150.0372391119639,109.40500564143859L150.06524071184796,109.41884619757444L150.083908445104,109.42806516940618L150.08857537841797,109.43036386317L150.62527270952862,109.69427810403309L150.88195404179893,109.81971419320831L151.4419860394796,110.09163756708007L151.70333430506386,110.22295347293539L152.16069376983643,110.46487284399517L152.20736310297647,110.48945676887982L152.2400316361745,110.50666067694378L152.32403643582663,110.55084399076206L152.59005163472494,110.69041099739067L152.79539670054118,110.79777209454933L153.19675296554567,111.00659027541009L153.62144389712014,111.22617602179612L153.63077776374817,111.23096698353545L153.78011962979636,111.30784014235292L153.86412442944845,111.35098299478337L155.184866557312,112.02227416414839L155.30620682347615,112.08327423760726L155.5115518892924,112.18625571822642L155.7682332215627,112.31452283024761L156.05758308703105,112.45851784696863L156.1182532201131,112.48864283366292L156.54761108500165,112.70096954711057L156.6829521511078,112.76760746948491L156.86496255035402,112.85703875528577L158.17170387827554,113.49188957930012L158.540391610082,113.66881640878493L158.66173187624614,113.7268160819626L158.76440440915425,113.77581455429667L158.85307614212036,113.8180863227745L158.96974947497048,113.87361792475312L159.04442040799458,113.90909039904535L159.10042360776268,113.93568265637629L159.30110174026487,114.03077598786908L159.61845320561724,114.18057823094081L159.9078030710856,114.31656411465315L160.87852520039877,114.7686082925026L160.9111937335968,114.78370708101444L160.95319613342284,114.80311289573638L161.18654279912312,114.91071596065964L161.20054359906516,114.91715230319835L161.29854919865926,114.96223089774568L161.44322413139344,115.03479703035305L161.53189586435954,115.07951267325348L162.16659879506432,115.39784546437795L162.54462039349875,115.5860479916937L162.54928732681276,115.58837088223399L162.70796305948892,115.66705879928604L163.3473329235077,115.9823427965764L163.37066759007772,115.99378787184258L163.49200785624186,116.05328774516084L163.7066867886861,116.1582775582263L163.7766907883962,116.1924434065896L164.15937932014467,116.37863760145909L164.36005745264688,116.47588444605694L164.48139771881105,116.53453743219906L164.67274198468525,116.62682393762233L164.8734201171875,116.7233690757028L165.48945531463622,117.01798902589525L165.52212384783425,117.03354755315983L165.54079158109028,117.04242777012112L166.01681877911886,117.26818369450478L166.20349611167907,117.35630835437672L166.6421878431956,117.56248908660322L166.70752490959168,117.59307381205026L166.79152970924378,117.63236937702337L168.2569467698415,118.3106534147857L168.5042942354838,118.42377334474214L169.05965929985047,118.67638769099781L169.90904116299947,119.0590597107328L170.0817176956177,119.13629582119718L170.52040942713418,119.33173318467486L171.2624518240611,119.65969629283092L171.38379209022523,119.71300179137509L171.57046942278544,119.79485948614358L171.78514835522972,119.88874297881331L172.08849902064006,120.02446269798457L172.1211675538381,120.04004542202563L172.15850302035014,120.05787844627758L172.38251581942242,120.16456203369533L172.42451821924845,120.18454857105235L172.6998672847748,120.31518696716674L172.76053741785685,120.34390854082628L173.43724274838763,120.66267687392704L173.49324594815573,120.68893037638753L173.6472547475179,120.7610367702421L173.84326594670614,120.8525731755951L174.1466166121165,120.99376136624662L174.4919696773529,121.15384723931439L174.71131554311117,121.25511074880478L175.01466620852153,121.39470195220987L175.15000727462768,121.45681507738595L175.21067740770977,121.48461717353995L175.53269580637615,121.63180616475385L175.54669660631816,121.63819411373963L175.7473747388204,121.72958533843385L175.97605447120665,121.83343790300563L176.23740273679095,121.95176013990124L176.8534379342397,122.22903100137094L176.89077340075175,122.24577517068212L176.9234419339498,122.26041422044119L177.3574667321523,122.45425459667244L177.4134699319204,122.47917727642755L177.50680859820048,122.52069894483509L178.0388389959971,122.75637554756787L178.05750672925313,122.76462664834116L178.1835139287313,122.8202066438727L178.19284779535928,122.82429589909466L178.6128717936198,123.00886890994121L178.93955712560017,123.15172667816856L179.06556432507833,123.20665336073566L179.09823285827636,123.22088106529489L179.22890699106853,123.27774348997886L179.86360992177327,123.55257047702597L180.2929677866618,123.73721607820194L180.32563631985983,123.75122601177301L180.74566031812031,123.93079028989209L180.78766271794635,123.94869590447342L180.84366591771445,123.97255392606425L180.93233765068055,124.01030089734384L181.01167551701863,124.04403120373084L181.26368991597494,124.1509567589132L181.31969311574298,124.17466959984523L181.43636644859313,124.22596676594313L181.60904298121133,124.30579193148887L181.87972511342366,124.43057470769965L182.09440404586792,124.5292491621087L182.18307577883402,124.56992394334009L182.2157443120321,124.58487755119316L182.43042324447632,124.68314066040239L182.6731037768046,124.79388930626563L182.6871045767466,124.80025305847494L182.85044724273683,124.87458555576396L183.45714857355753,125.14938834603461L183.69982910588584,125.25870938208664L183.70449603919982,125.26081450163875L183.80250163879393,125.30485263479827L184.05918297106425,125.41998089720099L184.46520616938272,125.60135993355468L184.46987310269674,125.60344085633034L184.64721656862895,125.68237074114703L184.81055923461915,125.75491267697791L184.85256163444518,125.77354419485309L185.51993309834796,126.06826093215136L185.66927496439618,126.13385839313787L186.11263362922668,126.32796493391018L186.82200749295552,126.63632865313261L187.05068722534182,126.73517248497689L187.21869682464597,126.80759343692549L187.50804669011433,126.93201326148935L187.8674005552928,127.085904759783L187.8814013552348,127.09188136356894L188.2360882870992,127.2431112164519L188.33409388669332,127.2847780655182L188.37142935320534,127.30062695410034L188.43209948628746,127.32639652103158L188.44143335291545,127.33036479237123L188.4694349527995,127.34224540961372L188.926794417572,127.53572283419803L188.9361282842,127.53966690876123L189.34215148251852,127.71052034735426L189.35615228246053,127.71640016403435L189.48215948193868,127.76924592382575L190.28020507863363,128.10207258405055L190.31287361183166,128.11562277886884L190.620891210556,128.24318818437266L190.64422587712605,128.2528426981807L191.12958694178263,128.45282905563312L191.2089248081207,128.48542211352645L191.52160934015907,128.6135198481124L191.61494800643922,128.65167816459183L192.11430987103782,128.85507626752528L192.35699040336607,128.95348455739327L192.42699440307618,128.98181898262942L192.49699840278626,129.0101292110891L192.57166933581033,129.0403025913363L192.6323394688924,129.06478972911512L192.7956821348826,129.13065335464267L192.88435386784872,129.16636779669952L192.91702240104675,129.179506646318L194.00441786321002,129.61412914511533L194.28443386205038,129.72514395551966L194.42444186147054,129.7805303768395L194.51311359443665,129.81556730915543L194.92847065938315,129.9791375180336L195.11048105862935,130.05056640214727L195.12914879188537,130.05789802541503L195.1711511917114,130.0743518334087L195.19915279159548,130.08531297314565L195.3158261244456,130.1309722903281L195.58184132334392,130.23487324845277L196.26321358718872,130.49948919583323L196.80457785161335,130.70825898314106L196.95858665097555,130.76742010158887L197.46728238220217,130.96205897144333L197.4952839820862,130.97272974986276L197.53728638191222,130.9887480158801L198.13932077941894,131.21745594699206L198.29799651209515,131.277463952616L199.49273144048055,131.72590281077274L199.58140317344666,131.75893141064236L199.7820813059489,131.83357846602536L200.10409970461527,131.95301375463822L201.10749036712645,132.32240174409597L201.57885063184102,132.49446502151204L201.83553196411134,132.58779198832318L201.9055359638214,132.61319860360751L202.22755436248778,132.72982706615085L202.386230095164,132.78712503281113L202.7315831604004,132.91149646382206L202.80625409342446,132.9383306889176L202.85759035987854,132.9567686325811L203.01626609255473,133.01367945081802L203.38962075767517,133.14717306655484L203.67430368982951,133.24858175670403L203.67897062314353,133.25025133427985L203.94965275535586,133.3463851271605L204.04299142163595,133.379462120583L204.2436695541382,133.45047965949686L204.26700422070823,133.45873076027016L204.60302341931663,133.57724657137746L205.26106101659138,133.83554716010153L205.36840048281354,133.88050477076658L205.37306741612753,133.88246470965993L206.00777034683227,134.1472016409227L206.45579594497678,134.33298449059234L206.73114501050313,134.4467093399603L206.7824812769572,134.4678815193639L208.10789033813475,135.01027646051975L208.299234604009,135.08792391618397L208.62591993598937,135.2201592995448L208.75659406878154,135.27290827223038L208.9946076677958,135.36882429412287L209.44730019925436,135.550542085347L209.59197513198853,135.60844497141883L209.61530979855857,135.61776073035642L209.69464766489665,135.64945850752068L209.93266126391094,135.7444066583547L210.11000472984313,135.8149886552922L211.06205912590028,136.19163567768837L211.39807832450867,136.32365329006106L211.88810632247925,136.51534015318725L212.29412952079772,136.67341769380872L212.3501327205658,136.6951705958474L212.49947458661399,136.7530976786957L212.63014871940612,136.80371733505268L213.03617191772463,136.9605608400746L213.08284125086467,136.97853904498535L213.1108428507487,136.98933080728708L213.12951058400472,136.99651724989607L213.2741855167389,137.05219403253346L213.28351938336692,137.05577515544974L213.348856449763,137.08089140941652L213.376858049647,137.09163477816531L213.71754418156942,137.22224897750326L214.8702767101288,137.6607429605344L215.28096684176128,137.8156991169924L215.40230710792542,137.8613584341748L215.8223311061859,138.01895203926705L215.94833830566407,138.06608735981362L216.27502363764444,138.18801491640195L216.5923751029968,138.30609518553297L216.66704603602093,138.3338004945811L216.97506363474528,138.44793668914892L217.19907643381754,138.53071386142292L217.27374736684163,138.55824979303586L217.40908843294778,138.608143546099L217.52576176579794,138.6510686275413L217.61443349876404,138.68368588221108L218.28647189598084,138.92979129559868L218.32380736249286,138.94341408074638L218.62249109458924,139.0522269844927L218.7484982940674,139.09803148233388L219.37853429145812,139.32615869081076L219.41120282465616,139.33794252094737L219.49520762430828,139.3682368850769L219.97590175565082,139.54109865611622L220.087908155187,139.58124110826546L220.13457748832704,139.5979610808002L220.1999145547231,139.62135936363825L220.48926442019143,139.7247763862337L220.932623085022,139.88263615586703L221.24064068374634,139.99188460158967L221.4506526828766,140.06619290210224L221.5346574825287,140.09585815004377L221.58132681566875,140.11233615481387L221.67933241526285,140.14691334837704L222.18802814648944,140.32582431353168L222.51471347846984,140.44022667264056L222.97207294324238,140.5997802166262L223.51810414098105,140.78928936987086L223.69544760691323,140.85062819820018L223.84945640627544,140.90378851608557L223.92879427261352,140.9311550702633L224.11080467185974,140.99384891807443L225.24020253384907,141.3802956349374L225.31487346687317,141.40570225022174L225.98691186409,141.6334423102752L226.22959239641824,141.71530000504367L226.4349374622345,141.78443019539353L226.5982801282247,141.8393084844077L226.73828812764484,141.88629862429548L226.850294527181,141.9238278245869L226.96230092671712,141.9613086313254L226.99963639322917,141.97379416797943L227.05097265968323,141.99097387926693L227.0556395929972,141.99252247296045L227.33565559183756,142.08599462043034L227.46166279131572,142.1279518308142L227.48033052457174,142.13417040236473L227.55033452428182,142.15747189809693L227.671674790446,142.1978079244579L227.72301105690002,142.21484245508663L227.77434732335408,142.2319011824918L227.92835612271625,142.28295638082508L228.32504545440673,142.41417549957455L228.57239292004903,142.49571863624902L228.59106065330505,142.5018646174702L228.65173078638713,142.52182695805075L229.02508545150755,142.64445622115647L229.04375318476357,142.65057800560118L229.16976038424175,142.6918577062441L229.2117627840678,142.7056014752741L229.61778598238627,142.83822400705833L229.65045451558433,142.8488705887013L229.85579958140053,142.91572628206376L230.10314704704285,142.9960595799152L230.26648971303305,143.04902632358892L230.28515744628908,143.05507551770424L230.56984037844342,143.14714425213936L231.0225329099019,143.29305081420083L231.19987637583415,143.35001002599066L231.4145553082784,143.41887405179943L231.41922224159242,143.42037425194002L231.43322304153443,143.42485065558537L231.69457130711874,143.50845051825905L232.0865937054952,143.63347526223444L232.19860010503135,143.6691171139619L232.4272798374176,143.74175583689862L232.49261690381368,143.7624682775495L233.1833230342865,143.9807473980066L233.32333103370667,144.02483392471902L233.598680099233,144.11133740056806L233.83669369824727,144.1859118656217L234.79808196093242,144.48551635176517L234.84008436075845,144.49853421750134L235.07809795977275,144.57226179537884L235.08743182640077,144.57514121177772L235.7174678237915,144.76946552353817L235.88547742309572,144.82110144450652L236.09082248891193,144.88408565363522L236.36617155443827,144.96833882927336L236.42217475420637,144.98547014700793L236.94953821868896,145.14616093948723L237.26688968404136,145.24248830657956L237.43023235003153,145.29197071444287L238.13027234713238,145.50311178584388L238.17227474695844,145.51574250315667L238.29828194643656,145.5535862615421L238.43828994585675,145.59559186547887L238.5969656785329,145.6431143344488L238.80697767766316,145.70592916614225L238.8443131441752,145.7170838800909L238.97498727696737,145.75608908374647L239.50235074145,145.9130051790978L239.57702167447408,145.93516942633636L239.86637153994243,146.02089860533863L239.9457094062805,146.0443452817296L240.34706567128498,146.1627885025075L240.38906807111107,146.17515305527922L241.08444113489787,146.37922866795358L241.2664515341441,146.4324373793919L241.50913206647238,146.50323714731758L242.85320886090597,146.92735824513073L242.9512144605001,146.96120953540006L243.60925205777485,147.18766716630108L243.8099301902771,147.25645860178048L244.0572776559194,147.34107472906555L244.08994618911743,147.35225363979066L244.18328485539755,147.38412079439016L244.30462512156168,147.42552147891539L244.72464911982217,147.5684518374721L244.96732965215048,147.6507934677698L245.2473456509908,147.74557224116862L245.28001418418884,147.7566301680114L245.415355250295,147.80233787874675L245.6627027159373,147.88574416720877L245.6813704491933,147.89201113231223L245.7420405822754,147.912457408422L245.80737764867146,147.93442808144883L245.9193840482076,147.97207826562257L245.97538724797565,147.99090335770944L246.12472911402384,148.04101488176073L246.15739764722187,148.0519760214977L246.22273471361794,148.07387410419514L246.7500981781006,148.2501960142684L246.80143444455464,148.26730313522654L246.82943604443867,148.27664309094058L247.02078031031292,148.34037740013957L247.0394480435689,148.34657177491366L247.104785109965,148.3683004801759L247.21212457618714,148.40399072545625L247.70681950747172,148.56794808275782L247.90749763997394,148.6342472502617L248.1128427057902,148.7019740275768L248.1968475054423,148.72963094307204L248.27151843846642,148.75421486795668L248.41152643788655,148.80026133356247L248.73354483655294,148.90592865636884L249.31691150080363,149.09659925488364L249.52692349993387,149.16500354193965L249.6996000325521,149.2211400633298L249.7042669658661,149.22266446024688L249.75093629900616,149.23781164231164L249.7882717655182,149.24993422731873L249.90494509836833,149.28780218248062L250.29230056343079,149.4132140748794L250.31563523000082,149.4207634691353L250.3856392297109,149.44336325835013L251.29102429262795,149.73459565983796L251.93506108996075,149.94034085008815L252.9244509525299,150.2541972375673L253.28847175102234,150.36898674509956L253.54048614997862,150.44823118801023L253.65715948282877,150.4848651075726L254.24519308039348,150.66895418288993L254.6232146788279,150.78679248425632L254.8518944112142,150.85788261349956L254.90789761098225,150.8752800957752L254.99656934394835,150.90279183061165L255.2719184094747,150.9881096644141L255.81328267389932,151.15526099620857L256.1819704057058,151.26864709070608L256.377981604894,151.32877608021232L256.71400080350236,151.4316365769492L256.94734746920267,151.50289608362763L257.12002400182087,151.5555240724309L257.3813722674052,151.6350588766591L257.4560432004293,151.6577312562033L257.59605119984946,151.70024499244576L257.8107301322937,151.76531012435012L257.93673733177184,151.80344424405308L258.46876772956847,151.96401405265007L258.879457861201,152.08746600615547L259.19680932655336,152.18255933764826L259.3368173259735,152.22444395770273L259.53282852516173,152.28297595996253L259.62150025812787,152.3094230366347L259.6308341247559,152.31220566592776L259.6588357246399,152.3205535538069L260.5082175877889,152.57285334196857L261.2549269180298,152.79314079487196L261.422936517334,152.8425264156294L261.95963384844464,152.99980546262768L261.97830158170063,153.00524973733147L262.41232637990316,153.13189566532975L262.6690077121735,153.2065911142657L262.9396898443858,153.2851822442119" fill="none"></path></g></g></g></g></g></g><g transform="translate(49, 178)" clip-path="url(#clip_1)"><clipPath id="clip_1"><rect width="280" height="21"></rect></clipPath><g><g><line x1="0" y1="0" x2="0" y2="5" style="visibility: inherit;" fill="rgb(0, 0, 0)" stroke="rgb(204, 204, 204)" stroke-width="1px"></line><line x1="23.334666570027668" y1="0" x2="23.334666570027668" y2="5" style="visibility: inherit;" fill="rgb(0, 0, 0)" stroke="rgb(204, 204, 204)" stroke-width="1px"></line><line x1="46.669333140055336" y1="0" x2="46.669333140055336" y2="5" style="visibility: inherit;" fill="rgb(0, 0, 0)" stroke="rgb(204, 204, 204)" stroke-width="1px"></line><line x1="70.00399971008301" y1="0" x2="70.00399971008301" y2="5" style="visibility: inherit;" fill="rgb(0, 0, 0)" stroke="rgb(204, 204, 204)" stroke-width="1px"></line><line x1="93.33866628011067" y1="0" x2="93.33866628011067" y2="5" style="visibility: inherit;" fill="rgb(0, 0, 0)" stroke="rgb(204, 204, 204)" stroke-width="1px"></line><line x1="116.67333285013835" y1="0" x2="116.67333285013835" y2="5" style="visibility: inherit;" fill="rgb(0, 0, 0)" stroke="rgb(204, 204, 204)" stroke-width="1px"></line><line x1="140.00799942016602" y1="0" x2="140.00799942016602" y2="5" style="visibility: inherit;" fill="rgb(0, 0, 0)" stroke="rgb(204, 204, 204)" stroke-width="1px"></line><line x1="163.3426659901937" y1="0" x2="163.3426659901937" y2="5" style="visibility: inherit;" fill="rgb(0, 0, 0)" stroke="rgb(204, 204, 204)" stroke-width="1px"></line><line x1="186.67733256022134" y1="0" x2="186.67733256022134" y2="5" style="visibility: inherit;" fill="rgb(0, 0, 0)" stroke="rgb(204, 204, 204)" stroke-width="1px"></line><line x1="210.01199913024902" y1="0" x2="210.01199913024902" y2="5" style="visibility: inherit;" fill="rgb(0, 0, 0)" stroke="rgb(204, 204, 204)" stroke-width="1px"></line><line x1="233.3466657002767" y1="0" x2="233.3466657002767" y2="5" style="visibility: inherit;" fill="rgb(0, 0, 0)" stroke="rgb(204, 204, 204)" stroke-width="1px"></line><line x1="256.6813322703043" y1="0" x2="256.6813322703043" y2="5" style="visibility: inherit;" fill="rgb(0, 0, 0)" stroke="rgb(204, 204, 204)" stroke-width="1px"></line><line x1="280.01599884033203" y1="0" x2="280.01599884033203" y2="5" style="visibility: inherit;" fill="rgb(0, 0, 0)" stroke="rgb(204, 204, 204)" stroke-width="1px"></line></g><g transform="translate(0, 8)"><text style="text-anchor: middle; visibility: hidden; font-family: &quot;Helvetica Neue&quot;, sans-serif; font-size: 12px; font-weight: 200;" x="0" y="0" dx="0em" dy="0.95em" fill="rgb(50, 49, 63)" stroke="none" stroke-width="1px">-50k</text><text style="text-anchor: middle; visibility: inherit; font-family: &quot;Helvetica Neue&quot;, sans-serif; font-size: 12px; font-weight: 200;" x="23.334666570027668" y="0" dx="0em" dy="0.95em" fill="rgb(50, 49, 63)" stroke="none" stroke-width="1px">0</text><text style="text-anchor: middle; visibility: hidden; font-family: &quot;Helvetica Neue&quot;, sans-serif; font-size: 12px; font-weight: 200;" x="46.669333140055336" y="0" dx="0em" dy="0.95em" fill="rgb(50, 49, 63)" stroke="none" stroke-width="1px">50k</text><text style="text-anchor: middle; visibility: inherit; font-family: &quot;Helvetica Neue&quot;, sans-serif; font-size: 12px; font-weight: 200;" x="70.00399971008301" y="0" dx="0em" dy="0.95em" fill="rgb(50, 49, 63)" stroke="none" stroke-width="1px">100k</text><text style="text-anchor: middle; visibility: hidden; font-family: &quot;Helvetica Neue&quot;, sans-serif; font-size: 12px; font-weight: 200;" x="93.33866628011067" y="0" dx="0em" dy="0.95em" fill="rgb(50, 49, 63)" stroke="none" stroke-width="1px">150k</text><text style="text-anchor: middle; visibility: inherit; font-family: &quot;Helvetica Neue&quot;, sans-serif; font-size: 12px; font-weight: 200;" x="116.67333285013835" y="0" dx="0em" dy="0.95em" fill="rgb(50, 49, 63)" stroke="none" stroke-width="1px">200k</text><text style="text-anchor: middle; visibility: hidden; font-family: &quot;Helvetica Neue&quot;, sans-serif; font-size: 12px; font-weight: 200;" x="140.00799942016602" y="0" dx="0em" dy="0.95em" fill="rgb(50, 49, 63)" stroke="none" stroke-width="1px">250k</text><text style="text-anchor: middle; visibility: inherit; font-family: &quot;Helvetica Neue&quot;, sans-serif; font-size: 12px; font-weight: 200;" x="163.3426659901937" y="0" dx="0em" dy="0.95em" fill="rgb(50, 49, 63)" stroke="none" stroke-width="1px">300k</text><text style="text-anchor: middle; visibility: hidden; font-family: &quot;Helvetica Neue&quot;, sans-serif; font-size: 12px; font-weight: 200;" x="186.67733256022134" y="0" dx="0em" dy="0.95em" fill="rgb(50, 49, 63)" stroke="none" stroke-width="1px">350k</text><text style="text-anchor: middle; visibility: inherit; font-family: &quot;Helvetica Neue&quot;, sans-serif; font-size: 12px; font-weight: 200;" x="210.01199913024902" y="0" dx="0em" dy="0.95em" fill="rgb(50, 49, 63)" stroke="none" stroke-width="1px">400k</text><text style="text-anchor: middle; visibility: hidden; font-family: &quot;Helvetica Neue&quot;, sans-serif; font-size: 12px; font-weight: 200;" x="233.3466657002767" y="0" dx="0em" dy="0.95em" fill="rgb(50, 49, 63)" stroke="none" stroke-width="1px">450k</text><text style="text-anchor: middle; visibility: inherit; font-family: &quot;Helvetica Neue&quot;, sans-serif; font-size: 12px; font-weight: 200;" x="256.6813322703043" y="0" dx="0em" dy="0.95em" fill="rgb(50, 49, 63)" stroke="none" stroke-width="1px">500k</text><text style="text-anchor: middle; visibility: hidden; font-family: &quot;Helvetica Neue&quot;, sans-serif; font-size: 12px; font-weight: 200;" x="280.01599884033203" y="0" dx="0em" dy="0.95em" fill="rgb(50, 49, 63)" stroke="none" stroke-width="1px">550k</text></g><line x1="0" y1="0" x2="280.01599884033203" y2="0" fill="rgb(0, 0, 0)" stroke="rgb(204, 204, 204)" stroke-width="1px"></line></g></g></g></g></svg>