<svg viewBox="0 0 1016 400" xmlns="http://www.w3.org/2000/svg"><g><g><g><g><g><line x1="49.98400115966797" y1="378.6199998855591" x2="44.98400115966797" y2="378.6199998855591" style="visibility: inherit;" fill="rgb(0, 0, 0)" stroke="rgb(204, 204, 204)" stroke-width="1px"></line><line x1="49.98400115966797" y1="344.1999998959628" x2="44.98400115966797" y2="344.1999998959628" style="visibility: inherit;" fill="rgb(0, 0, 0)" stroke="rgb(204, 204, 204)" stroke-width="1px"></line><line x1="49.98400115966797" y1="309.7799999063666" x2="44.98400115966797" y2="309.7799999063666" style="visibility: inherit;" fill="rgb(0, 0, 0)" stroke="rgb(204, 204, 204)" stroke-width="1px"></line><line x1="49.98400115966797" y1="275.3599999167702" x2="44.98400115966797" y2="275.3599999167702" style="visibility: inherit;" fill="rgb(0, 0, 0)" stroke="rgb(204, 204, 204)" stroke-width="1px"></line><line x1="49.98400115966797" y1="240.93999992717397" x2="44.98400115966797" y2="240.93999992717397" style="visibility: inherit;" fill="rgb(0, 0, 0)" stroke="rgb(204, 204, 204)" stroke-width="1px"></line><line x1="49.98400115966797" y1="206.51999993757775" x2="44.98400115966797" y2="206.51999993757775" style="visibility: inherit;" fill="rgb(0, 0, 0)" stroke="rgb(204, 204, 204)" stroke-width="1px"></line><line x1="49.98400115966797" y1="172.09999994798142" x2="44.98400115966797" y2="172.09999994798142" style="visibility: inherit;" fill="rgb(0, 0, 0)" stroke="rgb(204, 204, 204)" stroke-width="1px"></line><line x1="49.98400115966797" y1="137.6799999583851" x2="44.98400115966797" y2="137.6799999583851" style="visibility: inherit;" fill="rgb(0, 0, 0)" stroke="rgb(204, 204, 204)" stroke-width="1px"></line><line x1="49.98400115966797" y1="103.25999996878892" x2="44.98400115966797" y2="103.25999996878892" style="visibility: inherit;" fill="rgb(0, 0, 0)" stroke="rgb(204, 204, 204)" stroke-width="1px"></line><line x1="49.98400115966797" y1="68.83999997919261" x2="44.98400115966797" y2="68.83999997919261" style="visibility: inherit;" fill="rgb(0, 0, 0)" stroke="rgb(204, 204, 204)" stroke-width="1px"></line><line x1="49.98400115966797" y1="34.419999989596306" x2="44.98400115966797" y2="34.419999989596306" style="visibility: inherit;" fill="rgb(0, 0, 0)" stroke="rgb(204, 204, 204)" stroke-width="1px"></line><line x1="49.98400115966797" y1="0" x2="44.98400115966797" y2="0" style="visibility: inherit;" fill="rgb(0, 0, 0)" stroke="rgb(204, 204, 204)" stroke-width="1px"></line></g><g transform="translate(39.98400115966797, 0)"><text style="text-anchor: end; visibility: hidden; font-family: &quot;Helvetica Neue&quot;, sans-serif; font-size: 12px; font-weight: 200;" x="0" y="378.6199998855591" dx="0em" dy="0.3em" fill="rgb(50, 49, 63)" stroke="none" stroke-width="1px">0.32</text><text style="text-anchor: end; visibility: inherit; font-family: &quot;Helvetica Neue&quot;, sans-serif; font-size: 12px; font-weight: 200;" x="0" y="344.1999998959628" dx="0em" dy="0.3em" fill="rgb(50, 49, 63)" stroke="none" stroke-width="1px">0.34</text><text style="text-anchor: end; visibility: inherit; font-family: &quot;Helvetica Neue&quot;, sans-serif; font-size: 12px; font-weight: 200;" x="0" y="309.7799999063666" dx="0em" dy="0.3em" fill="rgb(50, 49, 63)" stroke="none" stroke-width="1px">0.36</text><text style="text-anchor: end; visibility: inherit; font-family: &quot;Helvetica Neue&quot;, sans-serif; font-size: 12px; font-weight: 200;" x="0" y="275.3599999167702" dx="0em" dy="0.3em" fill="rgb(50, 49, 63)" stroke="none" stroke-width="1px">0.38</text><text style="text-anchor: end; visibility: inherit; font-family: &quot;Helvetica Neue&quot;, sans-serif; font-size: 12px; font-weight: 200;" x="0" y="240.93999992717397" dx="0em" dy="0.3em" fill="rgb(50, 49, 63)" stroke="none" stroke-width="1px">0.4</text><text style="text-anchor: end; visibility: inherit; font-family: &quot;Helvetica Neue&quot;, sans-serif; font-size: 12px; font-weight: 200;" x="0" y="206.51999993757775" dx="0em" dy="0.3em" fill="rgb(50, 49, 63)" stroke="none" stroke-width="1px">0.42</text><text style="text-anchor: end; visibility: inherit; font-family: &quot;Helvetica Neue&quot;, sans-serif; font-size: 12px; font-weight: 200;" x="0" y="172.09999994798142" dx="0em" dy="0.3em" fill="rgb(50, 49, 63)" stroke="none" stroke-width="1px">0.44</text><text style="text-anchor: end; visibility: inherit; font-family: &quot;Helvetica Neue&quot;, sans-serif; font-size: 12px; font-weight: 200;" x="0" y="137.6799999583851" dx="0em" dy="0.3em" fill="rgb(50, 49, 63)" stroke="none" stroke-width="1px">0.46</text><text style="text-anchor: end; visibility: inherit; font-family: &quot;Helvetica Neue&quot;, sans-serif; font-size: 12px; font-weight: 200;" x="0" y="103.25999996878892" dx="0em" dy="0.3em" fill="rgb(50, 49, 63)" stroke="none" stroke-width="1px">0.48</text><text style="text-anchor: end; visibility: inherit; font-family: &quot;Helvetica Neue&quot;, sans-serif; font-size: 12px; font-weight: 200;" x="0" y="68.83999997919261" dx="0em" dy="0.3em" fill="rgb(50, 49, 63)" stroke="none" stroke-width="1px">0.5</text><text style="text-anchor: end; visibility: inherit; font-family: &quot;Helvetica Neue&quot;, sans-serif; font-size: 12px; font-weight: 200;" x="0" y="34.419999989596306" dx="0em" dy="0.3em" fill="rgb(50, 49, 63)" stroke="none" stroke-width="1px">0.52</text><text style="text-anchor: end; visibility: hidden; font-family: &quot;Helvetica Neue&quot;, sans-serif; font-size: 12px; font-weight: 200;" x="0" y="0" dx="0em" dy="0.3em" fill="rgb(50, 49, 63)" stroke="none" stroke-width="1px">0.54</text></g><line x1="49.98400115966797" y1="0" x2="49.98400115966797" y2="378.6199998855591" fill="rgb(0, 0, 0)" stroke="rgb(204, 204, 204)" stroke-width="1px"></line></g></g><g transform="translate(49, 0)" clip-path="url(#clip_0)"><clipPath id="clip_0"><rect width="966" height="378"></rect></clipPath><g><g><g><line x1="0" y1="0" x2="0" y2="378.6199998855591" fill="rgb(0, 0, 0)" stroke="rgb(60, 60, 60)" stroke-width="1px" opacity="0.25"></line><line x1="80.50133323669434" y1="0" x2="80.50133323669434" y2="378.6199998855591" fill="rgb(0, 0, 0)" stroke="rgb(60, 60, 60)" stroke-width="1px" opacity="0.25"></line><line x1="161.00266647338867" y1="0" x2="161.00266647338867" y2="378.6199998855591" fill="rgb(0, 0, 0)" stroke="rgb(60, 60, 60)" stroke-width="1px" opacity="0.25"></line><line x1="241.503999710083" y1="0" x2="241.503999710083" y2="378.6199998855591" fill="rgb(0, 0, 0)" stroke="rgb(60, 60, 60)" stroke-width="1px" opacity="0.25"></line><line x1="322.00533294677734" y1="0" x2="322.00533294677734" y2="378.6199998855591" fill="rgb(0, 0, 0)" stroke="rgb(60, 60, 60)" stroke-width="1px" opacity="0.25"></line><line x1="402.5066661834717" y1="0" x2="402.5066661834717" y2="378.6199998855591" fill="rgb(0, 0, 0)" stroke="rgb(60, 60, 60)" stroke-width="1px" opacity="0.25"></line><line x1="483.007999420166" y1="0" x2="483.007999420166" y2="378.6199998855591" fill="rgb(0, 0, 0)" stroke="rgb(60, 60, 60)" stroke-width="1px" opacity="0.25"></line><line x1="563.5093326568604" y1="0" x2="563.5093326568604" y2="378.6199998855591" fill="rgb(0, 0, 0)" stroke="rgb(60, 60, 60)" stroke-width="1px" opacity="0.25"></line><line x1="644.0106658935547" y1="0" x2="644.0106658935547" y2="378.6199998855591" fill="rgb(0, 0, 0)" stroke="rgb(60, 60, 60)" stroke-width="1px" opacity="0.25"></line><line x1="724.511999130249" y1="0" x2="724.511999130249" y2="378.6199998855591" fill="rgb(0, 0, 0)" stroke="rgb(60, 60, 60)" stroke-width="1px" opacity="0.25"></line><line x1="805.0133323669434" y1="0" x2="805.0133323669434" y2="378.6199998855591" fill="rgb(0, 0, 0)" stroke="rgb(60, 60, 60)" stroke-width="1px" opacity="0.25"></line><line x1="885.5146656036377" y1="0" x2="885.5146656036377" y2="378.6199998855591" fill="rgb(0, 0, 0)" stroke="rgb(60, 60, 60)" stroke-width="1px" opacity="0.25"></line><line x1="966.015998840332" y1="0" x2="966.015998840332" y2="378.6199998855591" fill="rgb(0, 0, 0)" stroke="rgb(60, 60, 60)" stroke-width="1px" opacity="0.25"></line></g><g><line x1="0" y1="378.6199998855591" x2="966.015998840332" y2="378.6199998855591" fill="rgb(0, 0, 0)" stroke="rgb(60, 60, 60)" stroke-width="1px" opacity="0.25"></line><line x1="0" y1="344.1999998959628" x2="966.015998840332" y2="344.1999998959628" fill="rgb(0, 0, 0)" stroke="rgb(60, 60, 60)" stroke-width="1px" opacity="0.25"></line><line x1="0" y1="309.7799999063666" x2="966.015998840332" y2="309.7799999063666" fill="rgb(0, 0, 0)" stroke="rgb(60, 60, 60)" stroke-width="1px" opacity="0.25"></line><line x1="0" y1="275.3599999167702" x2="966.015998840332" y2="275.3599999167702" fill="rgb(0, 0, 0)" stroke="rgb(60, 60, 60)" stroke-width="1px" opacity="0.25"></line><line x1="0" y1="240.93999992717397" x2="966.015998840332" y2="240.93999992717397" fill="rgb(0, 0, 0)" stroke="rgb(60, 60, 60)" stroke-width="1px" opacity="0.25"></line><line x1="0" y1="206.51999993757775" x2="966.015998840332" y2="206.51999993757775" fill="rgb(0, 0, 0)" stroke="rgb(60, 60, 60)" stroke-width="1px" opacity="0.25"></line><line x1="0" y1="172.09999994798142" x2="966.015998840332" y2="172.09999994798142" fill="rgb(0, 0, 0)" stroke="rgb(60, 60, 60)" stroke-width="1px" opacity="0.25"></line><line x1="0" y1="137.6799999583851" x2="966.015998840332" y2="137.6799999583851" fill="rgb(0, 0, 0)" stroke="rgb(60, 60, 60)" stroke-width="1px" opacity="0.25"></line><line x1="0" y1="103.25999996878892" x2="966.015998840332" y2="103.25999996878892" fill="rgb(0, 0, 0)" stroke="rgb(60, 60, 60)" stroke-width="1px" opacity="0.25"></line><line x1="0" y1="68.83999997919261" x2="966.015998840332" y2="68.83999997919261" fill="rgb(0, 0, 0)" stroke="rgb(60, 60, 60)" stroke-width="1px" opacity="0.25"></line><line x1="0" y1="34.419999989596306" x2="966.015998840332" y2="34.419999989596306" fill="rgb(0, 0, 0)" stroke="rgb(60, 60, 60)" stroke-width="1px" opacity="0.25"></line><line x1="0" y1="0" x2="966.015998840332" y2="0" fill="rgb(0, 0, 0)" stroke="rgb(60, 60, 60)" stroke-width="1px" opacity="0.25"></line></g></g></g><g><g><line x1="0" y1="929.3399997190995" x2="966.015998840332" y2="929.3399997190995" fill="rgb(0, 0, 0)" stroke="rgb(153, 153, 153)" stroke-width="1.5px"></line></g></g><g><g><line x1="80.50133323669434" y1="0" x2="80.50133323669434" y2="378.6199998855591" fill="rgb(0, 0, 0)" stroke="rgb(153, 153, 153)" stroke-width="1.5px"></line></g></g><g><g><g><g><g><path style="fill: none;" stroke="rgb(255, 112, 67)" stroke-width="2px" d="M81.19364470252991,88.59867614452321L81.24194550247192,88.58223135341979L81.66055243530273,88.4630774357837L82.03085856819153,88.32131808280883L83.20617803344727,87.98949306167424L84.20439456558228,87.60069800220316L84.28489589881896,87.3633024176288L84.62300149841309,87.15885661386073L84.91280629806519,86.98191346229481L85.47631563072204,86.7696052585897L85.50851616401671,86.6371560081513L85.63731829719543,86.53352745979237L88.1489598941803,86.0200063516154L89.1471764263153,85.54250302564736L89.83948789215088,85.14031220851166L89.95218975868225,84.88034141606175L90.72500255775451,84.59934019245753L90.93430602416993,84.3979821343762L91.32071242370606,84.21528008952134L92.01302388954163,83.99803554329657L92.14182602272034,83.8485521269854L93.15614282150268,83.60534153540686L93.42984735450746,83.41930829137004L93.52644895439147,83.29392303852069L93.97725642051697,83.15263082094015L96.15079241790771,82.76813817955514L96.8431038837433,82.44624966241355L97.6803177494049,82.14473109779078L98.29212788200378,81.8910500869884L99.51574814720155,81.58983438968318L100.81986974563598,81.26596542998385L101.70538441123963,80.97491151716906L101.75368521118165,80.7950065929407L101.97908894424438,80.66269073175772L102.04349001083374,80.57644890050204L102.816302809906,80.44538926008676L102.92900467643739,80.35565436460342L103.63741640892029,80.23445966624297L104.12042440834045,80.118146520126L105.03813960723878,79.97023401401054L105.5050473400116,79.84394237917007L105.76265160636902,79.74806179796985L106.02025587272644,79.6708176513784L107.7429844039917,79.49561067790074L108.43529586982727,79.33743232800407L108.48359666976928,79.23893503229931L110.20632520103455,79.05899789358273L110.560531067276,78.92789365403416L110.73763400039674,78.83788580725155L111.38164466629028,78.74736276385102L111.86465266571045,78.6742768721773L113.29757639732361,78.57796613299223L114.26359239616394,78.48731318768284L115.72871666107179,78.3865349282591L115.92191986083984,78.32024145168674L116.43712839355469,78.26717105040927L116.9362366596222,78.23015879812414L117.66074865875245,78.200688811524L118.98097052383422,78.17047159322289L119.73768305625916,78.15133598222457L120.01138758926392,78.14207033484792L120.04358812255859,78.13677765336541L120.12408945579529,78.13423803795632L120.52659612197876,78.13591475203219L120.5426963886261,78.13704387598983L120.73589958839416,78.13921901243145L120.81640092163086,78.14116008777705L121.28330865440368,78.14589450284257L121.52481265411376,78.15054055272975L123.74664945144653,78.19924280876967L124.63216411705017,78.2590123653759L128.2869246459961,78.46591531375407L129.43004357795715,78.66235518036939L129.47834437789916,78.78352216325362L131.41037637557983,78.99819251056448L132.5212947742462,79.221306397332L132.74669850730896,79.37439814523839L132.77889904060362,79.46898181117263L132.79499930725098,79.52708606136906L133.72881477279662,79.64987983914438L136.54636143608093,80.01814418278883L138.7681982334137,80.50831267449144L138.80039876670838,80.80635282590816L139.6054120990753,81.08746928752356L140.74853103103638,81.41509650277783L141.585744896698,81.7243052257333L141.92385049629212,81.961674186126L142.03655236282347,82.12130841817225L143.75928089408876,82.47259420920722L144.21008836021423,82.7479292800574L144.66089582633973,82.98378714665802L145.49810969200135,83.25842966322807L146.49632622413637,83.57753591382328L148.07415235557556,84.01437005213722L148.57326062164307,84.35820595532795L148.65376195487977,84.57757613747054L150.02228461990356,84.92676956483979L150.05448515319824,85.14129150543044L151.3586067516327,85.47939013629718L152.83983128318786,85.9272299003182L153.11353581619264,86.24012504766552L153.45164141578672,86.48196261375301L155.60907714653015,86.9869759156067L155.6734782131195,87.30077526996865L155.80228034629823,87.51061711316623L157.60551021080016,87.93269002180597L157.8309139438629,88.22563206972359L158.4427240764618,88.50801852809064L158.63592727622986,88.71076825512102L159.31213847541807,88.94775858641395L160.55185900726318,89.2963429275681L161.82378007240297,89.72698339082098L161.85598060569762,89.99100954642222L162.72539500465393,90.29997105139063L163.1762024707794,90.56215955407987L164.86673046875,91.01069612200178L166.5733587333679,91.57850932347924L166.79876246643067,91.95776717156963L167.78087873191834,92.3536755094853L169.85781312942507,92.96087633583039L171.9508477935791,93.69433975726531L172.65925952606202,94.26132928336193L174.02778219108583,94.84123099340854L174.3497875240326,95.24454448407675L174.9293971233368,95.5919023370518L175.04209898986815,95.82097657899328L175.62170858917236,96.06387294640723L175.95981418876647,96.27052252955156L176.9580307209015,96.57189291273875L177.28003605384825,96.80913391914606L179.06716565170288,97.27349638330577L179.22816831817627,97.58136956190424L180.33908671684264,97.96524149213161L180.54839018325808,98.23259588356746L180.6449917831421,98.41003673097111L181.77201044845583,98.71761879067935L182.1423165813446,98.97062964729128L183.17273364677428,99.31030042902762L185.4911720439911,99.93061708003438L186.36058644294738,100.46262607750987L186.8274941757202,100.86658273625017L187.6969085746765,101.2648161660519L188.32481897392273,101.61474734423786L188.37311977386474,101.83317912558306L188.56632297363282,101.99954609051673L189.06543123970033,102.1924675086533L190.86866110420226,102.64336840783466L192.67189096870422,103.25416545940573L193.09049790153503,103.69807076761833L194.92592829933167,104.29722318611078L195.05473043251038,104.67967195026017L195.71484136505129,105.02597936589143L197.19606589660646,105.49113601568149L198.22648296203613,105.96441317629228L198.99929576110839,106.39521190297705L199.36960189399719,106.72336319897965L200.46442002601623,107.12375137441927L200.62542269248962,107.39358875040398L200.67372349243163,107.5643540528842L200.91522749214172,107.7110455551445L201.4465362915039,107.89575198145388L204.37678482131957,108.52495155567647L205.4555026866913,109.1038965902568L205.9063101528168,109.53712273087115L206.06731281929015,109.8275655863846L206.63082215194703,110.1080216950158L209.17466428222656,110.74405830713573L210.38218428077698,111.34130258021258L212.21761467857363,112.02285692765997L212.8777256111145,112.55816759547741L215.16396347503664,113.30745967221259L215.2444648082733,113.77184741157345L215.38936720809937,114.07708920177708L216.88669200630187,114.53192658758087L217.33749947242737,114.88545657965432L217.49850213890073,115.12625582927666L218.9958269371033,115.5341597754852L219.5432360031128,115.87378826731577L220.50925200195314,116.26075200071392L223.45560079841613,117.039392251925L223.87420773124697,117.58238272234223L223.92250853118898,117.91689627005098L224.26061413078307,118.17847512953483L224.37331599731445,118.3556511410884L225.3071314628601,118.62836136480297L225.40373306274415,118.80907725933008L226.30534799499512,119.07591020452583L229.60590265769957,119.84200917895669L230.50751758995057,120.46721151181117L231.0227261226654,120.93602911234319L232.4234493209839,121.46888586807444L232.95475812034607,121.88280902030056L234.22667918548584,122.35404785266996L234.33938105201722,122.65636333855565L234.5486845184326,122.87400425847503L235.51470051727293,123.1791177310244L235.9977085166931,123.45280462756452L236.3680146495819,123.68611437975605L236.657819449234,123.87993400180656L238.99235811309816,124.42279275717726L240.02277517852784,124.93282302422949L242.453915442276,125.66440288658364L242.87252237510683,126.17534116280387L245.96377357139588,127.0512208731682L246.07647543792723,127.59714152259997L247.89580556907654,128.25021999467637L247.94410636901856,128.6506222160308L248.28221196861267,128.95054435641592L249.23212770080568,129.29690225742945L249.9244391666412,129.6247966703378L251.29296183166502,130.06062583490962L251.79207009773253,130.41454754751112L252.04967436408998,130.67439492692156L252.32337889709473,130.88060838728262L252.9673895629883,131.1220773210648L253.70800182876587,131.40127640122992L253.7241020954132,131.57170910978803L254.07830796165467,131.73777324215922L254.64181729431152,131.93841158946745L255.06042422714233,132.13341099425702L255.20532662696837,132.27613759921257L256.04254049263,132.50967282027793L256.090841292572,132.65828754326944L256.63825035858156,132.84334778118725L256.70265142517087,132.96562664739952L257.07295755805967,133.1034754996811L257.1695591579437,133.2029668325675L257.2017596912384,133.2682419621927L257.942371957016,133.43538534097743L259.26259382209776,133.76196195179043L259.5684988883972,134.01426514701708L259.7134012882232,134.1922767266588L260.8082194202423,134.4989292387488L260.840419953537,134.68876778283953L261.80643595237734,134.9769331229482L264.3663783493042,135.60276226471612L265.21969248161315,136.1264462307311L265.54169781455994,136.49623423416745L266.0408060806274,136.80384306058295L266.1857084804535,137.01321210217145L266.45941301345823,137.1855893058998L266.733117546463,137.33562779548126L268.0533394115448,137.65526505160577L268.42364554443355,137.91429858686269L268.6490492774964,138.1105248703617L269.8404690093994,138.44234425236164L271.675899407196,138.9660387476362L273.2215250053406,139.54878830499894L273.30202633857726,139.91230680047497L273.88163593788147,140.22994061949805L274.380744203949,140.50572352137877L275.9424700687409,140.93502797731696L276.3610770015717,141.26579093297372L276.425478068161,141.47588123228513L276.6830823345184,141.6483629359478L277.3592935337067,141.87314206965038L278.3897105991364,142.19123722000933L278.4380113990784,142.39064944833322L280.2412412635803,142.82624193370003L281.09455539588924,143.23512739647512L284.52391219177247,144.06093607855922L284.97471965789794,144.63306876016807L286.6813479225159,145.2790197180905L287.84056712112425,145.8693286016892L288.83878365325927,146.39629899935454L290.0946044517517,146.9275085821156L290.3683089847564,147.29276443544163L290.8030161842346,147.58554957974297L291.14112178382874,147.81829595221808L291.3343249835968,147.99046150688315L291.5758289833069,148.1343413269211L292.4935441822052,148.3740051954982L293.6688636474609,148.7122739102434L295.43989297866824,149.22568202124455L296.2932071109772,149.68183130512463L296.35760817756653,149.9666610193206L297.93543430900576,150.40818433174599L298.61164550819393,150.78788488447046L299.43275910720826,151.15412611974588L299.80306524009706,151.43595203097453L300.75298097229006,151.7633689225163L300.8012817722321,151.96784078166294L302.3147068370819,152.33983334150318L302.8621159030914,152.65295014918107L303.42562523574827,152.93913251632034L304.0535356349945,153.21980198095503L305.5347601665497,153.64282672703774L305.88896603279113,153.95704043941535L307.20918789787294,154.36900753768126L309.47932549514775,154.99437824242636L310.5419430938721,155.544068038115L310.65464496040346,155.89228469462492L311.07325189323427,156.16943011829306L311.36305669288635,156.3828014059691L312.3129724250793,156.6669092882382L313.11798575744626,156.9757744053218L313.8746982898712,157.2903232476238L314.8890150886536,157.65095543600586L316.09653508720396,158.07005254196162L316.193136687088,158.3376158017346L316.67614468650817,158.57859667492104L316.82104708633426,158.7472708874166L316.9820497528076,158.87518714109456L318.4632742843628,159.19595323062228L318.60817668418883,159.41210877046686L318.946282283783,159.59703094758265L319.97669934921265,159.8752710551397L320.2826044155121,160.09159693604622L322.4561404129028,160.56872696861262L323.4704572116852,161.01494709053642L324.2110694774628,161.39863513632704L324.9194812099457,161.73910051103226L326.3041041416168,162.15705302938133L327.2379196071625,162.5684231521739L329.636859337616,163.22866150408672L329.66905987091064,163.6302822655342L330.1842684036255,163.95900130679152L330.68337666969296,164.2408608962886L331.63329240188597,164.57014442747675L333.93563053245543,165.15091087614428L334.3220369319916,165.56301112523133L334.4669393318176,165.83409025632383L335.35245399742126,166.1416621848562L337.78359426116947,166.7189826059751L338.0089979942322,167.10142132784702L339.65122519226077,167.59155982429627L339.98933079185485,167.938922763096L342.1306662559509,168.4814627787391L343.28988545455934,168.98559837654892L343.6440913208008,169.34234434026382L343.9177958538055,169.59820336085534L344.65840811958316,169.8644742625255L345.20581718559265,170.10718266293475L346.2523345176697,170.41039047491083L347.5403558494568,170.80925048669977L348.76397611465455,171.25393084021525L349.3435857139587,171.6173690295216L351.13071531181333,172.1307585931588L351.1468155784607,172.4414388848567L351.6942246444702,172.71750162470582L351.91962837753294,172.9199653427275L352.5958395767212,173.15153199342154L355.2845841068268,173.72282445505894L355.7836923728943,174.14493498975287L356.33110143890383,174.4848810671844L358.0699302368164,174.96189507596077L358.6012390361786,175.33086469736523L358.89104383583066,175.5972583958917L358.92324436912537,175.7620799832578L359.3096507686615,175.92081787059973L359.3257510353088,176.01856354508942L359.37405183525084,176.08467874419927L359.6799569015503,176.17157550857132L360.2434662342072,176.31047538748462L360.74257450027466,176.47036020759734L361.3704848995209,176.66220301970665L361.53148756599427,176.80182522984927L362.9644112976074,177.1026159442129L363.18981503067016,177.31704421832185L363.656722763443,177.51582459299087L363.7855248966217,177.6543982973131L364.25243262939455,177.807378707248L365.84635902748107,178.13585910754486L369.56552062301637,178.9183690885547L370.01632808914184,179.4609527796609L370.1612304889679,179.80993217350903L370.6120379550934,180.09208977353725L371.17554728775025,180.35204417840205L371.3687504875183,180.53899585859654L372.39916755294803,180.81580711448518L374.5727035503387,181.32537137932061L375.44211794929504,181.76708944753437L377.5834534133911,182.36361650322897L377.59955368003847,182.72401516281167L379.85359101066587,183.28403960864424L381.8017232749939,183.9130626273812L381.91442514152527,184.30729949197817L383.92695847244266,184.8423482281923L385.7462886035919,185.4298382223274L386.50300113601685,185.89221547950217L386.85720700225835,186.22091111470203L387.1953126018524,186.46693586646987L388.2901307338714,186.77188729823638L389.1434448661804,187.07670219860702L390.07726033172605,187.40609531444807L390.785672064209,187.71601480713733L394.2311291267395,188.44085813991333L394.5209339263916,188.9205503901566L394.87513979263304,189.2629996318685L394.97174139251706,189.48334321797162L396.72667045707703,189.8842463571812L396.95207419013974,190.15909085681605L397.1291771232605,190.35091444196476L398.1917947219849,190.62683287994307L398.2883963218689,190.8069707609439L399.2383120540619,191.05782376795503L399.67301925354,191.27341206635896L400.0433253864289,191.4580349304478L401.1703440517426,191.7362800934572L401.524549917984,191.95560433176908L402.0558587173462,192.16556968428756L402.44226511688237,192.3483779906683L403.0862757827759,192.55247723247135L403.37608058242796,192.71730214972138L403.47268218231204,192.83031205215448L403.52098298225405,192.9051549537372L404.7446032474518,193.12795422595553L404.7607035140991,193.26395208810263L405.51741604652403,193.454880136279L406.01652431259157,193.64126319664277L406.45123151206974,193.8154819417051L406.49953231201175,193.92692705335307L406.5800336452484,194.00532406666565L407.7231525772095,194.2154843444394L407.9002555103302,194.3667535433799L408.6891685760498,194.56930630387942L409.60688377494813,194.82019082774332L410.3313957740784,195.0723574034277L410.99150670661925,195.31585588759066L411.2008101730347,195.4911080985973L411.216910439682,195.59849566034242L411.57111630592345,195.71218691824936L411.8287205722809,195.81616091933208L413.61585017013545,196.14162094579862L413.9539557697296,196.3886791405417L415.064874168396,196.7063139983039L415.11317496833806,196.904239611865L415.12927523498536,197.02543637433004L415.9020880340576,197.21527981181276L416.28849443359377,197.38755366307635L418.4137296310425,197.80955070756016L419.7017509628296,198.25391626493456L419.911054429245,198.55145308887856L420.9414714946747,198.88169040221985L421.98798882675175,199.2329636075916L422.3582949596405,199.49768439706276L423.71071735801695,199.8526080219237L423.75901815795896,200.07253760920688L423.83951949119563,200.21612788749417L424.9182373565674,200.45746446370617L425.20804215621945,200.64379062893371L426.41556215476993,200.92785849760824L427.0434725540161,201.18739985383775L429.5873146842956,201.7008607423918L430.27962615013126,202.10538260945265L431.32614348220824,202.49318430691588L431.42274508209226,202.73920067256535L431.8413520149231,202.944583319086L432.1794576145172,203.11436352658654L432.27605921440124,203.2295054505022L434.8199013446808,203.64580201336184L438.66786507339475,204.430655627357L438.87716853981016,204.93244425343596L439.42457760581965,205.31408344191834L439.8109840053558,205.5997934702838L440.03638773841857,205.80425011645107L440.4871952045441,205.99286226693525L442.3226256023407,206.37279804841322L442.8861349349976,206.68210513504658L443.4818448009491,206.95342541138038L444.94696906585693,207.32589026655518L447.040003730011,207.84598833259312L448.2475237285614,208.3276317564008L449.6965477268219,208.81865857829405L449.7448485267639,209.11998337685316L452.11158772392275,209.62730961842354L452.1759887905121,209.94052720841773L452.86830025634765,210.2231592432511L453.04540318946835,210.4169062164097L453.2064058559418,210.55510643334117L453.7538149219513,210.71251986439233L453.9148175884247,210.8288378923844L454.3334245212555,210.95539625629314L455.05793652038574,211.12929478655244L455.42824265327454,211.28354913496722L456.2493562522888,211.48643635492175L456.63576265182496,211.65993034983896L456.9416677181244,211.80493548872784L457.6983802505493,211.99281534443438L459.51771038169863,212.3464616914517L460.3066234474182,212.6623985006569L461.61074504585264,213.0225299344637L461.7878479789734,213.26166868739526L462.1098533119202,213.44704544519163L463.2851727771759,213.71060219640628L464.2028879760742,213.99218053010622L465.9256165073395,214.40567728153405L468.19575410461425,214.97269528897849L468.82366450386047,215.40046803456556L469.2905722366333,215.72204404876516L470.6912954349518,216.10882405740338L471.464108234024,216.44724658525925L471.4963087673187,216.65471102449874L472.1081188999176,216.86307927971097L472.4784250328064,217.03873352025278L473.62154396476745,217.299862403623L475.8916815620422,217.7631296230789L476.92209862747194,218.17910054001877L478.49992475891116,218.63862248650068L478.62872689208984,218.93140489876933L481.4301732887268,219.4754992146029L481.961482088089,219.87125857755777L483.15290181999205,220.26344525435832L483.7808122192383,220.57991823491665L485.1654351509094,220.94792122962633L486.3407546161651,221.31896109927894L486.74326128234867,221.59283378604678L486.952564748764,221.78376654469437L487.09746714859006,221.91672897897973L488.3693882137299,222.15751536970856L489.3193039459228,222.42157449439682L491.15473434371944,222.8095215519917L491.3962383434296,223.0723456074815L492.66815940856935,223.39301849913068L494.06888260688777,223.77611769867354L495.501806338501,224.1997295548429L496.09751620445246,224.53405236300497L496.66102553710937,224.81026772432426L497.85244526901243,225.13517995450698L499.8488783332824,225.59486470785018L500.1869839328766,225.91525665124664L500.33188633270265,226.1265716216993L500.58949059906007,226.2872529017053L501.6038073978424,226.5167279185625L501.61990766448974,226.65652606830554L501.84531139755245,226.76988633335984L503.82564419517513,227.09556191566585L504.00274712829594,227.31388354626583L505.61277379302976,227.65241555845284L506.69149165840145,227.99370947838125L509.9115449878693,228.6068141607317L511.9562788520813,229.23079769951093L511.97237911872867,229.60719838281358L512.4392868515015,229.89118090646312L512.4714873847961,230.06557102480437L514.0654137828827,230.3677118453795L516.4804537799835,230.845512911064L517.5108708454131,231.25768942531857L517.6074724452973,231.51673043938226L517.7040740451813,231.68389015333136L517.7684751117706,231.79200254673526L517.784575378418,231.85881899505657L519.636106042862,232.1226759895882L520.5216207084657,232.38734470898007L522.4536527061463,232.77670383525228L523.3552676383972,233.1216592019388L524.9330937698364,233.53375057736818L525.0940964363098,233.80184957605093L525.2067983028412,233.97729579347433L525.4966031024933,234.12002559152123L526.4143183013916,234.32399928955795L527.1227300338745,234.53741263976497L528.5073529655457,234.84251302849015L529.9724772304535,235.2117552241591L530.0046777637482,235.43736269346817L530.519886296463,235.63790624884444L530.8096910961151,235.79481226515773L535.366066557312,236.4581290081469L535.7846734901428,236.9078396850473L536.4930852226257,237.26498184128323L537.3785998882294,237.58802202018867L538.3768164203644,237.90393635986734L538.5861198867798,238.11902728248774L540.067344418335,238.42810902287616L540.5342521511078,238.6700589072792L541.1621625503541,238.89105567353047L545.6702372116089,239.56192989288178L546.9421582767487,240.11446682221333L547.3607652095794,240.49516563699726L547.7149710758209,240.7651296612868L548.0208761421204,240.96294938587397L548.4233828083038,241.1287252541012L548.6809870746612,241.25826711188913L548.8741902744293,241.35853922124127L549.5665017402648,241.4993300474437L550.6613198722839,241.71081859599462L551.6595364044189,241.95301118836235L555.0083918670655,242.4816051374126L555.1210937335968,242.81156344012743L555.2659961334228,243.02599218857418L556.0710094657898,243.24588372821447L556.1193102657318,243.38327588637972L556.4574158653259,243.50393233786437L556.9565241313934,243.6378534490129L557.2624291976929,243.7561195335067L559.452065461731,244.09698661095544L560.7561870601654,244.4610796732716L560.7722873268127,244.681505038859L561.3196963928223,244.88047802590665L563.5254329235078,245.26718423912843L563.6059342567444,245.50891199661865L564.0245411895752,245.70439729525873L564.7651534553528,245.91070704579272L565.0066574550629,246.06346137335353L566.3268793201447,246.31298396448256L567.0191907859802,246.54515099651772L567.4377977188111,246.7341818027294L568.0979086513519,246.9258480004754L568.7902201171875,247.12270623483772L570.9154553146362,247.4906230018567L571.0281571811676,247.72456479780857L571.0925582477569,247.872459217552L572.7347854457855,248.1526093911068L573.3787961116791,248.39541847123792L574.8922211765289,248.71592006277643L575.1176249095918,248.93415313896858L575.4074297092438,249.09841083669406L580.4629134365082,249.77206768904216L581.3162275688171,250.2721737204928L583.2321592998504,250.78642353085723L586.1624078296661,251.4194326717195L586.7581176956177,251.86472496880862L588.2715427604675,252.2976074226078L590.8314851573945,252.83540965729262L591.2500920902252,253.20328756705578L591.8941027561187,253.493419665962L592.6347150218965,253.74710068996063L593.6812323539734,254.01438309249107L593.7939342205048,254.18796478566856L593.9227363536835,254.30723403367577L594.6955491527558,254.4692502681407L594.8404515525818,254.58340615768697L595.7903672847748,254.7626651366136L595.9996707511901,254.8945729194968L598.3342094150543,255.24399430251628L598.5274126148224,255.47590690414506L599.0587214141846,255.6761919029243L599.7349326133728,255.87397462273046L600.7814499454498,256.1123546403773L601.9728696773528,256.3911159692533L602.7295822097778,256.64423188644497L603.7760995418548,256.91445777188744L604.2430072746276,257.1292576665211L604.4523107410431,257.2817103939169L605.5632291397095,257.4979803639615L605.6115299396515,257.6331585485319L606.3038414054871,257.79175408430024L607.0927544712066,257.97496572893107L607.9943694034577,258.18521555827715L610.1196046009064,258.5464573685602L610.2484067340852,258.7773994704881L610.3611086006165,258.92837686247367L611.858433398819,259.183316322575L612.051636598587,259.357411394923L612.3736419315338,259.4970737548648L614.2090723293305,259.78069621921617L614.2734733959198,259.9578656261122L614.708180595398,260.11129233556244L614.7403811286925,260.2068155514972L616.1894051269531,260.420624909096L617.3164237922668,260.67003650781055L617.751130991745,260.8662546025462L617.8638328582763,260.9960488195982L618.3146403244018,261.1221377588342L620.5042765884399,261.43081092726L621.9855011199951,261.7725718041096L622.0982029865265,261.9895070471615L623.5472269847869,262.27191682585436L623.6921293846129,262.456544472927L623.8853325843811,262.5875497570339L624.1912376506806,262.6981577607099L624.4649421836853,262.7931217536187L625.3343565826416,262.94075999421193L625.5275597824096,263.04944853891885L625.9300664485932,263.158155413441L626.5257763145446,263.29106155402974L627.4595917800902,263.47660583125025L628.200204045868,263.67159631414523L628.5061091121673,263.82307786325975L628.6188109786988,263.92664563050073L629.3594232444763,264.0721014367895L630.1966371101379,264.25327628056937L630.2449379100799,264.36737687346215L630.8084472427369,264.4988621315225L632.9014819068909,264.81075257532405L633.7386957725525,265.0905777624067L633.7547960391998,265.2602577595855L634.0929016387939,265.39940472997307L634.9784163043976,265.58050765350157L636.379139502716,265.84295673438487L636.3952397693635,266.0021905519253L637.0070499019623,266.164653769332L637.5705592346192,266.3236384241151L637.7154616344452,266.4348264744036L640.0177997650146,266.75142319465306L640.5330082977296,266.99699988246766L642.0625336292267,267.30892459517213L644.5097741596222,267.75753429103264L645.2986872253418,268.1105076365425L645.878296824646,268.38369578859374L646.876513356781,268.65310153391096L648.1162338886262,268.9452262241955L648.1645346885682,269.1255684702913L649.3881549537659,269.36199830998316L649.7262605533599,269.53918462584346L649.8550626865386,269.65893434212495L650.0643661529541,269.75263362533644L650.0965666862488,269.8122178059343L650.1931682861328,269.85804163038733L651.770994417572,270.0495812111881L651.8031949508667,270.16784905442074L653.2039181491853,270.3836726624811L653.2522189491273,270.51815219556755L653.6869261486053,270.6436466819159L656.4400717453003,271.00113983579394L656.5527736118316,271.2271246426071L657.615391210556,271.4708754502158L657.6958925437926,271.62531178635254L659.370320275116,271.8875376563007L659.6440248081207,272.0725081207928L660.7227426734923,272.2921016732207L661.0447480064392,272.45621140850767L662.7674765377045,272.7271340624863L663.604690403366,272.9731258963299L663.8461944030762,273.1447451374637L664.0876984027863,273.27172030705276L664.3453026691436,273.3734887594569L664.5546061355591,273.45531194064955L665.1181154682159,273.560250180136L665.4240205345153,273.6534946198666L665.5367224010467,273.720581427573L669.2880845298766,274.129340444344L670.254100528717,274.4687228895192L670.7371085281372,274.71931329458687L671.0430135944366,274.899374587942L672.4759373260498,275.14609897453937L673.103847725296,275.35469659857546L673.1682487918854,275.486071496371L673.3131511917114,275.5788472597816L673.4097527915956,275.6438064290106L673.812259457779,275.721495469183L674.7299746566773,275.85620424829375L677.0806135871887,276.16139160294216L678.94824451828,276.5215153624946L679.4795533176423,276.78775103950994L681.2344823822021,277.112522495947L681.3310839820862,277.31643288996713L681.4759863819122,277.45236066457545L683.552920779419,277.72783379313375L684.1003298454285,277.943997148708L688.2219981071472,278.45391668379204L688.5279031734467,278.7878726339027L689.2202146392823,279.05153781323725L690.3311330379486,279.311003495667L693.7926903671264,279.77987892038817L695.4188172985076,280.2070928732778L696.3043319641113,280.5425511435359L696.5458359638213,280.7653678203523L697.6567543624877,280.9979445546991L698.2041634284973,281.1860722908491L699.3955831604004,281.4044007547881L699.6531874267578,281.5581499870181L699.8302903598786,281.666032656425L700.3776994258881,281.7790156989115L701.6657207576752,281.95999184801184L702.6478370231629,282.1545597528506L702.6639372898102,282.27271609414584L703.5977527553559,282.42511964401945L703.9197580883026,282.5446070348413L704.6120695541382,282.67651369079374L704.6925708873749,282.76265361265064L705.8517900859833,282.9148245356821L708.121927683258,283.22513452189565L708.492233816147,283.44943909061567L708.5083340827942,283.58568362126454L710.6979703468323,283.8918950064293L712.2435959449767,284.2331430615026L713.1935116771698,284.53431671255635L713.3706146102905,284.7329723320734L717.9430903381348,285.3120505379341L718.6032012706756,285.7253330446407L719.7302199359893,286.08542204449935L720.1810274021149,286.3462001472361L721.0021410011291,286.58399211070605L722.563866865921,286.8807418384164L723.0629751319885,287.10788626855276L723.1434764652253,287.25207155534395L723.41718099823,287.36545858094905L724.2382945972442,287.51399526139085L724.8501047298431,287.6629622045782L728.1345591259003,288.0716931613715L729.2937783245087,288.4288665880138L730.9843063224793,288.8056977521425L732.3850295207977,289.1658269476533L732.5782327205658,289.4003482758941L733.0934412532806,289.59017618226727L733.5442487194061,289.7469922280649L734.9449719177246,289.97406604072216L735.1059745841981,290.12555365592954L735.202576184082,290.22559632480557L735.2669772506714,290.29171515399264L735.7660855167389,290.3785935804923L735.7982860500337,290.4337569923633L736.0236897830963,290.48815056312304L736.1202913829803,290.5298957734931L737.295610848236,290.66568782899515L741.2723767101288,291.1189525414398L742.6892001750946,291.5222953124245L743.1078071079254,291.80301451365034L744.556831106186,292.10506621304495L744.9915383056641,292.326262242359L746.1185569709778,292.5623595744051L747.2133751029968,292.80413565701315L747.4709793693543,292.97269203351874L748.5335969680787,293.1705994480502L749.3064097671509,293.359528854729L749.5640140335083,293.49623361424585L750.0309217662812,293.6205602943679L750.4334284324647,293.73155154226026L750.739333498764,293.8258017494375L753.0577718959807,294.0910192831008L753.1865740291595,294.2617002655413L754.2169910945893,294.45636894151403L754.6516982940674,294.6120067812451L756.8252342914581,294.89881356682764L756.9379361579895,295.08088889059644L757.2277409576417,295.21582001510205L758.8860684223175,295.4433444131803L759.2724748218536,295.61389496119284L759.4334774883271,295.73040178983973L759.6588812213897,295.82014478043544L760.6570977535248,295.96167561142556L762.186623085022,296.1804399637846L763.2492406837464,296.4043279482456L763.9737526828767,296.6016651253283L764.2635574825287,296.7452199479353L764.4245601490021,296.84532418215156L764.7626657485962,296.9347039705401L766.5175948131562,297.1400265466295L767.6446134784699,297.3602193560173L769.2224396099091,297.62761700972567L771.1061708076477,297.94873627740867L771.7179809402465,298.1934156919877L772.2492897396088,298.3852968141751L772.5229942726135,298.523628991566L773.1509046718597,298.6597850434182L777.0471692005158,299.0691384124944L777.3047734668731,299.33629214860184L779.62321186409,299.68968021731064L780.4604257297516,299.97111841158414L781.1688374622345,300.19859530794713L781.7323467948913,300.3816115494341L782.2153547943115,300.5312632084914L782.6017611938477,300.6528743938689L783.1169697265625,300.76820647726356L783.2940726596831,300.85197202959546L783.3101729263306,300.90354437979306L784.2761889251709,301.01374078394815L784.710896124649,301.11543322951115L784.7752971912385,301.18172128796147L785.0168011909485,301.2412509527643L785.4354081237793,301.31116878816135L785.6125110569001,301.36756269618235L785.7896139900207,301.41586276369645L786.3209227893828,301.4881313927156L787.6894454544067,301.6427503973755L788.5427595867158,301.80466044627633L788.6071606533051,301.90701751897313L788.8164641197204,301.9853573955397L790.1044854515076,302.1363359975803L790.1688865180969,302.23211368624237L790.6035937175751,302.32458045678527L790.7484961174011,302.3917135609471L792.1492193157195,302.5444411739785L792.2619211822511,302.6451047460366L792.9703329147338,302.76218837271L793.8236470470429,302.90055139888267L794.3871563796997,303.0284785606763L794.451557446289,303.11036383743385L795.4336737117768,303.2375580742388L796.9953995765685,303.43758560623667L797.6072097091675,303.6058965981151L798.3478219749451,303.7652714979349L798.3639222415924,303.8621684247877L799.3138379737854,303.9949845250603L800.6662603721618,304.18067993727846L801.052666771698,304.32231713289195L801.8415798374176,304.4688882382739L802.0669835704804,304.5743925279321L804.4498230342865,304.82276920454973L804.9328310337067,305.0091752144381L805.8827467658997,305.1943632298147L806.7038603649139,305.36870610055263L810.0205152942658,305.7273399286544L810.1654176940918,305.9535577897897L810.986531293106,306.15180051082757L811.0187318264008,306.2731875377785L813.1922678237916,306.5107830972335L813.7718774230957,306.6971214034667L814.4802891555786,306.862327323649L815.4302048877715,307.03288730476066L815.6234080875397,307.1497485638852L817.4427382186889,307.3561115356159L818.5375563507081,307.56160319110063L819.1010656833648,307.726853238185L821.5161056804658,308.00502517323423L821.6610080802918,308.18263764383846L822.0957152797698,308.3212920230877L822.5787232791901,308.44010028554476L823.1261323451996,308.5516785073957L823.8506443443298,308.67188476551775L823.9794464775085,308.7534663589233L824.430253943634,308.8354869759522L826.2495840747832,309.0177450791043L826.5071883411408,309.1458925225482L827.5054048732758,309.2954688886589L827.7791094062806,309.40509463357034L829.1637323379516,309.5712955026784L829.3086347377778,309.681499658612L831.7075744682312,309.92065341070287L832.3354848674775,310.1092601672349L833.1726987331391,310.28245379934475L837.8095755275726,310.74597300203106L838.1476811271668,311.0527862939398L840.4178187244415,311.4288827524369L841.1101301902771,311.7128673844716L841.9634443225862,311.9550023314756L842.0761461891175,312.1097616541291L842.3981515220642,312.2296367126827L842.816758454895,312.3366644847542L844.2657824531556,312.5220686799085L845.1029963188172,312.7031268684239L846.0690123176574,312.89212263518095L846.1817141841889,313.01489587009263L846.6486219169616,313.1273143815122L847.5019360492706,313.2654838602107L847.5663371158599,313.3536991703796L847.7756405822754,313.423964307804L848.0010443153382,313.48475184446136L848.3874507148743,313.5531471359928L848.5806539146423,313.61014569567993L849.0958624473571,313.6868332991728L849.2085643138886,313.7421395724511L849.4339680469512,313.7938902428647L851.2532981781005,313.97444014486547L851.4304011112213,314.0972748406048L851.5270027111053,314.1788948026765L852.1871136436463,314.2819057098425L852.2515147102356,314.3489643293358L852.4769184432982,314.40762279604724L852.8472245761872,314.47307885619415L854.5538528408051,314.6513683575663L855.2461643066406,314.8145556756973L855.9545760391235,314.9698921230887L856.2443808387756,315.0865436866268L856.5019851051331,315.17737879817463L856.9849931045533,315.270921658438L858.0959115032196,315.41664039167017L860.1084448341369,315.6657370711663L860.8329568332672,315.8731935811009L861.4286666992188,316.04526441850487L861.4447669658662,316.1497994238269L861.6057696323395,316.2253633921423L861.7345717655182,316.280980248413L862.1370784317016,316.3464577749808L863.4734005634308,316.4920782976758L863.5539018966675,316.58585157793505L863.7954058963776,316.66127741418023L866.9188576259613,316.95346251370734L869.1406944232941,317.3032204303463L872.5539509525299,317.77918716211815L873.8097717510223,318.1620947196149L874.6791861499786,318.45902888793887L875.0816928161621,318.6682504898837L877.1103264137269,318.94986856071415L878.4144480121613,319.2187519274055L879.2033610778809,319.44035771663584L879.396564277649,319.5880721357376L879.7024693439483,319.70002738678966L880.6523850761413,319.8395396668469L882.5200160072326,320.0649710014369L883.7919370723724,320.29636739733854L884.4681482715606,320.48618729291235L885.627367470169,320.68729240075874L886.4323808025359,320.86837484611306L887.0280906684876,321.0216464365536L887.9297056007385,321.1810452156687L888.1873098670959,321.29590789898344L888.6703178665161,321.40087197817303L889.4109301322936,321.51901773113957L889.8456373317719,321.6222382708309L891.6810677295686,321.820314231308L893.0978911945343,322.04383202493176L894.1927093265533,322.2585702616972L894.6757173259736,322.4229262590702L895.3519285251617,322.57116786489104L895.6578335914612,322.6825367275505L895.6900341247559,322.75171737579956L895.78663572464,322.80030375670935L898.7168842544555,323.0433750698059L901.2929269180298,323.3759947817406L901.872536517334,323.6174395990201L903.724067181778,323.89565996110355L903.7884682483673,324.0672082600668L905.2857930465699,324.27751755805394L906.1713077121735,324.4670357779518L907.1373237110139,324.6496596808895L908.666849042511,324.86805045557213L910.2446751739502,325.1108966774356L911.3555935726166,325.3350777996787" fill="none"></path></g></g></g></g><g opacity="0.2"><g><g><g><path style="fill: none;" stroke="rgb(255, 112, 67)" stroke-width="2px" d="M81.19364470252991,88.59867614452321L81.24194550247192,88.57236447875772L81.66055243530273,88.34868967485312L82.03085856819153,88.15460908371L83.20617803344727,87.5562623140811L84.20439456558228,87.06285446873312L84.28489589881896,87.02382293335785L84.62300149841309,86.86077266928703L84.91280629806519,86.72095668317286L85.47631563072204,86.45435231933516L85.50851616401671,86.43968343744643L85.63731829719543,86.37864857923807L88.1489598941803,85.25140142486612L89.1471764263153,84.82718351541985L89.83948789215088,84.53749874301593L89.95218975868225,84.4905685789314L90.72500255775451,84.17795726735176L90.93430602416993,84.09599617204344L91.32071242370606,83.94125485505646L92.01302388954163,83.67218858097169L92.14182602272034,83.62433520054446L93.15614282150268,83.2405336509874L93.42984735450746,83.14026209821657L93.52644895439147,83.10584664455456L93.97725642051697,82.94069349881437L96.15079241790771,82.1914008571627L96.8431038837433,81.96341771032576L97.6803177494049,81.69245371375888L98.29212788200378,81.51052880446059L99.51574814720155,81.13801101020255L100.81986974563598,80.78016209783323L101.70538441123963,80.53833070585648L101.75368521118165,80.5251492280754L101.97908894424438,80.4642169494607L102.04349001083374,80.44708615732486L102.816302809906,80.24879980284305L102.92900467643739,80.22105202276686L103.63741640892029,80.05266761982739L104.12042440834045,79.9436768015982L105.03813960723878,79.74836525533158L105.5050473400116,79.65450492716246L105.76265160636902,79.604240926285L106.02025587272644,79.55495143154701L107.7429844039917,79.23280021776003L108.43529586982727,79.10016480319979L108.48359666976928,79.09118908875735L110.20632520103455,78.78909218552457L110.560531067276,78.73123729471865L110.73763400039674,78.70287403708068L111.38164466629028,78.61157819875228L111.86465266571045,78.5646480346677L113.29757639732361,78.433500024215L114.26359239616394,78.35133376971947L115.72871666107179,78.23536753912362L115.92191986083984,78.22080123682849L116.43712839355469,78.18756544849322L116.9362366596222,78.17464041969617L117.66074865875245,78.15648383162409L118.98097052383422,78.12514576577092L119.73768305625916,78.12263256572703L120.01138758926392,78.12817186378294L120.04358812255859,78.12883863114149L120.12408945579529,78.13042861484274L120.52659612197876,78.13842982314566L120.5426963886261,78.13873756192658L120.73589958839416,78.14248171709397L120.81640092163086,78.14407170079517L121.28330865440368,78.15299612544078L121.52481265411376,78.15750962756039L123.74664945144653,78.27229619282951L124.63216411705017,78.34866670028515L128.2869246459961,78.77626973632113L129.43004357795715,78.95701498029268L129.47834437789916,78.96527263757969L131.41037637557983,79.32019803153065L132.5212947742462,79.55597722748331L132.74669850730896,79.60403576709774L132.77889904060362,79.61085731007398L132.79499930725098,79.61424243666369L133.72881477279662,79.83407050580729L136.54636143608093,80.57054069825551L138.7681982334137,81.24356541204514L138.80039876670838,81.2534130530334L139.6054120990753,81.5091439799466L140.74853103103638,81.90653732565931L141.585744896698,82.18811831016666L141.92385049629212,82.31772762671494L142.03655236282347,82.36075976624164L143.75928089408876,82.9995228957597L144.21008836021423,83.16093188633249L144.66089582633973,83.33757394655896L145.49810969200135,83.67039343808318L146.49632622413637,84.05619528971596L148.07415235557556,84.6696212596081L148.57326062164307,84.87395981011394L148.65376195487977,84.90663141068433L150.02228461990356,85.4505597058938L150.05448515319824,85.46307441631637L151.3586067516327,85.98653808259718L152.83983128318786,86.5989895463498L153.11353581619264,86.70946776868658L153.45164141578672,86.84471896288437L155.60907714653015,87.7444958683875L155.6734782131195,87.77147430151149L155.80228034629823,87.82537987796269L157.60551021080016,88.56579938476557L157.8309139438629,88.6650451416001L158.4427240764618,88.93159821564103L158.63592727622986,89.01489284566651L159.31213847541807,89.30324408335326L160.55185900726318,89.81921943929927L161.82378007240297,90.37294408570023L161.85598060569762,90.387048779824L162.72539500465393,90.7634133088431L163.1762024707794,90.95544230811367L164.86673046875,91.6835009738844L166.5733587333679,92.4302291256954L166.79876246643067,92.52665394370518L167.78087873191834,92.94753801635858L169.85781312942507,93.8716775753482L171.9508477935791,94.79453488941749L172.65925952606202,95.11181357250717L174.02778219108583,95.71108355847866L174.3497875240326,95.8495147200789L174.9293971233368,96.11293911651416L175.04209898986815,96.16458794190561L175.62170858917236,96.42821749752812L175.95981418876647,96.58049690426805L176.9580307209015,97.02394848751948L177.28003605384825,97.16499542875721L179.06716565170288,97.97004007954536L179.22816831817627,98.04317932980177L180.33908671684264,98.54104938747253L180.54839018325808,98.63362747072131L180.6449917831421,98.67619800207672L181.77201044845583,99.1789918802416L182.1423165813446,99.35014593220899L183.17273364677428,99.81980660163225L185.4911720439911,100.86109205654435L186.36058644294738,101.26063957372327L186.8274941757202,101.47251772436073L187.6969085746765,101.86216631075462L188.32481897392273,102.13964411151682L188.37311977386474,102.16082679760086L188.56632297363282,102.2490965379173L189.06543123970033,102.48184963585794L190.86866110420226,103.3197197566069L192.67189096870422,104.17036103676247L193.09049790153503,104.36392872993747L194.92592829933167,105.19595181384966L195.05473043251038,105.25334509648417L195.71484136505129,105.54544048933832L197.19606589660646,106.18887099036647L198.22648296203613,106.6743289172083L198.99929576110839,107.04140999300415L199.36960189399719,107.2155901429835L200.46442002601623,107.72433363757881L200.62542269248962,107.79834481438098L200.67372349243163,107.82050200660456L200.91522749214172,107.93108280853494L201.4465362915039,108.17281162091797L204.37678482131957,109.46875091701025L205.4555026866913,109.9723141421274L205.9063101528168,110.18696194179279L206.06731281929015,110.26322986965482L206.63082215194703,110.52870585796262L209.17466428222656,111.69811322531547L210.38218428077698,112.2371689898277L212.21761467857363,113.04518844883103L212.8777256111145,113.36113359720355L215.16396347503664,114.43139778731546L215.2444648082733,114.46842902061496L215.38936720809937,114.5349518870824L216.88669200630187,115.21418266628649L217.33749947242737,115.4157515677644L217.49850213890073,115.48745470371L218.9958269371033,116.14601569479817L219.5432360031128,116.38323100506165L220.50925200195314,116.84119760081131L223.45560079841613,118.2073526287416L223.87420773124697,118.39686842796829L223.92250853118898,118.41866659161411L224.26061413078307,118.57084341876043L224.37331599731445,118.62141515841876L225.3071314628601,119.03742670037485L225.40373306274415,119.08015110112069L226.30534799499512,119.47615962231941L229.60590265769957,120.99115764060309L230.50751758995057,121.40501501109304L231.0227261226654,121.63925551314128L232.4234493209839,122.26817100167113L232.95475812034607,122.50369374863976L234.22667918548584,123.06090610122399L234.33938105201722,123.10983656738429L234.5486845184326,123.20046563835416L235.51470051727293,123.63678793984846L235.9977085166931,123.86333497237467L236.3680146495819,124.03607900804326L236.657819449234,124.17066343488247L238.99235811309816,125.23708089023336L240.02277517852784,125.69786842480781L242.453915442276,126.76177268011486L242.87252237510683,126.9417485771342L245.96377357139588,128.36504043871497L246.07647543792723,128.4160224967478L247.89580556907654,129.2298377027911L247.94410636901856,129.25122554806242L248.28221196861267,129.40042756699353L249.23212770080568,129.8164391089496L249.9244391666412,130.11663828970032L251.29296183166502,130.71436958176741L251.79207009773253,130.94543011641323L252.04967436408998,131.064165996037L252.32337889709473,131.18992857782428L252.9673895629883,131.4842807217382L253.70800182876587,131.82007502147763L253.7241020954132,131.82735817262517L254.07830796165467,131.98686944071582L254.64181729431152,132.23936911042978L255.06042422714233,132.4259101014413L255.20532662696837,132.4902275066457L256.04254049263,132.8599756518758L256.090841292572,132.8812096277567L256.63825035858156,133.12093813806402L256.70265142517087,133.14904494671796L257.07295755805967,133.31024877810347L257.1695591579437,133.35220383189707L257.2017596912384,133.3661546566304L257.942371957016,133.68610040915442L259.26259382209776,134.25182686800974L259.5684988883972,134.39271993985705L259.7134012882232,134.45929409612125L260.8082194202423,134.95890800688372L260.840419953537,134.9735255989756L261.80643595237734,135.4091811331114L264.3663783493042,136.5415059773679L265.21969248161315,136.91197217975338L265.54169781455994,137.05091623932177L266.0408060806274,137.2652563002063L266.1857084804535,137.3272656645541L266.45941301345823,137.44415511149256L266.733117546463,137.56068552985334L268.0533394115448,138.1347209357925L268.42364554443355,138.30284888974788L268.6490492774964,138.40486429561037L269.8404690093994,138.94007332536154L271.675899407196,139.75158049054824L273.2215250053406,140.422912641043L273.30202633857726,140.45758454368908L273.88163593788147,140.70639134803244L274.380744203949,140.91939787419983L275.9424700687409,141.5789846612243L276.3610770015717,141.76193536645886L276.425478068161,141.79101668125224L276.6830823345184,141.90708549144168L277.3592935337067,142.2103107702044L278.3897105991364,142.6683799455477L278.4380113990784,142.68976779081908L280.2412412635803,143.47963066175038L281.09455539588924,143.84845559063783L284.52391219177247,145.29964910168525L284.97471965789794,145.49126778258128L286.6813479225159,146.24794615497413L287.84056712112425,146.7547919270873L288.83878365325927,147.18675459585248L290.0946044517517,147.72432295625705L290.3683089847564,147.8406482154306L290.8030161842346,148.02472729619507L291.14112178382874,148.16741551093082L291.3343249835968,148.2487098388806L291.5758289833069,148.3501610569781L292.4935441822052,148.73350099836384L293.6688636474609,149.21967698236114L295.43989297866824,149.99579418774633L296.2932071109772,150.3660552309446L296.35760817756653,150.39390559061442L297.93543430900576,151.07046930038425L298.61164550819393,151.35743571355698L299.43275910720826,151.7034879726592L299.80306524009706,151.85869089781747L300.75298097229006,152.25449425982896L300.8012817722321,152.27454857038313L302.3147068370819,152.89782218126348L302.8621159030914,153.122625360698L303.42562523574827,153.36840606702938L304.0535356349945,153.64080617790702L305.5347601665497,154.2773638461621L305.88896603279113,154.42836100798172L307.20918789787294,154.98695818507994L309.47932549514775,155.93243429954407L310.5419430938721,156.36860273164797L310.65464496040346,156.41460967938988L311.07325189323427,156.58514825379552L311.36305669288635,156.70285833748298L312.3129724250793,157.09307111164176L313.11798575744626,157.4390720809471L313.8746982898712,157.76214651107676L314.8890150886536,158.19190371857894L316.09653508720396,158.6986982008953L316.193136687088,158.73896069139406L316.67614468650817,158.9400679847007L316.82104708633426,159.00028220616L316.9820497528076,159.06706152161144L318.4632742843628,159.67710236491385L318.60817668418883,159.7363420802337L318.946282283783,159.87441421325622L319.97669934921265,160.2926312164753L320.2826044155121,160.41608575740594L322.4561404129028,161.28442201746222L323.4704572116852,161.68427727342197L324.2110694774628,161.97416720501315L324.9194812099457,162.2497985730901L326.3041041416168,162.783981806905L327.2379196071625,163.1854783363628L329.636859337616,164.2190190319561L329.66905987091064,164.23271340770532L330.1842684036255,164.45207986867763L330.68337666969296,164.66365028053423L331.63329240188597,165.06406972425893L333.93563053245543,166.0220605491456L334.3220369319916,166.18116149886177L334.4669393318176,166.2407089529625L335.35245399742126,166.60302007765463L337.78359426116947,167.58496323765334L338.0089979942322,167.67507941065506L339.65122519226077,168.32676756897015L339.98933079185485,168.4599671712954L342.1306662559509,169.29527280220367L343.28988545455934,169.74180177326392L343.6440913208008,169.8774632858362L343.9177958538055,169.98199189174258L344.65840811958316,170.26388061503076L345.20581718559265,170.47124526354864L346.2523345176697,170.86520219287485L347.5403558494568,171.40754050438312L348.76397611465455,171.92095137048847L349.3435857139587,172.1625263134811L351.13071531181333,172.90084293861463L351.1468155784607,172.90745932240358L351.6942246444702,173.13159573447956L351.91962837753294,173.22366091976016L352.5958395767212,173.49888196946262L355.2845841068268,174.57976314751497L355.7836923728943,174.7781007917936L356.33110143890383,174.9948001833316L358.0699302368164,175.6774160891254L358.6012390361786,175.88431912947192L358.89104383583066,175.99684894368127L358.92324436912537,176.00931236430696L359.3096507686615,176.15892470161262L359.3257510353088,176.16518205682388L359.37405183525084,176.1838515428641L359.6799569015503,176.30192065512927L360.2434662342072,176.51882520585448L360.74257450027466,176.71018743776648L361.3704848995209,176.94996723787062L361.53148756599427,177.01125854506304L362.9644112976074,177.55380201575855L363.18981503067016,177.63868662948525L363.656722763443,177.81399515499456L363.7855248966217,177.86225885379628L364.25243262939455,178.03684932215018L365.84635902748107,178.62857970799007L369.56552062301637,180.0921340600696L370.01632808914184,180.27482831632005L370.1612304889679,180.33340126428135L370.6120379550934,180.5153261735796L371.17554728775025,180.74197578569942L371.3687504875183,180.81942337888816L372.39916755294803,181.23102399831828L374.5727035503387,182.0897177765736L375.44211794929504,182.42966654985494L377.5834534133911,183.25840708677103L377.59955368003847,183.2646131521855L379.85359101066587,184.12407627739302L381.8017232749939,184.85659715548655L381.91442514152527,184.8986547888738L383.92695847244266,185.64492133251346L385.7462886035919,186.31107321353005L386.50300113601685,186.58578136526438L386.85720700225835,186.71395456750184L387.1953126018524,186.8359729941217L388.2901307338714,187.2293144458861L389.1434448661804,187.53392454916283L390.07726033172605,187.9001849882096L390.785672064209,188.1808940461711L394.2311291267395,189.52812313907708L394.5209339263916,189.64008876552143L394.87513979263304,189.77667349443638L394.97174139251706,189.8138585971263L396.72667045707703,190.48560106599564L396.95207419013974,190.57135760626818L397.1291771232605,190.63864981968777L398.1917947219849,191.04071053691052L398.2883963218689,191.0771775824451L399.2383120540619,191.43410327847178L399.67301925354,191.5967945139649L400.0433253864289,191.73496922658106L401.1703440517426,192.15364783797148L401.524549917984,192.2845906892369L402.0558587173462,192.4805177130653L402.44226511688237,192.62259045023933L403.0862757827759,192.85862609517608L403.37608058242796,192.9645395255964L403.47268218231204,192.9998269058042L403.52098298225405,193.01741930611135L404.7446032474518,193.4621531342831L404.7607035140991,193.46794888132308L405.51741604652403,193.7412722085434L406.01652431259157,193.92083778718822L406.45123151206974,194.07681005929874L406.49953231201175,194.09409472082496L406.5800336452484,194.12291958663428L407.7231525772095,194.53072476110017L407.9002555103302,194.5936573417906L408.6891685760498,194.8731354446286L409.60688377494813,195.19651761353907L410.3313957740784,195.45060726695425L410.99150670661925,195.68110361383512L411.2008101730347,195.75398641510742L411.216910439682,195.7595770029601L411.57111630592345,195.88272380510986L411.8287205722809,195.97212192095617L413.61585017013545,196.6298109854985L413.9539557697296,196.75926643265635L415.064874168396,197.18276628494723L415.11317496833806,197.20112803220655L415.12927523498536,197.20723151802738L415.9020880340576,197.50004496803692L416.28849443359377,197.64596443997195L418.4137296310425,198.44254627428583L419.7017509628296,198.9204646009961L419.911054429245,198.99775832479438L420.9414714946747,199.37704637223183L421.98798882675175,199.75987341564945L422.3582949596405,199.89476558126952L423.71071735801695,200.38499345921508L423.75901815795896,200.40243199013176L423.83951949119563,200.43151330492512L424.9182373565674,200.8194693280241L425.20804215621945,200.92327987677507L426.41556215476993,201.3539603006199L427.0434725540161,201.5767118881819L429.5873146842956,202.47105207522273L430.27962615013126,202.71216541004407L431.32614348220824,203.07488685311068L431.42274508209226,203.10822522103962L431.8413520149231,203.25265728886706L432.1794576145172,203.36903383783735L432.27605921440124,203.40221833637585L434.8199013446808,204.27024685765124L438.66786507339475,205.6079360483499L438.87716853981016,205.68512719255457L439.42457760581965,205.88654222464206L439.8109840053558,206.02835851283197L440.03638773841857,206.11093508570207L440.4871952045441,206.27578049266137L442.3226256023407,206.9427017206302L442.8861349349976,207.1460657649966L443.4818448009491,207.36040582588112L444.94696906585693,207.88458754931736L447.040003730011,208.6261354316501L448.2475237285614,209.05009689211235L449.6965477268219,209.5551988111339L449.7448485267639,209.57197057469196L452.11158772392275,210.38829898077913L452.1759887905121,210.41035359340904L452.86830025634765,210.64710729550117L453.04540318946835,210.70752667614775L453.2064058559418,210.76240675873842L453.7538149219513,210.94864001096903L453.9148175884247,211.00331493437247L454.3334245212555,211.145233802156L455.05793652038574,211.39014258194155L455.42824265327454,211.51493065758933L456.2493562522888,211.79076718485354L456.63576265182496,211.92017134221453L456.9416677181244,212.0224431970611L457.6983802505493,212.27463512799417L459.51771038169863,212.87693121197768L460.3066234474182,213.13630371446467L461.61074504585264,213.56272708517395L461.7878479789734,213.62037681679257L462.1098533119202,213.72511058188618L463.2851727771759,214.10593732322806L464.2028879760742,214.41454803065622L465.9256165073395,215.02592240867577L468.19575410461425,215.82322230014506L468.82366450386047,216.04212715294602L469.2905722366333,216.20440807006466L470.6912954349518,216.68899407036068L471.464108234024,216.954880377043L471.4963087673187,216.96590768335795L472.1081188999176,217.17563166252927L472.4784250328064,217.3022148810655L473.62154396476745,217.69155572867848L475.8916815620422,218.45803045226273L476.92209862747194,218.80305691542864L478.49992475891116,219.32790540622344L478.62872689208984,219.37057851717245L481.4301732887268,220.29164068835325L481.961482088089,220.46489762199L483.15290181999205,220.85172526955907L483.7808122192383,221.05462770575414L485.1654351509094,221.4999257216909L486.3407546161651,221.87552090375775L486.74326128234867,222.00364281619844L486.952564748764,222.07016568266582L487.09746714859006,222.11617263040773L488.3693882137299,222.5186949558018L489.3193039459228,222.817663181429L491.15473434371944,223.3914421383841L491.3962383434296,223.4665816907162L492.66815940856935,223.8740278366044L494.06888260688777,224.35076649798793L495.501806338501,224.83514733909672L496.09751620445246,225.0355365752479L496.66102553710937,225.2245907663033L497.85244526901243,225.62254829978096L499.8488783332824,226.2843918378652L500.1869839328766,226.39584456634142L500.33188633270265,226.4435440773782L500.58949059906007,226.52827482171446L501.6038073978424,226.86094044384825L501.61990766448974,226.86622329292007L501.84531139755245,226.93992673094138L503.82564419517513,227.5840752891249L504.00274712829594,227.64136599216582L505.61277379302976,228.1602135767334L506.69149165840145,228.50565035827384L509.9115449878693,229.5264711842573L511.9562788520813,230.1667730076798L511.97237911872867,230.17179940776757L512.4392868515015,230.31715469193765L512.4714873847961,230.32715620231633L514.0654137828827,230.820923076242L516.4804537799835,231.56221450959072L517.5108708454131,231.87595419670023L517.6074724452973,231.90529196047768L517.7040740451813,231.93462972425513L517.7684751117706,231.95417113684115L517.784575378418,231.95904366753848L519.636106042862,232.51846148138574L520.5216207084657,232.78434778806806L522.4536527061463,233.36074252466065L523.3552676383972,233.63909225196872L524.9330937698364,234.15188764051229L525.0940964363098,234.20399807407503L525.2067983028412,234.24046511960958L525.4966031024933,234.33412028859144L526.4143183013916,234.62995983661298L527.1227300338745,234.85753266507547L528.5073529655457,235.3001636115779L529.9724772304535,235.7656185176624L530.0046777637482,235.77577389743152L530.519886296463,235.9387215819087L530.8096910961151,236.03017128962756L535.366066557312,237.45310412263063L535.7846734901428,237.58240570039803L536.4930852226257,237.8006950756372L537.3785998882294,238.07258228854676L538.3768164203644,238.3778078693852L538.5861198867798,238.4416636664183L540.067344418335,238.89173163345868L540.5342521511078,239.03298373388367L541.1621625503541,239.22255082290718L545.6702372116089,240.56824122190878L546.9421582767487,240.94327221621072L547.3607652095794,241.0662138591732L547.7149710758209,241.170075697721L548.0208761421204,241.25967897275456L548.4233828083038,241.37738905644204L548.6809870746612,241.45257989857095L548.8741902744293,241.5089473852692L549.5665017402648,241.71051628674715L550.6613198722839,242.0280514188209L551.6595364044189,242.316300076914L555.0083918670655,243.27449606098796L555.1210937335968,243.3065008941997L555.2659961334228,243.3476353112443L556.0710094657898,243.57572103767492L556.1193102657318,243.58936412362738L556.4574158653259,243.68491701509134L556.9565241313934,243.8387351157357L557.2624291976929,243.93351866024744L559.452065461731,244.60828722712876L560.7561870601654,245.00721926674586L560.7722873268127,245.01214308724L561.3196963928223,245.1789375064782L563.5254329235078,245.847243558961L563.6059342567444,245.8715036328539L564.0245411895752,245.9976252432188L564.7651534553528,246.22017167159356L565.0066574550629,246.29259286469454L566.3268793201447,246.68726785117613L567.0191907859802,246.89340154457048L567.4377977188111,247.01772801204692L568.0979086513519,247.21334729709446L568.7902201171875,247.4179935863812L570.9154553146362,248.04249815238506L571.0281571811676,248.07547749173628L571.0925582477569,248.09430084716692L572.7347854457855,248.57283465143894L573.3787961116791,248.7596320914345L574.8922211765289,249.19667245008424L575.1176249095918,249.26150275325676L575.4074297092438,249.34479738328227L580.4629134365082,250.78255296756447L581.3162275688171,251.02233276766862L583.2321592998504,251.55779824640388L586.1624078296661,252.36894638301285L586.7581176956177,252.53266341444225L588.2715427604675,252.9469311033067L590.8314851573945,253.64211300931987L591.2500920902252,253.7551044317005L591.8941027561187,253.9286178143213L592.6347150218965,254.12762222595853L593.6812323539734,254.41530669628668L593.7939342205048,254.44833732543475L593.9227363536835,254.48613790568646L594.6955491527558,254.71227461983815L594.8404515525818,254.75463999200628L595.7903672847748,255.03155360500355L595.9996707511901,255.09243459382145L598.3342094150543,255.7681263770454L598.5274126148224,255.8237758065883L599.0587214141846,255.97661940109316L599.7349326133728,256.1706487024395L600.7814499454498,256.46992466684753L601.9728696773528,256.80925796256713L602.7295822097778,257.0239057622325L603.7760995418548,257.3197966000509L604.2430072746276,257.4514575084717L604.4523107410431,257.5103894850107L605.5632291397095,257.8223853190285L605.6115299396515,257.83592582538733L606.3038414054871,258.02964738795276L607.0927544712066,258.2497831958773L607.9943694034577,258.50059030229636L610.1196046009064,259.0883200839848L610.2484067340852,259.1238126233799L610.3611086006165,259.1548429504522L611.858433398819,259.5657255127269L612.051636598587,259.61855400344507L612.3736419315338,259.7065672947774L614.2090723293305,260.206129915743L614.2734733959198,260.2236197364565L614.708180595398,260.34143239973764L614.7403811286925,260.35010037539917L616.1894051269531,260.7413389454942L617.3164237922668,261.0441539058824L617.751130991745,261.16058174464956L617.8638328582763,261.19074014517605L618.3146403244018,261.3112711676883L620.5042765884399,261.8938206798985L621.9855011199951,262.285213119384L622.0982029865265,262.31490991173916L623.5472269847869,262.6955314938938L623.6921293846129,262.7334859435359L623.8853325843811,262.7840576831943L624.1912376506806,262.8640697662237L624.4649421836853,262.935567742982L625.3343565826416,263.16221735510186L625.5275597824096,263.21248135597926L625.9300664485932,263.32121572522436L626.5257763145446,263.49042076491287L627.4595917800902,263.7549222470812L628.200204045868,263.96408203848756L628.5061091121673,264.0503001869314L628.6188109786988,264.0819972813623L629.3594232444763,264.2902851462228L630.1966371101379,264.5250385462392L630.2449379100799,264.5385277628012L630.8084472427369,264.69609001861295L632.9014819068909,265.2785882410264L633.7386957725525,265.5103155430308L633.7547960391998,265.5147777553536L634.0929016387939,265.60812518555457L634.9784163043976,265.85216203879423L636.379139502716,266.2366303557099L636.3952397693635,266.24104127823585L637.0070499019623,266.40834859544225L637.5705592346192,266.56211540628976L637.7154616344452,266.6016085498363L640.0177997650146,267.22631827502744L640.5330082977296,267.36536491418946L642.0625336292267,267.7768116642291L644.5097741596222,268.4304488348232L645.2986872253418,268.6399676548072L645.878296824646,268.7934780166707L646.876513356781,269.05721015188686L648.1162338886262,269.3834132596221L648.1645346885682,269.3960818394351L649.3881549537659,269.71664306952084L649.7262605533599,269.8049640996341L649.8550626865386,269.8385589165471L650.0643661529541,269.8931825501537L650.0965666862488,269.90159407683115L650.1931682861328,269.9267773670667L651.770994417572,270.3368905823892L651.8031949508667,270.34525081926984L653.2039181491853,270.7074080745715L653.2522189491273,270.71987149519725L653.6869261486053,270.8318884114384L656.4400717453003,271.53737956661115L656.5527736118316,271.5661018528268L657.615391210556,271.83650166162874L657.6958925437926,271.8569662905574L659.370320275116,272.2808764612228L659.6440248081207,272.3499638175309L660.7227426734923,272.62149200186275L661.0447480064392,272.702376011438L662.7674765377045,273.13351804345416L663.604690403366,273.3421136470955L663.8461944030762,273.4021739991644L664.0876984027863,273.46218306143646L664.3453026691436,273.5261414380632L664.5546061355591,273.57804671243866L665.1181154682159,273.7176575393656L665.4240205345153,273.79336127946266L665.5367224010467,273.8212116391325L669.2880845298766,274.74247896950055L670.254100528717,274.9777965572819L670.7371085281372,275.0951989021885L671.0430135944366,275.1694665279748L672.4759373260498,275.51618555443554L673.103847725296,275.66759303462965L673.1682487918854,275.6831338430642L673.3131511917114,275.71801090489754L673.4097527915956,275.74124518285413L673.812259457779,275.8380290294416L674.7299746566773,276.0582674169598L677.0806135871887,276.6191726349146L678.94824451828,277.0617010018234L679.4795533176423,277.18710455503293L681.2344823822021,277.5996796806025L681.3310839820862,277.62229848099736L681.4759863819122,277.656252326488L683.552920779419,278.1410434859713L684.1003298454285,278.26824218206934L688.2219981071472,279.21879598641806L688.5279031734467,279.2888065590688L689.2202146392823,279.4470355822391L690.3311330379486,279.70020201931163L693.7926903671264,280.48319205746986L695.4188172985076,280.84791380261225L696.3043319641113,281.04573854892277L696.5458359638213,281.0995928355772L697.6567543624877,281.3468096562193L698.2041634284973,281.4682638950742L699.3955831604004,281.73189345069676L699.6531874267578,281.78877383536314L699.8302903598786,281.8278566605352L700.3776994258881,281.9484902626411L701.6657207576752,282.23145607166236L702.6478370231629,282.44641161010867L702.6639372898102,282.4499506060888L703.5977527553559,282.65372496882975L703.9197580883026,282.7238381210741L704.6120695541382,282.8743736747224L704.6925708873749,282.89186349543587L705.8517900859833,283.14308092022947L708.121927683258,283.69059950121596L708.492233816147,283.78589594369583L708.5083340827942,283.79005041723775L710.6979703468323,284.35121208417667L712.2435959449767,284.7450151441124L713.1935116771698,284.9860771891369L713.3706146102905,285.0309557613489L717.9430903381348,286.18066784672527L718.6032012706756,286.3452568047005L719.7302199359893,286.62555554428747L720.1810274021149,286.7373673013414L721.0021410011291,286.940680055911L722.563866865921,287.325866429982L723.0629751319885,287.44860291375727L723.1434764652253,287.46834948553055L723.41718099823,287.5355391193565L724.2382945972442,287.73680028205354L724.8501047298431,287.8864126193592L728.1345591259003,288.6847895965616L729.2937783245087,288.96462672797725L730.9843063224793,289.3709444983355L732.3850295207977,289.70602074091954L732.5782327205658,289.7521302682551L733.0934412532806,289.87491804182713L733.5442487194061,289.9822162967614L734.9449719177246,290.314676759708L735.1059745841981,290.35278507874057L735.202576184082,290.37566032811947L735.2669772506714,290.3908933977732L735.7660855167389,290.50891122024154L735.7982860500337,290.51650211017L736.0236897830963,290.5697409192626L736.1202913829803,290.5925135890479L737.295610848236,290.86937591224836L741.2723767101288,291.79884961010663L742.6892001750946,292.1273094689017L743.1078071079254,292.2240933154892L744.556831106186,292.5581437621369L744.9915383056641,292.65805628633007L746.1185569709778,292.9165055724744L747.2133751029968,293.1667997809254L747.4709793693543,293.2255265982771L748.5335969680787,293.4674605698474L749.3064097671509,293.64292296474713L749.5640140335083,293.70129075352116L750.0309217662812,293.807050314551L750.4334284324647,293.8980384140986L750.739333498764,293.9671770602035L753.0577718959807,294.48884558359583L753.1865740291595,294.517721739202L754.2169910945893,294.74837195547326L754.6516982940674,294.84546354084165L756.8252342914581,295.3290237452014L756.9379361579895,295.3540018762497L757.2277409576417,295.41821670186044L758.8860684223175,295.7846310102977L759.2724748218536,295.8697207832116L759.4334774883271,295.9051620328099L759.6588812213897,295.9547592663288L760.6570977535248,296.17397185791066L762.186623085022,296.50858649232333L763.2492406837464,296.7401599249373L763.9737526828767,296.8976708909522L764.2635574825287,296.96055218184586L764.4245601490021,296.995480533476L764.7626657485962,297.06877365312283L766.5175948131562,297.44801041076346L767.6446134784699,297.69050857009876L769.2224396099091,298.0287134902884L771.1061708076477,298.43041517893346L771.7179809402465,298.56043481385626L772.2492897396088,298.673118497456L772.5229942726135,298.7311272576523L773.1509046718597,298.8640191211967L777.0471692005158,299.6831684661086L777.3047734668731,299.737022752763L779.62321186409,300.2197623203738L780.4604257297516,300.3932757029946L781.1688374622345,300.5398106524914L781.7323467948913,300.6561359116649L782.2153547943115,300.75574069707716L782.6017611938477,300.83529117193524L783.1169697265625,300.9412046023556L783.2940726596831,300.9776203580933L783.3101729263306,300.98090290508935L784.2761889251709,301.1790353901808L784.710896124649,301.2679718978558L784.7752971912385,301.2811533756369L785.0168011909485,301.3305454499685L785.4354081237793,301.41604554125695L785.6125110569001,301.4521535582138L785.7896139900207,301.4883128649675L786.3209227893828,301.5965343362445L787.6894454544067,301.8746789043653L788.5427595867158,302.0475255196275L788.6071606533051,302.0605531280182L788.8164641197204,302.1028672103895L790.1044854515076,302.36280390064144L790.1688865180969,302.3757802192353L790.6035937175751,302.46328061259953L790.7484961174011,302.4924132171897L792.1492193157195,302.7735325935257L792.2619211822511,302.79610010412375L792.9703329147338,302.9378138127201L793.8236470470429,303.1080959381416L794.3871563796997,303.22036930336685L794.451557446289,303.2331917525703L795.4336737117768,303.4283494294465L796.9953995765685,303.73762690423325L797.6072097091675,303.85836308593275L798.3478219749451,304.0043338476646L798.3639222415924,304.00751381506706L799.3138379737854,304.194208675469L800.6662603721618,304.4592230556055L801.052666771698,304.5347729263121L801.8415798374176,304.68874489634686L802.0669835704804,304.73264896241943L804.4498230342865,305.19533421947597L804.9328310337067,305.2887842292706L805.8827467658997,305.47214525287967L806.7038603649139,305.63022040665953L810.0205152942658,306.265290670807L810.1654176940918,306.2928845814928L810.986531293106,306.44916459238425L811.0187318264008,306.45526807820505L813.1922678237916,306.86717643641606L813.7718774230957,306.97662886281654L814.4802891555786,307.11013620392265L815.4302048877715,307.288727276428L815.6234080875397,307.3250404525721L817.4427382186889,307.66565599321206L818.5375563507081,307.86984067432746L819.1010656833648,307.97472830881156L821.5161056804658,308.4222830758081L821.6610080802918,308.4490563497448L822.0957152797698,308.5292735919615L822.5787232791901,308.6183126792301L823.1261323451996,308.71904584017227L823.8506443443298,308.8521941527007L823.9794464775085,308.8758387490318L824.430253943634,308.9585179014955L826.2495840747832,309.2911322338325L826.5071883411408,309.33811368771387L827.5054048732758,309.5198334378249L827.7791094062806,309.56953325093735L829.1637323379516,309.8205968063405L829.3086347377778,309.84680589251235L831.7075744682312,310.2793840388393L832.3354848674775,310.39217030203264L833.1726987331391,310.5422442475096L837.8095755275726,311.4412518060605L838.1476811271668,311.5130062318029L840.4178187244415,311.9930274401825L841.1101301902771,312.1388443325239L841.9634443225862,312.3182047519815L842.0761461891175,312.34190063810945L842.3981515220642,312.4094493005131L842.816758454895,312.4972061428614L844.2657824531556,312.80017497264004L845.1029963188172,312.97471415119713L846.0690123176574,313.17561628531644L846.1817141841889,313.19905572246034L846.6486219169616,313.2959421486414L847.5019360492706,313.4727380782583L847.5663371158599,313.4860221356331L847.7756405822754,313.5293620139407L848.0010443153382,313.57593314944756L848.3874507148743,313.65574007328973L848.5806539146423,313.69564353521076L849.0958624473571,313.80186470441197L849.2085643138886,313.8250989823686L849.4339680469512,313.871516248485L851.2532981781005,314.2452649978666L851.4304011112213,314.2815268842139L851.5270027111053,314.301324745784L852.1871136436463,314.43642207059133L852.2515147102356,314.44955225857564L852.4769184432982,314.4956104961144L852.8472245761872,314.5712629464146L854.5538528408051,314.9188026096244L855.2461643066406,315.059336652894L855.9545760391235,315.20289679417556L856.2443808387756,315.2615210319337L856.5019851051331,315.3136314654964L856.9849931045533,315.41123594883294L858.0959115032196,315.63521849151846L860.1084448341369,316.0393820904106L860.8329568332672,316.184378346003L861.4286666992188,316.3033706746108L861.4447669658662,316.30660193181006L861.6057696323395,316.33870934461544L861.7345717655182,316.3644055328191L862.1370784317016,316.4446740648326L863.4734005634308,316.7105090817181L863.5539018966675,316.726511498324L863.7954058963776,316.774416168548L866.9188576259613,317.39174016299796L869.1406944232941,317.82785730530503L872.5539509525299,318.4931372597758L873.8097717510223,318.73645605586006L874.6791861499786,318.904430140425L875.0816928161621,318.982082892801L877.1103264137269,319.37229566695976L878.4144480121613,319.6220769774426L879.2033610778809,319.7727664004813L879.396564277649,319.8096437643904L879.7024693439483,319.8679602633676L880.6523850761413,320.04880808693275L882.5200160072326,320.40311800332194L883.7919370723724,320.64346199119103L884.4681482715606,320.7709171362731L885.627367470169,320.98895006252826L886.4323808025359,321.1399985141447L887.0280906684876,321.25155382221453L887.9297056007385,321.4201433843412L888.1873098670959,321.4682019239557L888.6703178665161,321.55831809695735L889.4109301322936,321.69623636058947L889.8456373317719,321.7770690803679L891.6810677295686,322.1174281720238L893.0978911945343,322.37910871536735L894.1927093265533,322.58067761684526L894.6757173259736,322.6694602551298L895.3519285251617,322.7935302736222L895.6578335914612,322.8495900215396L895.6900341247559,322.8554883481732L895.78663572464,322.87318332807394L898.7168842544555,323.4079820394506L901.2929269180298,323.8749243496427L901.872536517334,323.9796068249395L903.724067181778,324.3129905042287L903.7884682483673,324.3245307085118L905.2857930465699,324.5929815050348L906.1713077121735,324.75131310779875L907.1373237110139,324.92359553529604L908.666849042511,325.19563661759605L910.2446751739502,325.4751660102308L911.3555935726166,325.6713494830433" fill="none"></path></g></g></g></g></g></g><g transform="translate(49, 378)" clip-path="url(#clip_1)"><clipPath id="clip_1"><rect width="966" height="21"></rect></clipPath><g><g><line x1="0" y1="0" x2="0" y2="5" style="visibility: inherit;" fill="rgb(0, 0, 0)" stroke="rgb(204, 204, 204)" stroke-width="1px"></line><line x1="80.50133323669434" y1="0" x2="80.50133323669434" y2="5" style="visibility: inherit;" fill="rgb(0, 0, 0)" stroke="rgb(204, 204, 204)" stroke-width="1px"></line><line x1="161.00266647338867" y1="0" x2="161.00266647338867" y2="5" style="visibility: inherit;" fill="rgb(0, 0, 0)" stroke="rgb(204, 204, 204)" stroke-width="1px"></line><line x1="241.503999710083" y1="0" x2="241.503999710083" y2="5" style="visibility: inherit;" fill="rgb(0, 0, 0)" stroke="rgb(204, 204, 204)" stroke-width="1px"></line><line x1="322.00533294677734" y1="0" x2="322.00533294677734" y2="5" style="visibility: inherit;" fill="rgb(0, 0, 0)" stroke="rgb(204, 204, 204)" stroke-width="1px"></line><line x1="402.5066661834717" y1="0" x2="402.5066661834717" y2="5" style="visibility: inherit;" fill="rgb(0, 0, 0)" stroke="rgb(204, 204, 204)" stroke-width="1px"></line><line x1="483.007999420166" y1="0" x2="483.007999420166" y2="5" style="visibility: inherit;" fill="rgb(0, 0, 0)" stroke="rgb(204, 204, 204)" stroke-width="1px"></line><line x1="563.5093326568604" y1="0" x2="563.5093326568604" y2="5" style="visibility: inherit;" fill="rgb(0, 0, 0)" stroke="rgb(204, 204, 204)" stroke-width="1px"></line><line x1="644.0106658935547" y1="0" x2="644.0106658935547" y2="5" style="visibility: inherit;" fill="rgb(0, 0, 0)" stroke="rgb(204, 204, 204)" stroke-width="1px"></line><line x1="724.511999130249" y1="0" x2="724.511999130249" y2="5" style="visibility: inherit;" fill="rgb(0, 0, 0)" stroke="rgb(204, 204, 204)" stroke-width="1px"></line><line x1="805.0133323669434" y1="0" x2="805.0133323669434" y2="5" style="visibility: inherit;" fill="rgb(0, 0, 0)" stroke="rgb(204, 204, 204)" stroke-width="1px"></line><line x1="885.5146656036377" y1="0" x2="885.5146656036377" y2="5" style="visibility: inherit;" fill="rgb(0, 0, 0)" stroke="rgb(204, 204, 204)" stroke-width="1px"></line><line x1="966.015998840332" y1="0" x2="966.015998840332" y2="5" style="visibility: inherit;" fill="rgb(0, 0, 0)" stroke="rgb(204, 204, 204)" stroke-width="1px"></line></g><g transform="translate(0, 8)"><text style="text-anchor: middle; visibility: hidden; font-family: &quot;Helvetica Neue&quot;, sans-serif; font-size: 12px; font-weight: 200;" x="0" y="0" dx="0em" dy="0.95em" fill="rgb(50, 49, 63)" stroke="none" stroke-width="1px">-50k</text><text style="text-anchor: middle; visibility: inherit; font-family: &quot;Helvetica Neue&quot;, sans-serif; font-size: 12px; font-weight: 200;" x="80.50133323669434" y="0" dx="0em" dy="0.95em" fill="rgb(50, 49, 63)" stroke="none" stroke-width="1px">0</text><text style="text-anchor: middle; visibility: inherit; font-family: &quot;Helvetica Neue&quot;, sans-serif; font-size: 12px; font-weight: 200;" x="161.00266647338867" y="0" dx="0em" dy="0.95em" fill="rgb(50, 49, 63)" stroke="none" stroke-width="1px">50k</text><text style="text-anchor: middle; visibility: inherit; font-family: &quot;Helvetica Neue&quot;, sans-serif; font-size: 12px; font-weight: 200;" x="241.503999710083" y="0" dx="0em" dy="0.95em" fill="rgb(50, 49, 63)" stroke="none" stroke-width="1px">100k</text><text style="text-anchor: middle; visibility: inherit; font-family: &quot;Helvetica Neue&quot;, sans-serif; font-size: 12px; font-weight: 200;" x="322.00533294677734" y="0" dx="0em" dy="0.95em" fill="rgb(50, 49, 63)" stroke="none" stroke-width="1px">150k</text><text style="text-anchor: middle; visibility: inherit; font-family: &quot;Helvetica Neue&quot;, sans-serif; font-size: 12px; font-weight: 200;" x="402.5066661834717" y="0" dx="0em" dy="0.95em" fill="rgb(50, 49, 63)" stroke="none" stroke-width="1px">200k</text><text style="text-anchor: middle; visibility: inherit; font-family: &quot;Helvetica Neue&quot;, sans-serif; font-size: 12px; font-weight: 200;" x="483.007999420166" y="0" dx="0em" dy="0.95em" fill="rgb(50, 49, 63)" stroke="none" stroke-width="1px">250k</text><text style="text-anchor: middle; visibility: inherit; font-family: &quot;Helvetica Neue&quot;, sans-serif; font-size: 12px; font-weight: 200;" x="563.5093326568604" y="0" dx="0em" dy="0.95em" fill="rgb(50, 49, 63)" stroke="none" stroke-width="1px">300k</text><text style="text-anchor: middle; visibility: inherit; font-family: &quot;Helvetica Neue&quot;, sans-serif; font-size: 12px; font-weight: 200;" x="644.0106658935547" y="0" dx="0em" dy="0.95em" fill="rgb(50, 49, 63)" stroke="none" stroke-width="1px">350k</text><text style="text-anchor: middle; visibility: inherit; font-family: &quot;Helvetica Neue&quot;, sans-serif; font-size: 12px; font-weight: 200;" x="724.511999130249" y="0" dx="0em" dy="0.95em" fill="rgb(50, 49, 63)" stroke="none" stroke-width="1px">400k</text><text style="text-anchor: middle; visibility: inherit; font-family: &quot;Helvetica Neue&quot;, sans-serif; font-size: 12px; font-weight: 200;" x="805.0133323669434" y="0" dx="0em" dy="0.95em" fill="rgb(50, 49, 63)" stroke="none" stroke-width="1px">450k</text><text style="text-anchor: middle; visibility: inherit; font-family: &quot;Helvetica Neue&quot;, sans-serif; font-size: 12px; font-weight: 200;" x="885.5146656036377" y="0" dx="0em" dy="0.95em" fill="rgb(50, 49, 63)" stroke="none" stroke-width="1px">500k</text><text style="text-anchor: middle; visibility: hidden; font-family: &quot;Helvetica Neue&quot;, sans-serif; font-size: 12px; font-weight: 200;" x="966.015998840332" y="0" dx="0em" dy="0.95em" fill="rgb(50, 49, 63)" stroke="none" stroke-width="1px">550k</text></g><line x1="0" y1="0" x2="966.015998840332" y2="0" fill="rgb(0, 0, 0)" stroke="rgb(204, 204, 204)" stroke-width="1px"></line></g></g></g></g></svg>