<svg viewBox="0 0 1016 400" xmlns="http://www.w3.org/2000/svg"><g><g><g><g><g><line x1="29.992000579833984" y1="378.6199998855591" x2="24.992000579833984" y2="378.6199998855591" style="visibility: inherit;" fill="rgb(0, 0, 0)" stroke="rgb(204, 204, 204)" stroke-width="1px"></line><line x1="29.992000579833984" y1="353.37866655985516" x2="24.992000579833984" y2="353.37866655985516" style="visibility: inherit;" fill="rgb(0, 0, 0)" stroke="rgb(204, 204, 204)" stroke-width="1px"></line><line x1="29.992000579833984" y1="328.1373332341512" x2="24.992000579833984" y2="328.1373332341512" style="visibility: inherit;" fill="rgb(0, 0, 0)" stroke="rgb(204, 204, 204)" stroke-width="1px"></line><line x1="29.992000579833984" y1="302.89599990844727" x2="24.992000579833984" y2="302.89599990844727" style="visibility: inherit;" fill="rgb(0, 0, 0)" stroke="rgb(204, 204, 204)" stroke-width="1px"></line><line x1="29.992000579833984" y1="277.65466658274335" x2="24.992000579833984" y2="277.65466658274335" style="visibility: inherit;" fill="rgb(0, 0, 0)" stroke="rgb(204, 204, 204)" stroke-width="1px"></line><line x1="29.992000579833984" y1="252.4133332570394" x2="24.992000579833984" y2="252.4133332570394" style="visibility: inherit;" fill="rgb(0, 0, 0)" stroke="rgb(204, 204, 204)" stroke-width="1px"></line><line x1="29.992000579833984" y1="227.17199993133545" x2="24.992000579833984" y2="227.17199993133545" style="visibility: inherit;" fill="rgb(0, 0, 0)" stroke="rgb(204, 204, 204)" stroke-width="1px"></line><line x1="29.992000579833984" y1="201.9306666056315" x2="24.992000579833984" y2="201.9306666056315" style="visibility: inherit;" fill="rgb(0, 0, 0)" stroke="rgb(204, 204, 204)" stroke-width="1px"></line><line x1="29.992000579833984" y1="176.68933327992758" x2="24.992000579833984" y2="176.68933327992758" style="visibility: inherit;" fill="rgb(0, 0, 0)" stroke="rgb(204, 204, 204)" stroke-width="1px"></line><line x1="29.992000579833984" y1="151.44799995422363" x2="24.992000579833984" y2="151.44799995422363" style="visibility: inherit;" fill="rgb(0, 0, 0)" stroke="rgb(204, 204, 204)" stroke-width="1px"></line><line x1="29.992000579833984" y1="126.20666662851971" x2="24.992000579833984" y2="126.20666662851971" style="visibility: inherit;" fill="rgb(0, 0, 0)" stroke="rgb(204, 204, 204)" stroke-width="1px"></line><line x1="29.992000579833984" y1="100.9653333028158" x2="24.992000579833984" y2="100.9653333028158" style="visibility: inherit;" fill="rgb(0, 0, 0)" stroke="rgb(204, 204, 204)" stroke-width="1px"></line><line x1="29.992000579833984" y1="75.72399997711182" x2="24.992000579833984" y2="75.72399997711182" style="visibility: inherit;" fill="rgb(0, 0, 0)" stroke="rgb(204, 204, 204)" stroke-width="1px"></line><line x1="29.992000579833984" y1="50.48266665140784" x2="24.992000579833984" y2="50.48266665140784" style="visibility: inherit;" fill="rgb(0, 0, 0)" stroke="rgb(204, 204, 204)" stroke-width="1px"></line><line x1="29.992000579833984" y1="25.24133332570392" x2="24.992000579833984" y2="25.24133332570392" style="visibility: inherit;" fill="rgb(0, 0, 0)" stroke="rgb(204, 204, 204)" stroke-width="1px"></line><line x1="29.992000579833984" y1="0" x2="24.992000579833984" y2="0" style="visibility: inherit;" fill="rgb(0, 0, 0)" stroke="rgb(204, 204, 204)" stroke-width="1px"></line></g><g transform="translate(19.992000579833984, 0)"><text style="text-anchor: end; visibility: hidden; font-family: &quot;Helvetica Neue&quot;, sans-serif; font-size: 12px; font-weight: 200;" x="0" y="378.6199998855591" dx="0em" dy="0.3em" fill="rgb(50, 49, 63)" stroke="none" stroke-width="1px">16</text><text style="text-anchor: end; visibility: inherit; font-family: &quot;Helvetica Neue&quot;, sans-serif; font-size: 12px; font-weight: 200;" x="0" y="353.37866655985516" dx="0em" dy="0.3em" fill="rgb(50, 49, 63)" stroke="none" stroke-width="1px">18</text><text style="text-anchor: end; visibility: inherit; font-family: &quot;Helvetica Neue&quot;, sans-serif; font-size: 12px; font-weight: 200;" x="0" y="328.1373332341512" dx="0em" dy="0.3em" fill="rgb(50, 49, 63)" stroke="none" stroke-width="1px">20</text><text style="text-anchor: end; visibility: inherit; font-family: &quot;Helvetica Neue&quot;, sans-serif; font-size: 12px; font-weight: 200;" x="0" y="302.89599990844727" dx="0em" dy="0.3em" fill="rgb(50, 49, 63)" stroke="none" stroke-width="1px">22</text><text style="text-anchor: end; visibility: inherit; font-family: &quot;Helvetica Neue&quot;, sans-serif; font-size: 12px; font-weight: 200;" x="0" y="277.65466658274335" dx="0em" dy="0.3em" fill="rgb(50, 49, 63)" stroke="none" stroke-width="1px">24</text><text style="text-anchor: end; visibility: inherit; font-family: &quot;Helvetica Neue&quot;, sans-serif; font-size: 12px; font-weight: 200;" x="0" y="252.4133332570394" dx="0em" dy="0.3em" fill="rgb(50, 49, 63)" stroke="none" stroke-width="1px">26</text><text style="text-anchor: end; visibility: inherit; font-family: &quot;Helvetica Neue&quot;, sans-serif; font-size: 12px; font-weight: 200;" x="0" y="227.17199993133545" dx="0em" dy="0.3em" fill="rgb(50, 49, 63)" stroke="none" stroke-width="1px">28</text><text style="text-anchor: end; visibility: inherit; font-family: &quot;Helvetica Neue&quot;, sans-serif; font-size: 12px; font-weight: 200;" x="0" y="201.9306666056315" dx="0em" dy="0.3em" fill="rgb(50, 49, 63)" stroke="none" stroke-width="1px">30</text><text style="text-anchor: end; visibility: inherit; font-family: &quot;Helvetica Neue&quot;, sans-serif; font-size: 12px; font-weight: 200;" x="0" y="176.68933327992758" dx="0em" dy="0.3em" fill="rgb(50, 49, 63)" stroke="none" stroke-width="1px">32</text><text style="text-anchor: end; visibility: inherit; font-family: &quot;Helvetica Neue&quot;, sans-serif; font-size: 12px; font-weight: 200;" x="0" y="151.44799995422363" dx="0em" dy="0.3em" fill="rgb(50, 49, 63)" stroke="none" stroke-width="1px">34</text><text style="text-anchor: end; visibility: inherit; font-family: &quot;Helvetica Neue&quot;, sans-serif; font-size: 12px; font-weight: 200;" x="0" y="126.20666662851971" dx="0em" dy="0.3em" fill="rgb(50, 49, 63)" stroke="none" stroke-width="1px">36</text><text style="text-anchor: end; visibility: inherit; font-family: &quot;Helvetica Neue&quot;, sans-serif; font-size: 12px; font-weight: 200;" x="0" y="100.9653333028158" dx="0em" dy="0.3em" fill="rgb(50, 49, 63)" stroke="none" stroke-width="1px">38</text><text style="text-anchor: end; visibility: inherit; font-family: &quot;Helvetica Neue&quot;, sans-serif; font-size: 12px; font-weight: 200;" x="0" y="75.72399997711182" dx="0em" dy="0.3em" fill="rgb(50, 49, 63)" stroke="none" stroke-width="1px">40</text><text style="text-anchor: end; visibility: inherit; font-family: &quot;Helvetica Neue&quot;, sans-serif; font-size: 12px; font-weight: 200;" x="0" y="50.48266665140784" dx="0em" dy="0.3em" fill="rgb(50, 49, 63)" stroke="none" stroke-width="1px">42</text><text style="text-anchor: end; visibility: inherit; font-family: &quot;Helvetica Neue&quot;, sans-serif; font-size: 12px; font-weight: 200;" x="0" y="25.24133332570392" dx="0em" dy="0.3em" fill="rgb(50, 49, 63)" stroke="none" stroke-width="1px">44</text><text style="text-anchor: end; visibility: hidden; font-family: &quot;Helvetica Neue&quot;, sans-serif; font-size: 12px; font-weight: 200;" x="0" y="0" dx="0em" dy="0.3em" fill="rgb(50, 49, 63)" stroke="none" stroke-width="1px">46</text></g><line x1="29.992000579833984" y1="0" x2="29.992000579833984" y2="378.6199998855591" fill="rgb(0, 0, 0)" stroke="rgb(204, 204, 204)" stroke-width="1px"></line></g></g><g transform="translate(30, 0)" clip-path="url(#clip_0)"><clipPath id="clip_0"><rect width="986" height="378"></rect></clipPath><g><g><g><line x1="0" y1="0" x2="0" y2="378.6199998855591" fill="rgb(0, 0, 0)" stroke="rgb(60, 60, 60)" stroke-width="1px" opacity="0.25"></line><line x1="82.16733328501383" y1="0" x2="82.16733328501383" y2="378.6199998855591" fill="rgb(0, 0, 0)" stroke="rgb(60, 60, 60)" stroke-width="1px" opacity="0.25"></line><line x1="164.33466657002765" y1="0" x2="164.33466657002765" y2="378.6199998855591" fill="rgb(0, 0, 0)" stroke="rgb(60, 60, 60)" stroke-width="1px" opacity="0.25"></line><line x1="246.5019998550415" y1="0" x2="246.5019998550415" y2="378.6199998855591" fill="rgb(0, 0, 0)" stroke="rgb(60, 60, 60)" stroke-width="1px" opacity="0.25"></line><line x1="328.6693331400553" y1="0" x2="328.6693331400553" y2="378.6199998855591" fill="rgb(0, 0, 0)" stroke="rgb(60, 60, 60)" stroke-width="1px" opacity="0.25"></line><line x1="410.8366664250692" y1="0" x2="410.8366664250692" y2="378.6199998855591" fill="rgb(0, 0, 0)" stroke="rgb(60, 60, 60)" stroke-width="1px" opacity="0.25"></line><line x1="493.003999710083" y1="0" x2="493.003999710083" y2="378.6199998855591" fill="rgb(0, 0, 0)" stroke="rgb(60, 60, 60)" stroke-width="1px" opacity="0.25"></line><line x1="575.1713329950969" y1="0" x2="575.1713329950969" y2="378.6199998855591" fill="rgb(0, 0, 0)" stroke="rgb(60, 60, 60)" stroke-width="1px" opacity="0.25"></line><line x1="657.3386662801106" y1="0" x2="657.3386662801106" y2="378.6199998855591" fill="rgb(0, 0, 0)" stroke="rgb(60, 60, 60)" stroke-width="1px" opacity="0.25"></line><line x1="739.5059995651245" y1="0" x2="739.5059995651245" y2="378.6199998855591" fill="rgb(0, 0, 0)" stroke="rgb(60, 60, 60)" stroke-width="1px" opacity="0.25"></line><line x1="821.6733328501384" y1="0" x2="821.6733328501384" y2="378.6199998855591" fill="rgb(0, 0, 0)" stroke="rgb(60, 60, 60)" stroke-width="1px" opacity="0.25"></line><line x1="903.8406661351521" y1="0" x2="903.8406661351521" y2="378.6199998855591" fill="rgb(0, 0, 0)" stroke="rgb(60, 60, 60)" stroke-width="1px" opacity="0.25"></line><line x1="986.007999420166" y1="0" x2="986.007999420166" y2="378.6199998855591" fill="rgb(0, 0, 0)" stroke="rgb(60, 60, 60)" stroke-width="1px" opacity="0.25"></line></g><g><line x1="0" y1="378.6199998855591" x2="986.007999420166" y2="378.6199998855591" fill="rgb(0, 0, 0)" stroke="rgb(60, 60, 60)" stroke-width="1px" opacity="0.25"></line><line x1="0" y1="353.37866655985516" x2="986.007999420166" y2="353.37866655985516" fill="rgb(0, 0, 0)" stroke="rgb(60, 60, 60)" stroke-width="1px" opacity="0.25"></line><line x1="0" y1="328.1373332341512" x2="986.007999420166" y2="328.1373332341512" fill="rgb(0, 0, 0)" stroke="rgb(60, 60, 60)" stroke-width="1px" opacity="0.25"></line><line x1="0" y1="302.89599990844727" x2="986.007999420166" y2="302.89599990844727" fill="rgb(0, 0, 0)" stroke="rgb(60, 60, 60)" stroke-width="1px" opacity="0.25"></line><line x1="0" y1="277.65466658274335" x2="986.007999420166" y2="277.65466658274335" fill="rgb(0, 0, 0)" stroke="rgb(60, 60, 60)" stroke-width="1px" opacity="0.25"></line><line x1="0" y1="252.4133332570394" x2="986.007999420166" y2="252.4133332570394" fill="rgb(0, 0, 0)" stroke="rgb(60, 60, 60)" stroke-width="1px" opacity="0.25"></line><line x1="0" y1="227.17199993133545" x2="986.007999420166" y2="227.17199993133545" fill="rgb(0, 0, 0)" stroke="rgb(60, 60, 60)" stroke-width="1px" opacity="0.25"></line><line x1="0" y1="201.9306666056315" x2="986.007999420166" y2="201.9306666056315" fill="rgb(0, 0, 0)" stroke="rgb(60, 60, 60)" stroke-width="1px" opacity="0.25"></line><line x1="0" y1="176.68933327992758" x2="986.007999420166" y2="176.68933327992758" fill="rgb(0, 0, 0)" stroke="rgb(60, 60, 60)" stroke-width="1px" opacity="0.25"></line><line x1="0" y1="151.44799995422363" x2="986.007999420166" y2="151.44799995422363" fill="rgb(0, 0, 0)" stroke="rgb(60, 60, 60)" stroke-width="1px" opacity="0.25"></line><line x1="0" y1="126.20666662851971" x2="986.007999420166" y2="126.20666662851971" fill="rgb(0, 0, 0)" stroke="rgb(60, 60, 60)" stroke-width="1px" opacity="0.25"></line><line x1="0" y1="100.9653333028158" x2="986.007999420166" y2="100.9653333028158" fill="rgb(0, 0, 0)" stroke="rgb(60, 60, 60)" stroke-width="1px" opacity="0.25"></line><line x1="0" y1="75.72399997711182" x2="986.007999420166" y2="75.72399997711182" fill="rgb(0, 0, 0)" stroke="rgb(60, 60, 60)" stroke-width="1px" opacity="0.25"></line><line x1="0" y1="50.48266665140784" x2="986.007999420166" y2="50.48266665140784" fill="rgb(0, 0, 0)" stroke="rgb(60, 60, 60)" stroke-width="1px" opacity="0.25"></line><line x1="0" y1="25.24133332570392" x2="986.007999420166" y2="25.24133332570392" fill="rgb(0, 0, 0)" stroke="rgb(60, 60, 60)" stroke-width="1px" opacity="0.25"></line><line x1="0" y1="0" x2="986.007999420166" y2="0" fill="rgb(0, 0, 0)" stroke="rgb(60, 60, 60)" stroke-width="1px" opacity="0.25"></line></g></g></g><g><g><line x1="0" y1="580.5506664911906" x2="986.007999420166" y2="580.5506664911906" fill="rgb(0, 0, 0)" stroke="rgb(153, 153, 153)" stroke-width="1.5px"></line></g></g><g><g><line x1="82.16733328501383" y1="0" x2="82.16733328501383" y2="378.6199998855591" fill="rgb(0, 0, 0)" stroke="rgb(153, 153, 153)" stroke-width="1.5px"></line></g></g><g><g><g><g><g><path style="fill: none;" stroke="rgb(255, 112, 67)" stroke-width="2px" d="M82.87397235126495,59.42859635654901L82.92327275123596,59.72365903511479L83.35054288431803,61.414085324882365L83.7285126174291,62.91821848532726L84.9281556833903,65.03592114794412L85.94703061612448,66.85320362809875L86.02919794940948,67.93210613671124L86.37430074920654,68.72317924169897L86.6701031490326,69.32219860712479L87.24527448202768,69.90925160437439L87.2781414153417,70.27114786912216L87.40960914859772,70.54030516699862L89.97322994709015,71.55146747649707L90.99210487982431,72.45143984147978L91.69874394607544,73.19147989768823L91.81377821267446,73.66721930280033L92.60258461221059,74.17823738039772L92.81621967875162,74.54351527624789L93.21062287851969,74.8768243330735L93.91726194477081,75.27856611492336L94.04872967802683,75.55863781316782L95.084038077418,76.02448048594721L95.36340701058707,76.384999566489L95.46200781052907,76.63181338990898L95.92214487692515,76.91564820756241L98.14066287562052,77.76709137548454L98.84730194187165,78.49991977571136L99.70184220803579,79.21559730050274L100.32631394100189,79.84886465855186L101.57525740693411,80.65018150307526L102.90636820615133,81.6000098844957L103.81020887228648,82.49649665047849L103.85950927225748,83.05199011991158L104.08957780545553,83.47000040920511L104.15531167208353,83.74647696841271L104.94411807161967,84.20742798970588L105.0591523382187,84.52817555485836L105.7822248711268,84.99712484435503L106.27522887083688,85.47261111653125L107.21193647028605,86.13820214306139L107.68850700333914,86.7367189512994L107.95144246985117,87.20503893687408L108.21437793636322,87.59595336052763L109.97275886866251,88.59581865578411L110.67939793491364,89.51169742443926L110.72869833488464,90.08369831532684L112.48707926718393,91.2537050365479L112.848615533638,92.13153103982512L113.02938366686503,92.74735085643391L113.68672233314514,93.44418358492078L114.17972633285522,94.11216995696094L115.64230486532847,95.27748885921852L116.62831286474864,96.51406378093503L118.12375833053589,98.10268877317804L118.32095993041992,99.17058134559579L118.84683086344401,100.12126810660385L119.3562683298111,100.99554597630856L120.09577432937623,101.97185769107728L121.44331859525045,103.4088310396682L122.21569152812958,104.77548737533044L122.49506046129862,105.78125933117195L122.52792739461263,106.40640657246001L122.61009472789765,106.8361287540896L123.02093139432272,107.37260040832012L123.03736486097971,107.70569132932178L123.23456646086375,108.04046469088269L123.31673379414876,108.29765721427191L123.79330432720184,108.7816244799148L124.03980632705688,109.24357087827053L126.30762472572326,111.17155873733338L127.21146539185843,113.01842861524165L130.94186232299805,117.19062871692302L132.10863845564526,120.72754317052318L132.15793885561627,122.89423469240123L134.1299548544566,126.02460831469162L135.26386405378977,129.00456030145355L135.4939325869878,131.02031049327906L135.5267995203018,132.26247928613955L135.5432329869588,133.02409175671576L136.49637405306498,134.44315012927368L139.37223071804047,138.35739232554803L141.64004911670685,143.29333222159147L141.67291605002086,146.29348840774094L142.49458938287097,149.06973106424465L143.66136551551818,152.15674597839606L144.51590578168233,155.07594201355985L144.86100858147938,157.26470364799437L144.9760428480784,158.72449177586827L146.7344237803777,161.34905184180204L147.19456084677378,163.32030205157116L147.65469791316985,164.89561853778767L148.509238179334,166.53498746271433L149.52811311206818,168.3087485167316L151.13859284445445,170.55103160956065L151.64803031082153,172.25349530975464L151.73019764410657,173.3322649167759L153.12704230995178,174.93000523294742L153.1599092432658,175.91131562849472L154.49102004248303,177.3632567895735L156.00289897492726,179.17114047651788L156.28226790809632,180.42478880641093L156.62737070789336,181.38444965537863L158.82945523993175,183.24570119722796L158.89518910655974,184.39950376213753L159.0266568398158,185.1661389296009L160.86720510540007,186.63662454942678L161.09727363859812,187.64225127844242L161.72174537156423,188.57503834734808L161.91894697144826,189.23827801012828L162.60915257104236,189.99513549634761L163.87452950363158,191.09238672850572L165.1727733695348,192.39137071905142L165.20564030284882,193.18666789844892L166.09304750232695,194.09075851217182L166.55318456872303,194.85232595610432L168.27869856770832,196.10756171895508L170.02064603335063,197.63603377437224L170.25071456654865,198.65331434747665L171.25315603262584,199.69665151546792L173.3730732313792,201.2099192665357L175.50942389678954,202.97903204958615L176.23249642969768,204.3251464386907L177.6293410955429,205.66734852637825L177.95801042868297,206.59666952362292L178.54961522833509,207.3754646482497L178.66464949493408,207.8854165846665L179.25625429458617,208.41073191352385L179.60135709438325,208.853271679444L180.62023202711742,209.48821425328057L180.94890136025745,209.98751780515585L182.77301615918478,210.93020779029393L182.9373508257548,211.55163996118984L184.071260025088,212.31314670064197L184.28489509162904,212.842286035836L184.38349589157104,213.19303715657534L185.53383855756124,213.78707051475507L185.9118082906723,214.2680102297392L186.96355015672046,214.89996611439167L189.32996935532887,216.0333735321826L190.217376554807,216.98882104979046L190.6939470878601,217.7078985472292L191.58135428733826,218.4091152619806L192.22225948696138,219.02240212365896L192.27155988693238,219.40504853875726L192.46876148681642,219.69353578507622L192.9781989531835,220.01716486276194L194.8187472187678,220.74704084894532L196.6592954843521,221.70667432725708L197.0865656174342,222.4023137729319L198.95998081633252,223.3354450969395L199.0914485495885,223.93122007460144L199.76522068252564,224.47028431448032L201.2770996149699,225.19435815695192L202.32884148101806,225.90355077066076L203.1176478805542,226.53335105562118L203.49561761366527,227.00907913814825L204.61309334634143,227.57713102918467L204.77742801291149,227.9595008265137L204.8267284128825,228.20114165784932L205.07323041273753,228.40811640016227L205.61553481241862,228.6671430240737L208.6064257439931,229.55581172036693L209.70746801001232,230.35247628746916L210.1676050764084,230.9397523302487L210.3319397429784,231.3306524316128L210.90711107597352,231.69939876985654L213.50359880777995,232.5148593574539L214.73610880705516,233.28012613402146L216.6095240059535,234.1510620253381L217.28329613889056,234.8197791839649L219.616848404185,235.71614186526244L219.69901573746998,236.27087728358586L219.846916937383,236.63393372316943L221.37522933648427,237.1690752111319L221.83536640288037,237.5845127594188L221.99970106945037,237.86699466399125L223.52801346855165,238.34384487587604L224.08675133488973,238.74287199363437L225.0727593343099,239.1766938275851L228.0800837325414,240.0215516504758L228.5073538656235,240.60948310545692L228.5566542655945,240.97161080524532L228.90175706539154,241.25431515184417L229.01679133199056,241.44592032052677L229.96993239809672,241.74048951248204L230.06853319803875,241.93554501385574L230.9888073308309,242.22386511831883L234.35766799551646,243.00821886650112L235.2779421283086,243.64194306401035L235.8038130613327,244.11457559070726L237.23352466049195,244.6481285009167L237.77582906017304,245.0620351742804L239.07407292607624,245.53491327094318L239.1891071926753,245.83833103418797L239.4027422592163,246.05612381451985L240.38875025863646,246.35417699172197L240.88175425834655,246.61580698812648L241.25972399145763,246.83544924579724L241.55552639128368,247.01640890509265L243.93837905654908,247.51622228600087L244.99012092259724,247.98542321325766L247.47157438780468,248.66055966965956L247.89884452088674,249.13239804525057L251.05407011903125,249.9016882973259L251.16910438563028,250.38017062931144L253.02608611787159,250.9473715808473L253.0753865178426,251.29499078559633L253.42048931763966,251.55449868436622L254.39006385040284,251.8544525441697L255.09670291665392,252.13764564452578L256.49354758249916,252.5111048035264L257.00298504886626,252.80829181166098L257.26592051537835,253.0244259607035L257.54528944854735,253.19474963401564L258.2026281148275,253.391585357648L258.9585675810496,253.61783752421658L258.9750010477066,253.75595751007012L259.3365373141607,253.89020880251073L259.91170864715576,254.05257552999706L260.3389787802378,254.21037779964524L260.48687998015083,254.32585737920132L261.341420246315,254.51403197636597L261.390720646286,254.63353246576227L261.9494585126241,254.7823787412289L262.0151923792521,254.88053537786445L262.3931621123632,254.99055831185666L262.4917629123052,255.07012942901878L262.5246298456192,255.1225420695091L263.28056931184136,255.257499302413L264.6281135777155,255.52093948784395L264.9403494441986,255.72154365747997L265.0882506441116,255.86212664875745L266.2057263767878,256.094962238055L266.23859331010186,256.2389387808413L267.22460130952203,256.45610312952857L269.83752250798545,256.9263659399931L270.7084962408066,257.3193800527316L271.0371655739466,257.597410828203L271.5466030403137,257.82958961858003L271.69450424022676,257.987326424661L271.97387317339576,258.11733510731824L272.25324210656487,258.23094763603433L273.6007863724391,258.4670126177111L273.97875610555013,258.65593866572385L274.2088246387482,258.79794961678846L275.42490117136634,259.0326722640422L277.2983163702647,259.4034994772029L278.8759291693369,259.81472037372714L278.95809650262197,260.0712165194268L279.54970130227406,260.2956355711645L280.05913876864116,260.4909292130856L281.65318503437044,260.7955493358647L282.0804551674525,261.02819861695525L282.1461890340805,261.175250509114L282.40912450059255,261.29408198517956L283.0993301001867,261.445906563035L284.15107196623484,261.65699547169936L284.20037236620584,261.7895031300472L286.0409206317902,262.0776254038259L286.91189436461127,262.34804818670375L290.41222276255286,262.89950776400735L290.87235982894896,263.2810887950014L292.6143072945913,263.69794353384134L293.7975168938955,264.07431889084L294.8163918266296,264.4074860178486L296.09820222587587,264.7410918736439L296.37757115904486,264.97057509689L296.82127475878394,265.1547528990691L297.166377558581,265.30075135384396L297.36357915846503,265.4089464395811L297.6100811583201,265.49890801158466L298.54678875776926,265.64967369784017L299.74643182373046,265.86272704876546L301.55411315600077,266.1726782680465L302.42508688882197,266.4456259908609L302.49082075544993,266.6159999844514L304.1013004878362,266.8783513998037L304.7915060874303,267.10368383611217L305.6296128869375,267.3202659537157L306.00758262004854,267.48700688635574L306.9771571528117,267.6809708052457L307.0264575527827,267.801913209923L308.57120341854096,268.0238214108629L309.12994128487907,268.21067580304964L309.70511261787414,268.378057776317L310.3460178174972,268.5396972706227L311.8578967499415,268.7791391301065L312.21943301639556,268.9560621366153L313.5669772822698,269.18649492048377L315.8840960809072,269.53642460060826L316.9687048802694,269.84408588816586L317.08373914686837,270.0391876864338L317.2316403467814,270.1695461444392L317.5110092799505,270.27320052078915L317.8068116797765,270.3619686470793L318.77638621253965,270.5017154450685L319.5980595453898,270.65769289853506L320.370432478269,270.8194031626069L321.40574087766015,271.00646827213365L322.63825087693533,271.22600110663643L322.73685167687734,271.3660497232495L323.2298556765874,271.492070109737L323.3777568765005,271.5803634771848L323.54209154307046,271.64745532508243L325.05397047551475,271.8172371122487L325.20187167542775,271.9314021679228L325.54697447522483,272.0287683572837L326.59871634127296,272.17603305022317L326.91095220775605,272.29110216973044L329.1294702064514,272.54524777956243L330.16477860584257,272.78300783830696L330.92071807206474,272.98787557956916L331.6437906049728,273.16984005365435L333.05706873747505,273.39345707984745L334.01020980358123,273.6045999589108L336.45879633547463,273.9249209452828L336.49166326878867,274.1196362838907L337.01753420181274,274.2779945209581L337.52697166817984,274.4128438275053L338.496546200943,274.5699750280285L340.8465319328944,274.846478873918L341.24093513266246,275.0428852341768L341.38883633257547,275.17194660760003L342.29267699871065,275.3180753231128L344.7741304639181,275.59271504982075L345.0041989971161,275.77475370354864L346.6804125961304,276.007562601823L347.0255153959274,276.1729472200564L349.21116646130884,276.4324686998714L350.394376060613,276.67366611430515L350.75591232706705,276.84424753191104L351.0352812602361,276.9669420464292L351.7912207264582,277.0944222876352L352.3499585927963,277.21081219829733L353.4181339255015,277.3566655563944L354.73281125806176,277.53773103598667L355.9817547239939,277.733462860642L356.573359523646,277.89209398117964L358.3974743225733,278.11377588731L358.41390778923034,278.24783457068105L358.97264565556844,278.36723755260357L359.2027141887665,278.45458392193217L359.8929197883606,278.5548661596119L362.63730872008006,278.8018824539658L363.14674618644716,278.9835523262915L363.70548405278527,279.130289534608L365.48029845174153,279.33634248781743L366.0226028514226,279.49567786691L366.3184052512487,279.6106233626499L366.3512721845627,279.68168973947957L366.74567538433075,279.750173276914L366.7621088509878,279.79229368145843L366.8114092509588,279.82056048239144L367.1236451174418,279.85797214375555L367.69881645043694,279.9181929407132L368.208253916804,279.9877758857966L368.8491591164271,280.07104505794484L369.01349378299716,280.1313671548992L370.47607231547033,280.26156643161846L370.70614084866844,280.3542736365006L371.1827113817215,280.4396413365978L371.3141791149775,280.49929678941726L371.7907496480306,280.5655267122024L373.41766284707387,280.707811434031L377.21379364484153,281.029993085538L377.6739307112376,281.2516685345636L377.8218319111506,281.3940618883877L378.2819689775467,281.5079028740215L378.85714031054175,281.61147777636523L379.0543419104258,281.6856202082057L380.106083776474,281.7937520651993L382.32460177516936,281.9924715622489L383.2120089746475,282.1643054195814L385.3976600400289,282.3974716254618L385.4140935066859,282.53818016856985L387.7147788386663,282.75685008707796L389.7032283041636,283.00375175331715L389.8182625707626,283.15858477220337L391.872445902888,283.36939892370935L393.7294276351293,283.6008895279236L394.50180056800843,283.78285353307814L394.86333683446253,283.91208873599L395.20843963425955,284.0088104363445L396.3259153669357,284.12834263103815L397.19688909975685,284.24805190959114L398.15003016586303,284.37252777984827L398.87310269877116,284.48660474130133L402.38986456336977,284.7455568156376L402.6856669631958,284.91668078443706L403.0472032296499,285.038641661174L403.1458040295919,285.1171140297031L404.9370518952052,285.26036995038464L405.1671204284032,285.3588313198674L405.34788856163027,285.4274021428156L406.43249736099244,285.52550864413564L406.53109816093445,285.58962987219655L407.5006726936976,285.67872123440446L407.9443762934367,285.7551985233408L408.3223460265478,285.82072765792714L409.47268869253793,285.9203310837902L409.834224958992,285.9992063162838L410.3765293586731,286.0751675204279L410.7709325584412,286.14112842208704L411.4282712247213,286.2149353631577L411.7240736245473,286.27439452372647L411.8226744244894,286.31520217287783L411.8719748244604,286.34228653958957L413.1209182903925,286.42206801185165L413.13735175704954,286.4706879419616L413.9097246899287,286.5390491344314L414.4191621562958,286.6058903036409L414.86286575603486,286.6685360365521L414.91216615600587,286.70861733667005L414.99433348929085,286.73675835866254L416.16110962193807,286.81261939955425L416.3418777551651,286.8670908122946L417.14711762135823,286.94000280523096L418.0838252208074,287.0303437860739L418.82333122037255,287.12135929426665L419.4971033533096,287.2093227780459L419.7107384198507,287.27269255328747L419.7271718865077,287.3114173211625L420.0887081529617,287.35203217404944L420.3516436194738,287.38925553981824L422.1757584184011,287.500203447294L422.52086121819815,287.5839499790462L423.6547704175313,287.68888950778165L423.7040708175024,287.75412562289L423.72050428415935,287.79405685392584L424.50931068369545,287.8558086502955L424.9037138834635,287.91165515454395L427.07293148218787,288.0485090160258L428.38760881474815,288.1936900025329L428.6012438812891,288.2908125511399L429.65298574733737,288.3983855594558L430.7211610800425,288.512411790883L431.0991308131536,288.59864081810474L432.4795420123418,288.71428461004916L432.5288424123128,288.7859047678649L432.6110097455978,288.8326128387088L433.71205201161706,288.9112948218045L434.0078544114431,288.9721576564738L435.2403644107183,289.064946090901L435.8812696103414,289.1497077700178L438.4777573421478,289.31770881330044L439.184396408399,289.45040966865076L440.25257174110413,289.57805865881596L440.35117254104614,289.65908693179955L440.7784426741282,289.72670152691137L441.1235454739253,289.7825511967545L441.2221462738673,289.82054802156756L443.81863400567374,289.9581310951602L447.7462325366974,290.2100997548773L447.9598676032384,290.37066903511635L448.51860546957647,290.4907744928197L448.91300866934455,290.5796978041594L449.14307720254266,290.6428250275529L449.6032142689387,290.70042115324964L451.476629467837,290.8145416404316L452.05180080083215,290.90758664188047L452.6598390671412,290.9886796258151L454.1552845329285,291.09970118306376L456.29163519833884,291.2550820662997L457.5241451976141,291.3989869944396L459.0031571967443,291.5462417687287L459.0524575967153,291.63666482627434L461.46817719529474,291.7904516131439L461.5339110619227,291.8853523489L462.2405501281738,291.971063658265L462.4213182614008,292.0296927896662L462.5856529279709,292.07165857569487L463.144390794309,292.119292419457L463.308725460879,292.15436253996194L463.7359955939611,292.19212984571936L464.47550159352625,292.24435065905584L464.85347132663725,292.2908966582022L465.6915781261444,292.35208214850843L466.0859813259125,292.404603939717L466.3982171923955,292.4485766874934L467.17059012527466,292.50553179051605L469.02757185751597,292.612671932996L469.8328117237091,292.70817260274384L471.1639225229263,292.81673675986667L471.3446906561533,292.88890428144134L471.67335998929343,292.94477038428715L472.87300305525457,293.0245853381356L473.80971065470374,293.1082453192432L475.5680915870031,293.22518818085314L477.8852103856405,293.3829567613587L478.5261155852636,293.50173806498924L479.00268611831666,293.5912534317364L480.4323977174759,293.69802699350447L481.221204117012,293.79137232511624L481.254071050326,293.848573495844L481.8785427832922,293.9058492682607L482.2565125164032,293.9542342710945L483.4232886490504,294.0265371203158L485.74040744768774,294.15447899115935L486.792149313736,294.26897939858657L488.40262904612223,294.39573170550494L488.5340967793783,294.47648194626265L491.0319837112427,294.61512510267323L491.39351997769677,294.7110017608794L491.93582437737786,294.7878912816965L493.151900909996,294.8771235232264L493.79280610961916,294.953223157139L495.20608424212134,295.04843276555596L496.40572730808253,295.14718385255395L496.8165639745077,295.22064662022694L497.03019904104866,295.2718592249815L497.17810024096167,295.3077767134714L498.476344106865,295.37432261009593L499.445918639628,295.4476909861749L501.31933383852635,295.5558109635241L501.5658358383815,295.6291177826947L502.8640797042847,295.71691293477147L504.29379130344387,295.8176185029723L505.75636983591716,295.92771684642105L506.3644081022262,296.0143140925353L506.93957943522133,296.08517378348023L508.15565596783955,296.1682172362796L510.19340583330785,296.2860708119059L510.538508633105,296.36815457542195L510.686409833018,296.42243106949195L510.94934529953,296.4638362084851L511.9846536989212,296.5229770935876L512.0010871655782,296.55899120889785L512.2311556987762,296.5884182673558L514.2524720975875,296.67146371393824L514.4332402308147,296.727145295037L516.0765868965149,296.81363784302505L517.177629162534,296.90145844148884L520.4643224939347,297.05894108017816L522.551372759374,297.21834806347795L522.567806226031,297.3144544360749L523.044376759084,297.3871295658827L523.077243692398,297.4317071530239L524.7041568914414,297.5092167627478L527.1691768899917,297.63202117561315L528.2209187560399,297.7380758641347L528.319519555982,297.8047802658901L528.418120355924,297.84791301080384L528.483854222552,297.8758147067017L528.500287689209,297.89306605088007L530.3901363547643,297.96139188941305L531.2939770208995,298.02961765172057L533.2659930197399,298.13025169714035L534.1862671525319,298.21826679336993L535.7967468849182,298.31980723079266L535.9610815514882,298.385449607462L536.0761158180873,298.42817622863265L536.3719182179134,298.46284401997656L537.3086258173626,298.51081718114347L538.0316983502705,298.5611118271454L539.4449764827729,298.63307762637135L540.94042194856,298.7203859170304L540.973288881874,298.77369525665995L541.4991598148982,298.82125063734946L541.7949622147243,298.8582572137424L546.445633278656,299.014956301139L546.8729034117381,299.1210117592293L547.5959759446462,299.2053469638054L548.4998166107814,299.281502933752L549.5186915435155,299.3559384972176L549.7323266100566,299.4068296718226L551.2442055425008,299.4802799583394L551.7207760755539,299.53772453973033L552.361681275177,299.5901490089981L556.9630519391377,299.7499267684211L558.2612958050411,299.8815933192871L558.688565938123,299.97226336088715L559.0501022045771,300.03655416809113L559.3623380710602,300.08365014441534L559.7731747374852,300.123221575523L560.0361102039973,300.15430158323323L560.2333118038814,300.1785535520911L560.9399508701324,300.21231419842684L562.0574266028086,300.2634116471117L563.0763015355427,300.3221477103083L566.4944626001994,300.44927702977805L566.6094968667984,300.52868398292946L566.7573980667114,300.5802952222833L567.5790713995616,300.6331674961828L567.6283717995326,300.6663159235917L567.9734745993296,300.6952560562876L568.4829120656967,300.7260715758221L568.7951479321797,300.7529090610633L571.0300993975322,300.8280938967539L572.3612101967494,300.90795515368757L572.3776436634064,300.95630520405126L572.9363815297444,300.9995466073527L575.1877664617539,301.083899777563L575.2699337950389,301.1366781607066L575.6972039281209,301.1792835125296L576.4531433943431,301.2242969087574L576.6996453941981,301.2578236471554L578.0471896600724,301.3123915527733L578.7538287263234,301.3634366535401L579.1810988594056,301.40488649028265L579.8548709923426,301.44731933177604L580.5615100585937,301.49074638590974L582.7307276573181,301.57186012264583L582.845761923917,301.62339774843497L582.9114957905451,301.65589944785006L584.5877093895594,301.71771906337256L585.2450480558396,301.77152643733587L586.7897939215977,301.8424993982826L587.0198624547959,301.89045604777385L587.3156648546219,301.92649015607805L592.4757733849208,302.07558636412506L593.3467471177419,302.1863237469465L595.3023296499252,302.30034209978174L598.2932205814998,302.4401314394032L598.9012588478089,302.5385637956131L600.446004713567,302.63429932576264L603.0589259120305,302.7540390091086L603.4861960451126,302.83600269266867L604.1435347113927,302.90050033079893L604.8994741776149,302.95682925475654L605.96764951032,303.0158251905647L606.0826837769191,303.0539188173158L606.214151510175,303.0799139836405L607.0029579097112,303.11417170659865L607.1508591096242,303.13800976271546L608.1204336423874,303.17485362777114L608.3340687089284,303.2019476675469L610.7169213741938,303.2737334070897L610.9141229740779,303.3213303889407L611.456427373759,303.36259860002L612.1466329733531,303.403362599783L613.2148083060582,303.45275960335226L614.4308848386764,303.51015764893026L615.2032577715556,303.56170686191234L616.2714331042607,303.6171320684052L616.7480036373138,303.66126774141054L616.9616387038549,303.69249614584305L618.095547903188,303.73700949820744L618.144848303159,303.764805564537L618.8514873694103,303.79725518614157L619.6567272356033,303.834894513237L620.5770013683955,303.87820892562974L622.74621896712,303.95229345165194L622.8776867003759,303.99953652057656L622.992720966975,304.0303088206708L624.5210333660762,304.08249227416286L624.7182349659603,304.1182412251426L625.0469042991002,304.14709514640776L626.9203194979985,304.2052240015349L626.9860533646266,304.2415167488758L627.4297569643657,304.2731908083289L627.4626238976796,304.29285963151267L628.9416358968099,304.33674410208977L630.0919785628001,304.38857185880977L630.5356821625392,304.42903733964147L630.6507164291381,304.45589714775235L631.1108534955342,304.4821425349759L633.3458049608867,304.54572566817444L634.8576838933309,304.6163631345502L634.97271815993,304.66122021713784L636.4517301590602,304.7199191504169L636.5996313589732,304.75828712946304L636.7968329588573,304.7852653555492L637.1090688253403,304.80823096958426L637.3884377585093,304.8277009614776L638.2758449579875,304.8580917237996L638.4730465578715,304.88045693833266L638.8838832242966,304.90246496068596L639.4919214906056,304.92844719769846L640.4450625567118,304.96429554461986L641.201002022934,305.0017787394744L641.5132378894169,305.03078735704844L641.6282721560161,305.05071527437747L642.3842116222381,305.0783766049501L643.2387518884022,305.1130177829675L643.2880522883733,305.1347942566438L643.8632236213684,305.15993466171983L645.9995742867787,305.2193402919795L646.854114552943,305.27269104165094L646.8705480195999,305.3050096131985L647.215650819397,305.3314105258189L648.1194914855321,305.36567097644144L649.5492030846913,305.41525809244825L649.5656365513485,305.4453955142332L650.1901082843144,305.4760435572052L650.7652796173096,305.5061024940688L650.9131808172226,305.52724796004753L653.263166549174,305.587896314958L653.7890374821981,305.6349925585326L655.3502168146133,305.69433208567375L657.8481037464778,305.7802848208031L658.6533436126709,305.8480521110865L659.244948412323,305.9004692555776L660.2638233450572,305.95209188774555L661.5292002776464,306.0083314501116L661.5785006776174,306.043066954397L662.8274441435497,306.08908758079275L663.1725469433467,306.12362306708144L663.3040146766026,306.1470211665117L663.5176497431438,306.1653544729867L663.5505166764577,306.1770766172107L663.6491174763997,306.1859393766043L665.259597208786,306.2226758213952L665.2924641421,306.2453531893682L666.7221757412593,306.28694091609236L666.7714761412303,306.31296234942886L667.2151797409693,306.33706781501894L670.0253025393168,306.40603012796663L670.1403368059158,306.44964139838424L671.224945605278,306.4967122952517L671.307112938563,306.52656284372733L673.0161934708913,306.57699927448743L673.2955624040603,306.61253771782145L674.3966046700795,306.65464937278455L674.7252740032196,306.68623286152865L676.483654935519,306.7384408455936L677.338195201683,306.7859709140427L677.5846972015381,306.81921669813244L677.8311992013931,306.843901540411L678.0941346679051,306.8636327648888L678.3077697344462,306.87934227899325L678.8829410674413,306.89956187732486L679.1951769339244,306.9174998054506L679.3102112005233,306.93044830095243L683.139208931605,307.01002902237735L684.1252169310252,307.07606255501923L684.6182209307353,307.12500335738156L684.9304567972183,307.1602221519481L686.3930353296917,307.2085836878759L687.0339405293147,307.24905888681343L687.0996743959427,307.27451872032765L687.2475755958557,307.292355882439L687.3461763957978,307.3049646830011L687.7570130622228,307.3200885748881L688.6937206616719,307.34596517391077L691.0930067935943,307.40546588357563L692.9992889258067,307.47571445999887L693.5415933254878,307.5276272136379L695.3328411911011,307.59099284575143L695.4314419910431,307.63080318266054L695.5793431909561,307.65742396529026L697.6992603897095,307.71110283337555L698.2579982560476,307.75301598918475L702.4649657202403,307.8529026633687L702.7772015867233,307.91821716960675L703.4838406529744,307.9695863110697L704.6177498523076,308.02037793652573L708.1509451835632,308.11254466237074L709.8107253159205,308.19669259622515L710.7145659820557,308.26266447420886L710.9610679819107,308.30667685107915L712.0949771812438,308.35267889440325L712.653715047582,308.39018816025066L713.8697915802002,308.4339444913388L714.1327270467121,308.4646564264853L714.3134951799393,308.4862033202383L714.8722330462773,308.50869285938023L716.1869103788376,308.5442750604384L717.1893518449148,308.582869569972L717.2057853115718,308.60632476863225L718.158926377678,308.63643947616185L718.487595710818,308.6601604089339L719.1942347770691,308.68623639815894L719.2764021103542,308.70327816834964L720.4596117096584,308.7332904237565L722.7767305082957,308.7898996543285L723.1547002414068,308.83023946126525L723.1711337080638,308.854770724781L725.4060851734162,308.90611745529145L726.9836979724884,308.9629714098293L727.9532725052516,309.0134238638256L728.1340406384786,309.04664175040705L732.8011451690674,309.1426496668829L733.4749173020045,309.2115201180589L734.6252599679947,309.2715222695369L735.0853970343908,309.31496662631906L735.9235038338978,309.35431136182393L737.5175500996272,309.40377154326796L738.0269875659943,309.4416995376096L738.1091548992794,309.4657273364114L738.3885238324483,309.48440957609574L739.2266306319555,309.50921479189117L739.8511023649215,309.53409262046205L743.2035295629502,309.6028635924907L744.3867391622543,309.6630371477887L746.1122531612397,309.72633302493716L747.5419647603989,309.7865723472807L747.7391663602829,309.8258260445474L748.265037293307,309.8574472010967L748.725174359703,309.8835644679815L750.1548859588623,309.92133293448995L750.3192206254323,309.9466034204204L750.4178214253743,309.96326780548407L750.4835552920024,309.9742293169745L750.9929927583695,309.9886440707496L751.0258596916835,309.99779362084973L751.2559282248815,310.0068556373874L751.3545290248235,310.0139297440787L752.5541720907847,310.0368637176703L756.6132383550644,310.1130572703449L758.0593834208806,310.1812662893126L758.4866535539627,310.22865262852736L759.965665553093,310.2796158346373L760.409369152832,310.3171168687545L761.5597118188222,310.3569685949731L762.6771875514984,310.3981922212346L762.9401230180105,310.4270667829358L764.0247318173726,310.46101083656123L764.8135382169087,310.49345178960687L765.0764736834209,310.51685454248366L765.5530442164738,310.5379348503152L765.963880882899,310.55674546990804L766.276116749382,310.572518864571L768.6425359479904,310.6176287357086L768.7740036812464,310.6467841089723L769.8257455472947,310.67989525386497L770.2694491470337,310.7061554670031L772.487967145729,310.7547843335235L772.603001412328,310.7856948382497L772.8988038121541,310.80852595909755L774.5914508778254,310.8467010527008L774.9858540775936,310.8753063611397L775.1501887441635,310.8950500658148L775.3802572773616,310.91019896857097L776.3991322100957,310.9340492675566L777.960311542511,310.97077530387475L779.0449203418732,311.00879474117187L779.7844263414383,311.0423136341784L780.0802287412644,311.06669053038553L780.2445634078343,311.08381052848097L780.5896662076314,311.0989547024263L782.3809140732448,311.1342315550928L783.5312567392349,311.17183403601155L785.1417364716212,311.21751428421965L787.0644520704906,311.2726533901674L787.6889238034565,311.31447017943736L788.2312282031377,311.347340327053L788.5105971363067,311.3709620814537L789.1515023359299,311.3939262326225L793.1284012669246,311.4644376395664L793.3913367334366,311.51055749032344L795.757755932045,311.57158357964124L796.612296198209,311.62011969323L797.3353687311172,311.65919754525873L797.9105400641124,311.6906457930337L798.4035440638224,311.7162837912775L798.7979472635906,311.7369142886881L799.1923504633586,311.7547328616894L799.3238181966145,311.7671283038905L799.5045863298416,311.7770594295823L799.5210197964985,311.7833069691331L800.5070277959187,311.8005839632167L800.9507313956578,311.81711259456085L801.0164652622859,311.8279059945788L801.2629672621409,311.8377328585632L801.690237395223,311.84945440368955L801.87100552845,311.85896193352744L802.0517736616771,311.86719882701937L802.5940780613581,311.87984400673207L803.9909227272034,311.906534662731L804.8618964600246,311.9345850619826L804.9276303266525,311.9522915227451L805.1412653931935,311.965765525341L806.4559427257537,311.9916535864594L806.5216765923817,312.008062644342L806.9653801921208,312.0239934835293L807.1132813920339,312.03564143762287L808.542992991193,312.06244628978504L808.6580272577922,312.08013721143743L809.3810997907002,312.1004672281914L810.2520735235214,312.12453755421916L810.8272448565166,312.1469138847619L810.8929787231446,312.16121590429896L811.8954201892217,312.18337373039697L813.489466454951,312.21821769057567L814.113938187917,312.2475685282485L814.8698776541393,312.27565517017194L814.8863111207962,312.29274787543903L814.9356115207672,312.3036486285023L815.8558856535594,312.32245617730104L817.2362968527476,312.3519776623446L817.6307000525157,312.37489973661707L818.4359399187088,312.39928318137265L818.6660084519069,312.41708112491375L821.0981615171432,312.45966012041913L821.5911655168534,312.4918128776244L822.5607400496166,312.5239300995706L823.3988468491236,312.55398469380276L826.7841409804662,312.6160403446159L826.9320421803792,312.65507432154936L827.7701489798864,312.6893078551874L827.8030159132004,312.71027164276927L830.0215339118957,312.75143783594365L830.6131387115479,312.7838983682929L831.336211244456,312.8128012873293L832.3057857772191,312.84267974223854L832.5029873771032,312.86310067555524L834.3599691093444,312.8990112082554L835.4774448420208,312.9349140754176L836.0526161750157,312.96363888388817L838.5176361735662,313.01223478529806L838.6655373734792,313.0434914055298L839.1092409732182,313.0676856522237L839.6022449729284,313.088364635134L840.1609828392665,313.1078395673992L840.9004888388316,313.12872966388113L841.0319565720876,313.14297764897526L841.4920936384838,313.15733260915835L843.3490753707249,313.1896420731964L843.6120108372371,313.21232080276576L844.6308857699712,313.23881138095754L844.9102547031403,313.258181726305L846.3235328356425,313.28732835774326L846.4714340355556,313.30661692305176L848.9200205674489,313.34818378832233L849.560925767072,313.38092323914736L850.4154660332363,313.41083121526265L855.148304430453,313.48679917698036L855.4934072302501,313.5366166280006L857.8105260288875,313.5945172909668L858.5171650951386,313.6379717568387L859.3881388279598,313.67454946209523L859.5031730945587,313.69782486027304L859.8318424276988,313.7158919699061L860.2591125607807,313.7318355020825L861.7381245599111,313.7591956521447L862.5926648260753,313.78610713911075L863.5786728254955,313.8142707793337L863.6937070920944,313.83257476892766L864.1702776251475,313.84933444539706L865.0412513579686,313.8702611715839L865.1069852245967,313.88363565568034L865.3206202911377,313.89416383531386L865.5506888243358,313.90319606596915L865.9450920241038,313.91351646586395L866.1422936239878,313.9220099900815L866.6681645570119,313.93323965309247L866.783198823611,313.94124845309597L867.0132673568089,313.94871128314605L868.8702490890503,313.9754315196215L869.0510172222773,313.99368791535136L869.1496180222193,314.0058453533545L869.8233901551564,314.0211991255411L869.8891240217845,314.03116243560584L870.1191925549824,314.03986537332435L870.4971622880936,314.04958378766713L872.2391097537359,314.07599159153597L872.945748819987,314.1000785305279L873.6688213528951,314.1229944130978L873.9646237527211,314.1400947666133L874.2275592192333,314.1534265673651L874.7205632189433,314.16719330172475L875.8544724182765,314.1885485164902L877.9086557504017,314.22529885339077L878.6481617499669,314.25584166111935L879.2562000162761,314.28140820675696L879.2726334829331,314.29689256620725L879.4369681495031,314.3081185715864L879.5684358827591,314.31643329875544L879.9792725491841,314.3259861884002L881.3432502817154,314.34769210888874L881.4254176150005,314.3616303976115L881.6719196148555,314.373016815465L884.8600121463139,314.4167173586912L887.1278305449804,314.46894508564037L890.611725476265,314.5399620252443L891.8935358755111,314.5970827974211L892.7809430749893,314.64157142232483L893.1917797414144,314.67292493865557L895.2623965401967,314.7152602179009L896.5935073394139,314.7555571460434L897.3987472056072,314.78893081124716L897.5959488054912,314.81107334736424L897.9081846719741,314.8277963522488L898.8777592047373,314.8486818178757L900.7840413369496,314.8817898525149L902.082285202853,314.91610750888566L902.772490802447,314.94432411588946L903.9557004017512,314.9745322015273L904.7773737346013,315.00169850035604L905.3854120009105,315.0247962156457L906.3056861337026,315.048591771086L906.5686216002147,315.0657577457067L907.0616255999248,315.08137243057524L907.8175650661468,315.0993108775208L908.261268665886,315.1149750071897L910.1346838647843,315.14506578590846L911.5808289306004,315.1791136974505L912.6983046632766,315.2117902837274L913.1913086629868,315.23691354048464L913.8815142625808,315.2596905381564L914.1937501290639,315.27677496236475L914.226617062378,315.2874107690706L914.32521786232,315.2948706792006L917.3161087938945,315.3318342117352L919.945463459015,315.38251359264063L920.537068258667,315.4192184593411L922.4269169242223,315.46165444494767L922.4926507908503,315.4878093102372L924.0209631899517,315.5196786210076L924.2838986564636,315.54140961349526" fill="none"></path></g></g></g></g><g opacity="0.2"><g><g><g><path style="fill: none;" stroke="rgb(255, 112, 67)" stroke-width="2px" d="M82.87397235126495,59.42859635654895L82.92327275123596,59.90069664225422L83.35054288431803,63.03689456305921L83.7285126174291,64.68707908201031L84.9281556833903,67.8007937442568L85.94703061612448,69.36715951984536L86.02919794940948,69.47495398646726L86.37430074920654,69.87657142307279L86.6701031490326,70.20563581760632L87.24527448202768,70.78095688778558L87.2781414153417,70.81070989375803L87.40960914859772,70.94257637168448L89.97322994709015,73.06490932036348L90.99210487982431,73.7996352494016L91.69874394607544,74.30067009269504L91.81377821267446,74.38049288218099L92.60258461221059,74.94454825106976L92.81621967875162,75.09133937600501L93.21062287851969,75.37673714203203L93.91726194477081,75.88114206690807L94.04872967802683,75.97873000073679L95.084038077418,76.72322916636466L95.36340701058707,76.9257710694813L95.46200781052907,77.00203120129419L95.92214487692515,77.3413984166661L98.14066287562052,79.04425249635159L98.84730194187165,79.5991605009446L99.70184220803579,80.28911248895622L100.32631394100189,80.79876511229668L101.57525740693411,81.85215632698481L102.90636820615133,83.02475214165315L103.81020887228648,83.84122662108166L103.85950927225748,83.8852302577464L104.08957780545553,84.09701581320405L104.15531167208353,84.161191795342L104.94411807161967,84.89885450975936L105.0591523382187,85.00929689762478L105.7822248711268,85.7005487742469L106.27522887083688,86.18584052214709L107.21193647028605,87.13658868063249L107.68850700333914,87.63449416245629L107.95144246985117,87.90751891467272L108.21437793636322,88.18232499572571L109.97275886866251,90.09561659823584L110.67939793491364,90.8855155771841L110.72869833488464,90.94169965156891L112.48707926718393,93.00871511827L112.848615533638,93.44827004469153L113.02938366686503,93.67108058132663L113.68672233314514,94.4894326776369L114.17972633285522,95.1141495150132L115.64230486532847,97.02546721259631L116.62831286474864,98.36892616350451L118.12375833053589,100.48562626153819L118.32095993041992,100.77242020422091L118.84683086344401,101.54729824811511L119.3562683298111,102.30696278086486L120.09577432937623,103.43632526323017L121.44331859525045,105.56429106255445L122.21569152812958,106.82547187882358L122.49506046129862,107.28991726493405L122.52792739461263,107.34412743439191L122.61009472789765,107.48071202653409L123.02093139432272,108.17730788966583L123.03736486097971,108.20532771082435L123.23456646086375,108.54262473322405L123.31673379414876,108.6834459993558L123.79330432720184,109.5075753783791L124.03980632705688,109.93649047580402L126.30762472572326,114.06354052592786L127.21146539185843,115.78873343210398L130.94186232299805,123.44892886944521L132.10863845564526,126.03291485092328L132.15793885561627,126.14427197521823L134.1299548544566,130.72016874812715L135.26386405378977,133.4744882815964L135.4939325869878,134.04393578101735L135.5267995203018,134.1257324754303L135.5432329869588,134.16651046258025L136.49637405306498,136.57173768811055L139.37223071804047,144.2287556199596L141.64004911670685,150.69724206565658L141.67291605002086,150.79372268696534L142.49458938287097,153.23409504900036L143.66136551551818,156.78726834962316L144.51590578168233,159.45473606630551L144.86100858147938,160.54784609964614L144.9760428480784,160.91417396767912L146.7344237803777,165.28589194070264L147.19456084677378,166.27717736622498L147.65469791316985,167.25859326711242L148.509238179334,168.99404085010428L149.52811311206818,170.96939009775755L151.13859284445445,173.9144562488042L151.64803031082153,174.80719086004564L151.73019764410657,174.95041932730783L153.12704230995178,177.32661570720484L153.1599092432658,177.38328122181582L154.49102004248303,179.54116853119163L156.00289897492726,181.8829660069344L156.28226790809632,182.30526130125054L156.62737070789336,182.82394092883015L158.82945523993175,186.03757851000196L158.89518910655974,186.13020760950195L159.0266568398158,186.3160916807959L160.86720510540007,188.8423529791656L161.09727363859812,189.1506913719659L161.72174537156423,189.97421895070661L161.91894697144826,190.2331375042986L162.60915257104236,191.13042172567657L163.87452950363158,192.73826357674292L165.1727733695348,194.33984670487007L165.20564030284882,194.37961366754524L166.09304750232695,195.4468944327561L166.55318456872303,195.99467712200294L168.27869856770832,197.9904153632312L170.02064603335063,199.928741857498L170.25071456654865,200.1792352071334L171.25315603262584,201.2616572674548L173.3730732313792,203.4798208931373L175.50942389678954,205.6327012241618L176.23249642969768,206.34431802234758L177.6293410955429,207.68065165790966L177.95801042868297,207.99065101948995L178.54961522833509,208.5436573351899L178.66464949493408,208.65034448929177L179.25625429458617,209.19870490680995L179.60135709438325,209.5170813283242L180.62023202711742,210.44062811403546L180.94890136025745,210.73647313296868L182.77301615918478,212.3442427680011L182.9373508257548,212.4837882175337L184.071260025088,213.4554068098202L184.28489509162904,213.63599503862707L184.38349589157104,213.7191638376844L185.53383855756124,214.67812055202467L185.9118082906723,214.9894198022154L186.96355015672046,215.84789994137037L189.32996935532887,217.73348465886892L190.217376554807,218.4219923262023L190.6939470878601,218.78651479338745L191.58135428733826,219.46094033410765L192.22225948696138,219.94233241617653L192.27155988693238,219.97901816140467L192.46876148681642,220.12626665455477L192.9781989531835,220.50260847929047L194.8187472187678,221.8418548282204L196.6592954843521,223.14612454472473L197.0865656174342,223.4457729414441L198.95998081633252,224.73514208295092L199.0914485495885,224.82488254109435L199.76522068252564,225.27888067429862L201.2770996149699,226.28046892065927L202.32884148101806,226.96733969122397L203.1176478805542,227.4780514830618L203.49561761366527,227.72267126193887L204.61309334634143,228.42920886573938L204.77742801291149,228.5330555225073L204.8267284128825,228.56360290485281L205.07323041273753,228.71857851363166L205.61553481241862,229.0556829599409L208.6064257439931,230.88881476480674L209.70746801001232,231.54747313812246L210.1676050764084,231.82066639441808L210.3319397429784,231.91700258365896L210.90711107597352,232.25251827722212L213.50359880777995,233.7380502388499L214.73610880705516,234.4280262988729L216.6095240059535,235.45746586231297L217.28329613889056,235.82285492190505L219.616848404185,237.06068588720882L219.69901573746998,237.10298041107097L219.846916937383,237.1785183825447L221.37522933648427,237.9717874430756L221.83536640288037,238.2076690818491L221.99970106945037,238.29071752084988L223.52801346855165,239.05912019370317L224.08675133488973,239.3414126702719L225.0727593343099,239.82742657851122L228.0800837325414,241.28883838481184L228.5073538656235,241.49138028792854L228.5566542655945,241.51480235492787L228.90175706539154,241.67837167174244L229.01679133199056,241.73332807355078L229.96993239809672,242.182343300415L230.06853319803875,242.22812826591627L230.9888073308309,242.65634527501334L234.35766799551646,244.18474948877457L235.2779421283086,244.59252936027406L235.8038130613327,244.82352438075276L237.23352466049195,245.44845786623077L237.77582906017304,245.68289518432601L239.07407292607624,246.24423041593732L239.1891071926753,246.29345767905517L239.4027422592163,246.38281298501775L240.38875025863646,246.80125675752515L240.88175425834655,247.00825198273319L241.25972399145763,247.16491263230333L241.55552639128368,247.2878483940358L243.93837905654908,248.2659423573632L244.99012092259724,248.6892246041428L247.47157438780468,249.67326435426247L247.89884452088674,249.84015560863705L251.05407011903125,251.05562367543885L251.16910438563028,251.0978941272897L253.02608611787159,251.79817300815102L253.0753865178426,251.81641959271988L253.42048931763966,251.94376053252108L254.39006385040284,252.3043833338749L255.09670291665392,252.5624352950599L256.49354758249916,253.07129354202726L257.00298504886626,253.25407232386289L257.26592051537835,253.3486271842673L257.54528944854735,253.45023514398386L258.2026281148275,253.68683894309652L258.9585675810496,253.95721577406948L258.9750010477066,253.9631374888504L259.3365373141607,254.0915857411716L259.91170864715576,254.29612562122657L260.3389787802378,254.44708120411752L260.48687998015083,254.4990767485354L261.341420246315,254.79629387211298L261.390720646286,254.8127831998566L261.9494585126241,255.00564815442885L262.0151923792521,255.02777033281774L262.3931621123632,255.15559271284502L262.4917629123052,255.1894861047619L262.5246298456192,255.2011610302446L263.28056931184136,255.45993515176878L264.6281135777155,255.91609976599042L264.9403494441986,256.022449911934L265.0882506441116,256.0730011356736L266.2057263767878,256.4442156220014L266.23859331010186,256.4549035950207L267.22460130952203,256.7818496525594L269.83752250798545,257.63176015568996L270.7084962408066,257.9089012218395L271.0371655739466,258.01445699141004L271.5466030403137,258.17785780414545L271.69450424022676,258.22393163378246L271.97387317339576,258.31234813130413L272.25324210656487,258.4013664291084L273.6007863724391,258.8211100902263L273.97875610555013,258.93932773774304L274.2088246387482,259.01096604338545L275.42490117136634,259.38475623492286L277.2983163702647,259.9597402969439L278.8759291693369,260.4315517185135L278.95809650262197,260.4559607379764L279.54970130227406,260.63226414877107L280.05913876864116,260.78386967596725L281.65318503437044,261.2524795200334L282.0804551674525,261.3771725385911L282.1461890340805,261.3958283473521L282.40912450059255,261.472329199278L283.0993301001867,261.6736434298182L284.15107196623484,261.9736288346958L284.20037236620584,261.988264617569L286.0409206317902,262.5098088144938L286.91189436461127,262.7536823610205L290.41222276255286,263.72669712996264L290.87235982894896,263.8534603414925L292.6143072945913,264.32322564210125L293.7975168938955,264.6388819263381L294.8163918266296,264.9072367083615L296.09820222587587,265.24150065733676L296.37757115904486,265.3147999317592L296.82127475878394,265.4310196023377L297.166377558581,265.5197490360064L297.36357915846503,265.5712390681868L297.6100811583201,265.63385036959005L298.54678875776926,265.8758222272236L299.74643182373046,266.1823070751534L301.55411315600077,266.63760509696806L302.42508688882197,266.85504757508227L302.49082075544993,266.8715609748372L304.1013004878362,267.2718785228323L304.7915060874303,267.44168249057475L305.6296128869375,267.64513913012104L306.00758262004854,267.7371182853158L306.9771571528117,267.9719166835806L307.0264575527827,267.9833268169389L308.57120341854096,268.35668371227285L309.12994128487907,268.4909573913298L309.70511261787414,268.62913073621803L310.3460178174972,268.7821565120812L311.8578967499415,269.1383019193324L312.21943301639556,269.22144664637835L313.5669772822698,269.5321440962865L315.8840960809072,270.0613191207949L316.9687048802694,270.30557781950245L317.08373914686837,270.3318403838357L317.2316403467814,270.36508383144735L317.5110092799505,270.428682085314L317.8068116797765,270.4951208365146L318.77638621253965,270.7113356420523L319.5980595453898,270.89165907873485L320.370432478269,271.06196855871474L321.40574087766015,271.28706593642374L322.63825087693533,271.55530035839064L322.73685167687734,271.5761226481691L323.2298556765874,271.68110068946834L323.3777568765005,271.71280352835646L323.54209154307046,271.748093096929L325.05397047551475,272.0719097929981L325.20187167542775,272.102649751434L325.54697447522483,272.17481764132515L326.59871634127296,272.3969300896324L326.91095220775605,272.46370584899125L329.1294702064514,272.9264661943104L330.16477860584257,273.13964792642366L330.92071807206474,273.2951771914625L331.6437906049728,273.44278676478217L333.05706873747505,273.72888261913704L334.01020980358123,273.92131427750576L336.45879633547463,274.40540242484076L336.49166326878867,274.4117092918026L337.01753420181274,274.5155318765592L337.52697166817984,274.6151177873262L338.496546200943,274.80567182881316L340.8465319328944,275.26123464275224L341.24093513266246,275.33749477456513L341.38883633257547,275.36553866773494L342.29267699871065,275.5372683963818L344.7741304639181,276.0046746398827L345.0041989971161,276.04781168414047L346.6804125961304,276.35677594923465L347.0255153959274,276.42102414740657L349.21116646130884,276.8217509195938L350.394376060613,277.0354622359558L350.75591232706705,277.1001196583199L351.0352812602361,277.15098381820644L351.7912207264582,277.28564264944424L352.3499585927963,277.3853970642904L353.4181339255015,277.57544559353994L354.73281125806176,277.8093292553752L355.9817547239939,278.02706059762505L356.573359523646,278.130040661986L358.3974743225733,278.44629874650553L358.41390778923034,278.4489225957377L358.97264565556844,278.5463420254873L359.2027141887665,278.5856034759251L359.8929197883606,278.7052895161314L362.63730872008006,279.17240689549664L363.14674618644716,279.25605713478006L363.70548405278527,279.35039534708267L365.48029845174153,279.6454219176315L366.0226028514226,279.73468093554885L366.3184052512487,279.78304160625976L366.3512721845627,279.7882893047242L366.74567538433075,279.85289858306567L366.7621088509878,279.8554742882752L366.8114092509588,279.8629606837909L367.1236451174418,279.9140896358019L367.69881645043694,280.00852413614973L368.208253916804,280.09215030342176L368.8491591164271,280.1959488161671L369.01349378299716,280.22185030033086L370.47607231547033,280.4568653466973L370.70614084866844,280.49333444382376L371.1827113817215,280.5676928867436L371.3141791149775,280.58877996864646L371.7907496480306,280.6648715963802L373.41766284707387,280.9212385167739L377.21379364484153,281.51326556279855L377.6739307112376,281.5841817081018L377.8218319111506,281.6076519191238L378.2819689775467,281.67866435247225L378.85714031054175,281.7668401298809L379.0543419104258,281.7968338559664L380.106083776474,281.95594985068965L382.32460177516936,282.29055080782325L383.2120089746475,282.4220562055801L385.3976600400289,282.74722093428227L385.4140935066859,282.74924298323185L387.7147788386663,283.08485496484025L389.7032283041636,283.3741042526759L389.8182625707626,283.3908343005326L391.872445902888,283.6856201509684L393.7294276351293,283.9481254342448L394.50180056800843,284.0557995408102L394.86333683446253,284.1059415403576L395.20843963425955,284.1538929868763L396.3259153669357,284.30764092307857L397.19688909975685,284.4276158274206L398.15003016586303,284.559241585234L398.87310269877116,284.65772018348105L402.38986456336977,285.133984927142L402.6856669631958,285.17336673763623L403.0472032296499,285.22158297627936L403.1458040295919,285.23482258249686L404.9370518952052,285.4752538314069L405.1671204284032,285.50652337409156L405.34788856163027,285.53025837723783L406.43249736099244,285.67266839611574L406.53109816093445,285.68581171428804L407.5006726936976,285.81235827771616L407.9443762934367,285.8699144567454L408.3223460265478,285.9190213598067L409.47268869253793,286.06973622258465L409.834224958992,286.11751916502425L410.3765293586731,286.18910932664403L410.7709325584412,286.24006977457583L411.4282712247213,286.3256457747636L411.7240736245473,286.3635832645796L411.8226744244894,286.37641364660493L411.8719748244604,286.38291308965717L413.1209182903925,286.5417402202447L413.13735175704954,286.5436178371265L413.9097246899287,286.6415909231361L414.4191621562958,286.7061520574549L414.86286575603486,286.76250463591896L414.91216615600587,286.7687392868468L414.99433348929085,286.7789698916513L416.16110962193807,286.92641096089176L416.3418777551651,286.948797931405L417.14711762135823,287.0493707946356L418.0838252208074,287.16585525733836L418.82333122037255,287.2578825565557L419.4971033533096,287.34126800371484L419.7107384198507,287.36774721614984L419.7271718865077,287.36950447297505L420.0887081529617,287.4129544533798L420.3516436194738,287.44509058847143L422.1757584184011,287.6666253085074L422.52086121819815,287.7095697766748L423.6547704175313,287.84629880088477L423.7040708175024,287.8519797955526L423.72050428415935,287.8539537004796L424.50931068369545,287.94843634485005L424.9037138834635,287.9954249109166L427.07293148218787,288.25378980824854L428.38760881474815,288.41146148229353L428.6012438812891,288.43649637405025L429.65298574733737,288.5597450719297L430.7211610800425,288.6834511380239L431.0991308131536,288.7279843589373L432.4795420123418,288.8877502979658L432.5288424123128,288.89333500458844L432.6110097455978,288.90267494497465L433.71205201161706,289.029317796448L434.0078544114431,289.0634519084779L435.2403644107183,289.2041287425418L435.8812696103414,289.2768502886929L438.4777573421478,289.5697103782244L439.184396408399,289.64946095167636L440.25257174110413,289.76953214406365L440.35117254104614,289.780629341275L440.7784426741282,289.82812341957896L441.1235454739253,289.86632570151926L441.2221462738673,289.8775432587872L443.81863400567374,290.16450570554906L447.7462325366974,290.588052744453L447.9598676032384,290.611522955475L448.51860546957647,290.67093267937463L448.91300866934455,290.71308277116896L449.14307720254266,290.7375158626431L449.6032142689387,290.78681534179486L451.476629467837,290.98572237120453L452.05180080083215,291.0471541440538L452.6598390671412,291.11031910171704L454.1552845329285,291.2662335189367L456.29163519833884,291.4881533911536L457.5241451976141,291.61484438664957L459.0031571967443,291.7671239301623L459.0524575967153,291.7722994125928L461.46817719529474,292.02113179344815L461.5339110619227,292.0277034525343L462.2405501281738,292.09963062231236L462.4213182614008,292.1176364867682L462.5856529279709,292.13460725473794L463.144390794309,292.19074318510013L463.308725460879,292.20696772071943L463.7359955939611,292.2487808043555L464.47550159352625,292.32268187906055L464.85347132663725,292.36071565692174L465.6915781261444,292.4438603839677L466.0859813259125,292.48338662652986L466.3982171923955,292.51453580915796L467.17059012527466,292.59096444505L469.02757185751597,292.773382146716L469.8328117237091,292.85142360736546L471.1639225229263,292.979582995551L471.3446906561533,292.99715556380335L471.67335998929343,293.0285695385558L472.87300305525457,293.1443077689082L473.80971065470374,293.23373529090475L475.5680915870031,293.400602473268L477.8852103856405,293.61960963211703L478.5261155852636,293.679910020435L479.00268611831666,293.7255264818572L480.4323977174759,293.8581873361566L481.221204117012,293.93139032253384L481.254071050326,293.9343752519356L481.8785427832922,293.9917629268857L482.2565125164032,294.02681177534515L483.4232886490504,294.13499139414796L485.74040744768774,294.34639179742464L486.792149313736,294.4407300097273L488.40262904612223,294.5858601658826L488.5340967793783,294.5976073073992L491.0319837112427,294.82308983728916L491.39351997769677,294.85481674818857L491.93582437737786,294.9032255629221L493.151900909996,295.01097188552137L493.79280610961916,295.06737260800793L495.20608424212134,295.1912471781813L496.40572730808253,295.2953104830509L496.8165639745077,295.3308407717365L497.03019904104866,295.3486781321132L497.17810024096167,295.36165294620633L498.476344106865,295.4741414550326L499.445918639628,295.5577435502934L501.31933383852635,295.7179909295479L501.5658358383815,295.7390780114507L502.8640797042847,295.84860566288654L504.29379130344387,295.96867685527377L505.75636983591716,296.0928643615941L506.3644081022262,296.1442099617067L506.93957943522133,296.1914633198976L508.15565596783955,296.29278241547854L510.19340583330785,296.46285117534535L510.538508633105,296.49128022069607L510.686409833018,296.503845810597L510.94934529953,296.52594391697465L511.9846536989212,296.6116884212415L512.0010871655782,296.61301238186326L512.2311556987762,296.6325588550426L514.2524720975875,296.79603188381196L514.4332402308147,296.8106676666851L516.0765868965149,296.94337666500724L517.177629162534,297.03318933918456L520.4643224939347,297.2951650382123L522.551372759374,297.45745853842766L522.567806226031,297.45861399497034L523.044376759084,297.4961422605942L523.077243692398,297.4985735337359L524.7041568914414,297.6254811773336L527.1691768899917,297.816227794911L528.2209187560399,297.897157896917L528.319519555982,297.90483686852315L528.418120355924,297.9126121281746L528.483854222552,297.91766725054856L528.500287689209,297.91894306714767L530.3901363547643,298.0638806472125L531.2939770208995,298.1319562951818L533.2659930197399,298.28120276527017L534.1862671525319,298.3502894377143L535.7967468849182,298.47211788692675L535.9610815514882,298.483913172466L536.0761158180873,298.4922661603887L536.3719182179134,298.5148457069924L537.3086258173626,298.5827769228939L538.0316983502705,298.6365537961483L539.4449764827729,298.74102632521016L540.94042194856,298.851348353019L540.973288881874,298.8536592661042L541.4991598148982,298.89258370838377L541.7949622147243,298.9137670783318L546.445633278656,299.25000493223405L546.8729034117381,299.2800949463647L547.5959759446462,299.3318497706696L548.4998166107814,299.3957368886719L549.5186915435155,299.467591842416L549.7323266100566,299.48316643373016L551.2442055425008,299.5904553881146L551.7207760755539,299.62389141181666L552.361681275177,299.6687857128997L556.9630519391377,299.98959340755573L558.2612958050411,300.07909314558617L558.688565938123,300.10826842328726L559.0501022045771,300.1329903788971L559.3623380710602,300.15429410890164L559.7731747374852,300.18257872218453L560.0361102039973,300.20092159479856L560.2333118038814,300.2149315053778L560.9399508701324,300.26295516793044L562.0574266028086,300.340057820139L563.0763015355427,300.41025180510314L566.4944626001994,300.6399710089827L566.6094968667984,300.6477944126567L566.7573980667114,300.6577120813141L567.5790713995616,300.71247590703206L567.6283717995326,300.7160385647052L567.9734745993296,300.73866625533145L568.4829120656967,300.7722948551239L568.7951479321797,300.793165288925L571.0300993975322,300.94087115028987L572.3612101967494,301.02774703908807L572.3776436634064,301.0288302795968L572.9363815297444,301.0644087123049L575.1877664617539,301.21042953287844L575.2699337950389,301.21584573542196L575.6972039281209,301.243191540264L576.4531433943431,301.29181700309925L576.6996453941981,301.3081137547524L578.0471896600724,301.3942434112002L578.7538287263234,301.4400043046902L579.1810988594056,301.4670612453965L579.8548709923426,301.51096859401605L580.5615100585937,301.5558869671104L582.7307276573181,301.69353072774993L582.845761923917,301.70070418711873L582.9114957905451,301.70465199697264L584.5877093895594,301.81044848665624L585.2450480558396,301.852237498281L586.7897939215977,301.94895883970275L587.0198624547959,301.9623910220107L587.3156648546219,301.9805413185344L592.4757733849208,302.29923067619563L593.3467471177419,302.3524298211787L595.3023296499252,302.4713696290346L598.2932205814998,302.6498154488354L598.9012588478089,302.6862123299279L600.446004713567,302.77790262098705L603.0589259120305,302.93364853412766L603.4861960451126,302.95894821800874L604.1435347113927,302.9972467879943L604.8994741776149,303.04132264069295L605.96764951032,303.10431909427706L606.0826837769191,303.1110592574423L606.214151510175,303.11890673312763L607.0029579097112,303.1655582910359L607.1508591096242,303.17376684689077L608.1204336423874,303.23011942535476L608.3340687089284,303.2425887272105L610.7169213741938,303.381412016404L610.9141229740779,303.39272586171717L611.456427373759,303.4245009166392L612.1466329733531,303.46450859942735L613.2148083060582,303.5268551087062L614.4308848386764,303.5962547172973L615.2032577715556,303.6390306813855L616.2714331042607,303.70026987814435L616.7480036373138,303.7274712509185L616.9616387038549,303.7393387524917L618.095547903188,303.803779526754L618.144848303159,303.80649966403143L618.8514873694103,303.8459296185483L619.6567272356033,303.89135350388005L620.5770013683955,303.94318054421876L622.74621896712,304.0634202406851L622.8776867003759,304.07040112396345L622.992720966975,304.07646727081226L624.5210333660762,304.1607674544008L624.7182349659603,304.1718646516122L625.0469042991002,304.1903760283054L626.9203194979985,304.29241728422556L626.9860533646266,304.2959558698873L627.4297569643657,304.32070189750846L627.4626238976796,304.3223628662885L628.9416358968099,304.40257080795527L630.0919785628001,304.4663134938898L630.5356821625392,304.48973556088913L630.6507164291381,304.4961868599188L631.1108534955342,304.52151061581117L633.3458049608867,304.6411003679723L634.8576838933309,304.72231933411393L634.97271815993,304.72850584101917L636.4517301590602,304.80796755033555L636.5996313589732,304.8158390980322L636.7968329588573,304.8257326946784L637.1090688253403,304.8426793906368L637.3884377585093,304.8569059493178L638.2758449579875,304.90367786728257L638.4730465578715,304.91400476013223L638.8838832242966,304.93547699421595L639.4919214906056,304.96742055321704L640.4450625567118,305.0180680650019L641.201002022934,305.0580035317562L641.5132378894169,305.07430028340934L641.6282721560161,305.0806071503712L642.3842116222381,305.11986860080896L643.2387518884022,305.1649795499937L643.2880522883733,305.16745896715804L643.8632236213684,305.19764526933403L645.9995742867787,305.30844873736896L646.854114552943,305.3527171661581L646.8705480195999,305.35348747051984L647.215650819397,305.37101189474953L648.1194914855321,305.4170616523752L649.5492030846913,305.4896387664585L649.5656365513485,305.4906016469107L650.1901082843144,305.5220156216632L650.7652796173096,305.55119089936426L650.9131808172226,305.55896615901565L653.263166549174,305.6788688473237L653.7890374821981,305.7056369238944L655.3502168146133,305.7833413763856L657.8481037464778,305.9092139234972L658.6533436126709,305.94970304651144L659.244948412323,305.9790949723144L660.2638233450572,306.02952583599745L661.5292002776464,306.0926907936606L661.5785006776174,306.095170210825L662.8274441435497,306.1581185203865L663.1725469433467,306.1754262965145L663.3040146766026,306.18211831565714L663.5176497431438,306.192854432699L663.5505166764577,306.19465983354684L663.6491174763997,306.1992335156947L665.259597208786,306.27778048858147L665.2924641421,306.2793692413276L666.7221757412593,306.3493225061787L666.7714761412303,306.35199449943354L667.2151797409693,306.3732260134041L670.0253025393168,306.509473597388L670.1403368059158,306.51505830401067L671.224945605278,306.5673186405529L671.307112938563,306.57133866644074L673.0161934708913,306.65265392062764L673.2955624040603,306.6658453828225L674.3966046700795,306.7178168552291L674.7252740032196,306.73360809464486L676.483654935519,306.8167528216909L677.338195201683,306.8572660167165L677.5846972015381,306.86908537426706L677.8311992013931,306.88092880382885L678.0941346679051,306.8932296016055L678.3077697344462,306.90290655014996L678.8829410674413,306.92989127482235L679.1951769339244,306.94440669763907L679.3102112005233,306.94987104420517L683.139208931605,307.12940010451473L684.1252169310252,307.17511285398206L684.6182209307353,307.1984145609249L684.9304567972183,307.2130503437981L686.3930353296917,307.2811259917674L687.0339405293147,307.30977168521986L687.0996743959427,307.31270847059903L687.2475755958557,307.31911162560607L687.3461763957978,307.3238778838443L687.7570130622228,307.3427744127184L688.6937206616719,307.3847800724449L691.0930067935943,307.4947169480729L692.9992889258067,307.5810873246337L693.5415933254878,307.60549634409654L695.3328411911011,307.6860412939216L695.4314419910431,307.6905186880243L695.5793431909561,307.6973551392348L697.6992603897095,307.79162113550353L698.2579982560476,307.8158857228985L702.4649657202403,308.0027326746446L702.7772015867233,308.01618892896386L703.4838406529744,308.04664002326416L704.6177498523076,308.0965653747098L708.1509451835632,308.25079475113824L709.8107253159205,308.32291449700676L710.7145659820557,308.36162229118446L710.9610679819107,308.3726954163846L712.0949771812438,308.4216819593894L712.653715047582,308.4464520590218L713.8697915802002,308.499578987971L714.1327270467121,308.510724329205L714.3134951799393,308.5185236608677L714.8722330462773,308.5424271680931L716.1869103788376,308.59764836202584L717.1893518449148,308.6407613342723L717.2057853115718,308.64150756662275L718.158926377678,308.68161153745615L718.487595710818,308.69574180809195L719.1942347770691,308.7253503819966L719.2764021103542,308.7288408236357L720.4596117096584,308.7783088068666L722.7767305082957,308.87481350018663L723.1547002414068,308.89074917167034L723.1711337080638,308.8915676200547L725.4060851734162,308.9831375510572L726.9836979724884,309.0482523416361L727.9532725052516,309.08910254482L728.1340406384786,309.0964685802792L732.8011451690674,309.2866615415966L733.4749173020045,309.3148257948229L734.6252599679947,309.3615254967538L735.0853970343908,309.38013316149227L735.9235038338978,309.4133284650813L737.5175500996272,309.47796181543407L738.0269875659943,309.4985915291221L738.1091548992794,309.50176903461426L738.3885238324483,309.5124329356222L739.2266306319555,309.5464226155842L739.8511023649215,309.5714093633184L743.2035295629502,309.70602005053354L744.3867391622543,309.75329748073574L746.1122531612397,309.8212768406599L747.5419647603989,309.876931330796L747.7391663602829,309.8847065904474L748.265037293307,309.90487893592064L748.725174359703,309.92274036830867L750.1548859588623,309.97798563425266L750.3192206254323,309.9845091493162L750.4178214253743,309.9882643830797L750.4835552920024,309.99067158421013L750.9929927583695,310.01026620141204L751.0258596916835,310.0115179459999L751.2559282248815,310.0204486621939L751.3545290248235,310.0245409041157L752.5541720907847,310.0712646780579L756.6132383550644,310.22734759935673L758.0593834208806,310.28357981776423L758.4866535539627,310.29973213734957L759.965665553093,310.35606064380227L760.409369152832,310.3733684199303L761.5597118188222,310.4167461843011L762.6771875514984,310.46002766062674L762.9401230180105,310.4703786254877L764.0247318173726,310.51192691699936L764.8135382169087,310.54211321917535L765.0764736834209,310.5519586717989L765.5530442164738,310.56955531206256L765.963880882899,310.58496139929747L766.276116749382,310.5961789565654L768.6425359479904,310.6852935424149L768.7740036812464,310.69051716886804L769.8257455472947,310.729561971204L770.2694491470337,310.74554578671024L772.487967145729,310.8277276333041L772.603001412328,310.83206059533893L772.8988038121541,310.84277264036945L774.5914508778254,310.90396369310565L774.9858540775936,310.918214323798L775.1501887441635,310.92466562282755L775.3802572773616,310.93292232270505L776.3991322100957,310.96982471603496L777.960311542511,311.025864358352L779.0449203418732,311.0658238971176L779.7844263414383,311.0925919736883L780.0802287412644,311.1032558746962L780.2445634078343,311.1094905256241L780.5896662076314,311.1216709633442L782.3809140732448,311.18714683409263L783.5312567392349,311.22823775738954L785.1417364716212,311.28603465653185L787.0644520704906,311.355362049089L787.6889238034565,311.37719536334225L788.2312282031377,311.3966455484764L788.5105971363067,311.40639471305474L789.1515023359299,311.42837245937574L793.1284012669246,311.57020474998234L793.3913367334366,311.57973726645895L795.757755932045,311.663122713618L796.612296198209,311.69292386361303L797.3353687311172,311.7178143233019L797.9105400641124,311.737818164696L798.4035440638224,311.7547407886432L798.7979472635906,311.7678600348042L799.1923504633586,311.78146072119125L799.3238181966145,311.78572146719216L799.5045863298416,311.79195611812L799.5210197964985,311.79267827845916L800.5070277959187,311.82649945434207L800.9507313956578,311.84190554157703L801.0164652622859,311.84409609460573L801.2629672621409,311.8524731545398L801.690237395223,311.867036721379L801.87100552845,311.87322322828425L802.0517736616771,311.8795541672574L802.5940780613581,311.89881177630105L803.9909227272034,311.94657064672936L804.8618964600246,311.97666066086003L804.9276303266525,311.9788512138888L805.1412653931935,311.9859765292349L806.4559427257537,312.0304856781371L806.5216765923817,312.03267623116574L806.9653801921208,312.04788974231025L807.1132813920339,312.0531133687634L808.542992991193,312.1026535680282L808.6580272577922,312.10667359391607L809.3810997907002,312.13096225332237L810.2520735235214,312.16064304326085L810.8272448565166,312.18047838057583L810.8929787231446,312.18266893360453L811.8954201892217,312.216610469544L813.489466454951,312.27048363084367L814.113938187917,312.29159478475776L814.8698776541393,312.31778513305716L814.8863111207962,312.31838693333975L814.9356115207672,312.31999975809714L815.8558856535594,312.3506675004992L817.2362968527476,312.3962598899101L817.6307000525157,312.4092828480258L818.4359399187088,312.4358583485061L818.6660084519069,312.4437780402253L821.0981615171432,312.5235286136773L821.5911655168534,312.54004201343224L822.5607400496166,312.57210593249L823.3988468491236,312.5990665851511L826.7841409804662,312.70912382083554L826.9320421803792,312.71362528694954L827.7701489798864,312.74065815564455L827.8030159132004,312.741717324142L830.0215339118957,312.81318712570527L830.6131387115479,312.8325891668167L831.336211244456,312.85615566588393L832.3057857772191,312.88749742460243L832.5029873771032,312.89373207553035L834.3599691093444,312.9528770073057L835.4774448420208,312.9887683761608L836.0526161750157,313.00672609659404L838.5176361735662,313.085128637413L838.6655373734792,313.0903763358774L839.1092409732182,313.10397702226453L839.6022449729284,313.11938310949944L840.1609828392665,313.137051965797L840.9004888388316,313.16006480860415L841.0319565720876,313.16434962661634L841.4920936384838,313.178865049433L843.3490753707249,313.23810626925354L843.6120108372371,313.24633889711976L844.6308857699712,313.2785472482452L844.9102547031403,313.2872372443262L846.3235328356425,313.33104830490055L846.4714340355556,313.3355497710145L848.9200205674489,313.41053408622827L849.560925767072,313.43003241538497L850.4154660332363,313.45569317943557L855.148304430453,313.60075111955695L855.4934072302501,313.611342804531L857.8105260288875,313.68136828541594L858.5171650951386,313.7031534556466L859.3881388279598,313.7294160199799L859.5031730945587,313.73273795753994L859.8318424276988,313.7429926343557L860.2591125607807,313.7557508003471L861.7381245599111,313.800235877238L862.5926648260753,313.82647436955995L863.5786728254955,313.85651623966805L863.6937070920944,313.86003075331854L864.1702776251475,313.8744739601013L865.0412513579686,313.9016512608641L865.1069852245967,313.903697381825L865.3206202911377,313.9099561047642L865.5506888243358,313.9167444119521L865.9450920241038,313.92899706570614L866.1422936239878,313.9347502764079L866.6681645570119,313.95008414760895L866.783198823611,313.9532616531011L867.0132673568089,313.95990552822116L868.8702490890503,314.0155118743347L869.0510172222773,314.02107250894613L869.1496180222193,314.02408151035917L869.8233901551564,314.04422978382115L869.8891240217845,314.04610740070285L870.1191925549824,314.052919779902L870.4971622880936,314.0641614091813L872.2391097537359,314.1156032973392L872.945748819987,314.1362089390159L873.6688213528951,314.1573682369526L873.9646237527211,314.1657452968866L874.2275592192333,314.17342426849274L874.7205632189433,314.1878434032642L875.8544724182765,314.2205813386384L877.9086557504017,314.2804243587416L878.6481617499669,314.3016558727122L879.2562000162761,314.3197580252132L879.2726334829331,314.3201191053828L879.4369681495031,314.324957579655L879.5684358827591,314.328905389509L879.9792725491841,314.3403155228674L881.3432502817154,314.3802509896217L881.4254176150005,314.3825378306956L881.6719196148555,314.39009644224524L884.8600121463139,314.48226817353043L887.1278305449804,314.54728667606406L890.611725476265,314.6464874346502L891.8935358755111,314.6827639556862L892.7809430749893,314.70830435968037L893.1917797414144,314.71995521315176L895.2623965401967,314.7787631367689L896.5935073394139,314.816002538257L897.3987472056072,314.8389913090529L897.5959488054912,314.8442871515399L897.9081846719741,314.85288085957563L898.8777592047373,314.8800100163159L900.7840413369496,314.93145190447376L902.082285202853,314.9675839934419L902.772490802447,314.9866490263951L903.9557004017512,315.01984432998415L904.7773737346013,315.04244794859915L905.3854120009105,315.05944278858016L906.3056861337026,315.0842851042465L906.5686216002147,315.09150670763785L907.0616255999248,315.104794457878L907.8175650661468,315.12621854793906L908.261268665886,315.1384712016931L910.1346838647843,315.1902019539866L911.5808289306004,315.23018556476353L912.6983046632766,315.26080516314295L913.1913086629868,315.27459842562047L913.8815142625808,315.2938560346641L914.1937501290639,315.30240159867725L914.226617062378,315.3033644791294L914.32521786232,315.3060605443955L917.3161087938945,315.38727951053716L919.945463459015,315.4585326639987L920.537068258667,315.4742757593919L922.4269169242223,315.52530842335756L922.4926507908503,315.5270416081715L924.0209631899517,315.56748258716317L924.2838986564636,315.57400610222675" fill="none"></path></g></g></g></g></g></g><g transform="translate(30, 378)" clip-path="url(#clip_1)"><clipPath id="clip_1"><rect width="986" height="21"></rect></clipPath><g><g><line x1="0" y1="0" x2="0" y2="5" style="visibility: inherit;" fill="rgb(0, 0, 0)" stroke="rgb(204, 204, 204)" stroke-width="1px"></line><line x1="82.16733328501383" y1="0" x2="82.16733328501383" y2="5" style="visibility: inherit;" fill="rgb(0, 0, 0)" stroke="rgb(204, 204, 204)" stroke-width="1px"></line><line x1="164.33466657002765" y1="0" x2="164.33466657002765" y2="5" style="visibility: inherit;" fill="rgb(0, 0, 0)" stroke="rgb(204, 204, 204)" stroke-width="1px"></line><line x1="246.5019998550415" y1="0" x2="246.5019998550415" y2="5" style="visibility: inherit;" fill="rgb(0, 0, 0)" stroke="rgb(204, 204, 204)" stroke-width="1px"></line><line x1="328.6693331400553" y1="0" x2="328.6693331400553" y2="5" style="visibility: inherit;" fill="rgb(0, 0, 0)" stroke="rgb(204, 204, 204)" stroke-width="1px"></line><line x1="410.8366664250692" y1="0" x2="410.8366664250692" y2="5" style="visibility: inherit;" fill="rgb(0, 0, 0)" stroke="rgb(204, 204, 204)" stroke-width="1px"></line><line x1="493.003999710083" y1="0" x2="493.003999710083" y2="5" style="visibility: inherit;" fill="rgb(0, 0, 0)" stroke="rgb(204, 204, 204)" stroke-width="1px"></line><line x1="575.1713329950969" y1="0" x2="575.1713329950969" y2="5" style="visibility: inherit;" fill="rgb(0, 0, 0)" stroke="rgb(204, 204, 204)" stroke-width="1px"></line><line x1="657.3386662801106" y1="0" x2="657.3386662801106" y2="5" style="visibility: inherit;" fill="rgb(0, 0, 0)" stroke="rgb(204, 204, 204)" stroke-width="1px"></line><line x1="739.5059995651245" y1="0" x2="739.5059995651245" y2="5" style="visibility: inherit;" fill="rgb(0, 0, 0)" stroke="rgb(204, 204, 204)" stroke-width="1px"></line><line x1="821.6733328501384" y1="0" x2="821.6733328501384" y2="5" style="visibility: inherit;" fill="rgb(0, 0, 0)" stroke="rgb(204, 204, 204)" stroke-width="1px"></line><line x1="903.8406661351521" y1="0" x2="903.8406661351521" y2="5" style="visibility: inherit;" fill="rgb(0, 0, 0)" stroke="rgb(204, 204, 204)" stroke-width="1px"></line><line x1="986.007999420166" y1="0" x2="986.007999420166" y2="5" style="visibility: inherit;" fill="rgb(0, 0, 0)" stroke="rgb(204, 204, 204)" stroke-width="1px"></line></g><g transform="translate(0, 8)"><text style="text-anchor: middle; visibility: hidden; font-family: &quot;Helvetica Neue&quot;, sans-serif; font-size: 12px; font-weight: 200;" x="0" y="0" dx="0em" dy="0.95em" fill="rgb(50, 49, 63)" stroke="none" stroke-width="1px">-50k</text><text style="text-anchor: middle; visibility: inherit; font-family: &quot;Helvetica Neue&quot;, sans-serif; font-size: 12px; font-weight: 200;" x="82.16733328501383" y="0" dx="0em" dy="0.95em" fill="rgb(50, 49, 63)" stroke="none" stroke-width="1px">0</text><text style="text-anchor: middle; visibility: inherit; font-family: &quot;Helvetica Neue&quot;, sans-serif; font-size: 12px; font-weight: 200;" x="164.33466657002765" y="0" dx="0em" dy="0.95em" fill="rgb(50, 49, 63)" stroke="none" stroke-width="1px">50k</text><text style="text-anchor: middle; visibility: inherit; font-family: &quot;Helvetica Neue&quot;, sans-serif; font-size: 12px; font-weight: 200;" x="246.5019998550415" y="0" dx="0em" dy="0.95em" fill="rgb(50, 49, 63)" stroke="none" stroke-width="1px">100k</text><text style="text-anchor: middle; visibility: inherit; font-family: &quot;Helvetica Neue&quot;, sans-serif; font-size: 12px; font-weight: 200;" x="328.6693331400553" y="0" dx="0em" dy="0.95em" fill="rgb(50, 49, 63)" stroke="none" stroke-width="1px">150k</text><text style="text-anchor: middle; visibility: inherit; font-family: &quot;Helvetica Neue&quot;, sans-serif; font-size: 12px; font-weight: 200;" x="410.8366664250692" y="0" dx="0em" dy="0.95em" fill="rgb(50, 49, 63)" stroke="none" stroke-width="1px">200k</text><text style="text-anchor: middle; visibility: inherit; font-family: &quot;Helvetica Neue&quot;, sans-serif; font-size: 12px; font-weight: 200;" x="493.003999710083" y="0" dx="0em" dy="0.95em" fill="rgb(50, 49, 63)" stroke="none" stroke-width="1px">250k</text><text style="text-anchor: middle; visibility: inherit; font-family: &quot;Helvetica Neue&quot;, sans-serif; font-size: 12px; font-weight: 200;" x="575.1713329950969" y="0" dx="0em" dy="0.95em" fill="rgb(50, 49, 63)" stroke="none" stroke-width="1px">300k</text><text style="text-anchor: middle; visibility: inherit; font-family: &quot;Helvetica Neue&quot;, sans-serif; font-size: 12px; font-weight: 200;" x="657.3386662801106" y="0" dx="0em" dy="0.95em" fill="rgb(50, 49, 63)" stroke="none" stroke-width="1px">350k</text><text style="text-anchor: middle; visibility: inherit; font-family: &quot;Helvetica Neue&quot;, sans-serif; font-size: 12px; font-weight: 200;" x="739.5059995651245" y="0" dx="0em" dy="0.95em" fill="rgb(50, 49, 63)" stroke="none" stroke-width="1px">400k</text><text style="text-anchor: middle; visibility: inherit; font-family: &quot;Helvetica Neue&quot;, sans-serif; font-size: 12px; font-weight: 200;" x="821.6733328501384" y="0" dx="0em" dy="0.95em" fill="rgb(50, 49, 63)" stroke="none" stroke-width="1px">450k</text><text style="text-anchor: middle; visibility: inherit; font-family: &quot;Helvetica Neue&quot;, sans-serif; font-size: 12px; font-weight: 200;" x="903.8406661351521" y="0" dx="0em" dy="0.95em" fill="rgb(50, 49, 63)" stroke="none" stroke-width="1px">500k</text><text style="text-anchor: middle; visibility: hidden; font-family: &quot;Helvetica Neue&quot;, sans-serif; font-size: 12px; font-weight: 200;" x="986.007999420166" y="0" dx="0em" dy="0.95em" fill="rgb(50, 49, 63)" stroke="none" stroke-width="1px">550k</text></g><line x1="0" y1="0" x2="986.007999420166" y2="0" fill="rgb(0, 0, 0)" stroke="rgb(204, 204, 204)" stroke-width="1px"></line></g></g></g></g></svg>