<svg viewBox="0 0 917.5833129882812 400" xmlns="http://www.w3.org/2000/svg"><g><g><g><g><g><line x1="29.992000579833984" y1="378.57999897003174" x2="24.992000579833984" y2="378.57999897003174" style="visibility: inherit;" fill="rgb(0, 0, 0)" stroke="rgb(204, 204, 204)" stroke-width="1px"></line><line x1="29.992000579833984" y1="340.72199907302854" x2="24.992000579833984" y2="340.72199907302854" style="visibility: inherit;" fill="rgb(0, 0, 0)" stroke="rgb(204, 204, 204)" stroke-width="1px"></line><line x1="29.992000579833984" y1="302.8639991760254" x2="24.992000579833984" y2="302.8639991760254" style="visibility: inherit;" fill="rgb(0, 0, 0)" stroke="rgb(204, 204, 204)" stroke-width="1px"></line><line x1="29.992000579833984" y1="265.0059992790222" x2="24.992000579833984" y2="265.0059992790222" style="visibility: inherit;" fill="rgb(0, 0, 0)" stroke="rgb(204, 204, 204)" stroke-width="1px"></line><line x1="29.992000579833984" y1="227.14799938201904" x2="24.992000579833984" y2="227.14799938201904" style="visibility: inherit;" fill="rgb(0, 0, 0)" stroke="rgb(204, 204, 204)" stroke-width="1px"></line><line x1="29.992000579833984" y1="189.28999948501587" x2="24.992000579833984" y2="189.28999948501587" style="visibility: inherit;" fill="rgb(0, 0, 0)" stroke="rgb(204, 204, 204)" stroke-width="1px"></line><line x1="29.992000579833984" y1="151.4319995880127" x2="24.992000579833984" y2="151.4319995880127" style="visibility: inherit;" fill="rgb(0, 0, 0)" stroke="rgb(204, 204, 204)" stroke-width="1px"></line><line x1="29.992000579833984" y1="113.57399969100953" x2="24.992000579833984" y2="113.57399969100953" style="visibility: inherit;" fill="rgb(0, 0, 0)" stroke="rgb(204, 204, 204)" stroke-width="1px"></line><line x1="29.992000579833984" y1="75.71599979400634" x2="24.992000579833984" y2="75.71599979400634" style="visibility: inherit;" fill="rgb(0, 0, 0)" stroke="rgb(204, 204, 204)" stroke-width="1px"></line><line x1="29.992000579833984" y1="37.85799989700314" x2="24.992000579833984" y2="37.85799989700314" style="visibility: inherit;" fill="rgb(0, 0, 0)" stroke="rgb(204, 204, 204)" stroke-width="1px"></line><line x1="29.992000579833984" y1="0" x2="24.992000579833984" y2="0" style="visibility: inherit;" fill="rgb(0, 0, 0)" stroke="rgb(204, 204, 204)" stroke-width="1px"></line></g><g transform="translate(19.992000579833984, 0)"><text style="text-anchor: end; visibility: hidden; font-family: &quot;Helvetica Neue&quot;, sans-serif; font-size: 12px; font-weight: 200;" x="0" y="378.57999897003174" dx="0em" dy="0.3em" fill="rgb(50, 49, 63)" stroke="none" stroke-width="1px">-5</text><text style="text-anchor: end; visibility: inherit; font-family: &quot;Helvetica Neue&quot;, sans-serif; font-size: 12px; font-weight: 200;" x="0" y="340.72199907302854" dx="0em" dy="0.3em" fill="rgb(50, 49, 63)" stroke="none" stroke-width="1px">0</text><text style="text-anchor: end; visibility: inherit; font-family: &quot;Helvetica Neue&quot;, sans-serif; font-size: 12px; font-weight: 200;" x="0" y="302.8639991760254" dx="0em" dy="0.3em" fill="rgb(50, 49, 63)" stroke="none" stroke-width="1px">5</text><text style="text-anchor: end; visibility: inherit; font-family: &quot;Helvetica Neue&quot;, sans-serif; font-size: 12px; font-weight: 200;" x="0" y="265.0059992790222" dx="0em" dy="0.3em" fill="rgb(50, 49, 63)" stroke="none" stroke-width="1px">10</text><text style="text-anchor: end; visibility: inherit; font-family: &quot;Helvetica Neue&quot;, sans-serif; font-size: 12px; font-weight: 200;" x="0" y="227.14799938201904" dx="0em" dy="0.3em" fill="rgb(50, 49, 63)" stroke="none" stroke-width="1px">15</text><text style="text-anchor: end; visibility: inherit; font-family: &quot;Helvetica Neue&quot;, sans-serif; font-size: 12px; font-weight: 200;" x="0" y="189.28999948501587" dx="0em" dy="0.3em" fill="rgb(50, 49, 63)" stroke="none" stroke-width="1px">20</text><text style="text-anchor: end; visibility: inherit; font-family: &quot;Helvetica Neue&quot;, sans-serif; font-size: 12px; font-weight: 200;" x="0" y="151.4319995880127" dx="0em" dy="0.3em" fill="rgb(50, 49, 63)" stroke="none" stroke-width="1px">25</text><text style="text-anchor: end; visibility: inherit; font-family: &quot;Helvetica Neue&quot;, sans-serif; font-size: 12px; font-weight: 200;" x="0" y="113.57399969100953" dx="0em" dy="0.3em" fill="rgb(50, 49, 63)" stroke="none" stroke-width="1px">30</text><text style="text-anchor: end; visibility: inherit; font-family: &quot;Helvetica Neue&quot;, sans-serif; font-size: 12px; font-weight: 200;" x="0" y="75.71599979400634" dx="0em" dy="0.3em" fill="rgb(50, 49, 63)" stroke="none" stroke-width="1px">35</text><text style="text-anchor: end; visibility: inherit; font-family: &quot;Helvetica Neue&quot;, sans-serif; font-size: 12px; font-weight: 200;" x="0" y="37.85799989700314" dx="0em" dy="0.3em" fill="rgb(50, 49, 63)" stroke="none" stroke-width="1px">40</text><text style="text-anchor: end; visibility: hidden; font-family: &quot;Helvetica Neue&quot;, sans-serif; font-size: 12px; font-weight: 200;" x="0" y="0" dx="0em" dy="0.3em" fill="rgb(50, 49, 63)" stroke="none" stroke-width="1px">45</text></g><line x1="29.992000579833984" y1="0" x2="29.992000579833984" y2="378.57999897003174" fill="rgb(0, 0, 0)" stroke="rgb(204, 204, 204)" stroke-width="1px"></line></g></g><g transform="translate(30, 0)" clip-path="url(#clip_0)"><clipPath id="clip_0"><rect width="887" height="378"></rect></clipPath><g><g><g><line x1="0" y1="0" x2="0" y2="378.57999897003174" fill="rgb(0, 0, 0)" stroke="rgb(60, 60, 60)" stroke-width="1px" opacity="0.25"></line><line x1="80.69009085637873" y1="0" x2="80.69009085637873" y2="378.57999897003174" fill="rgb(0, 0, 0)" stroke="rgb(60, 60, 60)" stroke-width="1px" opacity="0.25"></line><line x1="161.38018171275746" y1="0" x2="161.38018171275746" y2="378.57999897003174" fill="rgb(0, 0, 0)" stroke="rgb(60, 60, 60)" stroke-width="1px" opacity="0.25"></line><line x1="242.07027256913616" y1="0" x2="242.07027256913616" y2="378.57999897003174" fill="rgb(0, 0, 0)" stroke="rgb(60, 60, 60)" stroke-width="1px" opacity="0.25"></line><line x1="322.7603634255149" y1="0" x2="322.7603634255149" y2="378.57999897003174" fill="rgb(0, 0, 0)" stroke="rgb(60, 60, 60)" stroke-width="1px" opacity="0.25"></line><line x1="403.4504542818936" y1="0" x2="403.4504542818936" y2="378.57999897003174" fill="rgb(0, 0, 0)" stroke="rgb(60, 60, 60)" stroke-width="1px" opacity="0.25"></line><line x1="484.14054513827233" y1="0" x2="484.14054513827233" y2="378.57999897003174" fill="rgb(0, 0, 0)" stroke="rgb(60, 60, 60)" stroke-width="1px" opacity="0.25"></line><line x1="564.8306359946511" y1="0" x2="564.8306359946511" y2="378.57999897003174" fill="rgb(0, 0, 0)" stroke="rgb(60, 60, 60)" stroke-width="1px" opacity="0.25"></line><line x1="645.5207268510298" y1="0" x2="645.5207268510298" y2="378.57999897003174" fill="rgb(0, 0, 0)" stroke="rgb(60, 60, 60)" stroke-width="1px" opacity="0.25"></line><line x1="726.2108177074085" y1="0" x2="726.2108177074085" y2="378.57999897003174" fill="rgb(0, 0, 0)" stroke="rgb(60, 60, 60)" stroke-width="1px" opacity="0.25"></line><line x1="806.9009085637872" y1="0" x2="806.9009085637872" y2="378.57999897003174" fill="rgb(0, 0, 0)" stroke="rgb(60, 60, 60)" stroke-width="1px" opacity="0.25"></line><line x1="887.590999420166" y1="0" x2="887.590999420166" y2="378.57999897003174" fill="rgb(0, 0, 0)" stroke="rgb(60, 60, 60)" stroke-width="1px" opacity="0.25"></line></g><g><line x1="0" y1="378.57999897003174" x2="887.590999420166" y2="378.57999897003174" fill="rgb(0, 0, 0)" stroke="rgb(60, 60, 60)" stroke-width="1px" opacity="0.25"></line><line x1="0" y1="340.72199907302854" x2="887.590999420166" y2="340.72199907302854" fill="rgb(0, 0, 0)" stroke="rgb(60, 60, 60)" stroke-width="1px" opacity="0.25"></line><line x1="0" y1="302.8639991760254" x2="887.590999420166" y2="302.8639991760254" fill="rgb(0, 0, 0)" stroke="rgb(60, 60, 60)" stroke-width="1px" opacity="0.25"></line><line x1="0" y1="265.0059992790222" x2="887.590999420166" y2="265.0059992790222" fill="rgb(0, 0, 0)" stroke="rgb(60, 60, 60)" stroke-width="1px" opacity="0.25"></line><line x1="0" y1="227.14799938201904" x2="887.590999420166" y2="227.14799938201904" fill="rgb(0, 0, 0)" stroke="rgb(60, 60, 60)" stroke-width="1px" opacity="0.25"></line><line x1="0" y1="189.28999948501587" x2="887.590999420166" y2="189.28999948501587" fill="rgb(0, 0, 0)" stroke="rgb(60, 60, 60)" stroke-width="1px" opacity="0.25"></line><line x1="0" y1="151.4319995880127" x2="887.590999420166" y2="151.4319995880127" fill="rgb(0, 0, 0)" stroke="rgb(60, 60, 60)" stroke-width="1px" opacity="0.25"></line><line x1="0" y1="113.57399969100953" x2="887.590999420166" y2="113.57399969100953" fill="rgb(0, 0, 0)" stroke="rgb(60, 60, 60)" stroke-width="1px" opacity="0.25"></line><line x1="0" y1="75.71599979400634" x2="887.590999420166" y2="75.71599979400634" fill="rgb(0, 0, 0)" stroke="rgb(60, 60, 60)" stroke-width="1px" opacity="0.25"></line><line x1="0" y1="37.85799989700314" x2="887.590999420166" y2="37.85799989700314" fill="rgb(0, 0, 0)" stroke="rgb(60, 60, 60)" stroke-width="1px" opacity="0.25"></line><line x1="0" y1="0" x2="887.590999420166" y2="0" fill="rgb(0, 0, 0)" stroke="rgb(60, 60, 60)" stroke-width="1px" opacity="0.25"></line></g></g></g><g><g><line x1="0" y1="340.72199907302854" x2="887.590999420166" y2="340.72199907302854" fill="rgb(0, 0, 0)" stroke="rgb(153, 153, 153)" stroke-width="1.5px"></line></g></g><g><g><line x1="80.69009085637873" y1="0" x2="80.69009085637873" y2="378.57999897003174" fill="rgb(0, 0, 0)" stroke="rgb(153, 153, 153)" stroke-width="1.5px"></line></g></g><g><g><g><g><g><path style="fill: none;" stroke="rgb(0, 119, 187)" stroke-width="2px" d="M81.38402563774358,52.76626259142893L81.43243969225742,52.769077937158045L81.85202816471059,52.97803483269769L82.22320258264993,53.15505621311547L83.40127790915305,53.57818428640519L84.40183503577214,54.217430231290905L84.48252512662853,54.6955467089187L84.82142350822532,55.154012767105655L85.11190783530829,55.5891319275363L85.67673847130293,56.01348033735849L85.70901450764548,56.36133540592459L85.83811865301568,56.657585434207874L88.35564948773471,57.48290237403501L89.35620661435381,58.45693942393814L90.05014139571865,59.47860248966305L90.16310752291758,60.392135106526155L90.93773239513882,61.389593599841135L91.14752663136541,62.322568808677545L91.53483906747603,63.23087821138432L92.22877384884089,64.12838104661705L92.3578779942111,64.9431962896573L93.14864088460361,65.73771422237257L93.37457313900147,66.53633033082718L93.64891944791316,67.3488568412779L93.7457475569408,68.11826015642845L94.19761206573652,68.99055969104387L96.37624451885875,70.2994743246262L97.0701793002236,71.63949776534639L97.90935624512994,73.01110160741621L98.52260093563842,74.33482957857137L99.74909031665538,75.74643896612343L101.05626978852872,77.40228656327918L101.94386078794889,79.10560989547577L101.9922748424627,80.68503680814831L102.21820709686057,82.18681163443296L102.28275916954567,83.58847678013109L103.05738404176691,85.02624599209531L103.17035016896584,86.378652839847L103.88042296850197,87.75000528891513L104.36456351364023,89.08029466269318L105.28443054940296,90.3937737932385L105.75243307636995,91.70608204956585L106.01064136711037,92.98442921543813L106.26884965785078,94.23456530748041L107.99561760217729,95.73764391889858L108.43134409280174,97.20936531422319L108.68955238354215,98.62347105009042L108.73796643805598,99.94948588276088L109.4480392375921,101.29839657106965L110.46473438238247,102.69430520373845L110.81977078215054,104.03543281544182L110.99728898203456,105.30528122919037L111.64280970888561,106.55115371515217L111.9171560177973,107.7704861661652L112.12695025402388,108.94896958737957L113.56323387126743,110.30615416064825L114.53151496154398,111.7166330699805L116.00007461513005,113.23917252838987L116.19373083318537,114.68804912442602L116.7101474146662,116.10178852270178L116.80697552369384,117.43552376048234L117.12973588711937,118.71665393644577L117.21042597797573,119.92397693530586L117.93663679568316,121.12994891986358L119.25995428572774,122.46928234404453L120.01844113977772,123.82419087175361L120.2927874486894,125.1285515043094L120.32506348503195,126.35517565630212L120.40575357588833,127.51485156749027L120.80920403017022,128.65118878238755L120.82534204834151,129.71859410479178L121.01899826639682,130.74339251817003L121.09968835725319,131.7135142213645L121.5676908842202,132.67910629061856L121.80976115678932,133.61395438978437L121.90658926581698,134.50239865592346L124.03680766442537,135.5447421592638L124.92439866384554,136.64109375634413L128.58772878872514,138.0751970962688L129.7335280788857,139.51919612024412L129.78194213339955,140.87776568917192L130.71794718733355,142.24494083226514L131.71850431395265,143.64173980640737L132.83202756777067,145.06071423807626L133.05795982216853,146.41302091320713L133.09023585851108,147.685108207861L133.10637387668234,148.88031687841482L134.04237893061634,150.08824741995448L136.8665321105896,151.45685707954135L139.09357861822565,152.94477065235458L139.1258546545682,154.34379825788625L139.932755563132,155.72264377344052L141.0785548532926,157.10737976132793L141.9177317981989,158.4653794279276L142.25663017979568,159.76173526599106L142.36959630699462,160.98560311769873L144.09636425132112,162.27979062660955L144.54822876011684,163.52927645174083L145.00009326891256,164.73619711120568L145.8392702138189,165.93001822073822L146.839827340438,167.1225564926623L148.42135312122304,168.34092874085047L148.92163168453257,169.51745616380745L149.00232177538896,170.62829506267525L150.3740533199474,171.77476643807722L150.40632935628994,172.85329334581257L151.7135088281633,173.95268454415367L153.19820649992064,175.07945448211842L153.47255280883232,176.15329634774383L153.81145119042912,177.1810573581912L155.97394562538008,178.27775915248893L156.03849769806519,179.31206932027567L156.1676018434354,180.29215118849845L157.97505987861828,181.32158588543786L158.20099213301614,182.3009596197459L158.81423682352462,183.25568864334784L159.00789304157993,184.16344521592202L159.6856898047735,185.05273986408372L160.92831720396174,185.94878985224L162.2032206394925,186.8670549754241L162.23549667583507,187.73137832101858L163.10694965708396,188.59245767610952L163.55881416587968,189.4255750664457L165.25330607386363,190.29658804302497L166.70572770927845,191.18307802666203L166.96393600001886,192.02647386021957L167.18986825441672,192.8279560463764L168.17428736286453,193.63412845895195L170.2560917069591,194.49782741089174L172.35403406922495,195.4058794267014L173.0641068687611,196.28735634031702L174.43583841331952,197.18035527497332L174.75859877674503,198.03594154192933L175.339567430911,198.86636178792352L175.4525335581099,199.6513212891584L176.03350221227583,200.41464083251105L176.37240059387264,201.14603328836742L177.3729577204917,201.87642952403854L177.69571808391723,202.57635959215116L179.48703810092886,203.30292393987784L179.6484182826416,203.99103176494683L180.76194153645963,204.68980214282635L180.9717357726862,205.35576303242144L181.06856388171386,205.98534515386473L181.27835811794046,206.58546989401313L182.19822515370316,207.18743196769665L182.5693995716425,207.7674656931887L182.65008966249889,208.31545866429968L183.60223273460414,208.86821912523183L185.92610735126786,209.47199761719062L186.79756033251675,210.07649204458244L187.26556285948377,210.6644872510543L188.13701584073263,211.25059491336873L188.76639854941237,211.82439406452158L188.8148126039262,212.36508625935252L189.00846882198152,212.88010342261725L189.50874738529106,213.38209580290405L191.18710127510377,213.9127631414748L191.31620542047395,214.41527974832567L191.5582756930431,214.8946267300123L193.12366345565684,215.40378879729832L193.54325192811,215.8980982114317L193.89828832787808,216.37507998298997L195.38298599963545,216.8749887817095L195.51209014500563,217.34877829667133L196.17374889002795,217.8168440714166L197.65844656178533,218.30322364728445L198.69127972474698,218.79392938439807L199.46590459696822,219.28414547699614L199.83707901490754,219.7572591410429L200.1437013601618,220.2117497000946L200.9344642505543,220.66468807932205L201.09584443226706,221.09519204827058L201.1442584867809,221.5009909771671L201.38632875935002,221.88998949100144L201.91888335900214,222.27226475607267L204.75917455714665,222.71747883070964L204.8560026661743,223.1387513284233L205.9372498836498,223.57182376393806L206.3891143924455,223.99266807769862L206.55049457415828,224.3928987192328L207.11532521015292,224.78607215208953L208.7129890091092,225.20361648905924L209.6651320812145,225.62231906929418L210.22996271720913,226.03019924641552L210.87548344406017,226.4320700159L212.7152175155856,226.86721611359025L213.28004815158025,227.29212734924806L213.3768762606079,227.69376676580595L214.49039951442592,228.10260457165248L215.20047231396205,228.5063969660391L215.66847484092906,228.8978623714704L215.74916493178543,229.2674928041758L215.89440709532693,229.6181513122182L217.34682873074172,229.98635552487406L217.39524278525556,230.33347115097126L217.84710729405128,230.67389309621822L218.00848747576404,230.9986000403913L218.94449252969804,231.32978493067583L219.5093231656927,231.65596855603604L220.05801578351605,231.97688206527192L221.0262968737926,232.30430936089795L223.02741112703077,232.66035684284984L223.97955419913606,233.02239543030473L224.39914267158926,233.3743074940428L224.44755672610304,233.7060337116299L224.78645510769985,234.02645026750503L224.8994212348988,234.330261041515L225.83542628883276,234.6395419314034L225.93225439786042,234.93244264050327L226.8359834154519,235.2302888296618L229.59558452274004,235.57604022034965L230.1442771405634,235.9158348856596L231.04800615815486,236.258292835076L231.5644227396357,236.5926159761752L232.59725590259728,236.9311223590628L232.96843032053664,237.25796278420302L233.50098492018878,237.57764706694343L234.77588835571956,237.90567762955487L234.88885448291845,238.2160230973964L235.09864871914505,238.5116664245999L236.0669298094216,238.81306755281148L236.55107035455987,239.10913127253446L236.92224477249923,239.39613170965083L237.2127290995822,239.67237840476048L239.55274173441714,239.98524331138617L240.5855748973788,240.30100780921927L243.02241564124142,240.65278233769737L243.44200411369462,240.99245068663896L244.79759764008176,241.34082450188163L246.54050360257958,241.7048616459754L246.65346972977846,242.048913360533L248.47706578313264,242.4097782812832L248.5254798376465,242.7498108870829L248.86437821924326,243.0774475404833L249.81652129134855,243.40557321701553L249.97790147306128,243.71714575931517L250.51045607271337,244.02064750735835L251.88218761727182,244.33385443752462L252.3824661805814,244.63792580395278L252.64067447132177,244.92844947871012L252.91502078023348,245.20641220350774L253.56054150708454,245.47900491247648L254.30289034296322,245.75020800604716L254.31902836113449,246.00521964065823L254.67406476090255,246.2523970222558L255.2388953968972,246.4973750792313L255.65848386935036,246.73593875662104L255.80372603289186,246.9628452630826L256.64290297779814,247.1926038914353L256.69131703231204,247.40931847874853L257.2400096501354,247.62349974748372L257.3045617228205,247.82589420332013L257.6757361407598,248.02328701317836L257.7725642497875,248.2105663614413L257.80484028613006,248.38705638624697L258.4503610129811,248.56528505740587L258.5471891220087,248.73441775793768L258.8376734490917,248.89858332641168L259.87050661205336,249.0705857740053L260.17712895730756,249.23798605291333L260.3223711208491,249.39830225956234L261.41975635649584,249.57213746497698L261.45203239283836,249.73599242888187L262.4203134831149,249.9085555307963L264.9862583723477,250.11819930030626L265.8415733354253,250.32944411460545L266.1643336988509,250.53300275752196L266.6646122621604,250.73410998492972L266.8098544257019,250.9257973172668L267.0842007346136,251.1113147908136L267.3585470435253,251.29135502541016L268.6818645335699,251.4851985644064L269.0530389515092,251.67383000159987L269.2789712059071,251.85506319602956L270.4731845505815,252.0467207468715L272.31291862210696,252.25695108705503L273.86216836654944,252.48407465150592L273.9428584574058,252.69879282835L274.52382711157173,252.91065327203708L275.02410567488124,253.1183547255465L276.589493437495,253.34042119533302L277.0090819099482,253.55601601908967L277.0736339826333,253.75950876070345L277.33184227337364,253.95478305260218L278.0096390365673,254.14871119675118L279.04247219952896,254.34793128260287L279.09088625404274,254.53588076636825L279.34909454478316,254.7170475409476L280.89834428922563,254.91466044208678L281.75365925230324,255.1143748217001L283.28677097857445,255.32703991462333L285.19105712278497,255.55633783214125L285.6429216315807,255.77959555908825L286.595064703686,256.0057473919011L287.35355155773595,256.23039002781746L288.51548886606776,256.45977067338254L288.822111211322,256.6801157225589L289.5160459926869,256.8977844009035L290.77481141004637,257.1202989205419L291.0491577189581,257.3333738771771L291.48488420958256,257.5408961066961L291.8237825911793,257.7415120348486L292.01743880923465,257.93336879286846L292.25950908180374,258.1177155750143L292.32406115448885,258.29187477486437L292.5984074634006,258.45973745317417L293.17937611756645,258.6264333352085L293.8248968444175,258.7929378830569L294.35745144406957,258.95738151532146L296.13263344290993,259.1384218955105L296.98794840598754,259.3200124566803L297.05250047867264,259.4913937219526L297.37526084209816,259.6574460536572L298.63402625945764,259.8339070468702L299.31182302265125,260.0098162457833L300.1348619493863,260.18717137123235L300.50603636732563,260.35912034491736L301.4581794394309,260.5346979757559L301.50659349394476,260.700282898768L302.5555646750777,260.870287276766L303.02356720204466,261.0360641999647L303.57225981986807,261.1995867382233L304.1370904558627,261.3619499935595L304.76647316454245,261.5244055856998L306.2511708362998,261.6982957433528L306.6062072360679,261.8665863191983L307.9295247261125,262.04335366277553L310.2049852882624,262.2403156616339L311.2700944875666,262.44118865766507L311.3830606147655,262.6313531336487L311.52830277830697,262.8119278874392L311.8026490872187,262.98534654999935L311.99630530527395,263.1508894058204L312.09313341430163,263.30767538242924L313.0452764864069,263.4678353769715L313.85217739497074,263.62936777299853L314.61066424902066,263.79096390342715L315.1916329031866,263.9499184701804L315.5789453392972,264.1038854461928L315.62735939381105,264.2490330493059L316.8377107566567,264.40302390317436L316.9345388656844,264.5490493227953L317.4186794108226,264.69282535547916L317.56392157436414,264.82976119525307L317.7253017560769,264.96049741281746L319.20999942783425,265.10300769081636L319.2261374460055,265.23704683937024L319.3552415913757,265.36463844957893L319.4197936640608,265.4853054500592L319.6941399729725,265.6022734011456L320.72697313593414,265.7254080989926L321.0335954811884,265.8447650147231L321.5822880990118,265.96334603825596L323.21222793431065,266.09710215456676L324.22892307910104,266.235913285777L324.9712719149797,266.37576098649936L325.6813447145158,266.51614463802593L325.98796705977,266.6519366162173L327.0692142772455,266.7927862774583L328.00521933117955,266.9358052628745L328.3763937491189,267.0750959152833L330.4097840386996,267.23260442020967L330.4420600750422,267.38091542555367L330.95847665652303,267.52656453104964L331.45875521983254,267.66945775831124L332.41089829193777,267.81549418755986L334.7186348904302,267.97985497114786L335.1059473265409,268.1392406309487L335.2511894900823,268.29087839818794L336.09036643498865,268.44386311935455L336.1387804895025,268.58808706376135L338.5756212333651,268.75280028206976L338.801553487763,268.9100947265788L340.44763134123315,269.0762992888209L340.7865297228299,269.23676215694763L342.9328861396096,269.4148239720563L344.09482344794145,269.59632743988004L344.44985984770955,269.77122293198045L344.72420615662116,269.9388973676649L345.4665549924999,270.1052764200568L346.0152476103233,270.26785706497265L347.0642187914562,270.43309662614956L348.3552602451582,270.60482269842765L348.43595033601457,270.76707290959985L349.58174962617517,270.93349495061375L350.16271828034115,271.0968528702747L350.9534811707336,271.2600812397457L351.9540382973527,271.4251295589313L351.970176315524,271.5802962499919L352.5188689333474,271.73221898906553L352.7448011877453,271.8774164007344L353.42259795093884,272.0222169019069L356.11764698554185,272.191170584714L356.6179255488514,272.35588426315184L357.16661816667477,272.51719051154726L358.31241745683536,272.6817936938427L358.90952412917255,272.84294332980835L359.44207872882464,273.00070737308016L359.73256305590763,273.15239096057996L359.76483909225016,273.29521871385316L360.1360135101895,273.4339990053601L360.15215152836083,273.5645149944537L360.1682895465321,273.68726639886864L360.21670360104594,273.80312063958246L360.5233259463002,273.91555619511314L361.0881565822948,274.0277917858921L361.58843514560436,274.13907671353553L362.21781785428414,274.2508934525707L362.37919803599686,274.3577596115223L363.8154816532404,274.4748426405485L364.04141390763823,274.5873123503451L364.50941643460527,274.6980802073173L364.6385205799755,274.8034817928024L365.10652310694246,274.9075118131262L366.7041869058987,275.02416401635963L370.43206910346345,275.17585221398633L370.83551955774533,275.3225547171877L370.88393361225917,275.4608201953053L371.0291757758007,275.59218696209274L371.4810402845964,275.7204110873711L372.045870920591,275.8473289919815L372.23952713864634,275.96876584342164L373.272360301608,276.0945463798429L375.4509927547302,276.23675777218796L376.3224457359791,276.37971506904796L378.46880215275877,276.5369339996005L378.48494017093003,276.68474669237867L380.74426271490864,276.8480484298092L382.696962913633,277.0220323281036L382.80992904083195,277.18655107672254L384.8271813122414,277.3621997069737L385.60180618446265,277.53534723848594L386.65077736559556,277.70884654738165L386.9573997108498,277.87493841650183L387.40926421964554,278.0355745043352L387.7643006194136,278.19011813628276L388.1031990010104,278.3387407579628L389.20058423665716,278.48925962836546L390.05589919973477,278.63898474200147L390.99190425366874,278.78944450148913L391.7019770532049,278.93802086029257L392.1699795801719,279.0822581155423L395.15551294185786,279.2474439049693L395.3975832144271,279.40486165091335L395.44599726894086,279.55313566517884L395.80103366870895,279.69571276643524L395.8978617777366,279.8304982734389L396.6724866499578,279.9647912542999L397.6569057584056,280.10086551374445L397.8828380128035,280.2308618613737L398.0603562126875,280.354665430237L398.9479472121077,280.4795944855854L399.12546541199174,280.59862951592214L399.22229352101937,280.711344035798L400.17443659312465,280.8264515865868L400.6101630837491,280.93874121430935L400.9813375016885,281.04768380225204L402.11099877367775,281.1603962758979L402.4660351734458,281.2696099413804L402.9985897730979,281.37739305050064L403.2729360820096,281.48133539511576L403.3859022092085,281.58006816668615L404.0314229360595,281.67900231842196L404.3219072631425,281.77465156925433L404.41873537217015,281.86538702096857L404.467149426684,281.9510470216592L405.693638807701,282.0430643947316L405.70977682587227,282.12962155157607L406.4682636799222,282.2180742190199L406.96854224323175,282.30578243008836L407.4042687338562,282.39210908639285L407.45268278837,282.4736131509925L407.53337287922636,282.5508715845343L408.43710189681786,282.63143316997355L408.67917216938696,282.70938438366045L408.856690369271,282.784275506746L409.6474532596635,282.8621666688599L410.5673202954262,282.943820999902L411.2935311131336,283.027156764892L411.95518985815596,283.1114346951434L412.16498409438253,283.19249256684265L412.1811221125538,283.26875434718505L412.5361585123219,283.34362100347107L412.61684860317825,283.4146616663939L412.79436680306225,283.4829847177196L414.58568682007393,283.5628505718124L414.92458520167065,283.64095015147L416.0381084554887,283.72456911919187L416.08652251000257,283.8035211940802L416.10266052817383,283.87780276815397L416.87728540039507,283.9544734102772L417.2645978365057,284.02992131890284L419.3948162351141,284.11956665922787L420.04033696196507,284.2092600959347L420.6858576888161,284.2988674347067L420.8956519250427,284.38479880104074L421.9284850880044,284.4747666610216L422.9774562691373,284.5683917662143L423.34863068707665,284.65951985882197L424.70422421346376,284.756727930291L424.7526382679776,284.848423876161L424.83332835883397,284.9352282602962L425.91457557630946,285.0258601773995L426.2050599033924,285.11335838983564L427.4154112662381,285.2055701049078L428.04479397491787,285.2976231537778L430.59460084597947,285.40548020341424L431.272397609173,285.51241472526283L431.2885356273443,285.6129625671357L432.3375068084772,285.7158853538737L432.4343349175049,285.81330838358423L432.853923389958,285.90810051193523L433.19282177155486,285.9997588741823L433.2896498805825,286.0866460135949L435.21007404296427,286.18422566824745L435.8394567516441,286.2809719007899L439.29299264029703,286.3992106223891L439.69644309457897,286.51349781099236L439.90623733080554,286.62251920607036L440.34196382142994,286.7284442384623L440.45492994862894,286.828841863199L440.8422423847395,286.9262392752844L441.0681746391374,287.01949587153445L441.5200391479331,287.11063075172933L442.681976456265,287.20534045688584L443.35977321945853,287.29959332245585L443.9246038554532,287.3924990532991L444.5217105277904,287.48429971570374L445.9902701813765,287.5816554725259L447.9752464164434,287.68853328987166L448.0882125436423,287.7897570863981L449.1049076884327,287.8925539006785L449.298563906488,287.9905545868524L450.7509855419028,288.0934947519812L450.79939959641666,288.19051146782056L453.17168826759416,288.29939419137867L453.2362403402793,288.4021151824802L453.93017512164414,288.50374881380486L454.10769332152825,288.60050156459056L454.18838341238455,288.691952539679L454.269073503241,288.7784262485658L454.81776612106427,288.86369083123594L454.97914630277705,288.944943987254L455.3987347752302,289.02433677328725L456.12494559293765,289.1042605690594L456.496120010877,289.18200029272776L457.31915893761203,289.26087377994753L457.7064713737227,289.33765215051176L458.0130937189769,289.4119264922982L458.23902597337485,289.48337009808876L458.7715805730269,289.5544132782556L460.595176626381,289.63442571738756L461.3859395167736,289.71523881636335L462.6931189886469,289.8004633904504L462.87063718853096,289.8817333766103L463.1933975519564,289.9602905351886L464.3714728784596,290.0422134551849L465.29133991422225,290.1258051692086L467.01810785854883,290.21644180172996L469.29356842069865,290.3172794893012L469.92295112937836,290.41620451269256L470.39095365634546,290.51223919355726L471.0203363650252,290.606859673497L471.7949612372464,290.7011948142559L472.56958610946765,290.79514397522473L472.6018621458102,290.8835877586629L472.7309662911804,290.96753459222367L473.21510683631874,291.04971573857415L473.586281254258,291.1294550860156L474.73208054441864,291.21225573276115L477.00754110656845,291.3053357020146L478.0403742695301,291.39989016556905L478.78272310540876,291.4937367205206L479.266863650547,291.5851535809292L479.62190005031516,291.673403170445L479.75100419568537,291.7571462930563L481.719842412581,291.8489877351718L482.20398295771923,291.93838084382213L482.5590193574874,292.02462067332715L483.0915739571394,292.10915954177256L484.2857873018138,292.19660965143134L484.9151700104936,292.28291000166837L486.3030395732233,292.37315650495907L487.48111489972644,292.4656348493452L487.8845653540084,292.55507806297203L488.0943595902349,292.6404108802867L488.2396017537764,292.7214596413992L489.5145051893072,292.8058096097214L490.46664826141244,292.8912891836385L492.30638233293786,292.98347145366193L492.548452605507,293.07159537938816L493.8233560410378,293.1624940057248L495.22736362193876,293.2566182594779L496.66364723918235,293.3542175747679L497.26075391151954,293.4496401526999L497.8255845475142,293.5428146158206L499.0197978921886,293.63783309063547L500.76270385468644,293.7377932470214L501.02091214542673,293.83321796521443L501.3598105270236,293.9248924310216L501.5050526905651,294.011887190643L501.76326098130545,294.09519620418826L502.77995612609584,294.1797815706392L502.7960941442671,294.2593074369497L503.022026398665,294.3353791800371L505.0070026337319,294.4190153448839L505.18452083361586,294.4986389891172L506.79832265074344,294.5831140182372L507.879569868219,294.66890505183636L511.1071735024741,294.76891712681356L512.4627670288613,294.87083689354904L512.4950430652038,294.9667274155088L513.1567018102261,295.0605899241016L513.1728398283974,295.14882086028564L513.6408423553645,295.2343581257375L513.673118391707,295.3148674611127L515.2707821906633,295.3999442282138L517.6914849163546,295.4939446726075L518.7243180793163,295.5881281606516L518.8211461883438,295.6771170450082L518.9179742973715,295.76122379178946L518.9825263700567,295.8405656181683L518.998664388228,295.9151605325752L520.2090157510737,295.9920663781217L520.8545364779246,296.06802365144125L521.7421274773449,296.14443321233136L523.6786896578978,296.22718410153743L523.8077938032682,296.30561748786187L524.5824186754893,296.38360926407256L525.615251838451,296.4625348711688L525.6636658929649,296.53690853710714L526.1639444562744,296.6094990155457L526.3253246379871,296.6785739110281L526.4382907651861,296.7440734807512L526.7287750922691,296.8072126060624L527.6486421280317,296.87166741315707L528.3587149275679,296.9361256473138L529.7465844902976,297.0043178911092L531.2151441438837,297.0763661041409L531.2474201802262,297.1441913802072L531.7638367617071,297.21063864668247L532.0543210887901,297.27457229721483L536.6213802312611,297.359337135265L537.0409687037142,297.44115305526225L537.7510415032503,297.5216995256348L538.6386325026705,297.6019822760038L539.6391896292896,297.68272655202856L539.8489838655162,297.75965585527865L541.3336815372736,297.8397108360109L541.8016840642406,297.91733720928664L542.4310667729203,297.99352397980863L543.4800379540533,298.0704846776768L546.9497118608775,298.16061782919377L548.2246152964084,298.25176764873544L548.6442037688615,298.3395004422322L548.9992401686295,298.42368328304127L549.3058625138838,298.50427614376395L549.6286228773093,298.581568488588L549.7093129681657,298.65455057323607L549.9675212589061,298.72436670658317L550.1611774769614,298.79088119985823L550.4193857677019,298.8546128126531L550.8551122583264,298.9166203919286L551.952497493973,298.9804335475907L552.9530546205922,299.0453677649484L553.0821587659624,299.106988487809L556.3097624002176,299.18079760877885L556.4227285274164,299.2506476946768L556.5679706909578,299.3169363937061L557.3748715995217,299.3831327295908L557.4232856540355,299.4455304851199L557.7621840356322,299.50580391709286L557.9558402536876,299.5633655220247L558.2624625989419,299.61893086997685L558.5690849441961,299.67260741730894L560.7638554154896,299.73369751029975L562.0710348873629,299.7973387041083L562.0871729055342,299.85717442709495L562.6358655233576,299.9159441956643L562.9424878686118,299.97256670656475L563.6848367044905,300.02930460320846L564.8467740128224,300.08817965771846L564.9274641036787,300.14384742484776L565.347052576132,300.1981167751401L566.0894014120106,300.2526076139151L566.3314716845797,300.3049179749326L567.6547891746243,300.36028328648706L568.3487239559892,300.41550040889143L568.7683124284424,300.46927656885566L568.978106664669,300.5207365746645L569.4299711734647,300.57114469321533L570.1239059548295,300.6217539215791L572.2541243534379,300.6792094950149L572.3670904806369,300.73368333810004L572.4316425533219,300.78513445792515L574.0777204067921,300.8410180998052L574.7232411336431,300.8964151461481L576.2402148417431,300.95531159219746L576.466147096141,301.0116597124107L576.7566314232239,301.06590698711346L577.4344281864174,301.1199242924479L579.0320919853738,301.1778702709275L581.8239691290045,301.24466076942923L582.6792840920821,301.3112276473342L584.599708254464,301.3822471540902L587.5368275616361,301.4617054948351L588.1339342339733,301.53889825865184L588.47283261557,301.61286885440023L589.0699392879072,301.6849498097287L589.6509079420732,301.75515244148403L592.216852831306,301.8321135654684L592.6364413037592,301.906159785042L593.2819620306102,301.97840755364285L594.0243108664889,302.04933348934526L595.0732820476218,302.12043632119855L595.1862481748208,302.1876863987019L595.315352320191,302.2513848105607L596.0899771924122,302.3144703208062L596.2352193559536,302.37431986998723L597.187362428059,302.43452644472205L597.3971566642855,302.4919336526839L599.7371692991205,302.55550384148967L599.9308255171758,302.6159873351729L600.4633801168279,302.6749649720452L601.1411768800215,302.7331794056682L602.1901480611544,302.7922045255567L603.3843614058288,302.8525639329663L604.1428482598787,302.91235554837806L604.7238169140447,302.9708757772612L605.1918194410117,303.02772250098474L605.6598219679787,303.08298701181747L605.8696162042053,303.1357148603038L605.9180302587191,303.18541967691834L606.9831394580234,303.23640074917716L607.0315535125371,303.28447018809806L607.725488293902,303.33245437727584L608.5162511842946,303.38072300691783L609.419980201886,303.42971153061774L611.5501986004944,303.4842401590339L611.6631647276932,303.5358880778027L611.6793027458646,303.5844484609178L611.7922688730634,303.6304926378202L613.2931045629921,303.67966126789133L613.4867607810475,303.72660870402035L613.696555017274,303.7715369501991L613.809521144473,303.81417869923666L615.6492552159984,303.86153288649194L615.7138072886836,303.9062537214236L616.149533779308,303.94996288171427L616.1818098156506,303.99113329965894L617.263057033126,304.0340415484169L617.6342314510654,304.0757751576341L618.7638927230546,304.1192919682962L618.9252729047673,304.16078588930407L619.1996192136791,304.20082915714715L619.3125853408781,304.2388740009241L619.3609993953918,304.2747879523465L619.7644498496737,304.3100968492916L621.9592203209672,304.3517996889208L623.4439179927247,304.3966757521361L623.5568841199236,304.4392455968652L625.0093057553383,304.48468911396014L625.1545479188798,304.5279195345495L625.3482041369351,304.5692581768658L625.6548264821894,304.60925254169615L625.9291727911011,304.6478630598977L626.1712430636702,304.6850492725107L626.8006257723499,304.72236989691305L626.9942819904053,304.7581517525983L627.3977324446871,304.7932863979217L627.8818729898254,304.82811944024564L627.9948391170244,304.8612566860014L628.9308441709584,304.89591108568555L629.6731930068371,304.9312399703415L629.9798153520912,304.9655554945562L630.0927814792902,304.9981979813821L630.835130315169,305.031586144726L631.6743072600752,305.06606299397737L631.7227213145891,305.0986175688793L632.2875519505836,305.13131224928003L634.3370802583357,305.16965120687996L634.3854943128496,305.20582987892925L635.2246712577559,305.2429074148836L635.2408092759271,305.2777826847657L635.579707657524,305.3117799599325L636.4672986569442,305.34694020441594L637.871306237845,305.38504730159104L637.8874442560164,305.4208888889882L638.5006889465249,305.45680155479494L638.742759219094,305.4914106571182L639.0655195825195,305.52508906719396L639.2107617460609,305.5572429811887L639.3560039096025,305.58796451242085L639.8401444547407,305.6185769986127L640.6309073451333,305.6501999421665L641.5184983445534,305.68310866570215L642.0349149260342,305.71586742443293L642.3899513258024,305.7478944740079L643.5680266523054,305.7821252616078L646.0210054143394,305.8230650632986L646.8117683047319,305.8643212675367L647.3927369588978,305.9051218083722L648.3932940855169,305.9469608101189L649.6359214847051,305.9905426680787L649.684335539219,306.0316347331981L650.9108249202359,306.0745451697109L651.2497233018327,306.1160260206022L651.3788274472029,306.1554291238155L651.5886216834296,306.19316246286274L651.6208977197721,306.2287074895793L651.7177258287998,306.2624221111274L652.7505589917614,306.2976847373706L653.2992516095846,306.3327022625831L653.3315276459273,306.3656960389306L653.3476656640986,306.39673313477175L654.7355352268282,306.4306679737323L654.7839492813421,306.46269840471246L655.2196757719665,306.4942532009733L657.9792768792547,306.5333334656849L658.0922430064536,306.5704161275499L659.1573522057578,306.60887393852425L659.2380422966141,306.6452608973351L660.9163961864269,306.68510856911126L661.1907424953386,306.72344193337904L662.271989712814,306.76302305924276L662.5947500762395,306.8012823254053L663.1918567485767,306.83922579543946L663.2564088212619,306.87507252684276L664.321518020566,306.9123074724294L665.1606949654723,306.9500801918374L665.4027652380415,306.9863548377792L665.6448355106107,307.0212236736788L665.903043801351,307.0548272926214L666.1128380375777,307.08707945800154L666.6776686735724,307.1192338215842L666.9842910188265,307.150434567246L667.0972571460254,307.18010140257945L670.8574153799327,307.2202974825461L671.8256964702092,307.26120660792014L672.3098370153476,307.3011995863725L672.6164593606018,307.33975066055785L674.0527429778452,307.3805550260735L674.6821256865251,307.42088041591745L674.7466777592101,307.45895584153936L674.8919199227516,307.4951804109248L674.9887480317793,307.5295088971194L675.3921984860611,307.5630511048464L676.3120655218239,307.59751821659466L677.0060003031888,307.63211426196233L678.6682161748303,307.6699204009907L679.652635283278,307.70853317597863L680.5402262826982,307.74754593969993L681.0727808823503,307.7858709952045L682.8318248630194,307.8274264398388L682.928652972047,307.86675246917366L683.0738951355885,307.9041372603651L683.9453481168373,307.9419832926921L685.155699479683,307.98130700805405L685.7043920975065,308.0199288923331L686.8663294058383,308.0597408556021L688.2864750049106,308.10154287662164L689.8357247493531,308.14557959349133L690.1423470946072,308.1878728993779L690.8362818759721,308.22971797429966L691.9498051297901,308.2724003665182L695.4194790366145,308.3229812892186L697.0494188719133,308.37539221473276L697.9370098713334,308.4272583715218L698.1790801439025,308.4766784406755L699.2926033977207,308.5263539442934L699.841296015544,308.5746424202502L701.0355093602184,308.62354761054155L701.2937176509588,308.6702353435219L701.4712358508428,308.714602589132L702.0199284686662,308.75789163479664L703.3109699223683,308.80235430960795L704.2953890308161,308.84698324098235L704.3115270489874,308.8889371582041L704.5535973215565,308.9290324560247L705.2475321029214,308.9686686863257L705.5702924663468,309.00683103650255L706.2642272477117,309.04470222245493L706.344917338568,309.08049979913426L707.5068546468999,309.1175057928595L709.7823152090499,309.1588498174765L710.1534896269892,309.19873647564293L710.1696276451604,309.2362362971443L710.2180416996744,309.2715862768048L712.3643981164539,309.31088924417236L713.9136478608965,309.3522329190118L714.236408224322,309.3919747741618L714.8657909330017,309.4310831120815L715.0433091328857,309.46831018098834L718.9325715121631,309.51418788374474L719.626506293528,309.5592148105735L720.2881650385503,309.60334749677696L721.4178263105396,309.64794142291885L721.8696908193353,309.69107420668144L722.6927297460704,309.7338498235478L724.2581175086841,309.77829244307617L724.3872216540543,309.8203819457174L724.7583960719937,309.8609312778087L724.8390861628501,309.89923074992805L725.1134324717618,309.9359528862403L725.9364713984969,309.972702187964L726.5497160890053,310.0088950253482L729.632077559719,310.0512538988994L729.8418717959456,310.091586738023L731.0038091042775,310.1326013757397L732.6983010122614,310.1756931497244L734.1023085931624,310.2199295124827L734.2959648112177,310.2619865525003L734.8123813926985,310.3028564577875L735.2642459014943,310.34242906822294L736.6682534823952,310.3832784581639L736.829633664108,310.4220664858636L736.9264617731357,310.45874678027144L736.9910138458207,310.4933619111034L737.4912924091303,310.5271980546536L737.5235684454728,310.559056195462L737.7495006998706,310.5895711317817L737.8463288088983,310.61848156185215L739.0244041354015,310.64874732260853L742.0906275879439,310.6851789341786L743.0104946237066,310.72177469076485L743.1234607509056,310.7564343231261L744.430640222779,310.7923887452803L744.6888485135192,310.8268211157755L744.850228695232,310.85957299090524L745.1245750041437,310.89103902345437L746.3026503306468,310.92363490047825L746.7222388031,310.95532708949736L746.7383768212712,310.9851275694032L747.8680380932606,311.01599850024706L748.9654233289073,311.04776303517343L749.2236316196478,311.0782528427254L750.288740818952,311.10961336351556L751.0633656911732,311.1410364061678L751.3215739819136,311.1712011477617L751.7895765088806,311.2007184160724L752.1930269631625,311.22946010765327L752.4996493084167,311.2572268687756L752.5964774174444,311.2835455303184L754.8235239250805,311.31381937289325L754.9526280704507,311.3425724598082L755.9854612334124,311.37217798702306L756.4211877240367,311.40107214817505L758.5998201771589,311.43365118376744L758.7127863043579,311.46452502003484L759.0032706314408,311.49423924658083L760.6654865030822,311.52622275253424L761.0527989391929,311.55719423924677L761.1496270482205,311.58651685246355L761.2141791209057,311.6142113380508L761.4401113753034,311.64077651923253L762.4406685019226,311.668199646061L763.5380537375694,311.69665203313724L763.9737802281937,311.72443972036854L765.038889427498,311.753142591404L765.2486836637246,311.7806070756249L765.7651002452054,311.8076514593001L766.0555845722884,311.8337490175945L766.2169647540012,311.8586445520217L766.5558631355979,311.8828319259792L766.9593135898798,311.9065032165437L768.314907116267,311.9320160335606L769.4445683882562,311.9587055828303L770.3805734421903,311.9860263568383L771.0260941690412,312.01323421590655L771.4618206596657,312.0398297261255L771.9136851684615,312.0658840469448L772.9142422950806,312.0927081081797L773.527486985589,312.11933514154254L774.0600415852412,312.1456127598333L774.3343878941528,312.17094308488856L774.9637706028326,312.19622960642727L778.8691710002813,312.22918445492377L779.1273792910217,312.2607240242252L781.4512539076853,312.29576727686293L782.2904308525917,312.33063078586935L783.0005036521279,312.36501993866483L783.5653342881226,312.39862395751396L784.0494748332608,312.4312986901153L784.4367872693715,312.46287012610406L784.824099705482,312.49340193268574L784.9532038508522,312.5223652035185L785.1307220507363,312.5499600109732L785.1468600689075,312.5759075436992L785.5341725050182,312.6011456213326L786.1151411591841,312.6261759411046L786.5508676498085,312.65068500727193L786.6154197224936,312.6738480098089L786.8574899950628,312.6961564766393L787.2770784675159,312.71806997036265L787.4545966674,312.73905417689036L787.632114867284,312.7591644613276L788.1646694669362,312.77926845417585L789.5364010114946,312.80128291958476L790.085093629318,312.82320533088273" fill="none"></path></g></g></g></g><g opacity="0.2"><g><g><g><path style="fill: none;" stroke="rgb(0, 119, 187)" stroke-width="2px" d="M81.38402563774358,52.76626259142898L81.43243969225742,52.77172154679744L81.85202816471059,53.35848704050136L82.22320258264993,53.62392513487197L83.40127790915305,55.027858698862474L84.40183503577214,56.87419871459127L84.48252512662853,57.01038376518511L84.82142350822532,57.6688088793606L85.11190783530829,58.238850906618325L85.67673847130293,58.83844061293388L85.70901450764548,58.862442686537975L85.83811865301568,58.935893075437264L88.35564948773471,64.21779343643351L89.35620661435381,66.83520367711526L90.05014139571865,68.68980433430107L90.16310752291758,68.98383695679212L90.93773239513882,71.1349830889402L91.14752663136541,71.75796831826341L91.53483906747603,72.70938625390733L92.22877384884089,73.76556414257442L92.3578779942111,73.92390273162118L93.14864088460361,74.70658406799282L93.37457313900147,75.75143967885867L93.64891944791316,76.91552580697822L93.7457475569408,77.34707211470311L94.19761206573652,79.63443218080675L96.37624451885875,86.52577122455813L97.0701793002236,88.49639634584474L97.90935624512994,90.50069946691775L98.52260093563842,91.4273065948289L99.74909031665538,94.18731399241034L101.05626978852872,99.26913930664864L101.94386078794889,101.82671766349051L101.9922748424627,101.95136381107011L102.21820709686057,102.58428491683111L102.28275916954567,102.78109614371266L103.05738404176691,104.86238786549774L103.17035016896584,105.16884033353608L103.88042296850197,106.9288624227114L104.36456351364023,107.79913255355297L105.28443054940296,108.98200730848299L105.75243307636995,110.37713144714348L106.01064136711037,111.26320077685563L106.26884965785078,112.1934327666649L107.99561760217729,117.42441176091734L108.43134409280174,118.53035568185868L108.68955238354215,119.18795762022467L108.73796643805598,119.30175806547169L109.4480392375921,121.05057341029271L110.46473438238247,123.19857125601138L110.81977078215054,123.79267312359667L110.99728898203456,124.06370014846357L111.64280970888561,125.00261158847508L111.9171560177973,125.87227516872014L112.12695025402388,126.48370705334818L113.56323387126743,130.54238260306664L114.53151496154398,132.78906045416255L116.00007461513005,136.02789622263364L116.19373083318537,136.41185719189542L116.7101474146662,137.33325087301296L116.80697552369384,137.49603749976734L117.12973588711937,138.01349736698134L117.21042597797573,138.13349329332115L117.93663679568316,139.34195870675092L119.25995428572774,142.7191024529036L120.01844113977772,144.33215155587598L120.2927874486894,144.89189666467416L120.32506348503195,144.95876164709722L120.40575357588833,145.11912207146565L120.80920403017022,145.91594181340793L120.82534204834151,145.9490710293212L121.01899826639682,146.33775442822716L121.09968835725319,146.48630155764477L121.5676908842202,147.39267589065858L121.80976115678932,147.8679227246928L121.90658926581698,148.05674770205383L124.03680766442537,151.4557417113612L124.92439866384554,153.3851213920862L128.58772878872514,159.98811783560888L129.7335280788857,161.59332510586938L129.78194213339955,161.65478889964749L130.71794718733355,163.16192271512725L131.71850431395265,165.01996049235987L132.83202756777067,166.78597587909576L133.05795982216853,167.12440222857785L133.09023585851108,167.17392275227735L133.10637387668234,167.19665395796503L134.04237893061634,168.6046023092371L136.8665321105896,172.4416413826603L139.09357861822565,175.76432555025633L139.1258546545682,175.80499332358318L139.932755563132,176.87873229618685L141.0785548532926,178.35808031767482L141.9177317981989,179.30967155348924L142.25663017979568,179.66333387628802L142.36959630699462,179.7774664801951L144.09636425132112,182.1544516177712L144.54822876011684,182.72024779085345L145.00009326891256,183.2759347873275L145.8392702138189,184.2708799491104L146.839827340438,185.44591287132863L148.42135312122304,187.06333780360427L148.92163168453257,187.59876312181922L149.00232177538896,187.70177563145717L150.3740533199474,189.39756112412752L150.40632935628994,189.43314542578852L151.7135088281633,190.85466895707737L153.19820649992064,192.40369808875786L153.47255280883232,192.66496253735735L153.81145119042912,192.9852501356681L155.97394562538008,195.14315497446282L156.03849769806519,195.21894491566286L156.1676018434354,195.36588901850405L157.97505987861828,197.15521327816236L158.20099213301614,197.3653541764859L158.81423682352462,197.9416927766025L159.00789304157993,198.1275138843428L159.6856898047735,198.73337128015544L160.92831720396174,199.73387648907286L162.2032206394925,200.99441860371593L162.23549667583507,201.02930970469524L163.10694965708396,201.8409032861664L163.55881416587968,202.2441872244308L165.25330607386363,203.69865222978163L166.70572770927845,204.82364472778906L166.96393600001886,205.00426683041655L167.18986825441672,205.1610890429721L168.17428736286453,206.0397064653559L170.2560917069591,207.78891173556036L172.35403406922495,209.3797639750372L173.0641068687611,209.85252683996194L174.43583841331952,210.92307420109358L174.75859877674503,211.2031128348227L175.339567430911,211.6464291124557L175.4525335581099,211.73192386319965L176.03350221227583,212.16235816149762L176.37240059387264,212.40252331434763L177.3729577204917,213.11771867601882L177.69571808391723,213.34887222000663L179.48703810092886,214.4854758294327L179.6484182826416,214.58180184082835L180.76194153645963,215.4447789228311L180.9717357726862,215.60584698956208L181.06856388171386,215.67558586647806L181.27835811794046,215.82238555251055L182.19822515370316,216.45269271403427L182.5693995716425,216.6952696275894L182.65008966249889,216.75014801489127L183.60223273460414,217.37633929736734L185.92610735126786,218.76544125510546L186.79756033251675,219.381003460462L187.26556285948377,219.7150828640026L188.13701584073263,220.27217792436133L188.76639854941237,220.6565577023683L188.8148126039262,220.68768674548127L189.00846882198152,220.80753103417194L189.50874738529106,221.10906610987442L191.18710127510377,222.08114287000137L191.31620542047395,222.1503690672465L191.5582756930431,222.27309447127053L193.12366345565684,223.24121421083942L193.54325192811,223.5069194763061L193.89828832787808,223.7171975705979L195.38298599963545,224.5700365926307L195.51209014500563,224.6417900840279L196.17374889002795,225.02176514936986L197.65844656178533,225.79006257159602L198.69127972474698,226.34737425716781L199.46590459696822,226.83006577768992L199.83707901490754,227.03993228407697L200.1437013601618,227.20776627829505L200.9344642505543,227.63682139607002L201.09584443226706,227.72199842983485L201.1442584867809,227.74751687993023L201.38632875935002,227.87791081649564L201.91888335900214,228.15670024482958L204.75917455714665,229.57075020626874L204.8560026661743,229.62349122480202L205.9372498836498,230.23820859182774L206.3891143924455,230.47082796642374L206.55049457415828,230.55375209797305L207.11532521015292,230.83829653613324L208.7129890091092,231.63099317818742L209.6651320812145,232.0675290866525L210.22996271720913,232.3088206906103L210.87548344406017,232.61819037818415L212.7152175155856,233.56555742234443L213.28004815158025,233.83292348111104L213.3768762606079,233.87633517380297L214.49039951442592,234.39598295566864L215.20047231396205,234.72211221389088L215.66847484092906,234.9238263914274L215.74916493178543,234.95734553272416L215.89440709532693,235.01596431537106L217.34682873074172,235.6542577264153L217.39524278525556,235.67675064436864L217.84710729405128,235.9141357736514L218.00848747576404,235.99693715091328L218.94449252969804,236.42784080383947L219.5093231656927,236.677039228073L220.05801578351605,236.91682889722043L221.0262968737926,237.34452649699372L223.02741112703077,238.1411368345634L223.97955419913606,238.59539990629506L224.39914267158926,238.7914312824097L224.44755672610304,238.81242948639309L224.78645510769985,238.9587525969569L224.8994212348988,239.00694448601647L225.83542628883276,239.40042974381132L225.93225439786042,239.44118416722338L226.8359834154519,239.8151587141643L229.59558452274004,240.89833532521584L230.1442771405634,241.1464361817033L231.04800615815486,241.5298916921347L231.5644227396357,241.73899278943568L232.59725590259728,242.14189402315705L232.96843032053664,242.28915584297735L233.50098492018878,242.49868296986398L234.77588835571956,242.95519172297077L234.88885448291845,242.9933033187838L235.09864871914505,243.06263060779503L236.0669298094216,243.4526643038622L236.55107035455987,243.66656726005212L236.92224477249923,243.8140529259259L237.2127290995822,243.92476285146697L239.55274173441714,244.80130789264607L240.5855748973788,245.16170725957022L243.02241564124142,246.06779997980712L243.44200411369462,246.22111286391151L244.79759764008176,246.70349388829496L246.54050360257958,247.308643641745L246.65346972977846,247.34505111921553L248.47706578313264,247.96472920361973L248.5254798376465,247.98408105598406L248.86437821924326,248.12090154053615L249.81652129134855,248.45655508729143L249.97790147306128,248.51331811394667L250.51045607271337,248.6925826985725L251.88218761727182,249.15518584100596L252.3824661805814,249.31862956423987L252.64067447132177,249.40060776569226L252.91502078023348,249.4852143530628L253.56054150708454,249.6751441190103L254.30289034296322,249.92495631468074L254.31902836113449,249.93072576618786L254.67406476090255,250.0573070990039L255.2388953968972,250.26843003162654L255.65848386935036,250.40825438579935L255.80372603289186,250.45571696997504L256.64290297779814,250.7293796016005L256.69131703231204,250.74530155475847L257.2400096501354,250.92048636453882L257.3045617228205,250.94144124347963L257.6757361407598,251.06184153688372L257.7725642497875,251.09343993462494L257.80484028613006,251.10384516569098L258.4503610129811,251.30883760478477L258.5471891220087,251.33795203341649L258.8376734490917,251.4256563613334L259.87050661205336,251.71829536162062L260.17712895730756,251.81485243991017L260.3223711208491,251.8661204069948L261.41975635649584,252.24805954093495L261.45203239283836,252.25828425099016L262.4203134831149,252.56489557751803L264.9862583723477,253.34533845335497L265.8415733354253,253.58122886866778L266.1643336988509,253.66647088999653L266.6646122621604,253.8298424048261L266.8098544257019,253.87652513823485L267.0842007346136,253.96706725644253L267.3585470435253,254.0627939380821L268.6818645335699,254.46911785016943L269.0530389515092,254.5775171067715L269.2789712059071,254.64486588550366L270.4731845505815,254.99699016928992L272.31291862210696,255.49311967386058L273.86216836654944,255.98028811545203L273.9428584574058,256.0040446804814L274.52382711157173,256.1719147789016L275.02410567488124,256.3155950618665L276.589493437495,256.7587885852121L277.0090819099482,256.8747625034299L277.0736339826333,256.89196254534477L277.33184227337364,256.9607266088021L278.0096390365673,257.13393290830345L279.04247219952896,257.41461419683117L279.09088625404274,257.4290703193809L279.34909454478316,257.5058278531992L280.89834428922563,257.95660325900104L281.75365925230324,258.1886666288836L283.28677097857445,258.60068778407367L285.19105712278497,259.08602213219484L285.6429216315807,259.2163005353133L286.595064703686,259.4870026223606L287.35355155773595,259.6884135245989L288.51548886606776,259.9907284510683L288.822111211322,260.0719845684772L289.5160459926869,260.2484546878549L290.77481141004637,260.5455633883711L291.0491577189581,260.61333097584844L291.48488420958256,260.73537762087165L291.8237825911793,260.82968179694564L292.01743880923465,260.88670477385654L292.25950908180374,260.95544717479254L292.32406115448885,260.97278441267565L292.5984074634006,261.04372194910377L293.17937611756645,261.19245682037274L293.8248968444175,261.3560160770536L294.35745144406957,261.4887351242389L296.13263344290993,261.9252565910231L296.98794840598754,262.1153163320984L297.05250047867264,262.12954138775433L297.37526084209816,262.21356308704964L298.63402625945764,262.55024921398706L299.31182302265125,262.7176643994599L300.1348619493863,262.91727731243003L300.50603636732563,263.0060069996886L301.4581794394309,263.23744215645337L301.50659349394476,263.24920490552114L302.5555646750777,263.487239910443L303.02356720204466,263.5879417511419L303.57225981986807,263.7167615444926L304.1370904558627,263.86127944494785L304.76647316454245,264.0251564186078L306.2511708362998,264.3750639043807L306.6062072360679,264.45715763928L307.9295247261125,264.7644116206066L310.2049852882624,265.27223888668107L311.2700944875666,265.5333155934293L311.3830606147655,265.5586390808329L311.52830277830697,265.59159499657574L311.8026490872187,265.65485677962204L311.99630530527395,265.6991638565279L312.09313341430163,265.7211513156508L313.0452764864069,265.9332490617321L313.85217739497074,266.1159074413621L314.61066424902066,266.2784846637439L315.1916329031866,266.39677647174113L315.5789453392972,266.4739672559855L315.62735939381105,266.4833543485503L316.8377107566567,266.7734732755259L316.9345388656844,266.79688324021436L317.4186794108226,266.90603346422165L317.56392157436414,266.9376751870054L317.7253017560769,266.97297787588946L319.20999942783425,267.2967314776088L319.2261374460055,267.3003707811877L319.3552415913757,267.32871257989297L319.4197936640608,267.3427859978997L319.6941399729725,267.40281284443137L320.72697313593414,267.62087500471154L321.0335954811884,267.68207884823397L321.5822880990118,267.78871621977L323.21222793431065,268.15606925603254L324.22892307910104,268.37269446906623L324.9712719149797,268.5284985431205L325.6813447145158,268.6771323226234L325.98796705977,268.74224264082085L327.0692142772455,268.9609474558997L328.00521933117955,269.1373598085539L328.3763937491189,269.21925858076145L330.4097840386996,269.65720255311123L330.4420600750422,269.6639323763962L330.95847665652303,269.7686056793341L331.45875521983254,269.8690764531391L332.41089829193777,270.0634975818368L334.7186348904302,270.5099332625376L335.1059473265409,270.59273463979946L335.2511894900823,270.62510566746715L336.09036643498865,270.7988246466393L336.1387804895025,270.80819007668276L338.5756212333651,271.2883037571698L338.801553487763,271.3313977328826L340.44763134123315,271.63475968121503L340.7865297228299,271.7068381104317L342.9328861396096,272.155808306125L344.09482344794145,272.390290657553L344.44985984770955,272.46346665451586L344.72420615662116,272.5199841725963L345.4665549924999,272.6664228166071L346.0152476103233,272.7705328939911L347.0642187914562,272.9767023300757L348.3552602451582,273.24827813881564L348.43595033601457,273.26466222576136L349.58174962617517,273.4953030900783L350.16271828034115,273.6114936335092L350.9534811707336,273.7727277795702L351.9540382973527,273.96579139026625L351.970176315524,273.96884580577L352.5188689333474,274.0708329560663L352.7448011877453,274.1125044262135L353.42259795093884,274.25119510843814L356.11764698554185,274.7919494068937L356.6179255488514,274.89139482135704L357.16661816667477,275.00024899090647L358.31241745683536,275.2156033360237L358.90952412917255,275.32359100472104L359.44207872882464,275.4292391211176L359.73256305590763,275.48732356157234L359.76483909225016,275.49382953880377L360.1360135101895,275.5703054598451L360.15215152836083,275.5736053839236L360.1682895465321,275.5768330995978L360.21670360104594,275.5865162466204L360.5233259463002,275.64632646793905L361.0881565822948,275.7554839127867L361.58843514560436,275.8521348620019L362.21781785428414,275.9721380091822L362.37919803599686,276.00279769766684L363.8154816532404,276.27715352997404L364.04141390763823,276.3186083749082L364.50941643460527,276.40317885807656L364.6385205799755,276.4259750513282L365.10652310694246,276.50889196203707L366.7041869058987,276.819843013666L370.43206910346345,277.5108557807222L370.83551955774533,277.5808112828512L370.88393361225917,277.58920189943603L371.0291757758007,277.6143737491906L371.4810402845964,277.69422180271476L372.045870920591,277.8010324744213L372.23952713864634,277.8380970483713L373.272360301608,278.0307418503222L375.4509927547302,278.42588068057654L376.3224457359791,278.5803200157887L378.46880215275877,278.9570745862969L378.48494017093003,278.9600928975985L380.74426271490864,279.36182435516946L382.696962913633,279.70024348381116L382.80992904083195,279.71906099398336L384.8271813122414,280.0660368185398L385.60180618446265,280.2006838301212L386.65077736559556,280.3795982039859L386.9573997108498,280.4316640739386L387.40926421964554,280.5083169055705L387.7643006194136,280.56907666740625L388.1031990010104,280.6265545572645L389.20058423665716,280.80626322357705L390.05589919973477,280.9437696879704L390.99190425366874,281.10553817622355L391.7019770532049,281.22512251465855L392.1699795801719,281.3025660283181L395.15551294185786,281.79022187663895L395.3975832144271,281.82806269093567L395.44599726894086,281.8355831962482L395.80103366870895,281.8904651939703L395.8978617777366,281.9053112419035L396.6724866499578,282.0320225498474L397.6569057584056,282.19551681896434L397.8828380128035,282.23195317979656L398.0603562126875,282.2604285640499L398.9479472121077,282.4026827310289L399.12546541199174,282.43098842553195L399.22229352101937,282.44640853027977L400.17443659312465,282.5983530651218L400.6101630837491,282.667265155808L400.9813375016885,282.7246852789428L402.11099877367775,282.89542927185596L402.4660351734458,282.95078423462655L402.9985897730979,283.03654615646656L403.2729360820096,283.0813659130432L403.3859022092085,283.0999054208587L404.0314229360595,283.2019395066178L404.3219072631425,283.2470228238703L404.41873537217015,283.2621179907986L404.467149426684,283.26964932737167L405.693638807701,283.45952854743615L405.70977682587227,283.4620341790669L406.4682636799222,283.5796652801644L406.96854224323175,283.65591374473206L407.4042687338562,283.7209735170465L407.45268278837,283.72824129294384L407.53337287922636,283.7401448484L408.43710189681786,283.87155331304643L408.67917216938696,283.9093219189389L408.856690369271,283.9371077129307L409.6474532596635,284.0611798036957L410.5673202954262,284.200762259714L411.2935311131336,284.30998108170536L411.95518985815596,284.4087621788487L412.16498409438253,284.4402522639834L412.1811221125538,284.4426856872098L412.5361585123219,284.49607658138217L412.61684860317825,284.5082220349929L412.79436680306225,284.5347116881267L414.58568682007393,284.79226101432266L414.92458520167065,284.84317154980585L416.0381084554887,285.0117529010089L416.08652251000257,285.0188654288368L416.10266052817383,285.02125191660036L416.87728540039507,285.13469854066614L417.2645978365057,285.1913243713532L419.3948162351141,285.4995170619362L420.04033696196507,285.5899508675373L420.6858576888161,285.678232862689L420.8956519250427,285.7075783582146L421.9284850880044,285.8596817515462L422.9774562691373,286.0096044510666L423.34863068707665,286.0622949237169L424.70422421346376,286.2530948009367L424.7526382679776,286.25994015766855L424.83332835883397,286.27144656690086L425.91457557630946,286.4209973931389L426.2050599033924,286.46025710258107L427.4154112662381,286.6250258500347L428.04479397491787,286.7146364798263L430.59460084597947,287.06577150847306L431.272397609173,287.1585051517526L431.2885356273443,287.160740001867L432.3375068084772,287.3002213661192L432.4343349175049,287.3129842015871L432.853923389958,287.3672777008138L433.19282177155486,287.4106966143462L433.2896498805825,287.4241382088149L435.21007404296427,287.68631248330917L435.8394567516441,287.7702294804182L439.29299264029703,288.2193115991381L439.69644309457897,288.27277109129466L439.90623733080554,288.3007337958771L440.34196382142994,288.35899514692244L440.45492994862894,288.37430693906373L440.8422423847395,288.42552074984513L441.0681746391374,288.455035935121L441.5200391479331,288.5135103009592L442.681976456265,288.6632488690485L443.35977321945853,288.7504694006563L443.9246038554532,288.8226380903785L444.5217105277904,288.8974279451784L445.9902701813765,289.080295729181L447.9752464164434,289.3337508388506L448.0882125436423,289.34793979030434L449.1049076884327,289.47495076312623L449.298563906488,289.49912252648056L450.7509855419028,289.67809827748897L450.79939959641666,289.68393271656004L453.17168826759416,289.9754741491012L453.2362403402793,289.9833448651748L453.93017512164414,290.0682402861627L454.10769332152825,290.08985948242344L454.18838341238455,290.0996978775154L454.269073503241,290.1095543247084L454.81776612106427,290.17620629233863L454.97914630277705,290.19570978235214L455.3987347752302,290.2464650697659L456.12494559293765,290.3345629334865L456.496120010877,290.378682268541L457.31915893761203,290.4750082799367L457.7064713737227,290.5195355924758L458.0130937189769,290.55526431094546L458.23902597337485,290.58313314460224L458.7715805730269,290.6480123959058L460.595176626381,290.8660926082871L461.3859395167736,290.9592306186309L462.6931189886469,291.1123629817244L462.87063718853096,291.13275824553153L463.1933975519564,291.16955564838554L464.3714728784596,291.30328922365186L465.29133991422225,291.41256942278693L467.01810785854883,291.61165160398514L469.29356842069865,291.86951864716025L469.92295112937836,291.9390011842408L470.39095365634546,291.99054354326194L471.0203363650252,292.06339460240514L471.7949612372464,292.15333739085673L472.56958610946765,292.24134499407194L472.6018621458102,292.24504206437433L472.7309662911804,292.2597653580202L473.21510683631874,292.31476649960945L473.586281254258,292.3569181556456L474.73208054441864,292.4868427375828L477.00754110656845,292.7381568680636L478.0403742695301,292.8554088750383L478.78272310540876,292.9383582795291L479.266863650547,292.99237377639906L479.62190005031516,293.0318681631553L479.75100419568537,293.0462412460401L481.719842412581,293.26274370478643L482.20398295771923,293.31444853271734L482.5590193574874,293.35214854062565L483.0915739571394,293.4105037625967L484.2857873018138,293.5427678968347L484.9151700104936,293.6113694913822L486.3030395732233,293.7623608752869L487.48111489972644,293.88919493751814L487.8845653540084,293.9319170399486L488.0943595902349,293.9539767074759L488.2396017537764,293.9690790952445L489.5145051893072,294.1042460073371L490.46664826141244,294.2071141001664L492.30638233293786,294.4024739381206L492.548452605507,294.428125973764L493.8233560410378,294.56173679474296L495.22736362193876,294.70551455905365L496.66364723918235,294.85660703472445L497.26075391151954,294.9185221310297L497.8255845475142,294.97709036779355L499.0197978921886,295.1004945308184L500.76270385468644,295.2765241789296L501.02091214542673,295.3021328895304L501.3598105270236,295.3360780604128L501.5050526905651,295.35103603137276L501.76326098130545,295.3776087241716L502.77995612609584,295.48184155584295L502.7960941442671,295.4834842970418L503.022026398665,295.5063851924797L505.0070026337319,295.7064638496578L505.18452083361586,295.7243209880522L506.79832265074344,295.8834755320681L507.879569868219,295.9895244051087L511.1071735024741,296.30844726457735L512.4627670288613,296.4397329749364L512.4950430652038,296.4428126633817L513.1567018102261,296.5054570645708L513.1728398283974,296.5069987140036L513.6408423553645,296.5510711135953L513.673118391707,296.55418329582255L515.2707821906633,296.7095685611316L517.6914849163546,296.94093511991224L518.7243180793163,297.0379362798885L518.8211461883438,297.0469623304316L518.9179742973715,297.05591617257033L518.9825263700567,297.0619094701309L518.998664388228,297.0634330674626L520.2090157510737,297.1759120989101L520.8545364779246,297.2372675800817L521.7421274773449,297.3206394037379L523.6786896578978,297.50100516653004L523.8077938032682,297.51297731997033L524.5824186754893,297.58417119623385L525.615251838451,297.6774716754875L525.6636658929649,297.6817752963864L526.1639444562744,297.7269163803624L526.3253246379871,297.7418743513224L526.4382907651861,297.75233734911194L526.7287750922691,297.7791411088046L527.6486421280317,297.8638487879412L528.3587149275679,297.92835977638265L529.7465844902976,298.05403128330397L531.2151441438837,298.1854361375302L531.2474201802262,298.18825587571985L531.7638367617071,298.23349083062146L532.0543210887901,298.25873127836013L536.6213802312611,298.66415980623356L537.0409687037142,298.70058172538495L537.7510415032503,298.7615869957955L538.6386325026705,298.8378101874216L539.6391896292896,298.9256589321472L539.8489838655162,298.9438626708824L541.3336815372736,299.072032588594L541.8016840642406,299.1122743323353L542.4310667729203,299.1663006604659L543.4800379540533,299.2551747645332L546.9497118608775,299.54807732549625L548.2246152964084,299.6548771659421L548.6442037688615,299.69001016507593L548.9992401686295,299.7195470128731L549.3058625138838,299.7448777211171L549.6286228773093,299.7713637638307L549.7093129681657,299.7779961057698L549.9675212589061,299.79907734941816L550.1611774769614,299.8147682356822L550.4193857677019,299.8356617374793L550.8551122583264,299.8711305056934L551.952497493973,299.9627376978651L552.9530546205922,300.0449289141103L553.0821587659624,300.055543549549L556.3097624002176,300.31697407747845L556.4227285274164,300.32588098415437L556.5679706909578,300.3373476787643L557.3748715995217,300.4021222278816L557.4232856540355,300.4060467546577L557.7621840356322,300.4336195338567L557.9558402536876,300.4494367848284L558.2624625989419,300.47427286550266L558.5690849441961,300.4988742688629L560.7638554154896,300.6740843515847L562.0710348873629,300.7769957694566L562.0871729055342,300.7782521956922L562.6358655233576,300.82061325610096L562.9424878686118,300.844182079279L563.6848367044905,300.9026961597396L564.8467740128224,300.9944694312413L564.9274641036787,301.0007660041002L565.347052576132,301.0335089050502L566.0894014120106,301.0914092140739L566.3314716845797,301.11015451584177L567.6547891746243,301.2125460332024L568.3487239559892,301.2654820144274L568.7683124284424,301.29707680174835L568.978106664669,301.31288322145934L569.4299711734647,301.34709917385806L570.1239059548295,301.4008041745893L572.2541243534379,301.56364856806715L572.3670904806369,301.57222331608307L572.4316425533219,301.57714431883915L574.0777204067921,301.70125973464684L574.7232411336431,301.74916640050924L576.2402148417431,301.8619306551539L576.466147096141,301.879051267824L576.7566314232239,301.9009592977021L577.4344281864174,301.95143658275924L579.0320919853738,302.06985836588433L581.8239691290045,302.2727964758745L582.6792840920821,302.3359210629525L584.599708254464,302.47548185644945L587.5368275616361,302.6848429040061L588.1339342339733,302.72716063937224L588.47283261557,302.75153097583853L589.0699392879072,302.7945238597853L589.6509079420732,302.8358126253895L592.216852831306,303.0168102117196L592.6364413037592,303.045986017495L593.2819620306102,303.09054943423627L594.0243108664889,303.1411278110594L595.0732820476218,303.2149536836613L595.1862481748208,303.2228966081392L595.315352320191,303.23192265868227L596.0899771924122,303.28557350311024L596.2352193559536,303.29561047131415L597.187362428059,303.3613128984273L597.3971566642855,303.3756282145886L599.7371692991205,303.53406789540145L599.9308255171758,303.5470365248217L600.4633801168279,303.58283384127554L601.1411768800215,303.62929994947126L602.1901480611544,303.7008043218735L603.3843614058288,303.7817030076809L604.1428482598787,303.8327543495525L604.7238169140447,303.87170356285594L605.1918194410117,303.9027892809263L605.6598219679787,303.933698088406L605.8696162042053,303.94737797060907L605.9180302587191,303.95054791955977L606.9831394580234,304.0211749598492L607.0315535125371,304.0244243380447L607.725488293902,304.07109624019284L608.5162511842946,304.12374338780046L609.419980201886,304.1838135593747L611.5501986004944,304.32362347186665L611.6631647276932,304.3309273519661L611.6793027458646,304.3319599321482L611.7922688730634,304.3392710330881L613.2931045629921,304.43653575374026L613.4867607810475,304.4492913683677L613.696555017274,304.46313732990075L613.809521144473,304.4705820163887L615.6492552159984,304.59047685096243L615.7138072886836,304.5946613279942L616.149533779308,304.62279733274704L616.1818098156506,304.62488776605284L617.263057033126,304.69454721372404L617.6342314510654,304.7181990765671L618.7638927230546,304.78916549635693L618.9252729047673,304.79952018153995L619.1996192136791,304.81723290312567L619.3125853408781,304.8245151207038L619.3609993953918,304.82762730293103L619.7644498496737,304.8536223284951L621.9592203209672,304.99374995796614L623.4439179927247,305.0874728563852L623.5568841199236,305.0945420591705L625.0093057553383,305.18422128694624L625.1545479188798,305.19338453345756L625.3482041369351,305.2056021954727L625.6548264821894,305.224903501954L625.9291727911011,305.24221185647536L626.1712430636702,305.25747310273357L626.8006257723499,305.29686278730355L626.9942819904053,305.30895769503127L627.3977324446871,305.3341295447858L627.8818729898254,305.3643198786423L627.9948391170244,305.3713529772254L628.9308441709584,305.4293615988556L629.6731930068371,305.47507312922596L629.9798153520912,305.49378954763205L630.0927814792902,305.5006782294065L630.835130315169,305.54554492144604L631.6743072600752,305.5967803947487L631.7227213145891,305.599744549747L632.2875519505836,305.63459593610395L634.3370802583357,305.75981975091827L634.3854943128496,305.76274419129425L635.2246712577559,305.8136583371976L635.2408092759271,305.8146331506563L635.579707657524,305.8351150645486L636.4672986569442,305.8881774104812L637.871306237845,305.9716467154833L637.8874442560164,305.9726143081015L638.5006889465249,306.0096211153281L638.742759219094,306.0241638879631L639.0655195825195,306.04351574032745L639.2107617460609,306.0522024113701L639.3560039096025,306.06087464073187L639.8401444547407,306.0898085483527L640.6309073451333,306.13698590933126L641.5184983445534,306.1896872132421L642.0349149260342,306.22013749735424L642.3899513258024,306.2409010240235L643.5680266523054,306.3090549264641L646.0210054143394,306.45326955162113L646.8117683047319,306.49939628031643L647.3927369588978,306.53318259270924L648.3932940855169,306.5910070829084L649.6359214847051,306.66141749798476L649.684335539219,306.6641830798711L650.9108249202359,306.73508451209705L651.2497233018327,306.75455911874883L651.3788274472029,306.7619785322952L651.5886216834296,306.77400845245904L651.6208977197721,306.7758678188709L651.7177258287998,306.7814062034841L652.7505589917614,306.8404979511795L653.2992516095846,306.8717425277394L653.3315276459273,306.87358384205015L653.3476656640986,306.87450088878535L654.7355352268282,306.95304197019095L654.7839492813421,306.9557570061943L655.2196757719665,306.97999014669233L657.9792768792547,307.13491327821356L658.0922430064536,307.1412459552746L659.1573522057578,307.2008720451621L659.2380422966141,307.2053814600134L660.9163961864269,307.2985014182562L661.1907424953386,307.3135243767801L662.271989712814,307.3723128491772L662.5947500762395,307.3902241438749L663.1918567485767,307.42330642432535L663.2564088212619,307.4268771299202L664.321518020566,307.4854814708862L665.1606949654723,307.53153238075697L665.4027652380415,307.54474651875205L665.6448355106107,307.55797509842796L665.903043801351,307.57210267273797L666.1128380375777,307.5835513152468L666.6776686735724,307.6142001724709L666.9842910188265,307.6307214553849L667.0972571460254,307.6367761300892L670.8574153799327,307.8390535331796L671.8256964702092,307.8909388821214L672.3098370153476,307.91682920549914L672.6164593606018,307.9331844090832L674.0527429778452,308.0086746854052L674.6821256865251,308.0416269907279L674.7466777592101,308.04506772119487L674.8919199227516,308.0528012413002L674.9887480317793,308.0579424796895L675.3921984860611,308.07938115493937L676.3120655218239,308.1280857236698L677.0060003031888,308.16466650131076L678.6682161748303,308.25188703291855L679.652635283278,308.3029167122689L680.5402262826982,308.3480866796066L681.0727808823503,308.3758255381356L682.8318248630194,308.46710779248775L682.928652972047,308.47211544532905L683.0738951355885,308.4796178985405L683.9453481168373,308.5245640198247L685.155699479683,308.5866343641993L685.7043920975065,308.61445265197307L686.8663294058383,308.67258402789065L688.2864750049106,308.7450198887089L689.8357247493531,308.8234562679282L690.1423470946072,308.83891247687814L690.8362818759721,308.8738577341607L691.9498051297901,308.9294293221443L695.4194790366145,309.101595820623L697.0494188719133,309.1821767894513L697.9370098713334,309.2256570801274L698.1790801439025,309.2374234396153L699.2926033977207,309.29103095900075L699.841296015544,309.3179683042415L701.0355093602184,309.37636685125517L701.2937176509588,309.38892028235045L701.4712358508428,309.39756723877076L702.0199284686662,309.4242590754367L703.3109699223683,309.4867879431789L704.2953890308161,309.5339761354181L704.3115270489874,309.53475237576475L704.5535973215565,309.54623712247576L705.2475321029214,309.57880672325535L705.5702924663468,309.5942809843064L706.2642272477117,309.62767015047535L706.344917338568,309.63154774178867L707.5068546468999,309.6871554339744L709.7823152090499,309.7952766882197L710.1534896269892,309.8127294595498L710.1696276451604,309.81348764779545L710.2180416996744,309.8157441604312L712.3643981164539,309.9158972172571L713.9136478608965,309.9886544054747L714.236408224322,310.0037387411423L714.8657909330017,310.03309506792857L715.0433091328857,310.041362930226L718.9325715121631,310.2204036687983L719.626506293528,310.25233422519955L720.2881650385503,310.2827014696466L721.4178263105396,310.3343954663169L721.8696908193353,310.3550362386988L722.6927297460704,310.3923138274417L724.2581175086841,310.4624173567996L724.3872216540543,310.4682842896526L724.7583960719937,310.48512509475586L724.8390861628501,310.4887914764864L725.1134324717618,310.50123298455503L725.9364713984969,310.5384004554813L726.5497160890053,310.5660273909835L729.632077559719,310.703302788483L729.8418717959456,310.7124479828932L731.0038091042775,310.7639578481324L732.6983010122614,310.83902390007887L734.1023085931624,310.9008794244505L734.2959648112177,310.9093891849026L734.8123813926985,310.9319849998321L735.2642459014943,310.95158777640154L736.6682534823952,311.01209119840183L736.829633664108,311.0191477647164L736.9264617731357,311.02338278763125L736.9910138458207,311.0262079414512L737.4912924091303,311.04805278897555L737.5235684454728,311.04946265807035L737.7495006998706,311.0593010531623L737.8463288088983,311.0635126083457L739.0244041354015,311.114641574252L742.0906275879439,311.2459868565446L743.0104946237066,311.2851093700185L743.1234607509056,311.2899653852107L744.430640222779,311.3458510797532L744.6888485135192,311.3568538353652L744.850228695232,311.36373710150934L745.1245750041437,311.3754095900716L746.3026503306468,311.42539766318924L746.7222388031,311.4431789827591L746.7383768212712,311.44385954697003L747.8680380932606,311.4912084029089L748.9654233289073,311.5367285810077L749.2236316196478,311.54759594586153L750.288740818952,311.59235974092485L751.0633656911732,311.62474521027343L751.3215739819136,311.6355403667229L751.7895765088806,311.6550907921992L752.1930269631625,311.6718936878902L752.4996493084167,311.68465291293785L752.5964774174444,311.6886803366902L754.8235239250805,311.7798380315449L754.9526280704507,311.7851814534664L755.9854612334124,311.82790897152717L756.4211877240367,311.8458527600068L758.5998201771589,311.93515469886984L758.7127863043579,311.9397796471681L759.0032706314408,311.9516434880019L760.6654865030822,312.018559016308L761.0527989391929,312.03395204290416L761.1496270482205,312.0378928165713L761.2141791209057,312.0405248129096L761.4401113753034,312.049706111522L762.4406685019226,312.09033597543663L763.5380537375694,312.1346322210818L763.9737802281937,312.1521878893881L765.038889427498,312.19497858980264L765.2486836637246,312.2033800376481L765.7651002452054,312.2239576276762L766.0555845722884,312.2354802837995L766.2169647540012,312.2418725327941L766.5558631355979,312.2551588791935L766.9593135898798,312.27088586965976L768.314907116267,312.3247461184604L769.4445683882562,312.36954962814605L770.3805734421903,312.4065871239445L771.0260941690412,312.4320568333669L771.4618206596657,312.44922618670995L771.9136851684615,312.46694973955636L772.9142422950806,312.5056227557132L773.527486985589,312.52921685183276L774.0600415852412,312.5501157692602L774.3343878941528,312.5608639902469L774.9637706028326,312.58547622486776L778.8691710002813,312.73647302440276L779.1273792910217,312.7462265746196L781.4512539076853,312.83520357566306L782.2904308525917,312.86730021139425L783.0005036521279,312.894387389074L783.5653342881226,312.9159054935687L784.0494748332608,312.93427531163394L784.4367872693715,312.9488632145216L784.824099705482,312.96339154547576L784.9532038508522,312.9682096512557L785.1307220507363,312.9747390962185L785.1468600689075,312.975329399924L785.5341725050182,312.98964652129547L786.1151411591841,313.011478732349L786.5508676498085,313.0279639110609L786.6154197224936,313.03040636033785L786.8574899950628,313.03956058079865L787.2770784675159,313.05539407866127L787.4545966674,313.06207335606314L787.632114867284,313.06873097094376L788.1646694669362,313.0887381145775L789.5364010114946,313.1401613297315L790.085093629318,313.16066671135525" fill="none"></path></g></g></g></g></g></g><g transform="translate(30, 378)" clip-path="url(#clip_1)"><clipPath id="clip_1"><rect width="887" height="21"></rect></clipPath><g><g><line x1="0" y1="0" x2="0" y2="5" style="visibility: inherit;" fill="rgb(0, 0, 0)" stroke="rgb(204, 204, 204)" stroke-width="1px"></line><line x1="80.69009085637873" y1="0" x2="80.69009085637873" y2="5" style="visibility: inherit;" fill="rgb(0, 0, 0)" stroke="rgb(204, 204, 204)" stroke-width="1px"></line><line x1="161.38018171275746" y1="0" x2="161.38018171275746" y2="5" style="visibility: inherit;" fill="rgb(0, 0, 0)" stroke="rgb(204, 204, 204)" stroke-width="1px"></line><line x1="242.07027256913616" y1="0" x2="242.07027256913616" y2="5" style="visibility: inherit;" fill="rgb(0, 0, 0)" stroke="rgb(204, 204, 204)" stroke-width="1px"></line><line x1="322.7603634255149" y1="0" x2="322.7603634255149" y2="5" style="visibility: inherit;" fill="rgb(0, 0, 0)" stroke="rgb(204, 204, 204)" stroke-width="1px"></line><line x1="403.4504542818936" y1="0" x2="403.4504542818936" y2="5" style="visibility: inherit;" fill="rgb(0, 0, 0)" stroke="rgb(204, 204, 204)" stroke-width="1px"></line><line x1="484.14054513827233" y1="0" x2="484.14054513827233" y2="5" style="visibility: inherit;" fill="rgb(0, 0, 0)" stroke="rgb(204, 204, 204)" stroke-width="1px"></line><line x1="564.8306359946511" y1="0" x2="564.8306359946511" y2="5" style="visibility: inherit;" fill="rgb(0, 0, 0)" stroke="rgb(204, 204, 204)" stroke-width="1px"></line><line x1="645.5207268510298" y1="0" x2="645.5207268510298" y2="5" style="visibility: inherit;" fill="rgb(0, 0, 0)" stroke="rgb(204, 204, 204)" stroke-width="1px"></line><line x1="726.2108177074085" y1="0" x2="726.2108177074085" y2="5" style="visibility: inherit;" fill="rgb(0, 0, 0)" stroke="rgb(204, 204, 204)" stroke-width="1px"></line><line x1="806.9009085637872" y1="0" x2="806.9009085637872" y2="5" style="visibility: inherit;" fill="rgb(0, 0, 0)" stroke="rgb(204, 204, 204)" stroke-width="1px"></line><line x1="887.590999420166" y1="0" x2="887.590999420166" y2="5" style="visibility: inherit;" fill="rgb(0, 0, 0)" stroke="rgb(204, 204, 204)" stroke-width="1px"></line></g><g transform="translate(0, 8)"><text style="text-anchor: middle; visibility: hidden; font-family: &quot;Helvetica Neue&quot;, sans-serif; font-size: 12px; font-weight: 200;" x="0" y="0" dx="0em" dy="0.95em" fill="rgb(50, 49, 63)" stroke="none" stroke-width="1px">-50k</text><text style="text-anchor: middle; visibility: inherit; font-family: &quot;Helvetica Neue&quot;, sans-serif; font-size: 12px; font-weight: 200;" x="80.69009085637873" y="0" dx="0em" dy="0.95em" fill="rgb(50, 49, 63)" stroke="none" stroke-width="1px">0</text><text style="text-anchor: middle; visibility: inherit; font-family: &quot;Helvetica Neue&quot;, sans-serif; font-size: 12px; font-weight: 200;" x="161.38018171275746" y="0" dx="0em" dy="0.95em" fill="rgb(50, 49, 63)" stroke="none" stroke-width="1px">50k</text><text style="text-anchor: middle; visibility: inherit; font-family: &quot;Helvetica Neue&quot;, sans-serif; font-size: 12px; font-weight: 200;" x="242.07027256913616" y="0" dx="0em" dy="0.95em" fill="rgb(50, 49, 63)" stroke="none" stroke-width="1px">100k</text><text style="text-anchor: middle; visibility: inherit; font-family: &quot;Helvetica Neue&quot;, sans-serif; font-size: 12px; font-weight: 200;" x="322.7603634255149" y="0" dx="0em" dy="0.95em" fill="rgb(50, 49, 63)" stroke="none" stroke-width="1px">150k</text><text style="text-anchor: middle; visibility: inherit; font-family: &quot;Helvetica Neue&quot;, sans-serif; font-size: 12px; font-weight: 200;" x="403.4504542818936" y="0" dx="0em" dy="0.95em" fill="rgb(50, 49, 63)" stroke="none" stroke-width="1px">200k</text><text style="text-anchor: middle; visibility: inherit; font-family: &quot;Helvetica Neue&quot;, sans-serif; font-size: 12px; font-weight: 200;" x="484.14054513827233" y="0" dx="0em" dy="0.95em" fill="rgb(50, 49, 63)" stroke="none" stroke-width="1px">250k</text><text style="text-anchor: middle; visibility: inherit; font-family: &quot;Helvetica Neue&quot;, sans-serif; font-size: 12px; font-weight: 200;" x="564.8306359946511" y="0" dx="0em" dy="0.95em" fill="rgb(50, 49, 63)" stroke="none" stroke-width="1px">300k</text><text style="text-anchor: middle; visibility: inherit; font-family: &quot;Helvetica Neue&quot;, sans-serif; font-size: 12px; font-weight: 200;" x="645.5207268510298" y="0" dx="0em" dy="0.95em" fill="rgb(50, 49, 63)" stroke="none" stroke-width="1px">350k</text><text style="text-anchor: middle; visibility: inherit; font-family: &quot;Helvetica Neue&quot;, sans-serif; font-size: 12px; font-weight: 200;" x="726.2108177074085" y="0" dx="0em" dy="0.95em" fill="rgb(50, 49, 63)" stroke="none" stroke-width="1px">400k</text><text style="text-anchor: middle; visibility: inherit; font-family: &quot;Helvetica Neue&quot;, sans-serif; font-size: 12px; font-weight: 200;" x="806.9009085637872" y="0" dx="0em" dy="0.95em" fill="rgb(50, 49, 63)" stroke="none" stroke-width="1px">450k</text><text style="text-anchor: middle; visibility: hidden; font-family: &quot;Helvetica Neue&quot;, sans-serif; font-size: 12px; font-weight: 200;" x="887.590999420166" y="0" dx="0em" dy="0.95em" fill="rgb(50, 49, 63)" stroke="none" stroke-width="1px">500k</text></g><line x1="0" y1="0" x2="887.590999420166" y2="0" fill="rgb(0, 0, 0)" stroke="rgb(204, 204, 204)" stroke-width="1px"></line></g></g></g></g></svg>